<svg width="50" height="49" viewBox="0 0 50 49" fill="none" xmlns="http://www.w3.org/2000/svg">
<g clip-path="url(#clip0_12068_3083)">
<path d="M26.0225 44.4571C38.4365 44.4571 48.5 34.7406 48.5 22.7547C48.5 10.7687 38.4365 1.05225 26.0225 1.05225C13.6085 1.05225 3.545 10.7687 3.545 22.7547C3.545 34.7406 13.6085 44.4571 26.0225 44.4571Z" fill="#DEB0AA"/>
<path d="M23.9775 47.2237C36.3915 47.2237 46.455 37.5072 46.455 25.5213C46.455 13.5354 36.3915 3.81885 23.9775 3.81885C11.5635 3.81885 1.5 13.5354 1.5 25.5213C1.5 37.5072 11.5635 47.2237 23.9775 47.2237Z" stroke="#923B37" stroke-width="2" stroke-linecap="round" stroke-linejoin="round"/>
<path d="M17.5875 19.3057C17.5875 20.9543 16.205 22.2891 14.4975 22.2891C12.79 22.2891 11.4075 20.9543 11.4075 19.3057" stroke="#923B37" stroke-width="2" stroke-linecap="round" stroke-linejoin="round"/>
<path d="M36.5475 19.3057C36.5475 20.9543 35.165 22.2891 33.4575 22.2891C31.75 22.2891 30.3675 20.9543 30.3675 19.3057" stroke="#923B37" stroke-width="2" stroke-linecap="round" stroke-linejoin="round"/>
<path d="M33.095 30.7854C32.6975 31.2947 31.8775 32.9216 30.035 32.9192C29.3175 32.9192 28.685 32.4895 28.19 31.9899C27.695 31.4902 27.2225 30.9157 26.55 30.6768C26.0625 30.503 25.5025 30.5295 25.0325 30.742C24.425 31.0171 24.005 31.5578 23.545 32.0285C23.085 32.4992 22.495 32.9409 21.825 32.912C21.425 32.8951 21.0525 32.7044 20.7375 32.4654C20.0475 31.9344 19.575 31.1137 18.745 30.7589C17.88 30.3871 16.72 30.713 16.1025 31.3792L14.8575 32.7454" stroke="#923B37" stroke-width="2" stroke-linecap="round" stroke-linejoin="round"/>
</g>
<defs>
<clipPath id="clip0_12068_3083">
<rect width="50" height="48.2759" fill="white"/>
</clipPath>
</defs>
</svg>
