<svg width="50" height="48" viewBox="0 0 50 48" fill="none" xmlns="http://www.w3.org/2000/svg">
<g clip-path="url(#clip0_12068_3173)">
<path d="M26.1675 43.9312C38.5014 43.9312 48.5 34.3636 48.5 22.5613C48.5 10.759 38.5014 1.19141 26.1675 1.19141C13.8336 1.19141 3.835 10.759 3.835 22.5613C3.835 34.3636 13.8336 43.9312 26.1675 43.9312Z" fill="#C3CAC0"/>
<path d="M23.8325 46.6534C36.1664 46.6534 46.165 37.0857 46.165 25.2835C46.165 13.4812 36.1664 3.91357 23.8325 3.91357C11.4986 3.91357 1.5 13.4812 1.5 25.2835C1.5 37.0857 11.4986 46.6534 23.8325 46.6534Z" stroke="#51715D" stroke-width="2" stroke-linecap="round" stroke-linejoin="round"/>
<path d="M13.8775 16.0854L9.38 21.2502C9.2325 21.4201 9.3575 21.6784 9.59 21.6784H13.9275L13.4975 24.9797C13.4625 25.2381 13.805 25.3816 13.98 25.1807L18.4775 20.0158C18.625 19.846 18.5 19.5876 18.2675 19.5876H13.93L14.36 16.2863C14.395 16.028 14.0525 15.8844 13.8775 16.0854Z" fill="#51715D"/>
<path d="M33.2025 16.0854L28.705 21.2502C28.5575 21.4201 28.6825 21.6784 28.915 21.6784H33.2525L32.8225 24.9797C32.7875 25.2381 33.13 25.3816 33.305 25.1807L37.8025 20.0158C37.95 19.846 37.825 19.5876 37.5925 19.5876H33.255L33.685 16.2863C33.72 16.028 33.3775 15.8844 33.2025 16.0854Z" fill="#51715D"/>
<path d="M30.455 31.396C30.71 35.0777 27.6125 38.2235 23.8375 38.2258C20.0575 38.2282 16.955 35.08 17.21 31.396H30.455Z" stroke="#51715D" stroke-width="2" stroke-linecap="round" stroke-linejoin="round"/>
</g>
<defs>
<clipPath id="clip0_12068_3173">
<rect width="50" height="47.8448" fill="white"/>
</clipPath>
</defs>
</svg>
