<svg width="50" height="48" viewBox="0 0 50 48" fill="none" xmlns="http://www.w3.org/2000/svg">
<g clip-path="url(#clip0_12068_3065)">
<path d="M26.1675 43.9312C38.5014 43.9312 48.5 34.3636 48.5 22.5613C48.5 10.759 38.5014 1.19141 26.1675 1.19141C13.8336 1.19141 3.835 10.759 3.835 22.5613C3.835 34.3636 13.8336 43.9312 26.1675 43.9312Z" fill="#DEB0AA"/>
<path d="M17.1975 31.5801L30.47 31.6375" stroke="#923B37" stroke-width="2" stroke-linecap="round" stroke-linejoin="round"/>
<path d="M23.8325 46.6534C36.1664 46.6534 46.165 37.0857 46.165 25.2835C46.165 13.4812 36.1664 3.91357 23.8325 3.91357C11.4986 3.91357 1.5 13.4812 1.5 25.2835C1.5 37.0857 11.4986 46.6534 23.8325 46.6534Z" stroke="#923B37" stroke-width="2" stroke-linecap="round" stroke-linejoin="round"/>
<path d="M12.685 22.4677C12.51 22.4677 12.3625 22.3266 12.3725 22.1591C12.4725 20.5563 13.35 19.3052 14.415 19.3052C15.48 19.3052 16.3575 20.5563 16.4575 22.1591C16.4675 22.3266 16.32 22.4677 16.145 22.4677H12.685Z" fill="#923B37"/>
<path d="M33.26 23.7073C34.2583 23.7073 35.0675 22.4606 35.0675 20.9228C35.0675 19.3849 34.2583 18.1382 33.26 18.1382C32.2617 18.1382 31.4525 19.3849 31.4525 20.9228C31.4525 22.4606 32.2617 23.7073 33.26 23.7073Z" fill="#923B37"/>
</g>
<defs>
<clipPath id="clip0_12068_3065">
<rect width="50" height="47.8448" fill="white"/>
</clipPath>
</defs>
</svg>
