<svg width="50" height="48" viewBox="0 0 50 48" fill="none" xmlns="http://www.w3.org/2000/svg">
<g clip-path="url(#clip0_12068_3130)">
<path d="M26.1675 43.9312C38.5014 43.9312 48.5 34.3636 48.5 22.5613C48.5 10.759 38.5014 1.19141 26.1675 1.19141C13.8336 1.19141 3.83501 10.759 3.83501 22.5613C3.83501 34.3636 13.8336 43.9312 26.1675 43.9312Z" fill="#DEB0AA"/>
<path d="M23.8325 46.6534C36.1664 46.6534 46.165 37.0857 46.165 25.2835C46.165 13.4812 36.1664 3.91357 23.8325 3.91357C11.4986 3.91357 1.5 13.4812 1.5 25.2835C1.5 37.0857 11.4986 46.6534 23.8325 46.6534Z" stroke="#923B37" stroke-width="2" stroke-linecap="round" stroke-linejoin="round"/>
<path d="M30.455 34.6254C30.2425 34.3503 27.8 31.2811 23.5925 31.3983C19.6775 31.5083 17.47 34.2857 17.21 34.6254" stroke="#923B37" stroke-width="2" stroke-linecap="round" stroke-linejoin="round"/>
<path d="M31.5225 22.4584C31.3475 22.4584 31.2 22.3173 31.21 22.1498C31.31 20.547 32.1875 19.2959 33.2525 19.2959C34.3175 19.2959 35.195 20.547 35.295 22.1498C35.305 22.3173 35.1575 22.4584 34.9825 22.4584H31.5225Z" fill="#923B37"/>
<path d="M12.685 22.4677C12.51 22.4677 12.3625 22.3266 12.3725 22.1591C12.4725 20.5563 13.35 19.3052 14.415 19.3052C15.48 19.3052 16.3575 20.5563 16.4575 22.1591C16.4675 22.3266 16.32 22.4677 16.145 22.4677H12.685Z" fill="#923B37"/>
</g>
<defs>
<clipPath id="clip0_12068_3130">
<rect width="50" height="47.8448" fill="white"/>
</clipPath>
</defs>
</svg>
