<svg width="50" height="49" viewBox="0 0 50 49" fill="none" xmlns="http://www.w3.org/2000/svg">
<g clip-path="url(#clip0_12068_3156)">
<path d="M26.1675 44.327C38.5014 44.327 48.5 34.6732 48.5 22.7646C48.5 10.856 38.5014 1.20215 26.1675 1.20215C13.8336 1.20215 3.835 10.856 3.835 22.7646C3.835 34.6732 13.8336 44.327 26.1675 44.327Z" fill="#DEB0AA"/>
<path d="M17.1975 31.8643L30.47 31.9222" stroke="#923B37" stroke-width="2" stroke-linecap="round" stroke-linejoin="round"/>
<path d="M30.67 21.1157H35.935" stroke="#923B37" stroke-width="2" stroke-linecap="round" stroke-linejoin="round"/>
<path d="M11.8325 21.1157H17.0975" stroke="#923B37" stroke-width="2" stroke-linecap="round" stroke-linejoin="round"/>
<path d="M23.8327 47.0741C36.1666 47.0741 46.1652 37.4202 46.1652 25.5116C46.1652 13.603 36.1666 3.94922 23.8327 3.94922C11.4988 3.94922 1.5002 13.603 1.5002 25.5116C1.5002 37.4202 11.4988 47.0741 23.8327 47.0741Z" stroke="#923B37" stroke-width="2" stroke-linecap="round" stroke-linejoin="round"/>
</g>
<defs>
<clipPath id="clip0_12068_3156">
<rect width="50" height="48.2759" fill="white"/>
</clipPath>
</defs>
</svg>
