<svg width="50" height="48" viewBox="0 0 50 48" fill="none" xmlns="http://www.w3.org/2000/svg">
<g clip-path="url(#clip0_12068_3181)">
<path d="M26.0225 44.0602C38.4365 44.0602 48.5 34.4305 48.5 22.5516C48.5 10.6727 38.4365 1.04297 26.0225 1.04297C13.6085 1.04297 3.545 10.6727 3.545 22.5516C3.545 34.4305 13.6085 44.0602 26.0225 44.0602Z" fill="#DEB0AA"/>
<path d="M23.9775 46.802C36.3915 46.802 46.455 37.1722 46.455 25.2933C46.455 13.4144 36.3915 3.78467 23.9775 3.78467C11.5635 3.78467 1.5 13.4144 1.5 25.2933C1.5 37.1722 11.5635 46.802 23.9775 46.802Z" stroke="#923B37" stroke-width="2" stroke-linecap="round" stroke-linejoin="round"/>
<path d="M30.635 34.1972C30.4225 33.9197 27.9775 30.8194 23.745 30.9199C19.805 31.0132 17.57 33.7977 17.305 34.1398" stroke="#923B37" stroke-width="2" stroke-linecap="round" stroke-linejoin="round"/>
<path d="M17.5875 19.1333C17.5875 20.7672 16.205 22.0901 14.4975 22.0901C12.79 22.0901 11.4075 20.7672 11.4075 19.1333" stroke="#923B37" stroke-width="2" stroke-linecap="round" stroke-linejoin="round"/>
<path d="M36.5475 19.1333C36.5475 20.7672 35.165 22.0901 33.4575 22.0901C31.75 22.0901 30.3675 20.7672 30.3675 19.1333" stroke="#923B37" stroke-width="2" stroke-linecap="round" stroke-linejoin="round"/>
</g>
<defs>
<clipPath id="clip0_12068_3181">
<rect width="50" height="47.8448" fill="white"/>
</clipPath>
</defs>
</svg>
