<svg width="50" height="49" viewBox="0 0 50 49" fill="none" xmlns="http://www.w3.org/2000/svg">
<g clip-path="url(#clip0_12068_3072)">
<path d="M26.1675 44.327C38.5014 44.327 48.5 34.6732 48.5 22.7646C48.5 10.856 38.5014 1.20215 26.1675 1.20215C13.8336 1.20215 3.835 10.856 3.835 22.7646C3.835 34.6732 13.8336 44.327 26.1675 44.327Z" fill="#DEB0AA"/>
<g opacity="0.7" style="mix-blend-mode:multiply">
<path d="M10.635 30.2544C12.3802 30.2544 13.795 28.8884 13.795 27.2034C13.795 25.5183 12.3802 24.1523 10.635 24.1523C8.88978 24.1523 7.475 25.5183 7.475 27.2034C7.475 28.8884 8.88978 30.2544 10.635 30.2544Z" fill="#D08D85"/>
</g>
<g opacity="0.7" style="mix-blend-mode:multiply">
<path d="M37.0775 30.2544C38.8227 30.2544 40.2375 28.8884 40.2375 27.2034C40.2375 25.5183 38.8227 24.1523 37.0775 24.1523C35.3323 24.1523 33.9175 25.5183 33.9175 27.2034C33.9175 28.8884 35.3323 30.2544 37.0775 30.2544Z" fill="#D08D85"/>
</g>
<path d="M23.8325 47.0741C36.1664 47.0741 46.165 37.4202 46.165 25.5116C46.165 13.603 36.1664 3.94922 23.8325 3.94922C11.4986 3.94922 1.5 13.603 1.5 25.5116C1.5 37.4202 11.4986 47.0741 23.8325 47.0741Z" stroke="#923B37" stroke-width="2" stroke-linecap="round" stroke-linejoin="round"/>
<path d="M31.5225 22.6608C31.3475 22.6608 31.2 22.5183 31.21 22.3494C31.31 20.7321 32.1875 19.4697 33.2525 19.4697C34.3175 19.4697 35.195 20.7321 35.295 22.3494C35.305 22.5183 35.1575 22.6608 34.9825 22.6608H31.5225Z" fill="#923B37"/>
<path d="M12.685 22.6705C12.51 22.6705 12.3625 22.5281 12.3725 22.3591C12.4725 20.7419 13.35 19.4795 14.415 19.4795C15.48 19.4795 16.3575 20.7419 16.4575 22.3591C16.4675 22.5281 16.32 22.6705 16.145 22.6705H12.685Z" fill="#923B37"/>
<path d="M17.1975 31.8647L30.47 31.9227" stroke="#923B37" stroke-width="2" stroke-linecap="round" stroke-linejoin="round"/>
</g>
<defs>
<clipPath id="clip0_12068_3072">
<rect width="50" height="48.2759" fill="white"/>
</clipPath>
</defs>
</svg>
