<svg width="50" height="48" viewBox="0 0 50 48" fill="none" xmlns="http://www.w3.org/2000/svg">
<g clip-path="url(#clip0_12068_3198)">
<path d="M26.1675 43.9312C38.5014 43.9312 48.5 34.3636 48.5 22.5613C48.5 10.759 38.5014 1.19141 26.1675 1.19141C13.8336 1.19141 3.835 10.759 3.835 22.5613C3.835 34.3636 13.8336 43.9312 26.1675 43.9312Z" fill="#C3CAC0"/>
<path d="M29.805 30.2832C27.5625 34.4864 22.035 35.0605 17.86 34.039" stroke="#51715D" stroke-width="2" stroke-linecap="round" stroke-linejoin="round"/>
<path d="M23.8325 46.6534C36.1664 46.6534 46.165 37.0857 46.165 25.2835C46.165 13.4812 36.1664 3.91357 23.8325 3.91357C11.4986 3.91357 1.5 13.4812 1.5 25.2835C1.5 37.0857 11.4986 46.6534 23.8325 46.6534Z" stroke="#51715D" stroke-width="2" stroke-linecap="round" stroke-linejoin="round"/>
<path d="M16.145 19.6953C16.32 19.6953 16.4675 19.8365 16.4575 20.0039C16.3575 21.6067 15.48 22.8579 14.415 22.8579C13.35 22.8579 12.4725 21.6067 12.3725 20.0039C12.3625 19.8365 12.51 19.6953 12.685 19.6953H16.145Z" fill="#51715D"/>
<path d="M34.9825 19.6836C35.1575 19.6836 35.305 19.8247 35.295 19.9922C35.195 21.595 34.3175 22.8461 33.2525 22.8461C32.1875 22.8461 31.31 21.595 31.21 19.9922C31.2 19.8247 31.3475 19.6836 31.5225 19.6836H34.9825Z" fill="#51715D"/>
</g>
<defs>
<clipPath id="clip0_12068_3198">
<rect width="50" height="47.8448" fill="white"/>
</clipPath>
</defs>
</svg>
