<svg width="50" height="48" viewBox="0 0 50 48" fill="none" xmlns="http://www.w3.org/2000/svg">
<g clip-path="url(#clip0_12068_3106)">
<path d="M26.1675 43.9312C38.5014 43.9312 48.5 34.3636 48.5 22.5613C48.5 10.759 38.5014 1.19141 26.1675 1.19141C13.8336 1.19141 3.835 10.759 3.835 22.5613C3.835 34.3636 13.8336 43.9312 26.1675 43.9312Z" fill="#DEB0AA"/>
<path d="M23.8325 46.6534C36.1664 46.6534 46.165 37.0857 46.165 25.2835C46.165 13.4812 36.1664 3.91357 23.8325 3.91357C11.4986 3.91357 1.5 13.4812 1.5 25.2835C1.5 37.0857 11.4986 46.6534 23.8325 46.6534Z" stroke="#923B37" stroke-width="2" stroke-linecap="round" stroke-linejoin="round"/>
<path d="M14.415 23.4178C15.4133 23.4178 16.2225 22.1711 16.2225 20.6332C16.2225 19.0953 15.4133 17.8486 14.415 17.8486C13.4167 17.8486 12.6075 19.0953 12.6075 20.6332C12.6075 22.1711 13.4167 23.4178 14.415 23.4178Z" fill="#923B37"/>
<path d="M33.2525 23.4178C34.2508 23.4178 35.06 22.1711 35.06 20.6332C35.06 19.0953 34.2508 17.8486 33.2525 17.8486C32.2542 17.8486 31.445 19.0953 31.445 20.6332C31.445 22.1711 32.2542 23.4178 33.2525 23.4178Z" fill="#923B37"/>
<path d="M17.21 34.8093C16.955 31.1277 20.0525 27.9819 23.8275 27.9795C27.6075 27.9771 30.71 31.1253 30.455 34.8093H17.21Z" stroke="#923B37" stroke-width="2" stroke-linecap="round" stroke-linejoin="round"/>
</g>
<defs>
<clipPath id="clip0_12068_3106">
<rect width="50" height="47.8448" fill="white"/>
</clipPath>
</defs>
</svg>
