<svg width="50" height="49" viewBox="0 0 50 49" fill="none" xmlns="http://www.w3.org/2000/svg">
<g clip-path="url(#clip0_12068_3057)">
<path d="M26.1675 44.327C38.5014 44.327 48.5 34.6732 48.5 22.7646C48.5 10.856 38.5014 1.20215 26.1675 1.20215C13.8336 1.20215 3.835 10.856 3.835 22.7646C3.835 34.6732 13.8336 44.327 26.1675 44.327Z" fill="#DEB0AA"/>
<path d="M23.8327 47.0741C36.1666 47.0741 46.1652 37.4202 46.1652 25.5116C46.1652 13.603 36.1666 3.94922 23.8327 3.94922C11.4988 3.94922 1.5002 13.603 1.5002 25.5116C1.5002 37.4202 11.4988 47.0741 23.8327 47.0741Z" stroke="#923B37" stroke-width="2" stroke-linecap="round" stroke-linejoin="round"/>
<path d="M31.5225 22.6608C31.3475 22.6608 31.2 22.5183 31.21 22.3494C31.31 20.7321 32.1875 19.4697 33.2525 19.4697C34.3175 19.4697 35.195 20.7321 35.295 22.3494C35.305 22.5183 35.1575 22.6608 34.9825 22.6608H31.5225Z" fill="#923B37"/>
<path d="M12.685 22.6705C12.51 22.6705 12.3625 22.5281 12.3725 22.3591C12.4725 20.7419 13.35 19.4795 14.415 19.4795C15.48 19.4795 16.3575 20.7419 16.4575 22.3591C16.4675 22.5281 16.32 22.6705 16.145 22.6705H12.685Z" fill="#923B37"/>
<path d="M32.8925 30.945C32.4975 31.4495 31.685 33.0668 29.8525 33.0644C29.14 33.0644 28.5125 32.6371 28.02 32.1399C27.5275 31.6426 27.06 31.073 26.39 30.834C25.905 30.6602 25.35 30.6868 24.8825 30.8992C24.28 31.1719 23.86 31.7078 23.405 32.1761C22.9475 32.6444 22.3625 33.0837 21.6975 33.0547C21.3 33.0378 20.93 32.8495 20.6175 32.6106C19.9325 32.0844 19.4625 31.2661 18.64 30.9137C17.78 30.5444 16.6275 30.8678 16.0125 31.5292L14.775 32.8881" stroke="#923B37" stroke-width="2" stroke-linecap="round" stroke-linejoin="round"/>
</g>
<defs>
<clipPath id="clip0_12068_3057">
<rect width="50" height="48.2759" fill="white"/>
</clipPath>
</defs>
</svg>
