<svg width="50" height="48" viewBox="0 0 50 48" fill="none" xmlns="http://www.w3.org/2000/svg">
<g clip-path="url(#clip0_12068_3123)">
<path d="M26.1675 43.9312C38.5014 43.9312 48.5 34.3636 48.5 22.5613C48.5 10.759 38.5014 1.19141 26.1675 1.19141C13.8336 1.19141 3.83501 10.759 3.83501 22.5613C3.83501 34.3636 13.8336 43.9312 26.1675 43.9312Z" fill="#DEB0AA"/>
<path d="M23.8325 46.6534C36.1664 46.6534 46.165 37.0857 46.165 25.2835C46.165 13.4812 36.1664 3.91357 23.8325 3.91357C11.4986 3.91357 1.5 13.4812 1.5 25.2835C1.5 37.0857 11.4986 46.6534 23.8325 46.6534Z" stroke="#923B37" stroke-width="2" stroke-linecap="round" stroke-linejoin="round"/>
<path d="M17.1975 31.3384L30.47 31.3958" stroke="#923B37" stroke-width="2" stroke-linecap="round" stroke-linejoin="round"/>
<path d="M16.145 20.4561C16.32 20.4561 16.4675 20.5972 16.4575 20.7647C16.3575 22.3675 15.48 23.6186 14.415 23.6186C13.35 23.6186 12.4725 22.3675 12.3725 20.7647C12.3625 20.5972 12.51 20.4561 12.685 20.4561H16.145Z" fill="#923B37"/>
<path d="M34.9825 20.4443C35.1575 20.4443 35.305 20.5855 35.295 20.7529C35.195 22.3557 34.3175 23.6069 33.2525 23.6069C32.1875 23.6069 31.31 22.3557 31.21 20.7529C31.2 20.5855 31.3475 20.4443 31.5225 20.4443H34.9825Z" fill="#923B37"/>
</g>
<defs>
<clipPath id="clip0_12068_3123">
<rect width="50" height="47.8448" fill="white"/>
</clipPath>
</defs>
</svg>
