<svg width="50" height="48" viewBox="0 0 50 48" fill="none" xmlns="http://www.w3.org/2000/svg">
<g clip-path="url(#clip0_12068_3090)">
<path d="M26.1675 43.9312C38.5014 43.9312 48.5 34.3636 48.5 22.5613C48.5 10.759 38.5014 1.19141 26.1675 1.19141C13.8336 1.19141 3.83501 10.759 3.83501 22.5613C3.83501 34.3636 13.8336 43.9312 26.1675 43.9312Z" fill="#C3CAC0"/>
<path d="M14.415 22.6521C15.4133 22.6521 16.2225 21.4055 16.2225 19.8676C16.2225 18.3297 15.4133 17.083 14.415 17.083C13.4167 17.083 12.6075 18.3297 12.6075 19.8676C12.6075 21.4055 13.4167 22.6521 14.415 22.6521Z" fill="#51715D"/>
<path d="M23.8325 46.6534C36.1664 46.6534 46.165 37.0857 46.165 25.2835C46.165 13.4812 36.1664 3.91357 23.8325 3.91357C11.4986 3.91357 1.5 13.4812 1.5 25.2835C1.5 37.0857 11.4986 46.6534 23.8325 46.6534Z" stroke="#51715D" stroke-width="2" stroke-linecap="round" stroke-linejoin="round"/>
<path d="M30.455 30.2832C28.2125 34.4864 22.685 35.0605 18.51 34.039" stroke="#51715D" stroke-width="2" stroke-linecap="round" stroke-linejoin="round"/>
<path d="M30.18 21.3366C30.18 19.7147 31.555 18.3989 33.25 18.3989C34.945 18.3989 36.32 19.7147 36.32 21.3366" stroke="#51715D" stroke-width="2" stroke-linecap="round" stroke-linejoin="round"/>
</g>
<defs>
<clipPath id="clip0_12068_3090">
<rect width="50" height="47.8448" fill="white"/>
</clipPath>
</defs>
</svg>
