<svg width="50" height="48" viewBox="0 0 50 48" fill="none" xmlns="http://www.w3.org/2000/svg">
<g clip-path="url(#clip0_12068_3142)">
<path d="M26.1675 43.9312C38.5014 43.9312 48.5 34.3636 48.5 22.5613C48.5 10.759 38.5014 1.19141 26.1675 1.19141C13.8336 1.19141 3.83501 10.759 3.83501 22.5613C3.83501 34.3636 13.8336 43.9312 26.1675 43.9312Z" fill="#DEB0AA"/>
<path d="M23.8325 46.6534C36.1664 46.6534 46.165 37.0857 46.165 25.2835C46.165 13.4812 36.1664 3.91357 23.8325 3.91357C11.4986 3.91357 1.5 13.4812 1.5 25.2835C1.5 37.0857 11.4986 46.6534 23.8325 46.6534Z" stroke="#923B37" stroke-width="2" stroke-linecap="round" stroke-linejoin="round"/>
<path d="M14.61 20.8745C14.62 19.9296 13.635 19.6903 12.9325 20.2238C11.9425 20.9774 12.605 22.451 13.5825 22.9079C14.78 23.4677 16.0225 22.7716 16.45 21.6568C17.18 19.7549 15.955 17.6809 13.7225 17.7431C11.6625 17.8005 10.065 19.4894 10.0925 21.4271C10.12 23.2668 11.55 24.8074 13.4025 25.1901C14.715 25.4604 16.1725 25.1471 17.265 24.3744C18.57 23.451 19.12 21.896 19.1175 20.3889" stroke="#923B37" stroke-width="2" stroke-linecap="round" stroke-linejoin="round"/>
<path d="M33.4475 20.8745C33.4575 19.9296 32.4725 19.6903 31.77 20.2238C30.78 20.9774 31.4425 22.451 32.42 22.9079C33.6175 23.4677 34.86 22.7716 35.2875 21.6568C36.0175 19.7549 34.7925 17.6809 32.56 17.7431C30.5 17.8005 28.9025 19.4894 28.93 21.4271C28.9575 23.2668 30.3875 24.8074 32.24 25.1901C33.5525 25.4604 35.01 25.1471 36.1025 24.3744C37.4075 23.451 37.9575 21.896 37.955 20.3889" stroke="#923B37" stroke-width="2" stroke-linecap="round" stroke-linejoin="round"/>
<path d="M17.215 35.0559C16.96 31.3743 20.0575 28.2285 23.8325 28.2261C27.6125 28.2237 30.715 31.3719 30.46 35.0559H17.215Z" stroke="#923B37" stroke-width="2" stroke-linecap="round" stroke-linejoin="round"/>
</g>
<defs>
<clipPath id="clip0_12068_3142">
<rect width="50" height="47.8448" fill="white"/>
</clipPath>
</defs>
</svg>
