<svg width="51" height="50" viewBox="0 0 51 50" fill="none" xmlns="http://www.w3.org/2000/svg">
<path d="M27.242 45.4679C40.3632 45.4679 51 35.2896 51 22.734C51 10.1783 40.3632 0 27.242 0C14.1208 0 3.48396 10.1783 3.48396 22.734C3.48396 35.2896 14.1208 45.4679 27.242 45.4679Z" fill="#C3CAC0"/>
<path d="M24.758 48.3639C37.8792 48.3639 48.516 38.1856 48.516 25.63C48.516 13.0743 37.8792 2.896 24.758 2.896C11.6368 2.896 1 13.0743 1 25.63C1 38.1856 11.6368 48.3639 24.758 48.3639Z" stroke="#51715D" stroke-width="2" stroke-linecap="round" stroke-linejoin="round"/>
<path d="M14.739 23.6448C15.801 23.6448 16.6619 22.3186 16.6619 20.6825C16.6619 19.0465 15.801 17.7202 14.739 17.7202C13.677 17.7202 12.8161 19.0465 12.8161 20.6825C12.8161 22.3186 13.677 23.6448 14.739 23.6448Z" fill="#51715D"/>
<path d="M34.779 23.6448C35.841 23.6448 36.7019 22.3186 36.7019 20.6825C36.7019 19.0465 35.841 17.7202 34.779 17.7202C33.717 17.7202 32.8561 19.0465 32.8561 20.6825C32.8561 22.3186 33.717 23.6448 34.779 23.6448Z" fill="#51715D"/>
<path d="M17.7124 32.1323C17.9384 32.425 20.5369 35.6902 25.0129 35.5654C29.1778 35.4484 31.5262 32.4937 31.8028 32.1323" stroke="#51715D" stroke-width="2" stroke-linecap="round" stroke-linejoin="round"/>
</svg>
