<svg width="50" height="48" viewBox="0 0 50 48" fill="none" xmlns="http://www.w3.org/2000/svg">
<g clip-path="url(#clip0_12068_3166)">
<path d="M26.1675 43.9312C38.5014 43.9312 48.5 34.3636 48.5 22.5613C48.5 10.759 38.5014 1.19141 26.1675 1.19141C13.8336 1.19141 3.83501 10.759 3.83501 22.5613C3.83501 34.3636 13.8336 43.9312 26.1675 43.9312Z" fill="#C3CAC0"/>
<path d="M23.8325 46.6534C36.1664 46.6534 46.165 37.0857 46.165 25.2835C46.165 13.4812 36.1664 3.91357 23.8325 3.91357C11.4986 3.91357 1.5 13.4812 1.5 25.2835C1.5 37.0857 11.4986 46.6534 23.8325 46.6534Z" stroke="#51715D" stroke-width="2" stroke-linecap="round" stroke-linejoin="round"/>
<path d="M30.0975 31.1255C30.3525 34.8071 27.255 37.9529 23.48 37.9553C19.7 37.9577 16.5975 34.8095 16.8525 31.1255H30.0975Z" stroke="#51715D" stroke-width="2" stroke-linecap="round" stroke-linejoin="round"/>
<path d="M13.9275 16.437L15.015 19.6426H18.54L15.6875 21.6258L16.7775 24.8314L13.9275 22.8506L11.075 24.8314L12.165 21.6258L9.315 19.6426H12.8375L13.9275 16.437Z" stroke="#51715D" stroke-width="2" stroke-linecap="round" stroke-linejoin="round"/>
<path d="M33.2525 16.437L34.34 19.6426H37.865L35.0125 21.6258L36.1025 24.8314L33.2525 22.8506L30.4 24.8314L31.49 21.6258L28.64 19.6426H32.1625L33.2525 16.437Z" stroke="#51715D" stroke-width="2" stroke-linecap="round" stroke-linejoin="round"/>
</g>
<defs>
<clipPath id="clip0_12068_3166">
<rect width="50" height="47.8448" fill="white"/>
</clipPath>
</defs>
</svg>
