<svg width="50" height="48" viewBox="0 0 50 48" fill="none" xmlns="http://www.w3.org/2000/svg">
<g clip-path="url(#clip0_12068_3228)">
<path d="M26.1676 43.9312C38.5015 43.9312 48.5001 34.3636 48.5001 22.5613C48.5001 10.759 38.5015 1.19141 26.1676 1.19141C13.8337 1.19141 3.83511 10.759 3.83511 22.5613C3.83511 34.3636 13.8337 43.9312 26.1676 43.9312Z" fill="#C3CAC0"/>
<path d="M23.8327 46.6534C36.1666 46.6534 46.1652 37.0857 46.1652 25.2835C46.1652 13.4812 36.1666 3.91357 23.8327 3.91357C11.4988 3.91357 1.5002 13.4812 1.5002 25.2835C1.5002 37.0857 11.4988 46.6534 23.8327 46.6534Z" stroke="#51715D" stroke-width="2" stroke-linecap="round" stroke-linejoin="round"/>
<path d="M14.4148 23.4178C15.4131 23.4178 16.2223 22.1711 16.2223 20.6332C16.2223 19.0953 15.4131 17.8486 14.4148 17.8486C13.4166 17.8486 12.6073 19.0953 12.6073 20.6332C12.6073 22.1711 13.4166 23.4178 14.4148 23.4178Z" fill="#51715D"/>
<path d="M33.2524 23.4178C34.2506 23.4178 35.0599 22.1711 35.0599 20.6332C35.0599 19.0953 34.2506 17.8486 33.2524 17.8486C32.2541 17.8486 31.4449 19.0953 31.4449 20.6332C31.4449 22.1711 32.2541 23.4178 33.2524 23.4178Z" fill="#51715D"/>
<path d="M17.2098 31.396C17.4223 31.6711 19.8648 34.7403 24.0723 34.6231C27.9873 34.5131 30.1948 31.7357 30.4548 31.396" stroke="#51715D" stroke-width="2" stroke-linecap="round" stroke-linejoin="round"/>
</g>
<defs>
<clipPath id="clip0_12068_3228">
<rect width="50" height="47.8448" fill="white"/>
</clipPath>
</defs>
</svg>
