<svg width="50" height="48" viewBox="0 0 50 48" fill="none" xmlns="http://www.w3.org/2000/svg">
<g clip-path="url(#clip0_12068_3115)">
<path d="M26.1675 43.9312C38.5014 43.9312 48.5 34.3636 48.5 22.5613C48.5 10.759 38.5014 1.19141 26.1675 1.19141C13.8336 1.19141 3.835 10.759 3.835 22.5613C3.835 34.3636 13.8336 43.9312 26.1675 43.9312Z" fill="#DEB0AA"/>
<path d="M23.8325 46.6534C36.1664 46.6534 46.165 37.0857 46.165 25.2835C46.165 13.4812 36.1664 3.91357 23.8325 3.91357C11.4986 3.91357 1.5 13.4812 1.5 25.2835C1.5 37.0857 11.4986 46.6534 23.8325 46.6534Z" stroke="#923B37" stroke-width="2" stroke-linecap="round" stroke-linejoin="round"/>
<path d="M17.485 19.3652C17.485 20.9872 16.11 22.3029 14.415 22.3029C12.72 22.3029 11.345 20.9872 11.345 19.3652" stroke="#923B37" stroke-width="2" stroke-linecap="round" stroke-linejoin="round"/>
<path d="M36.3225 19.3652C36.3225 20.9872 34.9475 22.3029 33.2525 22.3029C31.5575 22.3029 30.1825 20.9872 30.1825 19.3652" stroke="#923B37" stroke-width="2" stroke-linecap="round" stroke-linejoin="round"/>
<path d="M30.47 34.6253V37.8405C30.47 38.6897 29.805 39.4505 28.92 39.4959C27.9725 39.5438 27.185 38.8261 27.185 37.929V36.1037C27.185 35.5248 26.695 35.0559 26.09 35.0559H17.2125C16.955 31.3767 20.05 28.2309 23.83 28.2261C26.4925 28.2261 28.8175 29.7858 29.8675 31.9986H29.8725C30.255 32.8048 30.4675 33.6947 30.4675 34.6253H30.47Z" stroke="#923B37" stroke-width="2" stroke-linecap="round" stroke-linejoin="round"/>
</g>
<defs>
<clipPath id="clip0_12068_3115">
<rect width="50" height="47.8448" fill="white"/>
</clipPath>
</defs>
</svg>
