<svg width="65" height="65" viewBox="0 0 65 65" fill="none" xmlns="http://www.w3.org/2000/svg">
<path d="M45.9095 8.61229C41.8801 7.73835 37.6869 8.00394 33.8 9.37929C30.173 10.7898 27.8525 13.2143 27.3 16.1978C27.1199 17.0709 27.1 17.9696 27.2415 18.8498C26.7761 19.6122 26.4483 20.4504 26.273 21.3263C26.2001 21.6993 26.1567 22.0775 26.143 22.4573C24.0336 22.2142 21.9018 22.2405 19.799 22.5353C15.7036 23.0248 11.8255 24.6454 8.59951 27.2153C5.62251 29.7373 4.20551 32.7793 4.62151 35.7953C4.74683 36.679 5.0239 37.5344 5.44051 38.3238C5.25008 39.1859 5.21268 40.0747 5.33001 40.9498C5.50474 42.1792 5.97049 43.3491 6.68851 44.3623C6.27145 45.5229 6.13557 46.7659 6.29201 47.9893C6.70801 51.0053 8.892 53.5533 12.4345 55.1393C15.111 56.3144 18.0071 56.906 20.93 56.8748C22.1151 56.8725 23.2986 56.79 24.4725 56.6278C33.67 55.3538 40.4755 49.3998 39.65 43.3743C39.6029 43.0519 39.5356 42.7328 39.4485 42.4188C40.9973 42.7175 42.5707 42.8698 44.148 42.8738C51.2135 42.8738 56.992 39.7083 57.9475 34.8138C58.1511 33.7687 58.1334 32.6926 57.8955 31.6548C57.8627 31.5052 57.796 31.3651 57.7005 31.2453C58.5081 30.2588 59.0616 29.0893 59.3125 27.8393C59.4816 26.9579 59.4948 26.0537 59.3515 25.1678C59.8137 24.4255 60.1395 23.6067 60.3135 22.7498C61.4835 16.7373 55.0225 10.3998 45.9095 8.61229ZM52.0585 32.7728C48.5248 34.0103 44.7154 34.2355 41.0605 33.4228C40.0327 33.2189 39.0206 32.9431 38.0315 32.5973C38.1149 31.3701 37.8915 30.1415 37.3815 29.0223C38.7777 29.5681 40.22 29.9879 41.691 30.2768C43.2853 30.5968 44.9074 30.7579 46.5335 30.7578C50.9275 30.7578 54.821 29.5358 57.369 27.4298C56.901 29.7308 55.0225 31.6223 52.0585 32.7728ZM7.32551 40.7288C8.34462 41.6485 9.50297 42.401 10.7575 42.9583C13.4388 44.1222 16.3368 44.7027 19.2595 44.6613C20.4447 44.662 21.6284 44.5795 22.802 44.4143C26.8975 43.9297 30.7763 42.3111 34.0015 39.7408C35.0601 38.8633 35.9728 37.8233 36.7055 36.6598C37.3555 41.5803 31.3105 46.4748 23.2375 47.5928C19.5389 48.1853 15.7484 47.7351 12.2915 46.2928C9.41851 44.9863 7.65701 43.0103 7.32551 40.7288ZM29.25 16.5813C29.6985 14.2998 31.577 12.4083 34.541 11.2578C36.6069 10.4878 38.7974 10.1066 41.002 10.1333C42.5299 10.1354 44.0539 10.2878 45.552 10.5883C53.5795 12.1743 59.332 17.4393 58.3765 22.3338C57.421 27.2283 50.0825 29.8998 42.0615 28.3268C34.0405 26.7538 28.2815 21.4498 29.25 16.5813ZM28.249 21.7033C28.4892 22.155 28.7607 22.5894 29.0615 23.0033C28.769 22.9253 28.4635 22.8603 28.158 22.7953C28.1478 22.4296 28.1739 22.0638 28.236 21.7033H28.249ZM9.88651 28.7428C12.8228 26.4148 16.35 24.9517 20.072 24.5178C21.1488 24.3667 22.2347 24.2907 23.322 24.2903C24.4825 24.2898 25.6411 24.3832 26.7865 24.5698C26.9049 24.6239 27.0333 24.6526 27.1635 24.6543H27.235C28.5275 24.8927 29.7867 25.2855 30.9855 25.8243C33.8845 27.1243 35.6525 29.1393 35.971 31.4403C36.2895 33.7413 35.1195 36.1463 32.682 38.2068C29.7486 40.5355 26.2232 41.9988 22.503 42.4318C18.8044 43.0243 15.0139 42.5741 11.557 41.1318C8.66451 39.8318 6.89001 37.8168 6.57801 35.5093C6.26601 33.2018 7.45551 30.7968 9.88651 28.7428ZM24.1865 54.6323C20.4901 55.227 16.7011 54.7767 13.247 53.3323C10.348 52.0323 8.58001 50.0108 8.26151 47.7098C8.18366 47.184 8.18366 46.6496 8.26151 46.1238C9.22894 46.9333 10.3083 47.5989 11.466 48.0998C14.1463 49.2668 17.045 49.8474 19.968 49.8028C21.1529 49.8025 22.3364 49.7221 23.5105 49.5623C29.679 48.7498 34.775 45.7663 37.206 42.0873C37.4372 42.5812 37.5928 43.1071 37.6675 43.6473C38.35 48.5873 32.305 53.5143 24.1995 54.6323H24.1865ZM55.9845 34.4498C55.029 39.3443 47.7165 42.0288 39.6955 40.4493C39.3445 40.3778 39 40.2998 38.6555 40.2153C38.5628 40.2024 38.4687 40.2024 38.376 40.2153C38.3369 40.1775 38.2932 40.1447 38.246 40.1178C38.6973 38.9247 38.849 37.6392 38.688 36.3738C38.613 35.8647 38.4889 35.364 38.3175 34.8788C39.0845 35.1063 39.871 35.3078 40.6705 35.4638C42.289 35.784 43.9346 35.9473 45.5845 35.9513C48.0425 35.9636 50.4817 35.523 52.78 34.6513C53.9444 34.2052 55.0389 33.5945 56.03 32.8378C56.0959 33.3744 56.0805 33.9178 55.9845 34.4498Z" fill="#933A35"/>
</svg>
