<svg width="220" height="220" viewBox="0 0 220 220" fill="none" xmlns="http://www.w3.org/2000/svg">
<g clip-path="url(#clip0_12068_8241)">
<rect width="219.81" height="219.81" rx="109.905" fill="#D18D84"/>
<mask id="mask0_12068_8241" style="mask-type:luminance" maskUnits="userSpaceOnUse" x="172" y="50" width="18" height="18">
<path d="M189.236 50.5244H172.388V67.3286H189.236V50.5244Z" fill="white"/>
</mask>
<g mask="url(#mask0_12068_8241)">
<path d="M172.519 55.9572L174.41 51.4512C174.41 51.4512 174.7 52.8912 175.416 53.7044C175.794 54.1427 176.201 54.5547 176.634 54.9376C176.634 54.9376 175.516 57.5519 175.404 57.9794C175.292 58.4069 173.718 57.2488 173.718 57.2488L172.519 55.9572Z" fill="#FFA400"/>
<path d="M181.745 61.1906C181.745 61.1906 183.481 58.5736 184.107 57.2061C184.733 55.8386 185.181 54.7617 185.181 54.7617C185.181 54.7617 185.279 57.2872 186.288 58.4016C186.95 59.1059 187.735 59.6812 188.605 60.0984L184.845 66.4042L181.745 61.1906Z" fill="#FFA400"/>
<path d="M173.402 57.7907L174.977 58.9489C175.303 59.1885 175.806 58.9367 175.896 58.5736C176.043 57.9764 176.227 57.3891 176.448 56.8151C176.476 56.7425 176.504 56.6701 176.533 56.5981C176.547 56.5654 176.56 56.5327 176.573 56.5C176.607 56.418 176.596 56.453 176.567 56.5131C176.634 56.373 176.691 56.2278 176.756 56.0866C176.887 55.8043 177.026 55.5266 177.174 55.2533C177.257 55.1065 177.28 54.9328 177.237 54.7694C177.186 54.6158 177.085 54.4839 176.95 54.3944C176.93 54.3801 176.911 54.3655 176.892 54.3509C176.971 54.4124 176.984 54.4229 176.933 54.3824C176.895 54.352 176.858 54.3219 176.821 54.291C176.747 54.2291 176.674 54.1653 176.604 54.0996C176.471 53.9764 176.345 53.8473 176.224 53.7121C176.167 53.649 176.113 53.5848 176.059 53.5193C176.029 53.4822 176.001 53.4418 175.969 53.4061C176.098 53.5501 175.984 53.4252 175.958 53.3885C175.851 53.2422 175.751 53.0911 175.658 52.9353C175.564 52.7796 175.479 52.62 175.4 52.4566C175.379 52.4133 175.359 52.3695 175.339 52.3251C175.32 52.283 175.266 52.1211 175.33 52.3088C175.303 52.229 175.267 52.1512 175.238 52.0723C175.11 51.7199 175.016 51.3559 174.959 50.9854C174.925 50.8534 174.845 50.7377 174.734 50.6592C174.628 50.5716 174.494 50.524 174.356 50.5244C174.219 50.5268 174.087 50.5728 173.979 50.6557C173.87 50.7386 173.791 50.8541 173.753 50.9854C173.603 51.5811 173.417 52.1669 173.195 52.7394C173.17 52.806 173.143 52.8723 173.117 52.9385C173.101 52.9782 173.084 53.0178 173.068 53.0574C173.023 53.1658 173.104 52.9731 173.073 53.0454C173.013 53.1827 172.953 53.3201 172.89 53.4561C172.758 53.7409 172.617 54.0213 172.467 54.2971C172.31 54.5853 172.386 54.9946 172.691 55.1563C172.983 55.3113 173.38 55.2391 173.547 54.931C174.166 53.7913 174.641 52.5779 174.959 51.3193H173.752C174.015 52.9878 174.979 54.4777 176.319 55.4788L176.094 54.6197C175.475 55.7618 175.003 56.9782 174.689 58.2397L175.608 57.8644L174.034 56.7062C173.961 56.6642 173.882 56.6369 173.799 56.626C173.716 56.6152 173.632 56.6209 173.552 56.6429C173.395 56.6876 173.261 56.7907 173.178 56.9312C173.136 57.0036 173.109 57.0837 173.098 57.1668C173.087 57.2498 173.093 57.3342 173.115 57.415C173.166 57.569 173.267 57.7012 173.402 57.7904V57.7907Z" fill="black"/>
<path d="M182.229 63.7119C182.338 63.8426 182.445 63.9745 182.551 64.1076C182.604 64.1742 182.656 64.2411 182.708 64.3083C182.792 64.4157 182.638 64.2155 182.714 64.316C182.739 64.3499 182.765 64.3836 182.791 64.418C183 64.6953 183.202 64.9775 183.397 65.2648C183.784 65.8335 184.143 66.4196 184.474 67.0229C184.537 67.1289 184.63 67.2139 184.741 67.2673C184.852 67.3206 184.976 67.3399 185.097 67.3227C185.218 67.3048 185.33 67.2531 185.422 67.1735C185.514 67.0938 185.582 66.9896 185.617 66.8729C185.706 66.6391 185.798 66.4064 185.893 66.175C185.914 66.1235 185.935 66.0721 185.957 66.0209C185.97 65.9887 186.006 65.9128 185.942 66.0556C185.953 66.0303 185.964 66.0045 185.975 65.9789C186.024 65.8639 186.074 65.7492 186.124 65.6348C186.321 65.1901 186.53 64.7507 186.749 64.3167C187.189 63.4489 187.673 62.6049 188.2 61.7879C188.502 61.3212 188.817 60.8637 189.146 60.4156C189.372 60.1063 189.145 59.5588 188.772 59.4931C188.581 59.4576 188.394 59.405 188.212 59.3359C188.116 59.3001 188.264 59.3596 188.268 59.36C188.246 59.3531 188.225 59.3438 188.206 59.3321C188.159 59.3105 188.114 59.2878 188.068 59.264C187.983 59.2189 187.899 59.17 187.818 59.1172C187.779 59.0925 187.741 59.0668 187.704 59.0402C187.685 59.0271 187.538 58.9186 187.629 58.9866C187.721 59.0545 187.589 58.9519 187.572 58.9376C187.532 58.9038 187.493 58.8694 187.455 58.8341C187.31 58.6998 187.175 58.5553 187.05 58.4017C187.035 58.3837 187.021 58.3653 187.006 58.3471C186.928 58.2502 187.079 58.4456 187.029 58.3769C187.002 58.3389 186.974 58.3015 186.947 58.2632C186.89 58.1819 186.836 58.0989 186.785 58.0142C186.674 57.8312 186.575 57.6414 186.488 57.446C186.474 57.4142 186.461 57.3822 186.446 57.3503C186.412 57.2726 186.492 57.4639 186.461 57.3847C186.441 57.3327 186.42 57.2813 186.4 57.2292C186.356 57.1117 186.315 56.9933 186.277 56.874C186.205 56.6478 186.143 56.4184 186.087 56.1873C185.962 55.6617 185.873 55.1282 185.784 54.5952C185.742 54.3368 185.433 54.1229 185.181 54.1342C185.046 54.1394 184.915 54.1865 184.807 54.269C184.699 54.3515 184.619 54.4654 184.578 54.5952C184.51 54.7714 184.44 54.9468 184.368 55.1213C184.36 55.1406 184.352 55.1598 184.344 55.1794C184.344 55.1803 184.394 55.0614 184.367 55.1261C184.347 55.1711 184.328 55.2162 184.309 55.2612C184.273 55.3446 184.237 55.4279 184.2 55.511C184.046 55.8559 183.884 56.1968 183.713 56.5335C183.378 57.1944 183.011 57.8373 182.611 58.4622C182.381 58.8214 182.141 59.1737 181.891 59.5193C181.85 59.5917 181.822 59.6718 181.812 59.7548C181.801 59.8379 181.806 59.9223 181.828 60.0031C181.873 60.1605 181.976 60.2948 182.116 60.3784C182.44 60.5505 182.766 60.438 182.972 60.1531C183.856 58.929 184.615 57.618 185.237 56.2402C185.432 55.8084 185.614 55.3713 185.784 54.9288H184.578C184.749 55.9603 184.939 56.9787 185.35 57.9455C185.708 58.8132 186.3 59.564 187.058 60.1144C187.47 60.4102 187.942 60.6115 188.439 60.704L188.066 59.7815C186.899 61.3731 185.903 63.0844 185.095 64.8867C184.852 65.4307 184.624 65.9814 184.411 66.539L185.555 66.3891C184.856 65.1254 184.039 63.9316 183.114 62.824C182.903 62.5709 182.444 62.5894 182.229 62.824C181.983 63.0929 182.005 63.442 182.229 63.7121V63.7119Z" fill="black"/>
</g>
<mask id="mask1_12068_8241" style="mask-type:luminance" maskUnits="userSpaceOnUse" x="120" y="75" width="9" height="18">
<path d="M128.83 75.7305H120.816V92.3297H128.83V75.7305Z" fill="white"/>
</mask>
<g mask="url(#mask1_12068_8241)">
<path d="M121.965 83.5233C122.193 83.0612 124.259 76.5342 124.259 76.5342L126.437 81.565C127.207 82.5091 128.012 83.42 128.012 83.42C128.012 83.42 125.483 89.2197 125.371 90.3726C125.259 91.5254 120.817 86.064 120.817 86.064L121.965 83.5233Z" fill="#FFA400"/>
<path d="M121.664 88.7192C121.824 88.8265 121.975 88.9622 122.142 89.059C121.953 88.9491 122.085 89.0155 122.132 89.0532C122.171 89.0834 122.209 89.1139 122.247 89.1448C122.322 89.2065 122.397 89.2693 122.471 89.3332C122.766 89.5892 123.046 89.8622 123.309 90.1509C123.44 90.2951 123.567 90.4431 123.69 90.5949C123.725 90.6392 123.807 90.7726 123.684 90.5854C123.71 90.6257 123.744 90.663 123.773 90.7015C123.831 90.7795 123.888 90.8582 123.945 90.9378C124.169 91.2565 124.374 91.588 124.559 91.9307C124.65 92.0825 124.789 92.2006 124.954 92.2672C125.119 92.3338 125.302 92.3451 125.474 92.2994C125.642 92.248 125.79 92.1458 125.896 92.007C126.003 91.8683 126.063 91.7 126.068 91.5256C126.085 91.2412 126.109 90.9579 126.142 90.6752C126.15 90.6067 126.159 90.5383 126.167 90.4698C126.178 90.3784 126.155 90.5599 126.155 90.5549C126.161 90.521 126.165 90.4867 126.17 90.4525C126.192 90.299 126.217 90.1458 126.244 89.9929C126.341 89.4494 126.469 88.9117 126.626 88.3822C126.707 88.1092 126.796 87.8386 126.892 87.5705C126.939 87.4405 126.988 87.3112 127.038 87.1825C127.06 87.1264 127.082 87.0702 127.105 87.0141C127.118 86.9822 127.131 86.9502 127.144 86.9183C127.154 86.8946 127.164 86.8707 127.174 86.8466C127.198 86.7906 127.188 86.8148 127.143 86.9191C127.173 86.9048 127.211 86.7632 127.227 86.7295C127.251 86.6742 127.276 86.6192 127.302 86.5643C127.363 86.4311 127.427 86.2987 127.492 86.1671C127.619 85.9121 127.753 85.6606 127.895 85.4128C128.032 85.1729 128.176 84.9368 128.327 84.7045C128.507 84.4269 128.724 84.1557 128.798 83.826C128.908 83.3384 128.728 82.9054 128.381 82.5627C128.192 82.3754 128.003 82.1881 127.824 81.9912C127.644 81.7944 127.47 81.5906 127.303 81.3818C127.283 81.3566 127.263 81.3305 127.243 81.3057C127.24 81.3013 127.348 81.4424 127.295 81.3722C127.256 81.3205 127.217 81.2694 127.178 81.2173C127.096 81.1067 127.016 80.995 126.937 80.8822C126.638 80.4498 126.366 79.9989 126.124 79.5322C125.986 79.2661 125.864 78.9941 125.742 78.7213C125.747 78.7338 125.817 78.9042 125.767 78.779C125.751 78.7416 125.736 78.7043 125.721 78.6668C125.694 78.5994 125.667 78.5318 125.641 78.4638C125.589 78.3281 125.54 78.1914 125.493 78.0539C125.3 77.4881 125.149 76.9089 125.042 76.3212C124.982 75.9912 124.591 75.7169 124.261 75.732C124.118 75.738 123.979 75.7754 123.852 75.8415C123.669 75.9467 123.536 76.119 123.48 76.3212C123.325 77.2582 123.114 78.1853 122.85 79.0979C122.584 80.0141 122.243 80.8954 121.895 81.7829C121.895 81.7829 121.96 81.6335 121.924 81.7161C121.905 81.7576 121.888 81.799 121.87 81.8406C121.844 81.8988 121.819 81.9567 121.793 82.0146C121.737 82.1386 121.681 82.2622 121.624 82.3853C121.508 82.6314 121.389 82.8756 121.266 83.1179C121.076 83.4925 121.153 84.0048 121.556 84.2159C121.924 84.4085 122.461 84.3283 122.664 83.9279C123.566 82.1615 124.254 80.2959 124.715 78.3698C124.842 77.8326 124.951 77.2917 125.04 76.7472H123.479C123.891 78.9154 124.849 80.9453 126.265 82.6483C126.434 82.8547 126.611 83.0554 126.794 83.2504C126.877 83.339 126.962 83.4263 127.048 83.5122C127.135 83.613 127.23 83.7077 127.33 83.7957C127.311 83.7817 127.229 83.6349 127.28 83.7428C127.239 83.6742 127.217 83.596 127.216 83.5162C127.217 83.5018 127.259 83.3131 127.225 83.4462C127.201 83.5388 127.182 83.4491 127.25 83.3942C127.213 83.4424 127.182 83.4945 127.158 83.5497C127.115 83.6144 127.071 83.6779 127.028 83.7422C126.875 83.9724 126.728 84.2067 126.587 84.4452C125.319 86.6042 124.586 89.0308 124.449 91.5253L125.958 91.12C125.125 89.598 123.932 88.2986 122.482 87.3333C122.13 87.0973 121.569 87.2553 121.374 87.6211C121.27 87.806 121.243 88.0233 121.297 88.2278C121.351 88.4323 121.483 88.6083 121.664 88.7192Z" fill="black"/>
</g>
<mask id="mask2_12068_8241" style="mask-type:luminance" maskUnits="userSpaceOnUse" x="0" y="9" width="199" height="211">
<path d="M198.892 9.74316H0V220H198.892V9.74316Z" fill="white"/>
</mask>
<g mask="url(#mask2_12068_8241)">
<path d="M54.9717 104.127C54.9717 104.127 64.5127 98.8131 84.6682 101.059C104.824 103.304 113.627 104.789 120.921 102.711C128.215 100.633 136.706 97.3042 139.02 93.6625C141.334 90.0208 143.259 85.8684 143.197 82.0375C143.135 78.2067 142.442 71.094 141.312 69.833C140.182 68.5719 145.746 71.8105 147.464 73.2982C149.182 74.7859 148.879 76.5965 150.768 76.0901C152.657 75.5838 162.762 74.0586 162.762 74.0586L167.984 73.9129C167.984 73.9129 170.357 74.1398 168.72 69.8328C167.083 65.5258 166.112 63.4023 166.112 63.4023C166.112 63.4023 175.012 69.6218 178.357 74.9883C181.702 80.3549 186.22 90.162 186.041 99.8034C185.862 109.445 185.533 121.609 182.004 130.497C178.476 139.386 170.94 151.595 168.762 153.919C166.585 156.243 164.904 157.621 164.904 157.621C164.904 157.621 168.859 162.709 170.006 164.307C171.152 165.905 175.753 169.514 182.464 175.05C189.374 180.75 198.644 184.488 197.572 186.442C196.5 188.397 187.999 185.316 182.533 182.532C177.068 179.749 169.03 176.199 164.895 171.439C160.759 166.679 156.834 163.822 156.834 163.822C156.834 163.822 154.491 165.013 152.214 165.953L149.936 166.893C149.936 166.893 150.407 179.999 151.564 187.436C152.72 194.872 157.236 210.872 157.759 213.563C158.281 216.254 158.93 219.747 157.329 219.382C155.729 219.016 153.851 218.769 152.161 213.563C150.471 208.358 143.826 192.327 142.111 185.06C140.397 177.793 138.253 169.457 138.253 169.457C138.253 169.457 129.214 172.069 118.954 173.03C108.693 173.991 101.384 173.701 94.0982 173.178C86.8123 172.654 81.4276 171.346 81.4276 171.346C81.4276 171.346 80.9307 176.281 80.1659 179.717C79.4012 183.153 78.3559 188.623 79.4186 193.163C80.4813 197.703 85.7981 211.872 86.3016 213.727C86.8051 215.582 87.6848 219.554 85.5244 219.258C83.3641 218.962 80.8923 218.755 77.1337 210.297C73.3751 201.839 67.061 185.085 65.3128 179.178C63.5646 173.272 63.0646 165.989 60.0117 164.145C56.9588 162.302 53.4535 160.4 53.4535 160.4C53.4535 160.4 46.5772 163.53 41.4142 166.198C36.2513 168.866 24.2149 174.948 18.4661 176.053C12.7172 177.159 1.69126 178.862 0.847062 176.404C0.00286746 173.946 9.4338 172.45 12.4346 171.381C15.4355 170.313 27.6533 165.183 31.2967 159.412C34.94 153.641 35.624 152.499 35.3775 141.406C35.1304 130.282 40.5314 117.223 42.0809 114.277C44.8717 108.969 54.9717 104.127 54.9717 104.127Z" fill="white"/>
<path d="M171.894 83.3476C172.059 82.7418 172.614 82.327 173.171 82.0337C174.722 81.2162 176.631 80.9878 178.253 81.6551C179.875 82.3223 181.115 83.9613 181.082 85.7107C181.085 86.1373 180.983 86.5581 180.786 86.9367C180.253 87.8939 179.032 88.2408 177.934 88.2385C175.774 88.2337 171.09 86.3021 171.894 83.3476Z" fill="#4E4E4E"/>
<path d="M154.772 75.5483C155.964 78.0238 158.826 79.3805 161.578 79.453C162.228 79.4701 162.894 79.4232 163.488 79.1606C164.316 78.7943 164.926 78.0287 165.233 77.1786C165.59 76.1791 165.564 75.0836 165.162 74.1016" fill="#4E4E4E"/>
<path d="M170.063 91.1881C169.695 90.8148 169.041 90.864 168.619 91.1773C168.198 91.4905 167.968 91.9971 167.817 92.4989C167.705 92.8693 167.626 93.2655 167.719 93.641C167.909 94.4096 168.755 94.8427 169.544 94.9229C170.086 94.9775 170.677 94.8979 171.084 94.5373C171.961 93.7606 171.509 92.4791 171.93 91.516C172.479 90.2616 174.01 89.6792 175.07 90.7162C175.308 90.9613 175.489 91.2564 175.598 91.5799C175.708 91.9034 175.744 92.2472 175.704 92.5864C175.663 92.9695 175.525 93.3552 175.248 93.6243C174.896 93.9653 174.38 94.0691 173.891 94.1121C173.192 94.1737 172.355 94.0681 172.018 93.4537C171.876 93.1951 171.853 92.8882 171.866 92.5937C171.904 91.7903 172.186 91.0173 172.674 90.3774" fill="#933A35"/>
<path d="M91.2606 102.305C93.1356 110.485 101.248 116.301 109.617 117.174C111.127 117.331 112.672 117.351 114.144 116.983C117.151 116.23 119.583 113.893 121.032 111.16C122.48 108.426 123.055 105.318 123.359 102.241C118.781 102.892 114.151 103.106 109.533 102.88" fill="#933A35"/>
<path d="M128.246 115.979C128.156 117.635 130.212 118.366 131.875 118.351C133.538 118.337 135.034 117.213 135.924 115.812C136.109 115.521 136.277 115.202 136.292 114.858C136.338 113.818 135.12 113.276 134.342 112.583C133.471 111.81 132.896 110.523 131.74 110.367C131.002 110.268 130.276 110.717 129.835 111.316C129.395 111.916 129.185 112.648 128.983 113.364C128.738 114.236 128.492 115.107 128.246 115.979Z" fill="#933A35"/>
<path d="M73.3208 114.686C74.1881 113.647 74.8363 112.63 75.9953 112.104C77.1543 111.578 78.4804 111.507 79.7394 111.695C80.0465 111.741 80.3602 111.806 80.618 111.979C81.344 112.466 81.306 113.525 81.1873 114.389C80.219 115.269 78.5945 114.815 77.4731 115.49C76.5192 116.064 76.1421 117.33 75.1671 117.868C74.6268 118.166 73.9833 118.193 73.3662 118.213C73.0938 118.223 72.7995 118.225 72.5772 118.068C72.3453 117.904 72.2522 117.606 72.2163 117.324C72.1585 116.827 72.2297 116.323 72.4231 115.861C72.6165 115.399 72.9257 114.994 73.3209 114.685" fill="#933A35"/>
<path d="M81.9256 118.967C81.5626 119.626 82.4516 120.287 83.197 120.402C84.0917 120.54 85.1223 120.393 85.6861 119.687C86.2886 118.932 86.0866 117.702 85.3224 117.111C84.5581 116.52 83.3845 116.59 82.6362 117.201C81.888 117.812 81.8491 118.217 81.9256 118.967Z" fill="#933A35"/>
<path d="M81.6456 100.988C81.0942 103.096 78.6517 104.1 76.4754 104.288C74.2992 104.476 72.016 104.178 69.9999 105.017C68.815 105.509 67.8153 106.363 66.6593 106.92C65.7494 107.358 64.7587 107.605 63.7489 107.645C62.7391 107.685 61.7319 107.516 60.7902 107.151C59.8485 106.785 58.9924 106.23 58.2753 105.52C57.5583 104.81 56.9957 103.96 56.6226 103.024C62.6044 101.273 68.5736 100.429 74.8067 100.323" fill="#D18D84"/>
<path d="M151.898 198.233C152.696 198.995 153.108 200.062 153.496 201.093C155.421 206.204 157.359 211.36 158.199 216.755C158.3 217.402 158.383 218.072 158.207 218.701C158.03 219.331 157.53 219.915 156.879 219.992C156.132 220.08 155.479 219.51 154.99 218.94C153.545 217.258 152.558 215.243 151.586 213.251C149.753 209.496 147.837 205.654 146.944 201.545C146.178 198.02 148.448 194.942 151.898 198.233Z" fill="#D18D84"/>
<path d="M74.5028 161.614C72.7393 163.428 72.4016 166.171 72.4078 168.697C72.4103 169.719 72.4566 170.759 72.7881 171.726C73.1295 172.721 73.7558 173.591 74.3867 174.435C75.0514 175.323 75.7614 176.227 76.7421 176.749C77.7227 177.272 79.0493 177.312 79.8564 176.549C80.3824 176.052 80.5996 175.319 80.7728 174.617C81.5239 171.571 81.8479 168.436 81.7357 165.302C81.711 164.619 81.6646 163.93 81.48 163.271C81.1105 161.952 80.7075 159.453 79.2169 159.09C77.8506 158.758 75.3719 160.72 74.5028 161.614Z" fill="#D18D84"/>
<path d="M140.337 70.0732C141.434 72.2574 141.977 74.7166 142.22 77.1356C142.436 79.2841 142.476 81.5278 142.067 83.6575C141.693 85.6064 141.313 87.6568 140.625 89.5221C139.815 91.7168 138.278 93.4242 136.488 94.8898C129.783 100.381 121.191 102.637 112.634 102.835C101.525 103.093 90.5488 100.871 79.5296 99.8383C75.3641 99.448 71.247 99.2687 67.0979 99.8977C62.9104 100.542 58.8267 101.736 54.953 103.448C51.16 105.117 47.508 107.325 44.5762 110.276C41.3029 113.571 39.5965 117.771 38.2321 122.139C36.5564 127.505 35.6278 133.096 35.1993 138.693C34.9837 141.509 34.899 144.33 34.9452 147.157C34.9704 148.785 34.9179 150.317 34.468 151.894C33.4552 155.441 31.1093 158.468 28.405 160.916C24.6152 164.347 19.9834 166.807 15.244 168.662C12.9442 169.563 10.6056 170.359 8.27994 171.19C6.36624 171.873 4.42086 172.551 2.60885 173.478C1.64233 173.973 0.30204 174.681 0.0403915 175.844C-0.219796 177 0.825519 177.712 1.78493 178.02C3.36933 178.53 5.17102 178.487 6.81266 178.417C9.10998 178.321 11.4024 178.018 13.6635 177.61C18.8673 176.67 23.8641 174.913 28.7234 172.86C33.1055 171.009 37.3411 168.855 41.5465 166.64C42.9355 165.909 44.3194 165.161 45.7407 164.493C47.4668 163.682 49.2988 163.111 51.0448 162.34C51.9229 161.952 53.231 161.506 53.7729 160.64L52.9269 160.861L53.9099 161.405C54.6063 161.79 55.2308 160.726 54.534 160.34L53.551 159.796C53.4087 159.717 53.2411 159.695 53.0834 159.737C52.9257 159.778 52.7901 159.878 52.7051 160.017C52.7599 159.929 52.5808 160.14 52.5773 160.143C52.3732 160.296 52.1562 160.431 51.9286 160.547C51.1915 160.94 50.4332 161.292 49.6572 161.602C48.0106 162.286 46.3158 162.843 44.7105 163.622C41.2488 165.302 37.8992 167.205 34.442 168.896C25.5728 173.236 15.865 177.103 5.83965 177.21C4.54392 177.224 2.72653 177.326 1.57623 176.597C1.25579 176.394 1.18823 176.274 1.26711 176.041C1.38132 175.704 1.87549 175.346 2.21656 175.123C3.73003 174.131 5.50479 173.514 7.19373 172.891C9.43956 172.062 11.7097 171.3 13.954 170.467C18.7196 168.699 23.3413 166.504 27.3742 163.379C30.4235 161.016 33.1859 158.081 34.7952 154.54C35.4528 153.12 35.8923 151.609 36.0988 150.058C36.3631 147.98 36.1471 145.843 36.1909 143.752C36.3095 138.105 36.9219 132.452 38.2085 126.946C38.8257 124.268 39.6269 121.634 40.6065 119.065C41.3994 117.005 42.2929 115.005 43.6275 113.232C46.0742 109.983 49.5203 107.559 53.1011 105.697C56.8662 103.74 60.9407 102.358 65.0958 101.503C69.0013 100.7 72.8623 100.573 76.8321 100.849C87.7154 101.603 98.4554 103.839 109.384 104.067C118.37 104.255 127.564 102.685 135.073 97.4893C136.501 96.5015 137.925 95.4189 139.12 94.1573C140.65 92.5433 141.669 90.6311 142.243 88.4923C142.747 86.6138 143.222 84.6409 143.451 82.7082C143.713 80.489 143.626 78.2244 143.322 76.0142C143.01 73.7451 142.436 71.5048 141.404 69.4497C141.048 68.7396 139.981 69.3638 140.336 70.0721L140.337 70.0732Z" fill="black"/>
<path d="M140.934 70.3563C141.117 70.4231 141.298 70.4921 141.478 70.5635C141.566 70.5982 141.653 70.6334 141.74 70.6692C141.782 70.6866 141.935 70.7538 141.765 70.6796C141.811 70.6997 141.858 70.7189 141.904 70.7388C142.261 70.8931 142.614 71.0569 142.963 71.2304C143.662 71.579 144.342 71.9638 145 72.3832C145.331 72.5931 145.655 72.8113 145.975 73.0377C146.134 73.1509 146.292 73.2662 146.449 73.3836C146.525 73.4402 146.601 73.4976 146.676 73.5549C146.705 73.5772 146.759 73.6294 146.641 73.5276C146.66 73.5439 146.681 73.5588 146.701 73.5741C146.741 73.605 146.78 73.6362 146.82 73.6675C147.435 74.1517 148.025 74.6645 148.591 75.206C149.225 75.8142 149.827 76.4556 150.394 77.1276C150.603 77.3753 151.056 77.3586 151.268 77.1276C151.511 76.8636 151.491 76.5199 151.268 76.2557C150.25 75.0476 149.118 73.9401 147.887 72.9485C146.626 71.9252 145.265 71.0327 143.823 70.2846C142.993 69.8595 142.139 69.4861 141.263 69.1667C140.959 69.0555 140.572 69.291 140.502 69.5973C140.463 69.7548 140.486 69.9214 140.566 70.0625C140.647 70.2037 140.778 70.3087 140.934 70.3557L140.934 70.3563Z" fill="black"/>
<path d="M150.717 76.6143C153.068 75.9389 155.463 75.4309 157.886 75.0939C158.035 75.0724 158.185 75.0515 158.334 75.0311C158.375 75.0278 158.416 75.0222 158.457 75.0145C158.444 75.0177 158.305 75.0346 158.415 75.0202C158.51 75.0077 158.606 74.9953 158.701 74.983C159.008 74.9437 159.315 74.9067 159.623 74.8717C160.245 74.8011 160.868 74.7392 161.491 74.6861C162.728 74.5805 163.966 74.5079 165.207 74.4684C166.565 74.4249 167.924 74.4219 169.284 74.4593C169.448 74.4579 169.604 74.3925 169.72 74.2772C169.835 74.1618 169.901 74.0058 169.902 73.8427C169.899 73.6802 169.833 73.5252 169.718 73.4103C169.602 73.2953 169.447 73.2293 169.284 73.2262C166.822 73.1585 164.357 73.223 161.902 73.4193C159.363 73.6144 156.838 73.9612 154.341 74.4578C153.011 74.726 151.691 75.0444 150.388 75.4253C150.078 75.5163 149.853 75.8632 149.957 76.1837C150.002 76.3399 150.108 76.4722 150.249 76.5526C150.391 76.6329 150.559 76.6551 150.717 76.6143L150.717 76.6143Z" fill="black"/>
<path d="M165.376 63.9925C165.733 64.5939 166.065 65.2092 166.371 65.8384C166.522 66.1498 166.667 66.4642 166.805 66.7817C166.821 66.819 166.837 66.8564 166.853 66.8938C166.861 66.9125 166.869 66.9313 166.877 66.95C166.905 67.0137 166.854 66.8954 166.855 66.8964C166.888 66.9783 166.923 67.0591 166.956 67.1408C167.023 67.3041 167.088 67.468 167.152 67.6324C167.652 68.9314 168.044 70.2695 168.322 71.633C168.401 72.0184 168.47 72.4057 168.531 72.7947C168.545 72.8885 168.559 72.9826 168.573 73.0769C168.58 73.1239 168.586 73.1709 168.593 73.218C168.603 73.2883 168.584 73.152 168.584 73.1549C168.588 73.1822 168.591 73.2087 168.595 73.2357C168.621 73.4375 168.645 73.6396 168.666 73.842C168.671 74.0044 168.736 74.1594 168.847 74.278C168.964 74.3927 169.121 74.4575 169.284 74.4586C169.59 74.4449 169.939 74.1855 169.903 73.842C169.608 70.9463 168.819 68.1222 167.57 65.4918C167.229 64.7669 166.854 64.0599 166.444 63.3706C166.28 63.093 165.88 62.9683 165.598 63.1494C165.459 63.2339 165.357 63.3691 165.316 63.5264C165.275 63.6838 165.296 63.8511 165.376 63.9929V63.9925Z" fill="black"/>
<path d="M165.586 63.8633C169.165 65.9908 172.273 68.8853 175.006 72.0006C177.527 74.8742 179.868 78.0652 181.416 81.5759C182.076 83.0712 182.518 84.6725 182.925 86.2513C183.423 88.1839 183.821 90.142 184.147 92.1106C184.901 96.6131 185.251 101.174 185.191 105.738C185.127 109.959 184.576 114.172 183.924 118.339C183.281 122.459 182.392 126.542 181.113 130.514C179.618 135.141 177.637 139.597 175.203 143.809C173.029 147.584 170.31 151.047 167.355 154.243C164.841 156.962 162.117 159.622 159.03 161.695C157.521 162.709 155.853 163.454 154.208 164.218C152.854 164.846 151.488 165.454 150.103 166.011C149.922 166.084 149.74 166.157 149.558 166.226C148.821 166.505 149.141 167.698 149.886 167.415C152.665 166.351 155.379 165.126 158.014 163.746C161.042 162.173 163.681 159.712 166.085 157.334C169.251 154.202 172.156 150.765 174.631 147.063C177.316 143.047 179.451 138.618 181.161 134.109C182.712 130.021 183.839 125.791 184.635 121.495C185.397 117.389 186.003 113.193 186.291 109.025C186.618 104.306 186.389 99.5458 185.788 94.8575C185.279 90.8815 184.542 86.8934 183.292 83.0773C182.149 79.5895 180.133 76.4594 177.895 73.5737C175.256 70.1707 172.204 67.0418 168.732 64.4783C167.92 63.878 167.079 63.3158 166.21 62.7992C165.525 62.3918 164.902 63.4575 165.586 63.8643L165.586 63.8633Z" fill="black"/>
<path d="M44.1235 152.812C44.9012 153.949 45.764 155.024 46.7047 156.031C47.536 156.946 48.4355 157.798 49.3956 158.578C50.4969 159.463 51.6871 160.169 52.9185 160.857C54.2575 161.605 55.6069 162.334 56.9666 163.044C58.1243 163.653 59.2286 164.21 60.0621 165.251C60.7758 166.143 61.0928 167.159 61.3676 168.246C61.6013 169.169 61.8445 170.091 62.0972 171.01C63.4893 176.109 65.0416 181.168 66.7107 186.184C68.6533 192.023 70.8158 197.782 73.1981 203.462C74.3701 206.262 75.5942 209.047 76.997 211.741C78.056 213.773 79.2101 215.806 80.7045 217.556C81.6585 218.674 82.9442 219.875 84.5051 219.926C85.2637 219.945 85.9997 219.667 86.5555 219.152C87.1686 218.57 87.3761 217.711 87.3725 216.893C87.3679 215.824 87.0792 214.754 86.7633 213.741C86.3486 212.411 85.8385 211.111 85.334 209.813C84.3122 207.184 83.305 204.546 82.3396 201.896C81.4341 199.411 80.6061 196.891 80.0616 194.301C79.1554 190.142 79.1635 185.838 80.0853 181.683C80.4443 180.037 80.9403 178.428 81.2552 176.771C81.8229 173.737 82.0749 170.652 82.0072 167.566C81.9311 163.636 81.4361 159.647 80.3939 155.849C80.3412 155.656 80.2878 155.463 80.2275 155.273C79.9886 154.519 78.7942 154.841 79.0351 155.601C79.8555 158.19 80.275 160.954 80.5394 163.646C80.8178 166.421 80.8541 169.215 80.6479 171.996C80.5294 173.573 80.3178 175.142 80.0142 176.695C79.6971 178.306 79.21 179.873 78.8663 181.477C78.2412 184.341 78.0281 187.279 78.2337 190.203C78.4302 192.843 78.9731 195.443 79.7249 197.979C80.4623 200.464 81.3852 202.889 82.3021 205.312C83.3229 208.011 84.4384 210.687 85.3604 213.421C85.6929 214.406 86.0385 215.499 86.1182 216.487C86.1569 216.849 86.1404 217.215 86.0692 217.572C86.0493 217.652 86.0236 217.73 85.9979 217.809C85.988 217.84 85.9375 217.948 85.9899 217.835C85.9754 217.867 85.9608 217.9 85.9434 217.93C85.8197 218.143 85.8588 218.108 85.7006 218.262C85.669 218.293 85.6361 218.322 85.6026 218.351C85.5247 218.418 85.7213 218.273 85.5776 218.369C85.5155 218.411 85.4521 218.451 85.3859 218.487C85.2601 218.562 85.1224 218.615 84.9787 218.644C84.9088 218.662 84.8385 218.675 84.7676 218.688C84.9178 218.661 84.7645 218.687 84.6978 218.691C84.6336 218.694 84.5694 218.695 84.5051 218.692C84.4456 218.69 84.2482 218.667 84.4106 218.691C84.2704 218.671 84.132 218.639 83.9967 218.597C83.9298 218.576 83.8645 218.552 83.7989 218.528C83.6932 218.489 83.7955 218.527 83.8142 218.536C83.762 218.513 83.7102 218.489 83.659 218.464C83.5211 218.395 83.3871 218.32 83.2573 218.237C83.1888 218.194 83.1214 218.149 83.0551 218.102C83.0172 218.076 82.9797 218.048 82.9424 218.021C82.9196 218.004 82.897 217.988 82.8746 217.97C82.9168 218.003 82.9208 218.006 82.8866 217.979C81.3878 216.784 80.3267 215.098 79.3627 213.467C77.9619 211.097 76.7796 208.6 75.6632 206.087C73.1764 200.491 70.9645 194.753 68.9595 188.969C67.1659 183.794 65.5196 178.57 64.0205 173.298C63.4691 171.367 62.9341 169.431 62.4502 167.482C62.1426 166.243 61.5977 165.116 60.7462 164.155C59.8671 163.163 58.7451 162.586 57.5903 161.979C56.2683 161.285 54.9543 160.575 53.6482 159.851C52.4479 159.182 51.2603 158.511 50.1908 157.642C49.2492 156.869 48.3661 156.029 47.5488 155.126C47.1914 154.736 46.8445 154.336 46.508 153.927C46.3749 153.766 46.2434 153.603 46.1135 153.439C45.9705 153.258 45.9537 153.236 45.8087 153.045C45.5967 152.764 45.3865 152.482 45.1908 152.19C44.751 151.533 43.6794 152.149 44.1227 152.812L44.1235 152.812Z" fill="black"/>
<path d="M148.923 162.761C149.058 164.499 149.072 166.253 149.16 167.993C149.346 171.702 149.581 175.408 149.89 179.108C150.244 183.344 150.682 187.58 151.347 191.78C152.112 196.621 153.388 201.343 154.777 206.039C155.438 208.27 156.129 210.495 156.717 212.746C157.117 214.274 157.548 215.829 157.523 217.379C157.521 217.515 157.511 217.651 157.5 217.786C157.487 217.948 157.513 217.738 157.494 217.846C157.481 217.916 157.469 217.985 157.453 218.054C157.428 218.153 157.399 218.25 157.364 218.345C157.335 218.424 157.416 218.238 157.379 218.311C157.367 218.334 157.357 218.359 157.344 218.381C157.317 218.425 157.291 218.469 157.266 218.513C157.197 218.635 157.331 218.452 157.262 218.519C157.228 218.552 157.193 218.587 157.161 218.621C157.097 218.69 157.278 218.559 157.158 218.622C157.111 218.648 157.064 218.676 157.016 218.702C157.173 218.617 156.953 218.714 156.883 218.734C156.854 218.742 156.717 218.762 156.828 218.747C156.944 218.731 156.769 218.75 156.74 218.75C156.66 218.75 156.581 218.745 156.501 218.739C156.713 218.757 156.426 218.716 156.358 218.695C156.317 218.682 156.278 218.667 156.238 218.653C156.098 218.608 156.326 218.7 156.231 218.65C156.138 218.601 156.045 218.555 155.956 218.499C155.909 218.47 155.864 218.437 155.818 218.407C155.717 218.342 155.791 218.39 155.787 218.387C155.691 218.31 155.599 218.23 155.509 218.147C155.323 217.97 155.147 217.781 154.984 217.583C154.86 217.434 154.859 217.432 154.78 217.325C154.689 217.201 154.6 217.076 154.513 216.949C154.316 216.661 154.131 216.365 153.954 216.065C153.55 215.38 153.187 214.672 152.843 213.956C151.947 212.092 151.18 210.168 150.442 208.237C148.482 203.108 146.651 197.912 144.967 192.686C143.396 187.811 141.98 182.887 140.669 177.936C139.932 175.152 139.223 172.359 138.569 169.554C138.538 169.423 138.508 169.292 138.477 169.16C138.402 168.829 138.03 168.653 137.717 168.73C135.717 169.221 133.701 169.655 131.684 170.074C127.197 171.005 122.681 171.819 118.138 172.426C113.141 173.094 108.11 173.454 103.067 173.38C99.3399 173.326 95.6314 173.018 91.9225 172.674C88.4228 172.35 84.9111 171.794 81.5508 170.737C81.4931 170.719 81.4353 170.701 81.3779 170.682C80.6213 170.43 80.2968 171.62 81.0492 171.871C84.0001 172.854 87.1483 173.392 90.2297 173.741C93.9474 174.161 97.6993 174.459 101.439 174.576C106.383 174.72 111.33 174.494 116.24 173.899C121.016 173.331 125.762 172.521 130.476 171.576C132.156 171.24 133.831 170.884 135.502 170.51C136.309 170.329 137.141 170.181 137.935 169.946C137.971 169.935 138.009 169.927 138.046 169.918L137.285 169.488C137.751 171.529 138.261 173.562 138.781 175.59C139.995 180.332 141.316 185.046 142.742 189.731C144.415 195.184 146.304 200.571 148.265 205.927C149.078 208.149 149.917 210.362 150.851 212.537C151.526 214.108 152.244 215.682 153.158 217.133C153.752 218.076 154.478 219.111 155.486 219.654C156.313 220.098 157.42 220.137 158.112 219.418C158.942 218.555 158.806 217.1 158.663 216.019C158.412 214.106 157.878 212.233 157.348 210.382C155.884 205.27 154.236 200.207 153.173 194.99C152.349 190.948 151.86 186.838 151.456 182.735C151.056 178.679 150.764 174.612 150.533 170.543C150.395 168.115 150.288 165.686 150.184 163.257C150.177 163.092 150.173 162.926 150.16 162.761C150.099 161.975 148.861 161.968 148.923 162.761H148.923Z" fill="black"/>
<path d="M164.371 157.933C165.399 159.448 166.574 160.878 167.763 162.269C170.538 165.535 173.612 168.535 176.944 171.233C180.562 174.146 184.389 176.811 188.268 179.364C189.691 180.3 191.125 181.218 192.554 182.144C193.603 182.823 194.654 183.503 195.661 184.242C195.761 184.315 195.859 184.388 195.957 184.462C196 184.494 196.167 184.635 195.996 184.491C196.04 184.528 196.087 184.561 196.131 184.597C196.305 184.733 196.476 184.874 196.642 185.019C196.909 185.252 197.158 185.505 197.387 185.775C197.469 185.871 197.28 185.627 197.369 185.751C197.389 185.78 197.41 185.808 197.43 185.837C197.471 185.895 197.51 185.956 197.545 186.018C197.573 186.067 197.595 186.118 197.622 186.168C197.675 186.268 197.556 185.986 197.599 186.114C197.609 186.145 197.621 186.175 197.631 186.207C197.647 186.258 197.655 186.311 197.668 186.362C197.696 186.466 197.657 186.16 197.658 186.288C197.658 186.317 197.661 186.347 197.661 186.376C197.661 186.401 197.658 186.427 197.659 186.452C197.659 186.578 197.697 186.273 197.67 186.374C197.657 186.423 197.647 186.473 197.633 186.521C197.623 186.545 197.614 186.569 197.607 186.594C197.638 186.404 197.668 186.47 197.621 186.547C197.605 186.574 197.587 186.602 197.572 186.629C197.503 186.753 197.691 186.506 197.591 186.606C197.545 186.652 197.494 186.695 197.45 186.741C197.433 186.76 197.606 186.638 197.48 186.714C197.446 186.735 197.412 186.757 197.376 186.776C197.35 186.791 197.322 186.802 197.296 186.817C197.188 186.875 197.472 186.755 197.323 186.805C197.241 186.832 197.161 186.86 197.077 186.881C196.993 186.901 196.908 186.914 196.823 186.931C196.723 186.95 197 186.911 196.897 186.921C196.874 186.923 196.851 186.926 196.828 186.929C196.772 186.935 196.716 186.939 196.66 186.943C196.448 186.955 196.236 186.955 196.024 186.944C195.906 186.938 195.789 186.929 195.672 186.917C195.611 186.911 195.549 186.905 195.488 186.898C195.457 186.894 195.426 186.89 195.394 186.886C195.227 186.866 195.51 186.905 195.399 186.887C194.812 186.796 194.231 186.677 193.657 186.53C192.195 186.14 190.759 185.661 189.357 185.096C188.945 184.935 188.534 184.769 188.126 184.599L187.975 184.536C187.808 184.466 188.089 184.584 187.921 184.513C187.82 184.47 187.718 184.427 187.617 184.384C187.411 184.296 187.206 184.207 187.002 184.117C186.116 183.729 185.237 183.326 184.365 182.908C180.741 181.173 177.216 179.241 173.806 177.119C172.024 176.01 170.273 174.85 168.593 173.592C166.844 172.281 165.106 170.817 163.468 169.311C161.44 167.464 159.528 165.493 157.743 163.411C157.657 163.309 157.571 163.207 157.487 163.104C157.277 162.845 156.831 162.885 156.613 163.104C156.356 163.359 156.402 163.716 156.613 163.976C157.87 165.523 159.272 166.969 160.69 168.369C163.829 171.486 167.263 174.292 170.945 176.748C174.332 178.98 177.844 181.017 181.464 182.848C184.723 184.506 188.076 186.063 191.558 187.199C192.829 187.613 194.126 187.968 195.457 188.127C196.299 188.228 197.288 188.262 198.045 187.815C198.362 187.633 198.61 187.354 198.754 187.019C198.898 186.684 198.93 186.312 198.844 185.957C198.686 185.294 198.165 184.741 197.678 184.293C196.914 183.591 196.049 182.992 195.193 182.409C193.988 181.59 192.759 180.808 191.535 180.018C188.003 177.739 184.511 175.401 181.133 172.899C179.096 171.39 177.097 169.834 175.208 168.141C173.579 166.68 172.021 165.144 170.535 163.534C169.404 162.31 168.316 161.049 167.271 159.748C167.075 159.503 166.876 159.259 166.688 159.008C166.812 159.174 166.668 158.983 166.639 158.944C166.599 158.893 166.56 158.842 166.52 158.79C166.441 158.687 166.363 158.583 166.284 158.479C166.067 158.19 165.853 157.899 165.643 157.605C165.573 157.507 165.504 157.409 165.437 157.31C165.351 157.172 165.216 157.072 165.058 157.03C164.901 156.989 164.733 157.01 164.591 157.089C164.317 157.249 164.181 157.655 164.369 157.932L164.371 157.933Z" fill="black"/>
<path d="M55.9595 108.898C55.9595 108.898 52.5412 95.5311 51.1782 87.692C50.226 82.2156 49.2538 71.966 55.3678 62.4823C61.2624 53.3391 76.6688 36.5212 78.6407 28.4576C80.6127 20.3939 81.2048 10.3229 74.3018 10.3634C68.5281 10.3974 66.0306 24.0113 60.241 33.571C54.1848 43.5708 44.9148 53.2386 42.1535 64.449C40.1724 72.4914 41.5618 83.5265 43.7313 89.4267C45.9008 95.327 49.5516 107.081 49.5516 107.081" fill="white"/>
<path d="M64.7794 37.4722C66.2036 38.9973 67.0617 41.4784 69.1398 41.697C70.5722 41.8478 71.8162 40.7635 72.772 39.6889C77.8349 33.9962 80.5575 26.2926 80.1926 18.6923C80.0929 16.616 79.7404 14.467 78.5456 12.7637C77.3508 11.0604 75.1258 9.93542 73.1373 10.5588C71.496 11.0733 70.3995 12.5896 69.5302 14.0702C66.9342 18.4923 65.3017 23.3724 63.1289 27.9973C62.4259 29.4934 59.5812 32.8926 59.7054 34.4212C59.8578 36.3003 63.4101 36.0055 64.7794 37.4722Z" fill="#D18D84"/>
<path d="M56.5555 108.734C55.166 103.299 53.8623 97.837 52.7111 92.3474C52.035 89.1229 51.3894 85.8837 51.1768 82.5906C50.9115 78.4787 51.2542 74.3261 52.4276 70.3655C53.1311 67.9861 54.1344 65.7053 55.4133 63.5776C56.2323 62.2166 57.1528 60.9144 58.0835 59.6278C60.1944 56.7092 62.4227 53.8762 64.6363 51.0351C67.0481 47.9399 69.4627 44.8446 71.773 41.6719C73.7773 38.9198 75.7476 36.109 77.364 33.1083C77.9776 31.9692 78.5442 30.7915 78.9596 29.5647C79.4982 27.9732 79.7883 26.2691 80.0576 24.6148C80.6099 21.2211 81.0174 17.4277 79.9316 14.0927C79.5025 12.775 78.7904 11.5467 77.6492 10.7235C76.5392 9.92161 75.0337 9.60197 73.6842 9.80044C70.9763 10.1984 69.2887 13.0406 68.1256 15.2282C66.2549 18.747 64.8932 22.5203 63.2911 26.1628C62.4238 28.1342 61.5063 30.0865 60.4567 31.9691C59.355 33.9446 58.1013 35.8372 56.825 37.7039C51.6494 45.2752 45.5378 52.5358 42.4547 61.2917C40.9882 65.4567 40.5101 69.8536 40.5901 74.2511C40.6673 78.478 41.1951 82.7521 42.279 86.8431C42.7029 88.4422 43.2866 89.9813 43.8325 91.5406C44.4259 93.2356 44.9968 94.9385 45.5596 96.6438C46.5589 99.6716 47.5348 102.707 48.4872 105.75C48.6437 106.248 48.7996 106.746 48.9548 107.245C49.1896 108 50.3837 107.678 50.1473 106.917C48.5257 101.697 46.8663 96.484 45.0635 91.3234C44.534 89.8086 43.9602 88.3135 43.5383 86.7638C43.0272 84.8559 42.6347 82.9185 42.3628 80.9624C41.7432 76.633 41.5817 72.1602 42.1512 67.8166C43.33 58.8249 48.7771 51.1809 53.9108 43.9759C56.526 40.3055 59.2399 36.6565 61.4508 32.7222C63.5178 29.0443 65.0746 25.1123 66.7137 21.2345C67.4362 19.5261 68.1721 17.8182 69.0258 16.1704C69.6971 14.8745 70.4369 13.5636 71.4404 12.4907C72.151 11.731 73.0669 11.0605 74.0733 10.9893C75.3175 10.9013 76.5833 11.2813 77.4645 12.18C78.4011 13.1349 78.8339 14.4754 79.0782 15.759C79.3949 17.4215 79.3841 19.1456 79.2706 20.8283C79.1313 22.7166 78.8616 24.5932 78.4637 26.4446C78.186 27.7773 77.8801 29.0875 77.3441 30.3428C76.1467 33.1467 74.4237 35.7399 72.6984 38.2426C70.5562 41.3502 68.2657 44.3543 65.9566 47.3395C63.6625 50.3053 61.3348 53.2455 59.0716 56.2349C56.9577 59.027 54.79 61.861 53.2207 65.0029C49.6567 72.1386 49.2453 80.2251 50.6013 87.969C51.7615 94.5946 53.3801 101.151 55.0129 107.674C55.1285 108.137 55.2453 108.6 55.3631 109.062C55.5596 109.831 56.7525 109.505 56.5555 108.735V108.734Z" fill="black"/>
<path d="M49.4181 119.905C49.5605 120.608 49.889 121.284 50.2752 121.884C50.6868 122.536 51.1924 123.125 51.7756 123.63C52.0844 123.901 52.4238 124.135 52.787 124.328C53.0747 124.474 53.4708 124.412 53.6329 124.107C53.782 123.825 53.7186 123.42 53.411 123.263C53.276 123.194 53.1449 123.118 53.0185 123.034C52.9566 122.993 52.8957 122.951 52.8359 122.906C52.8176 122.893 52.7061 122.808 52.7944 122.876C52.8736 122.938 52.8118 122.89 52.7923 122.874C52.7706 122.857 52.7491 122.84 52.7277 122.822C52.4653 122.606 52.22 122.37 51.9938 122.116C51.9343 122.05 51.876 121.982 51.8189 121.914C51.792 121.882 51.7655 121.85 51.7393 121.817C51.7195 121.793 51.6256 121.673 51.6876 121.754C51.7531 121.838 51.6636 121.722 51.649 121.702C51.624 121.669 51.5993 121.635 51.5749 121.601C51.519 121.524 51.4647 121.445 51.4118 121.366C51.221 121.082 51.0517 120.783 50.9052 120.474C50.8839 120.428 50.8632 120.383 50.843 120.337C50.7894 120.214 50.8911 120.456 50.8416 120.332C50.8076 120.248 50.7759 120.162 50.7464 120.076C50.6908 119.913 50.6456 119.746 50.6112 119.578C50.5472 119.261 50.153 119.05 49.8506 119.147C49.6946 119.194 49.5628 119.299 49.4824 119.44C49.402 119.581 49.3792 119.748 49.4188 119.905L49.4181 119.905Z" fill="black"/>
<path d="M49.4344 124.232C50.0016 123.596 50.6225 123.01 51.2903 122.481C51.3139 122.462 51.3399 122.444 51.3622 122.424C51.3547 122.431 51.2424 122.515 51.3241 122.454C51.3631 122.424 51.4019 122.395 51.4411 122.365C51.5293 122.3 51.6184 122.235 51.7084 122.171C51.889 122.044 52.0729 121.921 52.2601 121.803C52.6275 121.572 53.0076 121.361 53.3986 121.171C53.5115 121.117 53.6253 121.064 53.74 121.013C53.7977 120.988 53.8558 120.964 53.9135 120.938C53.9033 120.943 53.7738 120.996 53.8708 120.956C53.906 120.942 53.9411 120.928 53.9764 120.914C54.2138 120.819 54.454 120.733 54.6972 120.655C55.0045 120.556 55.235 120.223 55.1291 119.896C55.0296 119.59 54.6981 119.36 54.3685 119.466C52.582 120.041 50.9738 121.039 49.5984 122.306C49.2353 122.64 48.8899 122.993 48.5601 123.36C48.3444 123.601 48.3045 123.999 48.5601 124.232C48.7958 124.448 49.204 124.489 49.4345 124.232L49.4344 124.232Z" fill="black"/>
<path d="M169.804 91.0193C170.532 91.5412 171.454 92.0228 172.369 91.693C172.614 91.6104 172.838 91.4764 173.027 91.3001C173.211 91.1146 173.353 90.8918 173.444 90.6469C173.597 90.2702 173.624 89.8468 173.623 89.4442C173.623 89.1217 173.339 88.8127 173.005 88.8277C172.842 88.8304 172.686 88.8962 172.571 89.0113C172.456 89.1263 172.39 89.2815 172.387 89.4442C172.387 89.6053 172.379 89.7649 172.365 89.9253C172.355 90.037 172.393 89.7622 172.363 89.9318C172.357 89.9654 172.35 89.9988 172.343 90.0319C172.325 90.1089 172.301 90.1825 172.276 90.2573C172.239 90.3699 172.339 90.1349 172.287 90.2316C172.265 90.2703 172.246 90.3095 172.223 90.3467C172.185 90.4062 172.14 90.4166 172.243 90.3293C172.21 90.3575 172.184 90.3976 172.152 90.4279L172.127 90.451C172.079 90.4924 172.094 90.4815 172.174 90.4183C172.14 90.4378 172.107 90.4591 172.075 90.482C172.042 90.5011 172.003 90.5142 171.971 90.5349C172.067 90.4955 172.085 90.4871 172.024 90.5096C172.009 90.5152 171.993 90.5203 171.976 90.525C171.938 90.5364 171.9 90.5461 171.861 90.554C171.839 90.5586 171.817 90.5626 171.794 90.566L171.891 90.5529C171.811 90.5686 171.73 90.5709 171.65 90.5599C171.627 90.5588 171.604 90.5573 171.581 90.5553C171.515 90.5483 171.535 90.5516 171.643 90.565C171.611 90.5559 171.574 90.5536 171.541 90.5468C171.454 90.5277 171.368 90.5028 171.284 90.4722C171.139 90.4199 171.286 90.4646 171.284 90.4752C171.285 90.4724 171.151 90.4128 171.14 90.4069C171.056 90.3646 170.975 90.3184 170.895 90.2697C170.735 90.1719 170.581 90.064 170.428 89.9546C170.357 89.9134 170.278 89.8866 170.196 89.8759C170.114 89.8653 170.031 89.8709 169.952 89.8924C169.797 89.9364 169.665 90.0377 169.582 90.1757C169.413 90.4944 169.523 90.8177 169.804 91.0194V91.0193Z" fill="black"/>
<path d="M168.088 94.9998C168.768 95.7522 169.941 96.0754 170.902 95.7211C171.418 95.5328 171.867 95.1987 172.196 94.7596C172.534 94.3144 172.674 93.7764 172.718 93.2271C172.758 92.5738 172.713 91.9182 172.584 91.2765C172.525 90.9585 172.122 90.7496 171.823 90.8459C171.482 90.9561 171.329 91.2636 171.391 91.6043C171.418 91.7172 171.437 91.8319 171.447 91.9474C171.441 91.7745 171.447 91.9524 171.452 91.9992C171.46 92.0713 171.466 92.1434 171.472 92.2156C171.492 92.4603 171.5 92.7062 171.494 92.9516C171.492 93.0648 171.487 93.1778 171.476 93.2905C171.471 93.3184 171.468 93.3465 171.466 93.3747C171.466 93.3587 171.491 93.2282 171.47 93.3365C171.458 93.3988 171.448 93.4609 171.432 93.5227C171.417 93.5844 171.4 93.6452 171.38 93.7053C171.36 93.7634 171.292 93.8669 171.382 93.7123C171.335 93.7933 171.301 93.8806 171.251 93.9607C171.227 93.9982 171.203 94.0349 171.177 94.0708C171.094 94.1874 171.265 93.967 171.172 94.0767C171.112 94.1485 171.046 94.2162 170.977 94.2793C170.959 94.295 170.822 94.4067 170.912 94.3374C171.002 94.268 170.872 94.3647 170.853 94.3764C170.775 94.4286 170.693 94.4753 170.609 94.5163C170.588 94.5246 170.568 94.534 170.549 94.5444C170.664 94.4716 170.653 94.5025 170.605 94.5204C170.563 94.5357 170.522 94.551 170.48 94.5641C170.437 94.5773 170.395 94.5891 170.352 94.5993C170.299 94.6202 170.242 94.631 170.185 94.6311C170.186 94.6311 170.354 94.6139 170.248 94.6211C170.225 94.6227 170.202 94.6249 170.18 94.6262C170.134 94.6288 170.088 94.6299 170.043 94.6293C169.997 94.6288 169.951 94.6267 169.906 94.623C169.883 94.6197 169.86 94.6175 169.838 94.6165C169.995 94.6107 169.931 94.6302 169.866 94.6188C169.765 94.6006 169.665 94.5751 169.568 94.5425C169.546 94.5352 169.525 94.5276 169.503 94.5196C169.487 94.5137 169.471 94.5076 169.455 94.5014C169.411 94.4836 169.434 94.4933 169.524 94.5304C169.479 94.5054 169.433 94.4827 169.386 94.4625C169.335 94.4354 169.286 94.4064 169.238 94.3754C169.219 94.3629 169.2 94.3503 169.182 94.3372C169.101 94.281 169.179 94.3329 169.211 94.3624C169.126 94.2843 169.039 94.2138 168.962 94.1281C168.845 94.0135 168.688 93.9492 168.525 93.9492C168.361 93.9492 168.204 94.0135 168.088 94.1281C167.975 94.2454 167.912 94.4016 167.912 94.564C167.912 94.7265 167.975 94.8826 168.088 95L168.088 94.9998Z" fill="black"/>
<path d="M171.773 94.307C172.127 94.6212 172.552 94.8441 173.013 94.956C173.473 95.068 173.954 95.0656 174.413 94.9491C174.798 94.8532 175.152 94.6629 175.444 94.3955C175.736 94.1281 175.956 93.7921 176.084 93.4181C176.244 92.9356 176.213 92.4053 176.101 91.9166C176.056 91.7596 175.952 91.6265 175.809 91.5459C175.667 91.4654 175.499 91.4438 175.341 91.4859C175.184 91.5324 175.052 91.6373 174.972 91.7786C174.891 91.9199 174.869 92.0868 174.909 92.2443C174.919 92.2881 174.928 92.332 174.937 92.3762C174.941 92.4006 174.945 92.4255 174.95 92.4498C174.964 92.5191 174.939 92.3691 174.94 92.3762C174.958 92.4671 174.964 92.5597 174.959 92.6521C174.96 92.7275 174.955 92.8019 174.949 92.8769C174.941 92.9826 174.977 92.7227 174.952 92.8496C174.944 92.8885 174.937 92.9272 174.927 92.9657C174.91 93.0354 174.887 93.1023 174.863 93.1699C174.83 93.2609 174.936 93.0204 174.875 93.1367C174.858 93.1689 174.843 93.2013 174.824 93.2328C174.793 93.2874 174.757 93.337 174.722 93.3891C174.683 93.4484 174.818 93.2741 174.77 93.3267C174.761 93.3364 174.753 93.347 174.745 93.3569C174.722 93.3833 174.698 93.4089 174.674 93.4338C174.628 93.4804 174.577 93.5213 174.528 93.5646C174.491 93.5977 174.601 93.5073 174.602 93.508C174.601 93.508 174.556 93.5407 174.559 93.5384C174.531 93.5583 174.502 93.5773 174.472 93.5956C174.42 93.6275 174.366 93.6569 174.311 93.6836C174.288 93.695 174.177 93.7434 174.289 93.696C174.407 93.6466 174.245 93.7109 174.217 93.7205C174.14 93.7463 174.062 93.7676 173.983 93.7842C173.944 93.7925 173.904 93.7985 173.865 93.8057C173.798 93.8178 173.949 93.7902 173.943 93.7952C173.915 93.8019 173.886 93.8045 173.857 93.803C173.777 93.8089 173.696 93.8104 173.615 93.8075C173.575 93.8061 173.534 93.8037 173.494 93.8002C173.471 93.7995 173.448 93.7972 173.425 93.7931C173.465 93.8034 173.573 93.8153 173.469 93.7975C173.378 93.7819 173.288 93.7607 173.2 93.7343C173.15 93.7193 173.101 93.7028 173.052 93.6845C173.036 93.6784 173.02 93.6718 173.004 93.6656C172.933 93.6388 173.136 93.7282 173.04 93.6796C172.958 93.6376 172.876 93.5968 172.798 93.5472C172.754 93.5199 172.712 93.489 172.67 93.4592C172.616 93.4218 172.73 93.507 172.726 93.5027C172.704 93.4788 172.672 93.4572 172.647 93.4355C172.405 93.2218 172.008 93.1798 171.773 93.4355C171.558 93.6692 171.514 94.0792 171.773 94.3073L171.773 94.307Z" fill="black"/>
<path d="M158.351 89.5058C158.847 89.781 159.343 90.0562 159.855 90.3016C160.392 90.5592 160.959 90.8229 161.553 90.9129C162.278 91.0394 163.025 90.9528 163.702 90.6638C164.369 90.3694 164.84 89.8081 165.112 89.1466C165.397 88.4516 165.396 87.6476 165.224 86.9253C165.18 86.7684 165.075 86.6353 164.932 86.5548C164.79 86.4742 164.622 86.4526 164.464 86.4946C164.308 86.541 164.175 86.6458 164.095 86.7872C164.014 86.9285 163.992 87.0955 164.032 87.253C164.048 87.3188 164.062 87.3849 164.074 87.4515C164.08 87.4844 164.082 87.5194 164.09 87.5516C164.046 87.3696 164.08 87.4714 164.086 87.5227C164.102 87.6696 164.108 87.8175 164.104 87.9653C164.102 88.0277 164.099 88.09 164.094 88.1521C164.091 88.1803 164.088 88.2085 164.086 88.2366C164.074 88.364 164.112 88.0807 164.09 88.2069C164.066 88.3505 164.032 88.4923 163.988 88.6312C163.971 88.6859 163.872 88.8861 163.968 88.7018C163.938 88.7604 163.914 88.8221 163.882 88.8806C163.856 88.9291 163.828 88.9767 163.798 89.0232C163.78 89.0511 163.762 89.0786 163.743 89.1056C163.648 89.2403 163.809 89.0328 163.739 89.1125C163.694 89.1626 163.651 89.2126 163.603 89.26C163.555 89.3075 163.492 89.3468 163.449 89.3966C163.546 89.2837 163.516 89.3461 163.465 89.3823C163.437 89.4019 163.408 89.4208 163.379 89.439C163.322 89.4754 163.262 89.5091 163.201 89.5401C163.171 89.5555 163.14 89.5696 163.109 89.5845C162.995 89.6401 163.25 89.5323 163.13 89.5754C163.066 89.5987 163.001 89.6225 162.935 89.6421C162.869 89.6618 162.802 89.6791 162.734 89.6937C162.701 89.7011 162.666 89.7078 162.632 89.714C162.578 89.7237 162.427 89.722 162.624 89.7178C162.497 89.7205 162.369 89.7406 162.24 89.7407C162.17 89.7407 162.1 89.7386 162.03 89.7343C161.995 89.7323 161.96 89.7296 161.925 89.7264C161.875 89.7219 161.715 89.6869 161.916 89.7282C161.677 89.6849 161.441 89.6248 161.21 89.5484C161.149 89.5266 161.088 89.504 161.028 89.4803C160.981 89.4621 160.763 89.3657 160.957 89.4535C160.83 89.3958 160.701 89.3414 160.574 89.282C160.029 89.0254 159.501 88.7327 158.974 88.4404C158.691 88.2837 158.287 88.363 158.128 88.6616C158.048 88.8035 158.027 88.9708 158.068 89.1282C158.109 89.2856 158.211 89.4208 158.35 89.5052L158.351 89.5058Z" fill="black"/>
<path d="M173.525 85.5006C173.708 85.7462 173.921 85.9683 174.159 86.1619C174.401 86.3547 174.656 86.5302 174.923 86.687C175.441 86.9906 176.015 87.2555 176.612 87.3482C176.908 87.4018 177.21 87.4134 177.51 87.3828C177.828 87.3456 178.138 87.2594 178.43 87.1273C178.975 86.88 179.403 86.4301 179.621 85.8734C179.741 85.5517 179.783 85.206 179.742 84.865C179.702 84.5241 179.58 84.1977 179.388 83.9129C179.303 83.777 179.172 83.6763 179.018 83.6296C178.858 83.5869 178.686 83.6093 178.542 83.6917C178.279 83.8607 178.122 84.2526 178.32 84.5353C178.354 84.5829 178.385 84.6324 178.414 84.6835C178.425 84.704 178.435 84.725 178.446 84.7456C178.492 84.8335 178.428 84.7049 178.426 84.6942C178.435 84.748 178.468 84.8064 178.483 84.8598C178.499 84.9163 178.506 84.9745 178.52 85.0309C178.481 84.8799 178.509 84.9236 178.512 84.9713C178.514 85.0005 178.517 85.0294 178.518 85.0587C178.52 85.1113 178.52 85.1639 178.517 85.2164C178.513 85.2395 178.511 85.2629 178.511 85.2863C178.495 85.1822 178.532 85.1637 178.519 85.2264C178.507 85.2892 178.494 85.3519 178.475 85.4137C178.467 85.4417 178.457 85.4689 178.448 85.4967C178.434 85.5404 178.397 85.5748 178.471 85.4467C178.445 85.4904 178.426 85.5377 178.4 85.5818C178.376 85.6242 178.348 85.6644 178.32 85.7048C178.264 85.7861 178.356 85.6604 178.357 85.657C178.34 85.6841 178.318 85.7086 178.294 85.7299C178.257 85.7695 178.218 85.8073 178.177 85.8431C178.161 85.8575 178.144 85.8713 178.128 85.8854C178.053 85.9491 178.173 85.8522 178.176 85.849C178.092 85.9207 177.998 85.9784 177.896 86.0198C177.876 86.0298 177.856 86.0386 177.836 86.0485C177.729 86.1024 177.954 86.003 177.877 86.0321C177.83 86.0496 177.784 86.0675 177.736 86.0828C177.63 86.1155 177.521 86.1417 177.412 86.1613C177.366 86.1704 177.309 86.1599 177.477 86.1536C177.455 86.1544 177.432 86.1587 177.411 86.1607C177.361 86.1653 177.311 86.1684 177.262 86.1698C177.207 86.1712 177.152 86.1707 177.098 86.1685C177.06 86.167 176.921 86.1344 176.897 86.153L176.982 86.1649C176.962 86.1621 176.942 86.1591 176.922 86.1558C176.889 86.1505 176.856 86.1446 176.823 86.1382C176.77 86.1279 176.718 86.1162 176.666 86.1033C176.535 86.0707 176.406 86.0309 176.28 85.9843C176.254 85.975 176.229 85.9654 176.204 85.9557C176.191 85.9509 176.065 85.9051 176.164 85.9408C176.264 85.9765 176.139 85.929 176.126 85.9233C176.101 85.9122 176.077 85.9009 176.052 85.8893C175.929 85.8315 175.808 85.7689 175.69 85.7028C175.456 85.5748 175.231 85.4318 175.016 85.275L175 85.2636C174.948 85.2242 174.959 85.2331 175.034 85.2902C175.022 85.2649 174.966 85.2355 174.945 85.218C174.897 85.1771 174.849 85.1349 174.803 85.0915C174.757 85.0481 174.712 85.0033 174.669 84.957C174.647 84.9338 174.626 84.9103 174.605 84.8864C174.578 84.8561 174.483 84.7351 174.593 84.8784C174.507 84.7436 174.376 84.6433 174.224 84.5951C174.063 84.5524 173.892 84.5747 173.747 84.6572C173.608 84.7388 173.507 84.8709 173.463 85.0257C173.429 85.1756 173.427 85.3728 173.525 85.5008L173.525 85.5006Z" fill="black"/>
<path d="M159.129 94.6682C158.228 94.8257 157.325 94.9736 156.42 95.1121C155.976 95.1802 155.53 95.2459 155.085 95.3092C154.862 95.3409 154.639 95.372 154.416 95.4025C154.357 95.4107 154.297 95.4188 154.238 95.4268C154.203 95.4315 153.997 95.4603 154.179 95.4347C154.061 95.4513 153.941 95.4664 153.822 95.4819C153.66 95.488 153.505 95.552 153.385 95.6625C153.328 95.7197 153.282 95.7877 153.251 95.8625C153.22 95.9373 153.204 96.0175 153.204 96.0984C153.204 96.1794 153.22 96.2596 153.251 96.3344C153.282 96.4092 153.328 96.4772 153.385 96.5344C153.497 96.6367 153.664 96.7357 153.822 96.715C155.707 96.4683 157.585 96.1824 159.458 95.8573C159.613 95.8143 159.746 95.7126 159.828 95.5739C159.91 95.4299 159.933 95.2592 159.89 95.0989C159.779 94.7561 159.472 94.6084 159.129 94.6682Z" fill="black"/>
<path d="M159.38 96.9003C158.03 97.5735 156.743 98.3669 155.536 99.2707C155.401 99.3561 155.3 99.4866 155.252 99.6391C155.21 99.7995 155.232 99.9703 155.315 100.114C155.479 100.369 155.884 100.543 156.161 100.335C157.368 99.4316 158.654 98.6382 160.004 97.965C160.294 97.8204 160.399 97.3887 160.226 97.1214C160.14 96.9832 160.005 96.8831 159.847 96.8419C159.69 96.8008 159.522 96.8217 159.38 96.9003Z" fill="black"/>
<path d="M161.247 98.0708C161.029 98.5086 160.786 98.9338 160.52 99.3443C160.388 99.5465 160.251 99.7449 160.109 99.9395C160.072 99.9894 160.035 100.039 159.998 100.089C159.981 100.111 159.964 100.132 159.948 100.155C159.898 100.221 160.02 100.063 159.968 100.128C159.887 100.23 159.805 100.333 159.722 100.434C159.61 100.552 159.545 100.707 159.541 100.87C159.542 101.033 159.607 101.189 159.722 101.306C159.95 101.514 160.376 101.571 160.596 101.306C161.268 100.503 161.845 99.6265 162.315 98.6927C162.459 98.4044 162.402 98.0119 162.093 97.8492C161.814 97.7018 161.401 97.7621 161.247 98.0704L161.247 98.0708Z" fill="black"/>
<path d="M184.733 89.5726L184.81 89.5388C184.915 89.4923 184.724 89.5725 184.796 89.5444C184.848 89.5243 184.9 89.5031 184.952 89.4835C185.062 89.4418 185.174 89.4031 185.287 89.3676C185.519 89.2944 185.755 89.2344 185.994 89.1879C186.049 89.1773 186.104 89.1673 186.158 89.1581C186.191 89.1527 186.324 89.1132 186.344 89.1296C186.334 89.1217 186.205 89.1465 186.304 89.1356C186.331 89.1326 186.359 89.1292 186.387 89.1265C186.449 89.12 186.511 89.1143 186.574 89.1095C186.817 89.0913 187.06 89.0866 187.304 89.0954C187.467 89.0941 187.624 89.0287 187.739 88.9134C187.855 88.7981 187.921 88.642 187.922 88.4789C187.919 88.3164 187.852 88.1614 187.737 88.0465C187.622 87.9315 187.467 87.8655 187.304 87.8623C186.203 87.8311 185.11 88.052 184.109 88.508C183.97 88.5893 183.868 88.7215 183.825 88.8765C183.782 89.0369 183.805 89.2076 183.887 89.3517C183.969 89.4902 184.102 89.5917 184.257 89.635C184.418 89.6699 184.586 89.6479 184.733 89.5728L184.733 89.5726Z" fill="black"/>
<path d="M184.491 91.8517L187.281 92.4793C187.596 92.5501 187.965 92.3838 188.041 92.0487C188.113 91.7355 187.947 91.3659 187.61 91.2903L184.82 90.6626C184.505 90.5918 184.136 90.7582 184.059 91.0933C183.988 91.4064 184.154 91.7761 184.491 91.8517Z" fill="black"/>
<path d="M184.425 93.5122C184.435 93.6798 184.488 93.842 184.58 93.9829C184.671 94.1238 184.798 94.2384 184.948 94.3154C185.184 94.4326 185.429 94.5328 185.68 94.6153C186.123 94.7788 186.575 94.9186 187.034 95.034C187.347 95.1131 187.719 94.9326 187.794 94.6034C187.835 94.4458 187.813 94.2786 187.732 94.1371C187.652 93.9955 187.519 93.8908 187.362 93.845C186.971 93.7459 186.584 93.6295 186.202 93.4957C186.015 93.4297 185.829 93.3594 185.645 93.2849C185.619 93.2746 185.594 93.2643 185.569 93.2539C185.661 93.2936 185.679 93.3012 185.625 93.2769C185.599 93.2631 185.572 93.2509 185.546 93.2357C185.529 93.2257 185.512 93.215 185.496 93.2036C185.581 93.2728 185.601 93.2864 185.556 93.2445C185.621 93.336 185.637 93.3559 185.605 93.304C185.644 93.4126 185.656 93.4364 185.642 93.3756L185.664 93.5395L185.662 93.5117C185.638 93.1908 185.395 92.8794 185.044 92.8951C184.729 92.9092 184.4 93.1672 184.425 93.5117V93.5122Z" fill="black"/>
<path d="M172.988 124.072C172.978 124.262 172.963 124.452 172.941 124.641C172.938 124.666 172.918 124.82 172.933 124.71C172.949 124.6 172.926 124.757 172.923 124.779C172.909 124.873 172.893 124.966 172.876 125.06C172.808 125.428 172.718 125.791 172.605 126.148C172.549 126.323 172.489 126.497 172.423 126.669C172.391 126.752 172.357 126.834 172.323 126.916C172.293 126.991 172.374 126.8 172.341 126.874C172.333 126.891 172.326 126.909 172.318 126.926C172.298 126.973 172.277 127.019 172.256 127.065C172.099 127.405 171.922 127.735 171.724 128.053C171.614 128.231 171.498 128.405 171.375 128.575C171.345 128.616 171.315 128.657 171.284 128.697C171.269 128.718 171.254 128.738 171.239 128.758C171.19 128.823 171.248 128.745 171.266 128.724C171.191 128.81 171.123 128.902 171.049 128.989C170.937 129.107 170.872 129.263 170.868 129.425C170.869 129.588 170.934 129.745 171.049 129.861C171.279 130.071 171.701 130.124 171.923 129.861C172.986 128.615 173.715 127.121 174.043 125.519C174.139 125.042 174.199 124.558 174.225 124.073C174.224 123.909 174.158 123.753 174.043 123.638C173.927 123.522 173.77 123.457 173.607 123.456C173.444 123.46 173.289 123.526 173.173 123.641C173.058 123.755 172.992 123.91 172.988 124.073L172.988 124.072Z" fill="black"/>
<path d="M166.813 130.965C166.754 131.132 166.69 131.298 166.624 131.463C166.598 131.523 166.605 131.509 166.642 131.42C166.632 131.444 166.622 131.467 166.612 131.49C166.597 131.525 166.581 131.56 166.565 131.595C166.529 131.675 166.491 131.756 166.452 131.836C166.293 132.16 166.115 132.475 165.918 132.779C165.822 132.929 165.721 133.075 165.616 133.218C165.59 133.254 165.563 133.29 165.537 133.325C165.521 133.346 165.506 133.366 165.491 133.386C165.545 133.317 165.557 133.3 165.529 133.336C165.474 133.406 165.418 133.475 165.361 133.544C165.13 133.822 164.882 134.086 164.619 134.335C164.504 134.451 164.44 134.608 164.44 134.771C164.44 134.934 164.504 135.09 164.619 135.207C164.736 135.319 164.893 135.382 165.056 135.382C165.219 135.382 165.376 135.319 165.493 135.207C166.631 134.12 167.493 132.778 168.006 131.292C168.112 130.987 167.885 130.604 167.574 130.534C167.416 130.494 167.248 130.517 167.107 130.597C166.965 130.677 166.86 130.809 166.813 130.964L166.813 130.965Z" fill="black"/>
<path d="M167.108 137.457L165.541 139.763C165.359 140.031 165.481 140.459 165.763 140.607C165.905 140.686 166.072 140.707 166.23 140.665C166.387 140.624 166.523 140.524 166.608 140.386L168.176 138.08C168.357 137.812 168.236 137.385 167.954 137.236C167.811 137.158 167.644 137.137 167.486 137.178C167.329 137.219 167.193 137.319 167.108 137.457Z" fill="black"/>
<path d="M168.37 142.786C168.26 142.98 168.142 143.17 168.018 143.355C167.956 143.447 167.891 143.538 167.825 143.628C167.789 143.678 167.75 143.727 167.714 143.777C167.729 143.756 167.793 143.676 167.742 143.741C167.723 143.765 167.703 143.789 167.684 143.814C167.4 144.166 167.088 144.495 166.752 144.799C166.637 144.915 166.573 145.071 166.573 145.235C166.573 145.398 166.637 145.554 166.752 145.671C166.869 145.783 167.026 145.846 167.189 145.846C167.352 145.846 167.508 145.783 167.626 145.671C168.346 145.017 168.958 144.253 169.438 143.408C169.597 143.128 169.514 142.722 169.216 142.565C169.074 142.485 168.906 142.464 168.748 142.505C168.59 142.546 168.455 142.647 168.37 142.786V142.786Z" fill="black"/>
<path d="M153.605 161.648C154.945 160.893 156.15 159.923 157.173 158.777C157.48 158.433 157.767 158.072 158.041 157.701C158.082 157.63 158.109 157.552 158.12 157.47C158.13 157.388 158.125 157.306 158.103 157.226C158.059 157.069 157.955 156.935 157.812 156.854C157.669 156.773 157.5 156.752 157.342 156.796C157.191 156.846 157.061 156.946 156.973 157.079C156.92 157.151 156.866 157.222 156.812 157.293C156.746 157.379 156.896 157.185 156.803 157.304C156.775 157.339 156.747 157.374 156.719 157.409C156.603 157.553 156.484 157.695 156.362 157.834C156.123 158.107 155.872 158.37 155.611 158.624C155.354 158.873 155.088 159.111 154.812 159.338C154.743 159.395 154.673 159.451 154.603 159.507C154.568 159.534 154.533 159.562 154.498 159.589C154.445 159.631 154.55 159.55 154.547 159.551C154.521 159.57 154.496 159.59 154.471 159.609C154.328 159.717 154.183 159.822 154.036 159.923C153.695 160.16 153.344 160.38 152.981 160.583C152.911 160.624 152.85 160.678 152.801 160.743C152.752 160.807 152.716 160.881 152.695 160.959C152.675 161.037 152.67 161.119 152.681 161.199C152.692 161.28 152.718 161.357 152.759 161.427C152.8 161.497 152.855 161.558 152.919 161.607C152.984 161.656 153.058 161.692 153.136 161.712C153.215 161.733 153.297 161.738 153.377 161.727C153.458 161.716 153.535 161.689 153.606 161.648L153.605 161.648Z" fill="black"/>
<path d="M161.066 158.368C161.933 157.821 162.674 157.098 163.242 156.245C163.323 156.103 163.346 155.936 163.304 155.778C163.263 155.62 163.161 155.485 163.02 155.401C162.877 155.323 162.71 155.302 162.552 155.343C162.395 155.384 162.259 155.484 162.174 155.623C162.089 155.75 162 155.873 161.907 155.995L162.004 155.87C161.663 156.309 161.267 156.704 160.826 157.045L160.951 156.948C160.787 157.074 160.617 157.193 160.441 157.303C160.168 157.475 160.034 157.86 160.219 158.147C160.396 158.42 160.773 158.552 161.065 158.368L161.066 158.368Z" fill="black"/>
<path d="M159.18 151.763L160.051 150.49C160.113 150.384 160.142 150.263 160.134 150.14C160.127 150.018 160.082 149.901 160.007 149.803C159.932 149.706 159.83 149.633 159.714 149.594C159.597 149.555 159.471 149.552 159.353 149.585C159.2 149.633 159.07 149.734 158.983 149.868L158.112 151.141C158.05 151.247 158.021 151.369 158.029 151.491C158.037 151.614 158.081 151.731 158.156 151.828C158.231 151.925 158.333 151.998 158.45 152.037C158.566 152.076 158.692 152.079 158.81 152.047C158.963 151.998 159.094 151.898 159.18 151.763Z" fill="black"/>
<path d="M124.321 168.512C125.393 168.522 126.461 168.368 127.486 168.056C127.795 167.961 128.023 167.62 127.918 167.297C127.817 166.987 127.489 166.765 127.157 166.867C126.679 167.013 126.19 167.124 125.695 167.197C125.677 167.2 125.577 167.213 125.67 167.201C125.763 167.189 125.663 167.202 125.644 167.204C125.58 167.212 125.515 167.22 125.45 167.226C125.327 167.239 125.205 167.25 125.082 167.258C124.829 167.275 124.575 167.281 124.321 167.279C124.158 167.281 124.003 167.347 123.889 167.462C123.774 167.578 123.71 167.733 123.71 167.895C123.71 168.058 123.774 168.213 123.889 168.329C124.003 168.444 124.158 168.51 124.321 168.512Z" fill="black"/>
<path d="M113.337 170.823L116.545 170.349C116.701 170.307 116.834 170.205 116.915 170.066C116.956 169.996 116.983 169.919 116.994 169.839C117.005 169.758 117 169.677 116.979 169.598C116.959 169.52 116.923 169.446 116.874 169.382C116.825 169.317 116.763 169.263 116.693 169.222C116.546 169.148 116.378 169.126 116.217 169.16L113.008 169.634C112.853 169.676 112.72 169.778 112.639 169.917C112.556 170.058 112.533 170.226 112.575 170.385C112.616 170.543 112.719 170.678 112.861 170.761C113.008 170.835 113.176 170.857 113.337 170.823V170.823Z" fill="black"/>
<path d="M117.315 168.207C118.612 168.534 119.966 168.567 121.277 168.302C121.595 168.238 121.806 167.845 121.709 167.543C121.662 167.388 121.556 167.256 121.415 167.176C121.273 167.096 121.106 167.073 120.948 167.113C120.8 167.142 120.651 167.166 120.502 167.19C120.423 167.203 120.635 167.174 120.517 167.188C120.481 167.192 120.446 167.197 120.41 167.201C120.331 167.21 120.253 167.217 120.174 167.224C119.88 167.248 119.585 167.256 119.29 167.248C119.147 167.245 119.003 167.237 118.86 167.226C118.781 167.22 118.702 167.212 118.624 167.204C118.588 167.2 118.552 167.196 118.517 167.191C118.502 167.19 118.488 167.188 118.474 167.186C118.426 167.18 118.445 167.182 118.531 167.194C118.459 167.191 118.388 167.18 118.318 167.161C118.247 167.149 118.177 167.136 118.106 167.122C117.951 167.092 117.797 167.057 117.644 167.018C117.331 166.938 116.958 167.12 116.883 167.448C116.842 167.606 116.864 167.773 116.945 167.915C117.026 168.056 117.158 168.161 117.315 168.207Z" fill="black"/>
<path d="M101.174 171.546L105.03 171.301C105.352 171.28 105.664 171.032 105.649 170.684C105.634 170.368 105.376 170.046 105.03 170.067L101.174 170.312C100.852 170.333 100.54 170.581 100.556 170.929C100.57 171.245 100.828 171.568 101.174 171.546Z" fill="black"/>
<path d="M87.9346 170.189C88.8064 170.522 89.7357 170.679 90.6689 170.652C90.9919 170.643 91.3025 170.375 91.2872 170.035C91.2725 169.709 91.0153 169.409 90.6689 169.419C90.4572 169.425 90.2454 169.422 90.034 169.408C89.9213 169.4 89.8091 169.388 89.6967 169.376C89.6279 169.368 89.6407 169.37 89.7351 169.382C89.7071 169.378 89.6792 169.374 89.6513 169.37C89.6026 169.363 89.554 169.355 89.5053 169.346C89.0811 169.271 88.6652 169.155 88.2637 168.999C88.1841 168.978 88.101 168.972 88.0192 168.983C87.9374 168.993 87.8585 169.02 87.7872 169.062C87.6487 169.144 87.5471 169.276 87.5031 169.43C87.4224 169.783 87.6112 170.064 87.9349 170.189H87.9346Z" fill="black"/>
<path d="M95.4346 168.485C96.3294 168.702 97.2522 168.782 98.1711 168.721C98.4931 168.698 98.805 168.453 98.7894 168.104C98.7753 167.789 98.5166 167.463 98.1711 167.487C97.7474 167.518 97.322 167.516 96.8986 167.482C96.7965 167.474 96.6945 167.464 96.5926 167.452C96.5636 167.449 96.5345 167.445 96.5054 167.441C96.5973 167.454 96.6086 167.455 96.5393 167.445C96.4958 167.439 96.4524 167.433 96.409 167.426C96.1921 167.391 95.9769 167.347 95.7634 167.296C95.4495 167.22 95.0787 167.394 95.0028 167.726C94.9304 168.043 95.0983 168.404 95.4346 168.485Z" fill="black"/>
<path d="M106.152 168.057L106.795 168.271C106.875 168.296 106.96 168.3 107.042 168.282C107.124 168.278 107.203 168.253 107.272 168.209C107.406 168.122 107.507 167.992 107.556 167.84L107.578 167.676C107.578 167.567 107.549 167.46 107.494 167.365L107.397 167.24C107.321 167.165 107.227 167.11 107.124 167.082L106.481 166.868C106.401 166.843 106.316 166.839 106.235 166.857C106.153 166.861 106.073 166.886 106.005 166.93C105.87 167.016 105.77 167.147 105.721 167.299L105.698 167.462C105.698 167.572 105.727 167.679 105.783 167.774L105.88 167.898C105.955 167.974 106.049 168.029 106.152 168.057L106.152 168.057Z" fill="black"/>
<path d="M129.68 162.522H131.394C131.718 162.522 132.028 162.239 132.013 161.906C132.01 161.743 131.944 161.588 131.829 161.473C131.713 161.358 131.558 161.292 131.394 161.289H129.68C129.356 161.289 129.046 161.573 129.061 161.906C129.064 162.068 129.13 162.224 129.246 162.339C129.361 162.454 129.517 162.519 129.68 162.522Z" fill="black"/>
<path d="M175.37 133.479C175.364 133.579 175.356 133.678 175.345 133.777C175.341 133.814 175.336 133.851 175.331 133.889C175.352 133.687 175.334 133.866 175.327 133.91C175.3 134.082 175.266 134.253 175.224 134.423C175.18 134.605 175.129 134.784 175.069 134.962C175.041 135.044 175.012 135.127 174.981 135.208C174.963 135.255 174.945 135.301 174.926 135.348C174.917 135.371 174.907 135.394 174.898 135.417C174.933 135.333 174.942 135.312 174.923 135.355C174.776 135.686 174.605 136.005 174.409 136.31C174.358 136.388 174.306 136.466 174.251 136.542C174.23 136.572 174.208 136.602 174.185 136.633C174.171 136.653 174.156 136.673 174.141 136.693C174.101 136.744 174.11 136.732 174.169 136.657C174.109 136.721 174.054 136.789 174.003 136.859C173.938 136.935 173.871 137.01 173.802 137.082C173.582 137.318 173.551 137.724 173.802 137.954C174.042 138.174 174.442 138.206 174.677 137.954C175.818 136.729 176.5 135.148 176.607 133.479C176.628 133.157 176.308 132.849 175.989 132.863C175.826 132.866 175.671 132.933 175.556 133.047C175.441 133.162 175.374 133.317 175.371 133.479L175.37 133.479Z" fill="black"/>
<path d="M177.808 121.872C177.811 122.113 177.797 122.354 177.765 122.593L177.788 122.429C177.756 122.662 177.707 122.891 177.642 123.117C177.611 123.227 177.575 123.335 177.536 123.443C177.508 123.493 177.487 123.547 177.474 123.602C177.474 123.579 177.527 123.481 177.492 123.56C177.476 123.595 177.461 123.629 177.445 123.664C177.366 123.809 177.344 123.979 177.383 124.139C177.427 124.294 177.528 124.425 177.667 124.508C177.939 124.651 178.368 124.599 178.513 124.286C178.869 123.531 179.051 122.706 179.045 121.872C179.04 121.55 178.764 121.24 178.427 121.255C178.263 121.258 178.108 121.324 177.992 121.439C177.877 121.554 177.811 121.709 177.808 121.872H177.808Z" fill="black"/>
<path d="M152.323 154.556C152.252 154.693 152.168 154.823 152.073 154.945L152.17 154.82C152.036 154.99 151.882 155.143 151.71 155.275L151.836 155.179C151.663 155.31 151.476 155.42 151.277 155.505L151.424 155.443C151.339 155.479 151.251 155.51 151.163 155.537C151.008 155.582 150.877 155.683 150.793 155.82C150.71 155.964 150.688 156.135 150.731 156.295C150.832 156.607 151.16 156.826 151.491 156.726C151.895 156.606 152.27 156.407 152.596 156.142C152.922 155.876 153.192 155.549 153.39 155.178C153.471 155.034 153.493 154.864 153.453 154.703C153.409 154.549 153.307 154.417 153.168 154.335C152.884 154.185 152.482 154.251 152.323 154.556L152.323 154.556Z" fill="black"/>
</g>
</g>
<defs>
<clipPath id="clip0_12068_8241">
<rect width="219.81" height="219.81" rx="109.905" fill="white"/>
</clipPath>
</defs>
</svg>
