<svg width="220" height="220" viewBox="0 0 220 220" fill="none" xmlns="http://www.w3.org/2000/svg">
<rect width="219.81" height="219.81" rx="109.905" fill="#D18D84"/>
<mask id="mask0_12068_8666" style="mask-type:luminance" maskUnits="userSpaceOnUse" x="10" y="53" width="185" height="136">
<path d="M194.446 53.0537H10.1569V188.276H194.446V53.0537Z" fill="white"/>
</mask>
<g mask="url(#mask0_12068_8666)">
<path d="M193.725 133.723C193.577 134.301 193.265 134.852 192.724 135.14C192.212 135.412 191.626 135.427 191.065 135.343C190.464 135.252 189.894 135.024 189.337 134.786C188.738 134.529 188.156 134.233 187.592 133.906C186.446 133.246 185.37 132.471 184.32 131.67C183.188 130.808 182.072 129.926 180.952 129.049C178.631 127.232 176.318 125.409 174.008 123.578C171.692 121.74 169.38 119.894 167.074 118.042C164.989 116.367 162.909 114.686 160.834 112.999C160.22 113.701 159.568 114.371 158.88 115.003C157.286 116.466 155.496 117.726 153.556 118.69C152.554 119.188 151.518 119.601 150.457 119.935C150.58 120.054 150.702 120.172 150.825 120.29C153.593 122.949 156.475 125.482 159.308 128.071C162.385 130.884 165.412 133.753 168.369 136.692C171.189 139.493 173.949 142.355 176.597 145.319C177.793 146.657 178.964 148.017 180.1 149.407C180.67 150.107 181.198 150.845 181.59 151.66C181.95 152.408 182.23 153.245 182.176 154.085C182.121 154.93 181.707 155.715 180.995 156.187C180.318 156.636 179.449 156.789 178.652 156.849C177.153 156.961 175.644 156.485 174.399 155.662C174.387 155.654 174.376 155.646 174.367 155.638C174.366 155.637 174.365 155.637 174.364 155.636C174.356 155.631 174.349 155.625 174.343 155.618C173.593 154.938 172.841 154.262 172.083 153.59C166.824 148.928 161.363 144.49 155.711 140.312C150.948 136.792 146.085 133.291 140.875 130.459C137.086 128.397 133.022 126.996 128.76 126.283C125.655 125.763 122.5 125.635 119.357 125.588C116.234 125.542 113.108 125.534 109.987 125.625C102.857 125.832 95.7468 126.543 88.7125 127.711C88.6889 127.716 88.6664 127.717 88.6439 127.715C88.8643 128.926 88.9969 130.152 89.0351 131.382C89.1284 134.405 88.6282 137.449 87.6175 140.297C86.6102 143.134 85.1003 145.789 83.1329 148.07C81.631 149.811 79.8569 151.318 77.8783 152.487C79.1329 152.268 80.4112 152.148 81.6771 152.196C83.6164 152.268 85.7378 152.807 86.6776 154.685C86.9722 155.274 87.0947 155.958 86.8553 156.589C86.6518 157.125 86.2583 157.547 85.8064 157.89C84.9418 158.546 83.8682 158.925 82.8586 159.29C80.2246 160.245 77.4702 160.834 74.6956 161.193C72.0076 161.543 69.2937 161.669 66.5843 161.638C64.237 161.611 61.8918 161.466 59.5579 161.218C57.9345 161.046 56.3145 160.827 54.7058 160.549C53.9705 160.422 53.2409 160.278 52.5135 160.115C49.9087 159.527 47.3263 158.835 44.7766 158.041C42.1144 157.213 39.4871 156.275 36.9014 155.234C37.8491 156.035 38.8092 156.822 39.7805 157.593C43.5647 160.596 47.5467 163.343 51.5894 165.984C55.4118 168.481 59.3825 170.73 63.6625 172.345C69.2915 174.468 75.3567 175.485 81.3533 175.679C85.9244 175.826 90.5349 175.425 95.0666 174.83C99.0677 174.303 103.143 173.438 106.679 171.414C110.386 169.292 113.027 165.933 114.66 162.018C115.251 160.596 115.724 159.121 116.064 157.619C116.38 156.219 116.466 154.795 116.462 153.36C116.448 148.746 115.544 143.823 117.788 139.548C118.593 138.012 119.794 136.636 121.341 135.82C122.997 134.947 124.905 134.815 126.712 135.229C130.823 136.17 133.879 139.59 134.881 143.606C135.978 148.003 134.997 152.695 133.567 156.896C130.647 165.467 125.167 173.27 118.008 178.823C114.455 181.578 110.47 183.783 106.21 185.233C102.073 186.642 97.7355 187.265 93.3848 187.511C84.5753 188.01 75.6445 187.796 66.9744 186.048C61.5051 184.944 56.3291 183.199 51.3556 180.655C50.8294 180.408 50.3044 180.158 49.7839 179.9C45.6895 177.875 41.7682 175.491 38.0695 172.812C32.5506 168.814 27.5062 164.13 23.296 158.761C18.1639 152.216 14.3584 144.695 12.3404 136.614C11.1769 131.957 10.5765 127.149 10.5687 122.349C10.5642 119.68 10.6878 116.949 11.2128 114.325C12.9621 105.581 17.1341 97.221 22.3753 90.0666C27.8964 82.5309 34.834 76.1177 42.6305 70.9923C51.0711 65.4417 60.4371 61.3803 70.1144 58.5392C79.4275 55.805 89.0835 54.0966 98.781 53.6185C108.16 53.1552 117.648 53.857 126.774 56.1334C135.631 58.3413 144.102 62.0889 151.463 67.5135C151.605 65.0379 151.749 62.5624 151.892 60.0858C151.905 59.8507 152.193 59.7033 152.372 59.8867C153.263 60.8033 154.132 61.7402 154.977 62.7008C158.455 66.6632 161.529 71.0181 163.855 75.7589C166.143 80.422 167.688 85.4642 168.084 90.6571C168.429 95.1897 167.755 99.7753 166.145 104.026C166.047 104.283 165.946 104.541 165.841 104.796C166.118 105.009 166.394 105.222 166.671 105.435C168.946 107.192 171.205 108.971 173.443 110.775C175.678 112.577 177.895 114.402 180.092 116.251C182.289 118.099 184.466 119.972 186.624 121.867C188.521 123.534 190.483 125.181 191.985 127.231C193.331 129.068 194.313 131.42 193.725 133.723Z" fill="#EDE1D5"/>
<path d="M101.277 179.532C103.567 183.288 106.521 183.782 106.185 184.96C105.993 185.637 104.961 185.668 98.0242 186.708C95.4446 187.095 95.143 187.158 94.5645 186.983C90.5356 185.768 88.5898 177.747 90.8004 175.828C91.0818 175.584 92.4003 175.392 95.0258 175.019C97.5804 174.656 97.8497 174.678 98.1773 174.794C99.7976 175.366 99.829 177.157 101.277 179.532Z" fill="#899884"/>
<path d="M128.416 166.812C128.553 168.009 127.534 169.225 125.488 171.608C123.785 173.593 122.915 174.587 122.044 174.68C120.475 174.848 120.042 173.277 117.107 171.464C113.86 169.459 111.204 169.415 111.179 168.297C111.167 167.772 111.751 167.751 112.658 166.597C114.065 164.804 113.701 163.523 114.787 162.811C115.46 162.371 116.125 162.518 117.595 162.706C123.293 163.434 124.081 162.6 126.005 163.825C126.672 164.251 128.237 165.247 128.416 166.812Z" fill="#899884"/>
<path d="M44.7337 174.106C43.6734 175.128 43.7358 175.545 43.0402 175.734C42.1819 175.966 41.3508 175.531 37.242 172.077C35.1052 170.281 34.6631 169.838 34.7352 169.263C34.859 168.274 36.3425 168.153 38.3518 166.965C42.3365 164.61 42.4383 161.577 44.6091 161.582C45.2731 161.584 45.1061 161.867 48.8399 164.497C50.8403 165.907 51.6304 166.348 51.8521 167.348C52.1268 168.588 51.3187 169.739 51.0484 170.124C49.4671 172.377 47.3158 171.619 44.7337 174.106Z" fill="#899884"/>
<path d="M167.588 87.2196C167.495 85.5508 166.947 83.8431 165.652 82.7163C164.497 81.7112 162.98 81.2305 161.46 81.2295C157.587 81.2269 154.745 84.2557 153.02 87.4354C152.242 88.3407 151.589 89.344 151.334 90.5278C151.15 91.3828 151.148 92.2974 151.464 93.1225C151.812 94.0328 152.474 94.7125 153.242 95.2876C156.102 97.4311 160.083 98.0404 163.285 96.3002C164.771 95.4927 165.972 94.2168 166.642 92.6612C167.362 90.9916 167.691 89.0357 167.588 87.2196Z" fill="#344D21"/>
<path d="M151.899 105.69C151.796 105.407 151.693 105.21 151.514 104.978C151.3 104.7 151.036 104.457 150.712 104.309C150.292 104.118 149.948 104.027 149.483 103.993C149.392 103.987 149.302 103.988 149.212 103.997C149.002 104.016 148.783 104.04 148.578 104.094C147.906 104.27 147.306 104.676 146.885 105.222C146.659 105.515 146.482 105.82 146.385 106.185C146.371 106.236 146.365 106.286 146.355 106.337C146.124 106.891 146.132 107.541 146.363 108.09C146.497 108.406 146.671 108.699 146.929 108.933C147.252 109.226 147.567 109.403 147.974 109.551C148.058 109.581 148.142 109.603 148.23 109.618C148.436 109.653 148.653 109.694 148.864 109.684C149.257 109.667 149.576 109.588 149.929 109.439C150.584 109.163 151.074 108.7 151.481 108.124C151.661 107.869 151.788 107.568 151.887 107.274C151.938 107.121 151.957 106.967 151.979 106.806C152.001 106.64 152.025 106.485 152.011 106.319C151.992 106.109 151.972 105.89 151.899 105.69Z" fill="#344D21"/>
<path d="M156.505 102.937C156.488 102.809 156.478 102.692 156.433 102.572C156.375 102.418 156.319 102.247 156.222 102.109C156.019 101.818 155.846 101.63 155.54 101.438C155.406 101.355 155.249 101.303 155.104 101.245C155.06 101.228 155.016 101.213 154.97 101.203C154.77 101.159 154.545 101.119 154.335 101.134C154.168 101.147 153.997 101.169 153.832 101.202C153.784 101.212 153.737 101.226 153.691 101.243C153.541 101.298 153.388 101.359 153.246 101.433C153.151 101.484 153.069 101.555 152.984 101.621C152.89 101.694 152.795 101.76 152.716 101.849C152.597 101.983 152.484 102.128 152.386 102.278C152.287 102.432 152.215 102.605 152.153 102.779C152.126 102.814 152.099 102.848 152.073 102.883C151.94 103.111 151.874 103.358 151.873 103.622C151.89 103.79 151.901 103.969 151.947 104.134C151.953 104.154 151.963 104.173 151.969 104.194C152.004 104.542 152.133 104.874 152.385 105.127C152.518 105.269 152.675 105.37 152.856 105.429C152.947 105.477 153.042 105.511 153.141 105.532C153.267 105.591 153.397 105.649 153.53 105.688C153.637 105.719 153.751 105.728 153.86 105.742C153.969 105.757 154.08 105.779 154.191 105.774C154.214 105.773 154.237 105.77 154.26 105.768C154.411 105.751 154.568 105.738 154.716 105.703C154.764 105.692 154.81 105.675 154.855 105.657C155.015 105.592 155.187 105.535 155.333 105.44C155.475 105.35 155.609 105.241 155.736 105.132C155.776 105.097 155.814 105.059 155.848 105.019C155.989 104.853 156.149 104.666 156.241 104.462C156.332 104.262 156.439 104.049 156.475 103.828C156.503 103.656 156.535 103.479 156.54 103.304C156.544 103.18 156.522 103.059 156.505 102.937Z" fill="#344D21"/>
<path d="M152.864 71.9837C151.786 69.7735 149.492 68.3431 147.103 68.0147C144.166 67.6109 141.266 68.5511 138.555 69.5863C135.794 70.6407 133.087 71.8394 130.453 73.1821C130.138 73.3431 129.827 73.5126 129.513 73.6777C128.13 74.0313 126.853 74.8762 125.883 75.8897C125.231 76.5719 124.67 77.3462 124.155 78.1373C123.95 78.3033 123.744 78.4673 123.541 78.636C122.598 79.4235 121.749 80.3674 121.565 81.6273C121.4 82.7527 121.719 83.9004 122.339 84.845C122.967 85.8012 123.855 86.5829 124.908 87.0355C126.212 87.5958 127.639 87.7535 129.048 87.707C130.483 87.6598 131.91 87.4349 133.331 87.251C134.857 87.0537 136.382 86.8564 137.907 86.6591C140.712 86.2963 143.637 86.0779 146.093 84.5345C148.288 83.1548 149.925 81.0951 151.427 79.0198C152.216 77.9301 153.068 76.7865 153.344 75.4403C153.588 74.2554 153.391 73.0649 152.864 71.9837Z" fill="#899884"/>
<path d="M117.101 55.092C117.106 55.0907 117.11 55.0891 117.115 55.0879C117.104 55.0883 117.092 55.0896 117.078 55.0921C117.086 55.0921 117.094 55.092 117.101 55.092Z" fill="#899884"/>
<path d="M121.748 54.8213C121.418 54.6784 120.995 55.4883 120.534 55.3772C120.267 55.3129 120.27 55.0073 119.989 54.889C119.635 54.7402 119.165 55.0281 118.774 55.3546C118.42 55.0241 117.853 54.8445 117.384 55.0079C117.294 55.0393 117.205 55.063 117.114 55.0875C117.129 55.0869 117.142 55.0878 117.146 55.0934C117.145 55.092 117.127 55.0914 117.101 55.0914C117.092 55.0937 117.084 55.0966 117.075 55.0989C116.91 55.1428 117.002 55.1055 117.079 55.0916C116.993 55.0922 116.855 55.0964 116.83 55.0967C116.75 55.0714 116.662 55.053 116.582 55.0313C116.577 55.0302 116.576 55.0302 116.572 55.0291C116.502 54.9848 116.425 54.9435 116.352 54.9029C116.341 54.8917 116.332 54.8819 116.313 54.8635C115.761 54.3531 114.804 54.329 114.257 54.8124C113.866 54.5269 113.287 54.4516 112.842 54.6102C112.544 54.0285 111.762 53.6827 111.147 53.8818C110.347 54.1409 109.966 54.8759 110.125 55.6824C110.138 55.7486 110.146 55.8185 110.163 55.8837C110.166 55.8951 110.168 55.8981 110.17 55.9062C110.183 56.038 110.196 56.1695 110.204 56.3018C110.222 56.6164 110.22 56.9317 110.203 57.2463C110.195 57.4043 110.182 57.562 110.167 57.7195C110.162 57.7742 110.144 57.9173 110.14 57.9568C110.095 58.2684 110.04 58.5787 109.979 58.8875C109.737 60.112 109.413 61.3196 109.236 62.5565C109.042 63.9098 108.94 65.2694 108.985 66.637C109.027 67.9183 109.215 69.2689 109.907 70.3771C110.639 71.549 111.763 72.3332 113.143 72.4885C114.468 72.6375 115.833 71.9695 116.751 71.0482C117.596 70.1992 118.128 69.1245 118.593 68.0364C119.119 66.805 119.608 65.5593 120.037 64.2905C120.938 61.6246 121.595 58.8803 121.967 55.216C121.989 54.9988 121.862 54.8706 121.748 54.8213Z" fill="#899884"/>
<path d="M95.7196 67.7344C95.6239 66.2846 95.3813 64.8331 94.966 63.44C94.5071 61.9005 93.8023 60.462 93.1192 59.0137C92.9661 58.6893 92.8204 58.3617 92.6737 58.0343C92.6731 58.033 92.6731 58.0329 92.6725 58.0314C92.6345 57.9336 92.5937 57.8368 92.5559 57.739C92.4954 57.583 92.4375 57.4261 92.3828 57.2679C92.2606 56.9143 92.1542 56.5551 92.0709 56.1903C92.0339 56.0283 92.0039 55.8652 91.9745 55.7016C91.9733 55.6946 91.9727 55.6915 91.9716 55.685C91.9601 55.5714 91.9494 55.4579 91.9414 55.344C91.8873 54.5819 91.3072 53.8431 90.4783 53.8802C89.8277 53.9094 89.1556 54.3788 89.0325 55.0407C88.5735 55.0042 88.1118 55.16 87.7831 55.5082C86.0301 55.5074 84.2771 55.5066 82.524 55.5059C82.0597 55.5057 81.654 55.7217 81.3751 56.0828C81.3247 56.148 81.2845 56.2132 81.2486 56.2784C80.7941 55.8682 80.0094 55.7822 79.5097 56.1045C78.7913 56.5679 78.6404 57.3614 78.9848 58.1071C81.2783 63.0729 83.3103 68.6598 87.9314 71.9606C88.9284 72.6728 90.1029 73.3048 91.2989 73.5948C92.7707 73.9515 94.5217 73.6697 95.2619 72.1828C95.6283 71.4468 95.6914 70.6313 95.734 69.822C95.7707 69.1267 95.7655 68.4292 95.7196 67.7344Z" fill="#899884"/>
<path d="M74.1755 75.2573C73.6609 73.5477 72.7308 72.006 71.7401 70.5363C70.7039 68.9991 69.6496 67.474 68.6036 65.9433C68.005 65.0673 67.4064 64.1913 66.8078 63.3153C66.1847 62.4036 65.5652 61.1404 64.4149 60.8247C63.1458 60.4763 61.9875 61.3089 60.9147 61.8745C59.9917 62.3612 59.0686 62.8478 58.1456 63.3345C57.9931 63.4149 57.8691 63.5163 57.7679 63.6307C57.4027 63.5996 57.0273 63.6765 56.6985 63.8617C55.7439 64.3991 55.5969 63.9659 56.3668 65.6306C56.4072 65.7182 56.7393 66.3225 56.8324 66.3491C56.9276 66.4876 57.209 66.8387 57.3041 66.9774C57.5754 67.3727 57.8459 67.7687 58.1157 68.165C58.6282 68.9181 59.1383 69.6729 59.6456 70.4295C60.6869 71.9826 61.7172 73.5431 62.7363 75.111C63.6432 76.5062 64.5191 77.9267 65.5293 79.2508C66.0785 79.9706 66.6491 80.6727 67.2942 81.3096C67.9018 81.9096 68.5857 82.5411 69.3536 82.9232C70.5111 83.4993 71.7565 83.4326 72.7677 82.6028C73.4559 82.0382 73.8726 81.2075 74.1747 80.3871C74.7692 78.7721 74.6652 76.8841 74.1755 75.2573Z" fill="#899884"/>
<path d="M56.0106 82.1675C54.864 81.0544 53.4852 80.2009 52.0962 79.4271C48.4707 77.4073 44.8095 75.4491 41.1662 73.4615C40.4944 73.0951 39.5411 73.2737 39.1646 73.9867C39.039 74.2244 38.9818 74.4915 38.9849 74.7552C38.9172 74.7532 38.8499 74.7483 38.7814 74.7528C37.9688 74.8065 37.3088 75.2298 36.6983 75.7327C35.6681 76.5812 34.6673 77.4686 33.6527 78.3358C33.3685 78.5787 33.2391 78.9376 33.2344 79.302C32.9563 79.3488 32.6932 79.478 32.4879 79.7016C31.9682 80.268 31.8888 81.2151 32.4879 81.7715C37.4817 86.4101 43.0849 91.3317 50.2892 91.483C53.3435 91.5471 57.879 90.6007 58.2799 86.8957C58.4746 85.0975 57.2354 83.3565 56.0106 82.1675Z" fill="#899884"/>
<path d="M29.3039 110.207C28.5138 109.127 27.4679 108.449 26.2376 107.959C25.1665 107.532 24.0242 107.323 22.9311 106.963C22.6181 106.86 22.3078 106.749 22.0008 106.629C21.9432 106.606 21.8858 106.583 21.8285 106.561C21.8142 106.555 21.7438 106.526 21.6995 106.508C21.6835 106.501 21.6697 106.495 21.665 106.493C21.5709 106.451 21.4766 106.41 21.3829 106.367C20.8208 106.11 20.2714 105.826 19.7375 105.515C19.2035 105.204 18.685 104.866 18.1845 104.504C18.0677 104.419 17.9528 104.332 17.8371 104.246C18.0798 104.426 17.7118 104.145 17.6477 104.092C17.392 103.884 17.143 103.668 16.8983 103.447C16.3301 102.935 15.3825 102.844 14.8292 103.447C14.3158 104.007 14.2224 104.97 14.8292 105.517C14.8652 105.55 14.9028 105.581 14.9391 105.613C14.8878 105.677 14.8411 105.745 14.8032 105.821C14.4544 106.518 14.1982 107.249 14.0108 108C12.9335 111.056 11.856 114.112 10.7787 117.168C10.4628 118.064 11.2896 119.038 12.1895 119.021C17.1532 118.925 22.1199 118.008 26.7703 116.264C27.3645 116.041 28.0181 115.843 28.553 115.497C29.2146 115.07 29.6596 114.486 29.921 113.748C30.3319 112.588 30.0173 111.183 29.3039 110.207ZM14.2856 116.002C14.3303 115.875 14.3752 115.748 14.4199 115.621C14.5254 115.716 14.6393 115.803 14.7704 115.873C14.7956 115.902 14.8223 115.931 14.8489 115.96C14.6612 115.975 14.4734 115.989 14.2856 116.002Z" fill="#899884"/>
<path d="M39.7818 131.26C39.0198 129.362 37.1877 128.461 35.2116 128.462C33.3841 128.463 31.577 129.06 29.8237 129.507C27.7953 130.024 25.7677 130.544 23.7383 131.057C22.7919 131.296 21.8411 131.522 20.8806 131.698C20.6438 131.742 20.4065 131.782 20.1686 131.819C20.0761 131.834 19.9832 131.847 19.8906 131.861C19.8358 131.868 19.7812 131.875 19.7264 131.881C19.2556 131.936 18.7828 131.975 18.309 131.991C17.8444 132.007 17.3786 132.002 16.9149 131.968C16.8003 131.96 16.686 131.95 16.5719 131.938C16.5506 131.936 16.5049 131.934 16.4595 131.932C16.4744 131.932 16.4895 131.933 16.5077 131.933C16.2891 131.929 16.0525 131.857 15.8384 131.81C15.4391 131.721 14.8961 131.631 14.5448 131.413C14.6267 131.464 14.6637 131.487 14.6739 131.493C14.6509 131.479 14.5214 131.4 14.4785 131.38C14.358 131.323 14.2393 131.263 14.1221 131.2C13.901 131.081 13.6878 130.95 13.4789 130.811C12.8401 130.386 11.8317 130.665 11.4771 131.336C11.0887 132.072 11.3203 132.885 12.002 133.339C12.1341 133.427 12.2694 133.505 12.4045 133.584C12.3131 133.769 12.2633 133.97 12.2889 134.18C12.5596 136.389 13.3457 138.402 14.1485 140.462C14.5243 141.427 14.8883 142.399 15.1554 143.4C15.2212 143.646 15.2811 143.894 15.3335 144.144C15.3576 144.259 15.3802 144.374 15.4009 144.49C15.4045 144.51 15.4244 144.631 15.4393 144.72C15.4456 144.784 15.473 145.001 15.4756 145.03C15.4863 145.147 15.495 145.264 15.5014 145.382C15.5164 145.658 15.5173 145.934 15.5088 146.21C15.478 147.202 16.4652 147.822 17.3608 147.622C19.372 147.172 21.2609 146.291 23.0929 145.368C24.9421 144.436 26.7819 143.485 28.6257 142.543C30.4932 141.588 32.3606 140.634 34.2281 139.68C35.8305 138.861 37.5353 138.02 38.6918 136.593C39.8693 135.139 40.5089 133.071 39.7818 131.26Z" fill="#899884"/>
<path d="M74.5492 175.261C71.3432 174.678 66.1519 172.458 64.8943 176.799C64.6695 178.513 58.7515 183.994 61.2065 184.263C63.1428 185.757 66.9937 186.957 68.9216 185.507C69.5445 185.88 69.6727 187.358 70.618 186.471C72.1614 183.222 75.4517 178.612 74.5492 175.261Z" fill="#899884"/>
<path d="M60.4082 103.186C60.3503 103.295 60.2964 103.405 60.239 103.513C59.9921 102.866 59.4491 102.299 58.7616 102.143C58.1587 102.005 57.5214 102.072 56.9839 102.395C56.9441 102.419 56.9098 102.447 56.8724 102.472C55.193 102.305 53.5314 102.403 51.8579 102.664C51.531 102.715 51.235 102.891 50.9907 103.126C50.9875 102.981 50.9896 102.837 50.9829 102.693C50.9505 101.989 49.8531 101.985 49.8857 102.693C50.0128 105.455 49.5169 108.181 49.1613 110.909C48.9871 112.245 48.8464 113.589 48.8366 114.938C48.8277 116.137 48.8416 117.474 49.2688 118.611C49.6573 119.645 50.4656 120.468 51.6297 120.482C52.7894 120.497 53.8516 119.758 54.5645 118.898C56.1336 117.006 56.6784 114.458 57.5225 112.203C58.6093 109.299 59.8948 106.474 61.3557 103.74C61.6885 103.118 60.7417 102.562 60.4082 103.186Z" fill="#899884"/>
<path d="M84.3858 117.621C84.2506 117.384 83.8736 117.25 83.6351 117.424L83.297 117.672C83.3399 117.505 83.3654 117.329 83.3654 117.141C83.3654 116.412 82.9579 115.578 82.2785 115.245C82.1269 115.171 81.9854 115.086 81.8429 114.998C81.8093 114.971 81.7795 114.948 81.7692 114.939C81.5072 114.702 81.2711 114.438 81.0482 114.164C81.0389 114.153 81.0184 114.127 80.9959 114.098C80.9879 114.088 80.9801 114.077 80.9749 114.07C80.8614 113.919 80.7495 113.766 80.6366 113.614C80.3276 113.198 80.015 112.784 79.6827 112.386C78.5841 111.073 77.2114 109.958 75.7359 109.095C75.316 108.849 74.8323 108.769 74.3662 108.831C74.43 108.78 74.4917 108.726 74.5555 108.676C74.7895 108.49 74.7459 108.094 74.5555 107.899C74.3287 107.667 74.0105 107.716 73.7796 107.899C69.1987 111.534 65.019 115.683 61.3776 120.261C60.4147 121.471 59.4485 122.833 59.5183 124.455C59.5233 124.57 59.5589 124.665 59.6115 124.742C59.6069 124.775 59.6049 124.807 59.6086 124.841C59.798 126.605 60.6889 128.192 62.1191 129.248C63.5924 130.336 65.6156 130.66 67.3677 130.152C68.3275 129.873 69.1839 129.344 69.9917 128.769C70.8836 128.134 71.7604 127.477 72.6435 126.83C74.4499 125.507 76.2563 124.183 78.0627 122.86C80.1047 121.364 82.1468 119.868 84.1888 118.372C84.4298 118.196 84.5432 117.898 84.3858 117.621Z" fill="#899884"/>
<path d="M88.7154 131.638C88.1716 131.654 87.6281 131.681 87.0852 131.715C86.7952 131.669 86.4979 131.68 86.2158 131.775C86.2116 131.777 86.2073 131.778 86.2031 131.779C84.4756 131.921 82.7554 132.153 81.0533 132.481C79.7915 132.724 78.5398 133.019 77.3024 133.365C76.2923 133.648 75.2858 133.969 74.3481 134.446C73.5401 134.857 72.8088 135.404 72.2411 136.102C71.4465 136.892 71.0883 137.952 70.9521 139.045C70.808 140.203 70.7657 141.532 71.5415 142.481C72.3105 143.422 73.546 144.012 74.6416 144.476C75.8485 144.986 77.1036 145.376 78.3447 145.793C79.8673 146.304 81.3897 146.815 82.9122 147.326C83.4842 147.518 83.7754 146.778 83.4363 146.416C83.9264 146.256 84.3575 145.933 84.6662 145.461C86.5167 142.632 87.8545 139.425 88.5583 136.118C88.623 135.814 88.6262 135.497 88.5757 135.19C88.6151 135.127 88.6512 135.062 88.6941 135C89.1493 134.346 89.0404 133.39 88.6382 132.739C88.664 132.738 88.6896 132.736 88.7154 132.736C89.4199 132.715 89.4228 131.617 88.7154 131.638Z" fill="#899884"/>
<path d="M107.943 121.109C109.177 121.109 110.412 121.109 111.647 121.109C112.045 121.109 112.427 120.758 112.408 120.347C112.39 119.934 112.074 119.585 111.647 119.585C110.412 119.585 109.177 119.585 107.943 119.585C107.544 119.585 107.163 119.935 107.181 120.347C107.2 120.76 107.516 121.109 107.943 121.109Z" fill="#344D21"/>
<path d="M109.64 118.334C110.12 118.305 110.602 118.303 111.082 118.331C111.318 118.344 111.553 118.365 111.787 118.392C111.85 118.399 111.914 118.404 111.976 118.415C111.945 118.411 111.913 118.407 111.882 118.403C111.918 118.408 111.954 118.413 111.99 118.418C112.115 118.437 112.24 118.459 112.365 118.481C112.571 118.518 112.766 118.513 112.952 118.404C113.11 118.312 113.261 118.131 113.302 117.949C113.387 117.577 113.19 117.087 112.77 117.012C111.737 116.826 110.689 116.748 109.64 116.81C109.243 116.834 108.859 117.144 108.879 117.572C108.896 117.965 109.214 118.359 109.64 118.334Z" fill="#344D21"/>
<path d="M121.321 120.169C122.255 120.338 123.202 120.403 124.149 120.328C124.354 120.312 124.539 120.254 124.688 120.105C124.82 119.973 124.919 119.756 124.911 119.566C124.893 119.18 124.574 118.771 124.149 118.804C123.423 118.862 122.695 118.842 121.974 118.745C122.041 118.754 122.109 118.763 122.176 118.772C122.026 118.751 121.876 118.727 121.726 118.7C121.52 118.662 121.325 118.668 121.139 118.776C120.981 118.869 120.83 119.05 120.789 119.232C120.704 119.604 120.902 120.093 121.321 120.169Z" fill="#344D21"/>
<path d="M115.968 122.498C116.739 122.498 117.511 122.498 118.283 122.498C118.681 122.498 119.063 122.148 119.044 121.736C119.026 121.324 118.71 120.975 118.283 120.975C117.511 120.975 116.739 120.975 115.968 120.975C115.569 120.975 115.188 121.325 115.206 121.736C115.225 122.149 115.541 122.498 115.968 122.498Z" fill="#344D21"/>
<path d="M93.7075 121.668C94.7224 122.036 95.9075 122.023 96.9106 121.622C97.1016 121.546 97.2579 121.456 97.3657 121.272C97.4613 121.109 97.5017 120.868 97.4425 120.685C97.327 120.328 96.9019 119.994 96.5058 120.153C96.2916 120.238 96.0716 120.307 95.8458 120.354C95.7812 120.367 95.7164 120.377 95.6516 120.389C95.5011 120.415 95.8228 120.375 95.6582 120.387C95.5431 120.396 95.429 120.406 95.3134 120.408C95.1983 120.41 95.083 120.407 94.9681 120.399C94.9188 120.395 94.8698 120.39 94.8206 120.385C94.7366 120.375 94.7551 120.378 94.8761 120.394C94.8435 120.389 94.8111 120.384 94.7786 120.378C94.5513 120.338 94.3292 120.278 94.1123 120.199C93.7372 120.063 93.2621 120.352 93.1756 120.731C93.0779 121.16 93.3058 121.523 93.7075 121.668Z" fill="#344D21"/>
<path d="M90.2386 118.136C91.3662 117.812 92.4937 117.489 93.6213 117.165C94.0038 117.055 94.2807 116.622 94.1531 116.228C94.0272 115.838 93.6265 115.578 93.2164 115.696C92.0888 116.019 90.9613 116.343 89.8337 116.667C89.4512 116.777 89.1743 117.21 89.3019 117.604C89.4278 117.993 89.8285 118.254 90.2386 118.136Z" fill="#344D21"/>
<path d="M88.7269 124.87C88.8652 124.801 89.0044 124.733 89.1449 124.669C89.2152 124.636 89.2856 124.605 89.3565 124.573C89.388 124.56 89.4197 124.546 89.451 124.532C89.5386 124.493 89.304 124.593 89.4354 124.539C89.7217 124.421 90.011 124.312 90.3043 124.213C90.8912 124.016 91.4912 123.861 92.0994 123.746C92.4916 123.671 92.7506 123.178 92.6312 122.808C92.4957 122.389 92.1148 122.197 91.6945 122.276C90.3954 122.522 89.1397 122.962 87.9583 123.555C87.6015 123.734 87.4722 124.266 87.6851 124.597C87.9204 124.962 88.3452 125.062 88.7269 124.87Z" fill="#344D21"/>
<path d="M87.6679 121.344C88.1919 120.975 88.7525 120.663 89.3418 120.412C89.2812 120.437 89.2205 120.463 89.1599 120.488C89.3132 120.424 89.468 120.363 89.6245 120.307C89.814 120.238 89.9752 120.135 90.0796 119.956C90.1752 119.793 90.2156 119.553 90.1564 119.369C90.0375 119.002 89.6207 118.692 89.2197 118.837C88.3984 119.135 87.6143 119.525 86.8994 120.028C86.7341 120.144 86.6047 120.283 86.5494 120.483C86.4993 120.666 86.5219 120.908 86.6262 121.07C86.731 121.233 86.8871 121.376 87.0813 121.42C87.2714 121.464 87.5021 121.46 87.6679 121.344Z" fill="#344D21"/>
<path d="M101.818 112.439C102.533 112.219 103.263 112.058 104.004 111.949C104.149 111.928 103.888 111.963 103.986 111.951C104.03 111.946 104.075 111.94 104.119 111.935C104.207 111.924 104.296 111.914 104.384 111.905C104.57 111.887 104.756 111.872 104.943 111.861C105.325 111.837 105.707 111.831 106.09 111.838C106.488 111.845 106.87 111.482 106.851 111.076C106.833 110.657 106.517 110.322 106.09 110.314C104.513 110.284 102.921 110.507 101.413 110.97C101.032 111.087 100.752 111.508 100.881 111.907C101.005 112.29 101.41 112.564 101.818 112.439Z" fill="#344D21"/>
<path d="M102.233 115.898C103.313 115.84 104.393 115.781 105.473 115.723C105.87 115.701 106.254 115.388 106.235 114.961C106.217 114.567 105.899 114.176 105.473 114.199C104.393 114.258 103.313 114.316 102.233 114.375C101.836 114.396 101.452 114.71 101.472 115.136C101.489 115.531 101.807 115.921 102.233 115.898Z" fill="#344D21"/>
<path d="M101.773 123.002C102.796 122.873 103.829 122.837 104.859 122.895C105.257 122.917 105.638 122.529 105.62 122.133C105.601 121.701 105.285 121.395 104.859 121.371C103.829 121.314 102.796 121.35 101.773 121.478C101.563 121.505 101.39 121.546 101.235 121.701C101.102 121.834 101.003 122.05 101.011 122.24C101.02 122.437 101.085 122.641 101.235 122.779C101.372 122.905 101.578 123.026 101.773 123.002Z" fill="#344D21"/>
<path d="M115.04 114.335C116.637 114.412 118.233 114.489 119.829 114.566C120.227 114.585 120.608 114.202 120.59 113.804C120.571 113.375 120.256 113.063 119.829 113.043C118.233 112.965 116.637 112.888 115.04 112.811C114.642 112.792 114.261 113.175 114.279 113.573C114.298 114.002 114.614 114.314 115.04 114.335Z" fill="#344D21"/>
<path d="M109.482 82.6403C107.037 80.6243 104.593 78.6079 102.149 76.5919C101.764 76.2742 100.967 76.3024 100.876 76.928C100.676 78.3029 100.593 79.686 100.677 81.0743C100.768 82.567 101.091 84.0227 101.303 85.4996C101.625 87.7498 102.156 89.9689 102.875 92.1249C104.315 96.4392 106.477 100.506 109.209 104.139C111.986 107.832 115.302 111.081 119.055 113.776C122.758 116.436 126.887 118.522 131.244 119.872C136.084 121.372 141.348 122.023 146.389 121.37C148.993 121.033 151.51 120.327 153.865 119.156C155.839 118.174 157.661 116.884 159.284 115.394C162.613 112.338 165.079 108.416 166.673 104.205C168.296 99.9199 168.977 95.2785 168.629 90.709C168.227 85.4262 166.662 80.3116 164.334 75.5676C161.991 70.7905 158.886 66.4047 155.381 62.413C154.538 61.4522 153.668 60.5148 152.776 59.5983C152.294 59.1021 151.513 59.4998 151.476 60.1369C151.326 62.7439 151.176 65.3511 151.025 67.9581C151.002 68.3693 151.392 68.7199 151.787 68.7199C152.219 68.7199 152.524 68.3704 152.548 67.9581C152.699 65.3511 152.849 62.7439 152.999 60.1369C152.566 60.3164 152.133 60.4961 151.699 60.6756C155.294 64.3717 158.532 68.426 161.151 72.8746C163.735 77.2614 165.693 82.0267 166.626 87.0446C167.465 91.5543 167.38 96.1358 166.239 100.545C165.16 104.71 163.211 108.706 160.442 111.984C157.702 115.227 154.186 117.765 150.142 119.022C145.188 120.562 139.711 120.327 134.732 119.222C130.415 118.264 126.342 116.578 122.571 114.281C118.795 111.981 115.405 109.108 112.485 105.777C109.6 102.486 107.21 98.7306 105.472 94.6941C104.622 92.7215 103.921 90.5905 103.415 88.4702C103.16 87.4017 102.951 86.3218 102.791 85.235C102.591 83.8697 102.293 82.5182 102.204 81.1387C102.124 79.8775 102.167 78.5491 102.344 77.3334C101.92 77.4454 101.496 77.5576 101.071 77.6696C103.516 79.6857 105.96 81.702 108.405 83.7181C108.722 83.9795 109.171 84.0286 109.482 83.7181C109.751 83.4481 109.801 82.9033 109.482 82.6403Z" fill="black"/>
<path d="M149.453 120.401C152.025 122.897 154.691 125.284 157.348 127.687C160.351 130.403 163.305 133.172 166.199 136.003C169.03 138.772 171.806 141.599 174.485 144.516C175.713 145.854 176.921 147.212 178.097 148.597C178.638 149.234 179.211 149.864 179.704 150.54C179.588 150.38 179.701 150.537 179.722 150.564C179.756 150.61 179.79 150.656 179.823 150.702C179.88 150.779 179.935 150.857 179.99 150.936C180.122 151.127 180.249 151.323 180.369 151.522C180.479 151.706 180.583 151.892 180.679 152.082C180.723 152.168 180.765 152.255 180.805 152.342C180.829 152.392 180.859 152.445 180.876 152.498C180.815 152.302 180.891 152.539 180.906 152.578C180.976 152.759 181.037 152.943 181.088 153.13C181.113 153.225 181.136 153.321 181.156 153.417C181.166 153.469 181.175 153.521 181.185 153.574C181.218 153.753 181.17 153.398 181.186 153.578C181.202 153.764 181.211 153.949 181.199 154.136C181.198 154.163 181.174 154.262 181.186 154.285C181.19 154.25 181.195 154.215 181.199 154.18C181.194 154.213 181.189 154.245 181.182 154.277C181.164 154.374 181.139 154.47 181.109 154.564C181.105 154.574 181.063 154.705 181.059 154.704C181.071 154.674 181.084 154.643 181.097 154.613C181.084 154.644 181.069 154.674 181.055 154.704C181.017 154.78 180.975 154.853 180.93 154.925C180.911 154.954 180.873 155.037 180.842 155.054C180.86 155.03 180.879 155.007 180.897 154.983C180.88 155.004 180.863 155.025 180.846 155.045C180.768 155.136 180.683 155.215 180.596 155.295C180.464 155.418 180.732 155.212 180.579 155.307C180.549 155.326 180.52 155.348 180.49 155.367C180.4 155.424 180.305 155.475 180.209 155.522C180.197 155.527 180.035 155.593 180.154 155.548C180.273 155.503 180.108 155.564 180.096 155.568C179.981 155.611 179.864 155.647 179.746 155.679C179.568 155.727 179.387 155.764 179.206 155.795C179.129 155.808 179.052 155.82 178.976 155.831C178.803 155.857 179.206 155.807 178.981 155.83C178.915 155.837 178.849 155.845 178.783 155.851C178.551 155.871 178.318 155.877 178.085 155.869C177.964 155.865 177.842 155.857 177.722 155.845C177.673 155.841 177.624 155.834 177.574 155.83C177.516 155.822 177.535 155.825 177.632 155.838C177.594 155.832 177.556 155.826 177.518 155.82C177.114 155.754 176.717 155.648 176.332 155.508C176.257 155.48 176.183 155.45 176.108 155.421C175.951 155.36 176.271 155.494 176.12 155.427C176.08 155.409 176.039 155.391 175.998 155.373C175.851 155.305 175.705 155.232 175.562 155.155C175.367 155.049 175.176 154.935 174.991 154.812C174.658 154.592 174.134 154.735 173.949 155.086C173.748 155.467 173.867 155.893 174.223 156.128C175.532 156.993 177.143 157.498 178.718 157.38C179.595 157.314 180.558 157.148 181.304 156.653C182.165 156.082 182.655 155.158 182.722 154.136C182.783 153.211 182.466 152.29 182.071 151.469C181.661 150.615 181.102 149.849 180.505 149.118C179.371 147.728 178.198 146.368 177.003 145.03C174.355 142.066 171.595 139.204 168.775 136.403C165.817 133.464 162.791 130.595 159.714 127.782C156.881 125.192 153.999 122.661 151.231 120.001C150.997 119.776 150.763 119.55 150.53 119.324C150.244 119.046 149.734 119.017 149.453 119.324C149.178 119.624 149.148 120.105 149.453 120.401Z" fill="black"/>
<path d="M160.954 113.573C163.17 115.376 165.391 117.173 167.618 118.962C169.853 120.758 172.094 122.546 174.341 124.328C176.579 126.103 178.822 127.871 181.072 129.632C182.19 130.508 183.305 131.388 184.434 132.249C185.453 133.026 186.495 133.776 187.606 134.417C188.154 134.733 188.718 135.02 189.299 135.269C189.877 135.517 190.464 135.762 191.089 135.857C191.766 135.961 192.448 135.942 193.067 135.613C193.698 135.277 194.086 134.627 194.258 133.952C194.86 131.595 193.906 129.175 192.523 127.287C191.04 125.262 189.125 123.637 187.25 121.99C185.159 120.152 183.048 118.337 180.918 116.545C178.788 114.752 176.639 112.983 174.472 111.236C172.27 109.461 170.048 107.712 167.809 105.984C167.27 105.568 166.73 105.154 166.19 104.741C166.043 104.63 165.771 104.618 165.603 104.664C165.426 104.713 165.235 104.849 165.148 105.014C165.054 105.191 165.008 105.405 165.071 105.601C165.136 105.803 165.254 105.929 165.421 106.057C165.962 106.469 166.502 106.884 167.04 107.3C167.106 107.35 167.171 107.4 167.236 107.451C167.104 107.348 167.289 107.492 167.327 107.521C167.473 107.634 167.62 107.748 167.767 107.862C168.036 108.071 168.304 108.279 168.572 108.489C169.653 109.332 170.73 110.182 171.802 111.037C173.93 112.733 176.041 114.452 178.133 116.193C180.241 117.947 182.331 119.723 184.403 121.521C185.43 122.413 186.453 123.311 187.472 124.213C188.349 124.991 189.217 125.78 190.017 126.639C190.212 126.849 190.403 127.063 190.589 127.281C190.679 127.386 190.768 127.493 190.855 127.6C190.899 127.653 190.942 127.707 190.985 127.761C191.006 127.788 191.027 127.815 191.049 127.842C191.136 127.953 190.983 127.755 191.04 127.831C191.374 128.277 191.691 128.734 191.967 129.219C192.101 129.455 192.226 129.696 192.34 129.942C192.367 130.002 192.393 130.061 192.42 130.121C192.473 130.24 192.405 130.088 192.4 130.073C192.411 130.103 192.425 130.133 192.437 130.163C192.491 130.297 192.541 130.433 192.587 130.571C192.672 130.82 192.742 131.075 192.798 131.332C192.823 131.449 192.845 131.566 192.864 131.684C192.868 131.711 192.869 131.752 192.878 131.779C192.828 131.628 192.863 131.654 192.87 131.719C192.879 131.798 192.887 131.877 192.894 131.957C192.915 132.222 192.919 132.488 192.905 132.754C192.898 132.885 192.884 133.015 192.871 133.146C192.86 133.25 192.895 132.988 192.878 133.092C192.873 133.125 192.868 133.158 192.863 133.191C192.851 133.267 192.836 133.344 192.82 133.42C192.79 133.556 192.748 133.688 192.706 133.821C192.663 133.959 192.726 133.79 192.726 133.783C192.726 133.801 192.687 133.866 192.682 133.876C192.648 133.945 192.609 134.012 192.567 134.076C192.547 134.106 192.475 134.169 192.551 134.102C192.631 134.031 192.549 134.1 192.528 134.122C192.505 134.147 192.481 134.17 192.457 134.193C192.426 134.222 192.353 134.253 192.446 134.209C192.545 134.162 192.462 134.197 192.433 134.217C192.408 134.233 192.383 134.249 192.357 134.265C192.331 134.28 192.305 134.294 192.279 134.308C192.169 134.364 192.263 134.308 192.319 134.295C192.204 134.321 192.091 134.366 191.975 134.391C191.851 134.419 192.028 134.383 192.043 134.384C192.014 134.383 191.98 134.39 191.951 134.392C191.874 134.398 191.796 134.399 191.719 134.398C191.655 134.397 191.592 134.394 191.53 134.389C191.498 134.386 191.466 134.383 191.434 134.38C191.347 134.371 191.409 134.34 191.494 134.388C191.448 134.362 191.356 134.365 191.303 134.355C191.232 134.34 191.161 134.324 191.09 134.306C190.823 134.239 190.563 134.148 190.306 134.048C190.236 134.021 190.165 133.993 190.095 133.964C190.077 133.957 189.995 133.931 189.99 133.921C189.994 133.928 190.158 133.994 190.016 133.931C189.869 133.867 189.723 133.801 189.577 133.733C188.439 133.195 187.373 132.515 186.35 131.783C185.839 131.418 185.338 131.039 184.841 130.656C184.812 130.634 184.726 130.568 184.859 130.67C184.829 130.647 184.799 130.624 184.769 130.6C184.709 130.554 184.649 130.507 184.589 130.46C184.459 130.359 184.329 130.258 184.2 130.157C183.924 129.942 183.649 129.728 183.374 129.513C181.164 127.787 178.96 126.054 176.761 124.315C174.562 122.575 172.369 120.829 170.181 119.076C167.984 117.316 165.793 115.55 163.608 113.777C163.082 113.35 162.557 112.923 162.031 112.496C161.87 112.364 161.709 112.273 161.493 112.273C161.306 112.273 161.083 112.356 160.955 112.496C160.699 112.774 160.624 113.305 160.954 113.573Z" fill="black"/>
<path d="M152.124 67.4123C144.651 61.8228 136 57.9743 126.965 55.7208C117.799 53.4347 108.265 52.7236 98.8443 53.1887C89.1053 53.6695 79.403 55.3804 70.05 58.1264C60.3354 60.9786 50.9248 65.0562 42.451 70.628C34.5826 75.8018 27.5964 82.2693 22.0246 89.8746C16.7613 97.0589 12.5699 105.469 10.8135 114.248C10.2802 116.914 10.1475 119.688 10.1518 122.4C10.1594 127.241 10.7674 132.096 11.9402 136.792C13.9796 144.958 17.8353 152.54 23.0197 159.152C27.2562 164.554 32.3375 169.255 37.8904 173.278C41.5891 175.957 45.5101 178.341 49.6046 180.366C50.1258 180.623 50.6501 180.875 51.177 181.12C52.0599 181.532 52.8341 180.219 51.9457 179.805C48.6221 178.255 45.4121 176.464 42.3315 174.475C37.095 171.094 32.2309 167.124 27.9633 162.575C22.6627 156.925 18.3189 150.338 15.5264 143.094C12.4039 134.994 11.0676 126.066 11.8999 117.409C12.1891 114.402 12.9847 111.487 13.9352 108.625C15.3664 104.316 17.2927 100.183 19.6102 96.2803C24.2691 88.4349 30.4914 81.5589 37.6582 75.931C45.5044 69.7697 54.4951 65.1104 63.8635 61.743C73.0093 58.4555 82.6077 56.2615 92.2708 55.2275C101.508 54.2391 110.914 54.308 120.088 55.8459C129.105 57.3573 137.912 60.294 145.782 64.9908C147.704 66.138 149.563 67.3872 151.355 68.7278C152.141 69.3152 152.9 67.9932 152.124 67.4123Z" fill="black"/>
<path d="M51.179 181.12C56.189 183.684 61.4022 185.45 66.912 186.561C75.6245 188.318 84.597 188.544 93.4506 188.042C97.8418 187.793 102.227 187.169 106.403 185.747C110.746 184.268 114.792 182.024 118.413 179.213C125.636 173.606 131.15 165.723 134.095 157.074C135.554 152.79 136.528 148.01 135.41 143.529C134.37 139.359 131.172 135.794 126.905 134.817C124.968 134.373 122.937 134.52 121.164 135.455C119.55 136.307 118.28 137.753 117.438 139.356C115.147 143.723 116.033 148.696 116.047 153.41C116.051 154.807 115.973 156.181 115.666 157.542C115.327 159.043 114.857 160.521 114.261 161.94C112.668 165.738 110.099 168.99 106.502 171.05C103.043 173.03 99.0462 173.883 95.132 174.399C90.6012 174.997 85.9895 175.396 81.4183 175.249C75.4619 175.057 69.4457 174.04 63.8557 171.932C59.6157 170.333 55.6828 168.092 51.8977 165.619C47.8895 163.001 43.9376 160.281 40.1855 157.304C38.762 156.174 37.3645 155.012 35.9925 153.82C35.2554 153.18 34.1738 154.253 34.9156 154.898C38.065 157.633 41.3521 160.211 44.7592 162.617C48.5604 165.302 52.4366 167.964 56.5199 170.205C61.9098 173.163 67.6598 175.09 73.7241 176.041C78.1233 176.731 82.5904 176.962 87.0363 176.694C91.2393 176.441 95.5215 176.064 99.6402 175.162C103.481 174.322 107.222 172.857 110.234 170.272C113.305 167.636 115.319 163.966 116.535 160.145C116.864 159.112 117.149 158.053 117.328 156.982C117.68 154.88 117.582 152.725 117.483 150.607C117.287 146.423 117.005 141.548 120.064 138.229C121.242 136.95 122.819 136.139 124.573 136.093C126.567 136.04 128.509 136.793 130.096 137.972C133.672 140.627 134.644 145.137 134.286 149.366C133.894 154.004 132.167 158.59 130.051 162.698C128.025 166.633 125.474 170.289 122.434 173.507C119.467 176.648 116.057 179.359 112.282 181.466C108.334 183.669 104.053 185.129 99.5967 185.873C95.2605 186.596 90.8427 186.668 86.4571 186.705C81.7866 186.745 77.1333 186.576 72.4992 185.96C67.4431 185.288 62.3336 184.204 57.5688 182.344C55.6527 181.596 53.7787 180.742 51.9478 179.805C51.0767 179.359 50.3052 180.673 51.179 181.12Z" fill="black"/>
<path d="M33.0538 108.878C35.5587 106.683 38.6502 105.278 41.8525 104.398C45.1866 103.481 48.564 103.085 52.0178 103.005C55.522 102.924 58.9939 103.218 62.4017 103.957C65.7836 104.69 69.0557 105.839 72.0996 107.469C74.9408 108.991 77.439 110.837 79.6988 113.115C81.8976 115.331 83.7063 117.782 85.1475 120.575C85.8625 121.961 86.404 123.257 86.8796 124.75C87.1161 125.492 87.3204 126.245 87.4905 127.005C87.5772 127.393 87.6551 127.782 87.7238 128.173C87.7557 128.355 87.7857 128.537 87.8137 128.719C87.848 128.944 87.8589 129.019 87.8807 129.193C88.0669 130.674 88.1159 132.17 88.0191 133.66C87.9946 134.037 87.961 134.414 87.9186 134.79C87.9095 134.871 87.9001 134.952 87.8902 135.032C87.8864 135.063 87.8561 135.293 87.8701 135.191C87.8442 135.379 87.816 135.566 87.7856 135.753C87.6665 136.487 87.5137 137.216 87.3285 137.937C87.1434 138.658 86.9258 139.37 86.6769 140.071C86.5548 140.415 86.4251 140.756 86.2879 141.094C86.1706 141.384 86.0585 141.642 85.8975 141.991C85.2769 143.334 84.5348 144.623 83.6783 145.83C82.8919 146.939 81.9385 148.039 80.8841 149.032C80.6221 149.278 80.3539 149.518 80.0797 149.751C79.9376 149.872 79.7938 149.991 79.6485 150.107C79.5862 150.158 79.5235 150.207 79.4607 150.257C79.4643 150.254 79.361 150.334 79.4116 150.295C79.457 150.26 79.313 150.37 79.2982 150.381C78.7229 150.815 78.1248 151.218 77.5063 151.588C76.8839 151.959 76.241 152.295 75.5816 152.596C75.2075 152.766 75.1157 153.308 75.3084 153.638C75.5333 154.023 75.9746 154.083 76.3502 153.911C79.1063 152.654 81.5617 150.752 83.538 148.461C85.5618 146.114 87.1092 143.394 88.1455 140.476C89.1698 137.591 89.675 134.495 89.5809 131.433C89.4827 128.237 88.7563 125.059 87.528 122.11C86.2682 119.086 84.5313 116.299 82.405 113.807C80.3009 111.342 77.8175 109.193 75.0857 107.45C72.0625 105.521 68.7218 104.08 65.275 103.103C61.799 102.118 58.1861 101.601 54.5772 101.49C50.9828 101.38 47.3493 101.659 43.8219 102.367C40.3959 103.055 36.9946 104.228 34.077 106.185C33.3436 106.677 32.6413 107.218 31.9771 107.8C31.6676 108.072 31.6999 108.6 31.9771 108.878C32.2842 109.185 32.7435 109.15 33.0538 108.878Z" fill="black"/>
<path d="M35.2501 155.094C38.3466 156.399 41.5042 157.558 44.7127 158.556C47.263 159.349 49.8446 160.042 52.45 160.629C53.1771 160.793 53.907 160.937 54.6417 161.063C56.2929 161.349 57.9555 161.573 59.6219 161.75C61.9558 161.997 64.3013 162.143 66.6484 162.17C69.3574 162.201 72.0721 162.074 74.7597 161.725C77.5782 161.359 80.3735 160.776 83.0501 159.805C84.098 159.426 85.2152 159.034 86.1133 158.356C86.6724 157.933 87.1321 157.432 87.3828 156.768C87.6668 156.015 87.5062 155.192 87.1563 154.493C86.1394 152.461 83.8432 151.844 81.7411 151.766C79.9153 151.699 78.0602 151.971 76.2856 152.388C76.1105 152.429 75.9361 152.473 75.7623 152.519C75.3649 152.624 75.1221 153.062 75.2304 153.456C75.3406 153.857 75.7682 154.094 76.1671 153.988C76.6453 153.861 77.1292 153.754 77.6149 153.659C78.0299 153.578 78.447 153.508 78.8658 153.449C78.959 153.436 78.9968 153.432 78.8723 153.448C78.9345 153.44 78.9966 153.432 79.0586 153.424C79.1855 153.408 79.3126 153.394 79.4397 153.38C79.6832 153.355 79.9273 153.334 80.1716 153.318C80.6841 153.284 81.1983 153.271 81.7118 153.289C81.9629 153.297 82.2139 153.314 82.4639 153.339C82.521 153.345 82.5781 153.351 82.6351 153.358C82.6635 153.361 82.6919 153.365 82.7202 153.368C82.8302 153.38 82.5787 153.344 82.687 153.364C82.8073 153.386 82.9285 153.402 83.0486 153.425C83.2918 153.471 83.533 153.528 83.77 153.6C83.8725 153.631 83.9743 153.665 84.0749 153.701C84.1328 153.723 84.19 153.745 84.2476 153.767C84.3684 153.814 84.123 153.708 84.2814 153.784C84.4813 153.879 84.6761 153.982 84.8607 154.105C84.9094 154.137 84.9558 154.173 85.0044 154.205C85.1199 154.283 84.9053 154.115 85.0073 154.209C85.0928 154.287 85.1817 154.361 85.263 154.444C85.3326 154.515 85.3982 154.59 85.4614 154.667C85.4816 154.691 85.5714 154.803 85.4939 154.706C85.4136 154.604 85.53 154.755 85.5497 154.783C85.6256 154.889 85.6966 154.999 85.761 155.113C85.7945 155.172 85.8265 155.232 85.8562 155.294C85.8716 155.325 85.8872 155.357 85.9012 155.389C85.8685 155.314 85.89 155.361 85.9054 155.41C85.9317 155.494 85.9592 155.577 85.9793 155.663C85.9881 155.7 85.9962 155.737 86.003 155.775C85.9999 155.758 85.9937 155.674 86.0006 155.766C86.0065 155.846 86.0056 155.925 86.0047 156.005C86.0034 156.134 86.0218 155.934 86.0053 156.038C85.9988 156.079 85.989 156.119 85.9788 156.159C85.9637 156.218 85.9373 156.276 85.9243 156.334C85.9066 156.414 85.9368 156.305 85.9433 156.293C85.9291 156.32 85.9177 156.348 85.9031 156.375C85.8688 156.437 85.835 156.499 85.7963 156.558C85.7801 156.583 85.7587 156.608 85.7448 156.634C85.6975 156.723 85.8225 156.552 85.7524 156.626C85.6596 156.723 85.5752 156.826 85.4764 156.918C85.4307 156.961 85.3839 157.002 85.3362 157.042C85.3122 157.062 85.2879 157.082 85.2637 157.102C85.1746 157.174 85.4083 157.004 85.244 157.115C85.0252 157.262 84.8063 157.404 84.5731 157.528C84.3701 157.637 84.1618 157.733 83.9517 157.826C83.9308 157.836 83.9095 157.844 83.8886 157.854C83.7987 157.894 84.0394 157.792 83.9517 157.827C83.9156 157.841 83.8798 157.857 83.8439 157.872C83.6971 157.932 83.5497 157.992 83.4018 158.05C80.8697 159.047 78.2062 159.688 75.5189 160.094C75.3523 160.119 75.1854 160.143 75.0185 160.167C74.9855 160.171 74.7972 160.197 74.9129 160.182C74.8104 160.195 74.7077 160.209 74.605 160.222C74.2721 160.264 73.9389 160.303 73.6052 160.338C72.9307 160.41 72.2548 160.468 71.5781 160.514C70.2737 160.602 68.9662 160.646 67.6588 160.65C65.3038 160.659 62.9486 160.543 60.604 160.324C59.65 160.235 58.6976 160.129 57.7476 160.005C57.6907 159.997 57.6339 159.99 57.5771 159.982C57.4204 159.962 57.6354 159.991 57.588 159.984C57.4792 159.969 57.3703 159.954 57.2614 159.939C57.0692 159.912 56.877 159.885 56.6849 159.856C56.3354 159.805 55.9861 159.751 55.6374 159.694C54.9063 159.574 54.1751 159.448 53.4508 159.293C51.2555 158.821 49.0776 158.257 46.9218 157.63C43.9261 156.759 40.9709 155.749 38.067 154.608C37.2587 154.29 36.4546 153.962 35.6544 153.625C35.2752 153.465 34.8166 153.797 34.7177 154.157C34.5974 154.597 34.8695 154.934 35.2501 155.094Z" fill="black"/>
<path d="M88.9072 128.226C95.9 127.064 102.968 126.362 110.054 126.156C113.176 126.065 116.302 126.073 119.424 126.119C122.523 126.166 125.637 126.285 128.7 126.797C133.038 127.523 136.954 128.887 140.701 130.925C145.91 133.757 150.774 137.258 155.536 140.778C161.155 144.931 166.582 149.346 171.811 153.981C172.568 154.652 173.321 155.329 174.07 156.009C174.794 156.667 175.874 155.592 175.147 154.931C169.677 149.964 163.986 145.241 158.087 140.793C153.173 137.087 148.143 133.443 142.81 130.361C139.162 128.253 135.326 126.661 131.207 125.738C128.178 125.06 125.082 124.771 121.985 124.659C118.681 124.539 115.366 124.534 112.061 124.587C105.177 124.697 98.3047 125.281 91.4938 126.286C90.4952 126.434 89.4981 126.591 88.5023 126.757C88.0963 126.824 87.8695 127.327 87.9704 127.694C88.0889 128.125 88.5001 128.293 88.9072 128.226Z" fill="black"/>
<path d="M126.094 99.7701C127.624 101.075 129.452 101.964 131.467 102.153C132.331 102.234 133.217 102.166 134.028 101.84C134.839 101.514 135.605 101.029 136.155 100.338C136.775 99.5596 137.176 98.59 137.041 97.5787C137.013 97.3684 136.975 97.1966 136.818 97.0401C136.686 96.9079 136.469 96.8085 136.28 96.8169C136.083 96.8257 135.879 96.8905 135.741 97.0401C135.615 97.1775 135.493 97.3843 135.518 97.5787C135.542 97.7558 135.55 97.934 135.539 98.1125C135.537 98.1498 135.533 98.1871 135.53 98.2244C135.521 98.3464 135.565 98.0287 135.534 98.1878C135.517 98.2791 135.499 98.3695 135.475 98.4591C135.453 98.5365 135.429 98.6129 135.401 98.6881C135.39 98.7184 135.338 98.8456 135.392 98.7178C135.449 98.5839 135.377 98.7478 135.362 98.7795C135.285 98.9371 135.196 99.0883 135.096 99.2319C135.079 99.2552 135.02 99.3138 135.018 99.3395C135.017 99.3452 135.126 99.2037 135.078 99.2605C135.066 99.2751 135.055 99.2903 135.042 99.305C134.985 99.3743 134.926 99.4415 134.864 99.5066C134.74 99.6386 134.605 99.7619 134.465 99.8764C134.454 99.885 134.411 99.9258 134.403 99.9253C134.395 99.9249 134.542 99.8216 134.479 99.8659C134.441 99.8925 134.405 99.9205 134.367 99.9469C134.291 99.9999 134.214 100.051 134.135 100.099C133.976 100.196 133.812 100.283 133.643 100.361C133.625 100.369 133.606 100.377 133.588 100.385C133.514 100.421 133.69 100.342 133.678 100.348C133.637 100.368 133.592 100.383 133.549 100.4C133.462 100.433 133.374 100.463 133.285 100.491C133.108 100.547 132.928 100.591 132.746 100.624C132.709 100.63 132.64 100.628 132.609 100.646C132.601 100.65 132.793 100.623 132.714 100.631C132.694 100.633 132.675 100.636 132.655 100.638C132.558 100.648 132.46 100.655 132.362 100.658C132.155 100.664 131.949 100.661 131.742 100.649C131.635 100.643 131.528 100.635 131.421 100.624C131.376 100.62 131.33 100.615 131.285 100.609C131.254 100.606 131.223 100.603 131.193 100.598C131.222 100.603 131.365 100.623 131.26 100.606C131.048 100.572 130.838 100.534 130.629 100.485C130.218 100.387 129.815 100.257 129.424 100.098C129.403 100.089 129.381 100.079 129.36 100.071C129.421 100.094 129.5 100.131 129.392 100.084C129.343 100.062 129.293 100.04 129.244 100.017C129.131 99.9645 129.019 99.9098 128.908 99.8529C128.691 99.7417 128.48 99.6217 128.273 99.4938C128.063 99.3643 127.859 99.2269 127.66 99.0821C127.608 99.0444 127.557 99.0059 127.506 98.9676C127.488 98.9546 127.42 98.9019 127.506 98.9686C127.607 99.0468 127.48 98.9475 127.469 98.9391C127.368 98.8586 127.269 98.7762 127.171 98.6924C127.014 98.5591 126.844 98.4692 126.632 98.4692C126.446 98.4692 126.222 98.5523 126.094 98.6924C125.833 98.9768 125.77 99.494 126.094 99.7701Z" fill="black"/>
<path d="M155.188 93.2604C155.951 93.6058 156.762 93.7968 157.603 93.7924C158.428 93.7881 159.227 93.6014 159.979 93.27C161.407 92.6404 162.461 91.3602 162.95 89.8934C163.236 89.0335 163.285 88.1322 163.155 87.2405C163.129 87.0649 162.95 86.8705 162.805 86.7852C162.641 86.6896 162.401 86.6491 162.218 86.7084C162.034 86.768 161.856 86.8823 161.763 87.0585C161.661 87.2519 161.655 87.431 161.686 87.6455C161.709 87.8036 161.666 87.4515 161.681 87.6105C161.685 87.6526 161.69 87.6944 161.694 87.7365C161.699 87.8066 161.704 87.8768 161.707 87.9469C161.713 88.1154 161.711 88.2842 161.699 88.4525C161.694 88.5367 161.685 88.6204 161.676 88.7043C161.659 88.8566 161.7 88.5442 161.683 88.6481C161.677 88.6827 161.672 88.7176 161.666 88.7522C161.638 88.9186 161.601 89.0835 161.555 89.2461C161.514 89.3953 161.465 89.5426 161.41 89.6873C161.396 89.7263 161.376 89.7654 161.364 89.8052C161.428 89.5938 161.399 89.724 161.374 89.7786C161.34 89.8557 161.304 89.9319 161.265 90.0072C161.195 90.1452 161.119 90.28 161.036 90.411C160.999 90.4705 160.96 90.5292 160.92 90.587C160.896 90.6218 160.872 90.6561 160.847 90.6902C160.83 90.7129 160.814 90.7355 160.797 90.7579C160.873 90.6597 160.887 90.6416 160.838 90.7037C160.633 90.9542 160.411 91.1883 160.161 91.3955C160.134 91.418 160.107 91.4397 160.079 91.4618C159.999 91.5266 160.241 91.3442 160.115 91.4334C160.043 91.4839 159.973 91.5349 159.9 91.5826C159.754 91.6778 159.603 91.7648 159.447 91.8432C159.382 91.8758 159.316 91.9058 159.251 91.9367C159.105 92.0052 159.422 91.8699 159.272 91.9283C159.232 91.9441 159.191 91.9604 159.151 91.9757C159.001 92.0318 158.849 92.0807 158.694 92.1221C158.54 92.1636 158.383 92.1976 158.226 92.2244C158.183 92.2316 158.139 92.2354 158.096 92.2446C158.325 92.1948 158.184 92.2328 158.126 92.2392C158.039 92.2487 157.952 92.2558 157.865 92.2607C157.676 92.2715 157.487 92.2716 157.298 92.2612C157.204 92.256 157.11 92.248 157.016 92.2374C156.956 92.2307 156.857 92.1982 157.067 92.2453C157.011 92.2327 156.952 92.2277 156.895 92.2174C156.709 92.1839 156.526 92.1397 156.345 92.0845C156.262 92.059 156.179 92.0312 156.098 92.001C156.057 91.986 156.016 91.9697 155.976 91.954C155.901 91.9235 155.922 91.9323 156.037 91.9803C156.01 91.9687 155.983 91.9568 155.957 91.9447C155.765 91.8577 155.581 91.8097 155.37 91.8679C155.194 91.9166 155.002 92.0531 154.915 92.218C154.739 92.5516 154.801 93.0849 155.188 93.2604Z" fill="black"/>
<path d="M147.653 101.64C148.24 102.618 149.447 103.064 150.542 102.813C151.666 102.555 152.379 101.495 152.417 100.379C152.439 99.7282 152.207 99.12 151.794 98.6244C151.538 98.3169 150.978 98.34 150.717 98.6244C150.417 98.9512 150.444 99.3738 150.717 99.7017C150.797 99.797 150.614 99.5479 150.697 99.6764C150.72 99.7116 150.743 99.7462 150.764 99.7825C150.788 99.8239 150.808 99.8667 150.83 99.9093C150.842 99.9336 150.87 100.001 150.82 99.8837C150.766 99.756 150.81 99.862 150.82 99.8927C150.848 99.9717 150.869 100.053 150.886 100.134C150.886 100.135 150.902 100.199 150.898 100.205C150.891 100.217 150.879 100.015 150.883 100.092C150.886 100.146 150.893 100.199 150.895 100.253C150.897 100.338 150.892 100.421 150.886 100.506C150.878 100.633 150.922 100.31 150.891 100.464C150.88 100.517 150.87 100.57 150.856 100.623C150.838 100.689 150.821 100.807 150.776 100.862C150.765 100.876 150.858 100.691 150.817 100.762C150.806 100.783 150.797 100.805 150.786 100.826C150.764 100.869 150.741 100.911 150.716 100.951C150.694 100.987 150.67 101.021 150.647 101.056C150.582 101.155 150.701 100.983 150.701 100.987C150.699 100.998 150.659 101.036 150.654 101.041C150.627 101.072 150.598 101.102 150.568 101.131C150.539 101.158 150.412 101.262 150.522 101.177C150.637 101.09 150.51 101.184 150.482 101.202C150.447 101.225 150.41 101.246 150.373 101.265C150.337 101.285 150.297 101.3 150.261 101.32C150.472 101.205 150.332 101.289 150.259 101.312C150.178 101.336 150.097 101.349 150.015 101.368C149.925 101.388 150.203 101.353 150.111 101.354C150.093 101.354 150.075 101.357 150.057 101.359C150.009 101.362 149.961 101.364 149.913 101.363C149.865 101.363 149.817 101.361 149.769 101.357C149.752 101.356 149.734 101.353 149.716 101.352C149.623 101.349 149.901 101.386 149.811 101.365C149.722 101.345 149.634 101.331 149.547 101.305C149.495 101.289 149.445 101.268 149.394 101.252C149.317 101.228 149.51 101.294 149.492 101.294C149.473 101.294 149.431 101.265 149.411 101.255C149.352 101.226 149.18 101.159 149.151 101.097C149.145 101.083 149.292 101.215 149.235 101.162C149.213 101.142 149.189 101.124 149.167 101.104C149.131 101.072 149.097 101.039 149.064 101.004C149.048 100.987 149.033 100.968 149.017 100.951C148.934 100.863 149.104 101.082 149.058 101.007C149.029 100.961 148.996 100.918 148.968 100.871C148.763 100.53 148.275 100.373 147.927 100.598C147.583 100.819 147.434 101.274 147.653 101.64Z" fill="black"/>
<path d="M150.616 102.462C150.867 103.216 151.112 103.977 151.254 104.76C151.271 104.854 151.286 104.948 151.301 105.042C151.329 105.223 151.281 104.863 151.301 105.045C151.304 105.079 151.308 105.113 151.312 105.147C151.333 105.351 151.345 105.556 151.345 105.76C151.345 105.947 151.332 106.132 151.315 106.318C151.299 106.497 151.345 106.139 151.315 106.316C151.31 106.35 151.305 106.383 151.299 106.416C151.277 106.533 151.252 106.65 151.221 106.765C151.198 106.847 151.174 106.93 151.146 107.011C151.134 107.044 151.122 107.077 151.11 107.111C151.064 107.238 151.182 106.957 151.139 107.043C151.079 107.166 151.021 107.288 150.948 107.404C150.91 107.465 150.87 107.524 150.828 107.582C150.814 107.601 150.799 107.62 150.786 107.639C150.923 107.442 150.852 107.553 150.815 107.598C150.723 107.708 150.623 107.813 150.517 107.91C150.473 107.951 150.428 107.99 150.381 108.029C150.337 108.066 150.226 108.135 150.423 107.999C150.393 108.019 150.365 108.042 150.336 108.062C150.229 108.138 150.118 108.207 150.004 108.27C149.942 108.303 149.879 108.335 149.814 108.365C149.637 108.446 149.985 108.3 149.803 108.369C149.675 108.417 149.543 108.457 149.409 108.486C149.33 108.503 149.095 108.516 149.379 108.497C149.302 108.503 149.225 108.512 149.148 108.513C149.082 108.514 149.016 108.512 148.951 108.507C148.886 108.502 148.769 108.472 149.024 108.52C148.992 108.514 148.959 108.51 148.927 108.504C148.858 108.49 148.79 108.473 148.722 108.451C148.696 108.443 148.67 108.435 148.645 108.425C148.471 108.361 148.788 108.496 148.675 108.438C148.615 108.408 148.556 108.378 148.499 108.343C148.47 108.325 148.442 108.306 148.414 108.287C148.259 108.178 148.529 108.382 148.43 108.3C148.271 108.168 148.106 108.077 147.892 108.077C147.705 108.077 147.482 108.16 147.353 108.3C147.096 108.581 147.026 109.106 147.353 109.377C147.909 109.838 148.601 110.097 149.33 110.026C150.017 109.96 150.669 109.711 151.22 109.292C151.824 108.832 152.286 108.258 152.566 107.548C152.88 106.75 152.921 105.837 152.818 104.994C152.694 103.984 152.405 103.019 152.085 102.057C151.959 101.679 151.554 101.393 151.148 101.525C150.772 101.646 150.481 102.057 150.616 102.462Z" fill="black"/>
<path d="M151.488 105.52C152.141 106.496 153.3 106.933 154.443 106.734C155.507 106.548 156.361 105.602 156.544 104.552C156.657 103.9 156.585 103.258 156.27 102.67C156.082 102.318 155.565 102.18 155.228 102.397C154.871 102.627 154.754 103.063 154.955 103.439C154.976 103.477 154.992 103.518 155.014 103.556C155.058 103.635 154.955 103.389 154.98 103.476C154.985 103.494 154.993 103.511 154.999 103.528C155.032 103.621 155.057 103.717 155.074 103.814C155.078 103.834 155.089 103.868 155.086 103.887C155.084 103.906 155.07 103.692 155.07 103.776C155.07 103.819 155.077 103.863 155.079 103.906C155.082 104.005 155.076 104.103 155.068 104.202C155.058 104.331 155.104 104.009 155.072 104.166C155.063 104.208 155.055 104.251 155.045 104.293C155.021 104.39 154.989 104.483 154.955 104.577C154.912 104.696 155.036 104.409 154.965 104.548C154.945 104.587 154.926 104.626 154.905 104.664C154.88 104.707 154.855 104.749 154.828 104.79C154.817 104.806 154.806 104.821 154.796 104.836C154.729 104.942 154.823 104.818 154.838 104.786C154.805 104.855 154.719 104.925 154.664 104.977C154.64 105.001 154.587 105.066 154.554 105.076C154.539 105.08 154.702 104.97 154.635 105.013C154.609 105.03 154.584 105.049 154.559 105.066C154.485 105.115 154.409 105.153 154.331 105.193C154.224 105.249 154.412 105.159 154.411 105.16C154.4 105.171 154.352 105.182 154.342 105.186C154.295 105.202 154.248 105.217 154.2 105.229C154.159 105.24 154.117 105.25 154.074 105.258C154.05 105.263 154.026 105.265 154.002 105.271C153.922 105.288 154.125 105.246 154.112 105.256C154.058 105.294 153.881 105.269 153.816 105.267C153.773 105.266 153.729 105.261 153.686 105.259C153.515 105.249 153.845 105.289 153.722 105.265C153.625 105.245 153.528 105.225 153.433 105.195C153.385 105.181 153.339 105.163 153.292 105.146C153.179 105.107 153.372 105.18 153.371 105.18C153.345 105.178 153.311 105.152 153.287 105.141C153.193 105.093 153.106 105.037 153.017 104.979C152.995 104.965 152.938 104.919 153.035 104.995C153.142 105.078 153.05 105.005 153.026 104.985C152.988 104.953 152.952 104.919 152.917 104.884C152.878 104.845 152.844 104.8 152.805 104.761C152.748 104.704 152.879 104.853 152.867 104.843C152.843 104.823 152.819 104.776 152.803 104.751C152.582 104.42 152.121 104.246 151.761 104.478C151.431 104.69 151.251 105.166 151.488 105.52Z" fill="black"/>
<path d="M127.751 80.0847C128.582 80.7962 129.413 81.5077 130.244 82.2192C130.4 82.3526 130.571 82.4424 130.782 82.4424C130.969 82.4424 131.192 82.3594 131.321 82.2192C131.582 81.9346 131.644 81.4185 131.321 81.1418C130.49 80.4303 129.659 79.7188 128.828 79.0073C128.672 78.8739 128.5 78.7842 128.289 78.7842C128.103 78.7842 127.879 78.8672 127.751 79.0073C127.49 79.292 127.428 79.808 127.751 80.0847Z" fill="black"/>
<path d="M131.668 77.9084C131.95 78.2869 132.253 78.6452 132.603 78.9637C132.95 79.2797 133.33 79.5663 133.731 79.8105C134.072 80.018 134.583 79.8964 134.773 79.5372C134.968 79.1666 134.863 78.7164 134.5 78.4949C134.3 78.3734 134.108 78.2415 133.922 78.0994C133.974 78.1392 134.025 78.1789 134.076 78.2186C133.65 77.8888 133.268 77.5076 132.937 77.0822C132.977 77.1336 133.017 77.185 133.056 77.2364C133.032 77.2043 133.007 77.1719 132.983 77.1394C132.86 76.9745 132.734 76.846 132.528 76.7892C132.345 76.7391 132.103 76.7617 131.941 76.8661C131.778 76.9709 131.635 77.1271 131.591 77.3214C131.548 77.5082 131.548 77.7476 131.668 77.9084Z" fill="black"/>
<path d="M136.423 76.048C136.88 76.6248 137.337 77.2015 137.793 77.7782C138.048 78.1001 138.296 78.4513 138.724 78.5488C139.06 78.6253 139.425 78.5373 139.675 78.2941C139.926 78.05 140.049 77.6862 139.943 77.3439C139.825 76.9637 139.406 76.6823 139.006 76.8117C138.624 76.9355 138.348 77.3413 138.474 77.7489C138.477 77.758 138.48 77.7672 138.483 77.7763C138.473 77.7088 138.464 77.6413 138.455 77.5737C138.459 77.5917 138.46 77.6097 138.457 77.6278C138.466 77.5604 138.475 77.4929 138.484 77.4253C138.481 77.4433 138.475 77.4604 138.467 77.4766C138.492 77.4159 138.518 77.3552 138.544 77.2946C138.539 77.3026 138.534 77.3106 138.529 77.3184C138.569 77.267 138.609 77.2156 138.648 77.1642C138.629 77.1885 138.611 77.2064 138.587 77.2258C138.638 77.1861 138.69 77.1463 138.741 77.1066C138.724 77.1183 138.707 77.1284 138.689 77.1365C138.749 77.1108 138.81 77.0853 138.871 77.0596C138.841 77.071 138.815 77.0777 138.783 77.0821C138.851 77.073 138.918 77.064 138.986 77.0549C138.966 77.0566 138.946 77.0556 138.926 77.052C138.994 77.0611 139.061 77.0701 139.129 77.0792C139.107 77.075 139.085 77.0689 139.065 77.0606C139.125 77.0863 139.186 77.1118 139.246 77.1375C139.205 77.119 139.169 77.0972 139.132 77.0702C139.184 77.1099 139.235 77.1496 139.286 77.1893C139.123 77.0537 139.001 76.8656 138.87 76.7004C138.718 76.5082 138.566 76.316 138.414 76.1236C138.109 75.7392 137.805 75.3547 137.5 74.9702C137.387 74.8276 137.135 74.7471 136.962 74.7471C136.775 74.7471 136.552 74.8301 136.424 74.9702C136.29 75.1154 136.191 75.306 136.201 75.5089C136.21 75.7241 136.291 75.8809 136.423 76.048Z" fill="black"/>
<path d="M141.077 74.0578C141.541 75.131 142.284 76.1028 143.196 76.8341C143.359 76.965 143.517 77.0572 143.734 77.0572C143.921 77.0572 144.144 76.9742 144.273 76.8341C144.527 76.5575 144.605 76.0228 144.273 75.7567C144.059 75.5853 143.855 75.4022 143.663 75.2065C143.567 75.1086 143.474 75.0079 143.384 74.9045C143.342 74.8554 143.3 74.8058 143.259 74.7557C143.221 74.7092 143.08 74.5098 143.217 74.706C142.9 74.2523 142.612 73.7985 142.392 73.2888C142.321 73.1257 142.099 72.9835 141.936 72.9387C141.754 72.8885 141.512 72.9111 141.35 73.0155C141.187 73.1203 141.044 73.2765 141 73.4708C140.952 73.6838 140.991 73.8593 141.077 74.0578Z" fill="black"/>
<path d="M147.12 72.1846C147.716 73.0744 148.311 73.964 148.906 74.8538C149.128 75.1844 149.588 75.3595 149.948 75.1271C150.278 74.9147 150.458 74.439 150.221 74.0848C149.626 73.195 149.031 72.3054 148.435 71.4156C148.214 71.0851 147.754 70.9099 147.393 71.1423C147.064 71.3548 146.883 71.8304 147.12 72.1846Z" fill="black"/>
<path d="M111.311 67.4772C111.919 67.473 112.527 67.4915 113.134 67.5345C113.428 67.5553 113.721 67.5818 114.014 67.6139C114.17 67.6308 114.325 67.6506 114.481 67.6698C114.589 67.683 114.335 67.6492 114.443 67.6645C114.479 67.6696 114.516 67.6746 114.552 67.6798C114.634 67.6915 114.716 67.7036 114.798 67.7161C115.008 67.748 115.194 67.751 115.385 67.6393C115.543 67.5468 115.694 67.3656 115.735 67.184C115.818 66.8209 115.624 66.3109 115.203 66.2469C113.914 66.0509 112.616 65.9448 111.311 65.9536C110.913 65.9563 110.531 66.3021 110.55 66.7154C110.568 67.1258 110.884 67.4801 111.311 67.4772Z" fill="black"/>
<path d="M112.393 64.0925C112.979 64.0755 113.566 64.0913 114.15 64.1427C114.294 64.1553 114.437 64.1701 114.581 64.1869C114.617 64.191 114.652 64.1954 114.688 64.1999C114.711 64.2027 114.835 64.2193 114.721 64.2037C114.607 64.1882 114.732 64.2054 114.754 64.2087C114.79 64.2139 114.825 64.219 114.861 64.2244C115.155 64.2689 115.448 64.3225 115.739 64.384C116.128 64.4661 116.581 64.2698 116.676 63.8519C116.763 63.4696 116.561 63.0029 116.144 62.9148C114.913 62.6548 113.651 62.5323 112.393 62.5688C111.996 62.5804 111.613 62.911 111.632 63.3306C111.65 63.7336 111.967 64.1049 112.393 64.0925Z" fill="black"/>
<path d="M112.698 59.5635C114.296 59.4456 115.894 59.3277 117.491 59.2098C117.887 59.1806 118.272 58.8804 118.253 58.4481C118.235 58.0605 117.917 57.6549 117.491 57.6863C115.894 57.8042 114.296 57.922 112.698 58.0399C112.302 58.0691 111.918 58.3693 111.937 58.8017C111.954 59.1893 112.273 59.5948 112.698 59.5635Z" fill="black"/>
<path d="M88.8873 70.0128C89.5814 69.6441 90.289 69.3013 91.0093 68.9868C91.098 68.9481 91.1901 68.9139 91.2769 68.8715C91.2004 68.9089 91.1701 68.9163 91.2658 68.8763C91.3148 68.8558 91.3637 68.8355 91.4127 68.8153C91.5923 68.7413 91.7726 68.6691 91.9536 68.5986C92.3239 68.4543 92.697 68.3176 93.0725 68.1877C93.4481 68.0577 93.7367 67.6596 93.6043 67.2506C93.4839 66.8785 93.0707 66.579 92.6676 66.7185C91.1042 67.2596 89.58 67.921 88.1187 68.6972C87.7664 68.8844 87.629 69.4034 87.8455 69.7395C88.0765 70.0979 88.5105 70.213 88.8873 70.0128Z" fill="black"/>
<path d="M87.5118 66.4879C87.5508 66.457 87.5916 66.4272 87.6297 66.3952C87.5703 66.4451 87.5285 66.4729 87.6144 66.4077C87.6809 66.3573 87.7477 66.3075 87.8149 66.2583C87.9561 66.155 88.0992 66.0542 88.2441 65.956C88.5338 65.7596 88.8307 65.5737 89.1337 65.3986C89.4296 65.2276 89.7315 65.0671 90.0386 64.9174C90.1959 64.8407 90.3545 64.7668 90.5145 64.6959C90.5602 64.6756 90.6061 64.6557 90.6519 64.6357C90.7439 64.5955 90.6451 64.6395 90.608 64.6538C90.7012 64.6179 90.793 64.5775 90.8859 64.5406C91.0768 64.4648 91.2334 64.3744 91.341 64.1905C91.4366 64.0272 91.4771 63.7866 91.4178 63.6035C91.3021 63.2458 90.8775 62.9141 90.4811 63.0714C89.015 63.6534 87.6715 64.4313 86.4349 65.4104C86.2922 65.5233 86.2119 65.7763 86.2119 65.949C86.2119 66.1358 86.2948 66.3591 86.4349 66.4877C86.58 66.6209 86.7705 66.7199 86.9733 66.7108C87.188 66.7014 87.3446 66.6203 87.5118 66.4879Z" fill="black"/>
<path d="M85.8887 63.1518C87.1273 62.49 88.366 61.8283 89.6047 61.1665C89.9566 60.9786 90.0947 60.4609 89.8779 60.1243C89.6474 59.7666 89.2124 59.6498 88.836 59.8509C87.5974 60.5127 86.3587 61.1744 85.12 61.8362C84.7681 62.0242 84.63 62.5419 84.8468 62.8785C85.0773 63.2362 85.5123 63.3529 85.8887 63.1518Z" fill="black"/>
<path d="M83.4315 60.7479C85.1856 59.935 86.9398 59.122 88.6939 58.3091C88.8576 58.2333 88.9978 58.021 89.0439 57.8538C89.094 57.6715 89.0714 57.4286 88.9671 57.2668C88.7262 56.893 88.313 56.8137 87.9253 56.9935C86.1712 57.8064 84.417 58.6194 82.6629 59.4323C82.4992 59.5081 82.359 59.7204 82.3129 59.8876C82.2628 60.0699 82.2854 60.3128 82.3897 60.4746C82.6305 60.8484 83.0437 60.9277 83.4315 60.7479Z" fill="black"/>
<path d="M60.4443 66.2897C61.1894 65.8223 61.9609 65.3979 62.7557 65.0212C62.9486 64.9298 63.1428 64.8411 63.3382 64.7553C63.3851 64.7347 63.4321 64.7143 63.479 64.694C63.5104 64.6805 63.5418 64.667 63.5733 64.6536C63.4778 64.6938 63.4566 64.7028 63.5093 64.6806C63.6118 64.6381 63.7143 64.5956 63.8173 64.5543C64.2294 64.389 64.6464 64.2365 65.0675 64.0957C65.4445 63.9696 65.7306 63.5648 65.5993 63.1585C65.4779 62.7831 65.0671 62.4911 64.6626 62.6264C62.9167 63.2104 61.2355 63.9957 59.6757 64.9741C59.3384 65.1856 59.1748 65.6631 59.4025 66.0164C59.6204 66.3543 60.0833 66.5161 60.4443 66.2897Z" fill="black"/>
<path d="M63.0674 69.0616C63.1569 69.0225 63.2469 68.984 63.3365 68.9453C63.3889 68.923 63.3691 68.9312 63.2772 68.9702C63.3017 68.9598 63.3263 68.9496 63.351 68.9392C63.392 68.9221 63.433 68.9051 63.4741 68.8882C63.6548 68.8138 63.8363 68.7413 64.0185 68.6708C64.383 68.5296 64.7505 68.3961 65.1205 68.2703C65.8607 68.0187 66.6114 67.7991 67.37 67.6098C67.7566 67.5133 68.0263 67.0576 67.9018 66.6727C67.7722 66.272 67.3794 66.0372 66.9651 66.1406C65.3646 66.5399 63.8095 67.0849 62.2987 67.746C62.1357 67.8173 61.9938 68.0378 61.9487 68.2013C61.8986 68.3836 61.9212 68.6264 62.0255 68.7883C62.1303 68.9509 62.2864 69.0941 62.4806 69.1384C62.6932 69.1869 62.8695 69.1483 63.0674 69.0616Z" fill="black"/>
<path d="M65.5506 74.4936C65.7709 74.3492 65.9981 74.2161 66.2329 74.097C66.3504 74.0373 66.4698 73.9822 66.59 73.9285C66.6824 73.8871 66.5807 73.9358 66.5444 73.9474C66.5754 73.9375 66.6056 73.9224 66.6359 73.9104C66.7047 73.883 66.7739 73.8569 66.8436 73.8319C67.0913 73.7427 67.344 73.6674 67.6001 73.6068C67.7282 73.5764 67.8571 73.5498 67.9867 73.5268C68.0515 73.5154 68.1167 73.5062 68.1816 73.4951C68.2838 73.4777 68.0227 73.5138 68.1258 73.5023C68.1667 73.4977 68.2075 73.4925 68.2483 73.488C68.4564 73.465 68.6333 73.4184 68.7867 73.2649C68.9188 73.1327 69.0182 72.916 69.0098 72.7262C68.993 72.3513 68.6723 71.9173 68.2483 71.9645C67.0133 72.1017 65.8252 72.4939 64.782 73.1783C64.4494 73.3965 64.278 73.8625 64.5088 74.2206C64.7229 74.5526 65.1944 74.7274 65.5506 74.4936Z" fill="black"/>
<path d="M68.6072 78.8909C69.1765 78.7096 69.7538 78.5544 70.3378 78.4282C70.6254 78.366 70.9144 78.3107 71.2047 78.2624C71.3454 78.239 71.4864 78.2172 71.6276 78.1969C71.6538 78.1932 71.8099 78.1716 71.6854 78.1886C71.5703 78.2043 71.6941 78.1877 71.7168 78.1849C71.7964 78.1748 71.8761 78.1653 71.9558 78.1562C72.1642 78.1322 72.3403 78.0871 72.4942 77.9331C72.6263 77.8009 72.7257 77.5842 72.7172 77.3944C72.7005 77.0207 72.3796 76.5839 71.9558 76.6326C70.681 76.7792 69.4256 77.0323 68.2023 77.4219C67.8233 77.5426 67.5404 77.9567 67.6705 78.359C67.7934 78.7389 68.2006 79.0203 68.6072 78.8909Z" fill="black"/>
<path d="M35.98 81.3779C36.5467 80.7303 37.1659 80.1297 37.8321 79.5849C37.9116 79.5199 37.9919 79.4561 38.0723 79.3923C38.1773 79.3091 37.9382 79.4943 38.0867 79.3809C38.1306 79.3474 38.1747 79.3141 38.219 79.2811C38.3961 79.1489 38.576 79.0205 38.7586 78.896C39.1107 78.6558 39.4727 78.4302 39.8435 78.2201C40.2692 77.9787 40.7066 77.7585 41.1531 77.5583C41.3165 77.4851 41.4577 77.2681 41.5031 77.103C41.5532 76.9207 41.5306 76.6779 41.4263 76.516C41.3215 76.3534 41.1654 76.2102 40.9712 76.1659C40.7596 76.1177 40.5813 76.1544 40.3845 76.2427C38.7491 76.9757 37.241 77.9967 35.9371 79.2261C35.5753 79.5672 35.2307 79.9262 34.9031 80.3005C34.6409 80.6002 34.5863 81.0869 34.9031 81.3779C35.1905 81.6419 35.6998 81.6981 35.98 81.3779Z" fill="black"/>
<path d="M39.6572 83.3647C40.2306 82.7527 40.8444 82.1793 41.496 81.6512C41.5799 81.5833 41.6646 81.5165 41.7493 81.4495C41.8672 81.3564 41.623 81.5448 41.7529 81.4468C41.7927 81.4168 41.8321 81.3866 41.872 81.3566C42.038 81.232 42.2061 81.1102 42.3762 80.9913C42.7232 80.7487 43.0789 80.5188 43.4417 80.3006C43.783 80.0954 43.9396 79.6071 43.7149 79.2583C43.4936 78.915 43.0383 78.7654 42.6731 78.985C41.1679 79.8901 39.7812 81.0054 38.5803 82.2874C38.3078 82.5782 38.2706 83.0802 38.5803 83.3647C38.8761 83.6365 39.3663 83.6753 39.6572 83.3647Z" fill="black"/>
<path d="M44.2372 85.7871C44.4064 85.5897 44.5867 85.4022 44.7789 85.2269C44.8749 85.1394 44.9737 85.0549 45.075 84.9735C45.0893 84.9621 45.2058 84.8711 45.1002 84.9529C44.9948 85.0346 45.1121 84.945 45.1268 84.9341C45.1791 84.8955 45.2321 84.8578 45.2855 84.8209C45.4993 84.6732 45.7223 84.5388 45.9528 84.4189C46.068 84.359 46.1852 84.3025 46.3039 84.2499C46.328 84.2392 46.4263 84.1974 46.3123 84.2454C46.1914 84.2965 46.3141 84.2453 46.3416 84.2344C46.4087 84.2077 46.4763 84.1825 46.5442 84.158C46.7335 84.0896 46.8948 83.9864 46.9992 83.8079C47.0948 83.6446 47.1353 83.404 47.076 83.2209C46.9571 82.8531 46.5405 82.544 46.1393 82.6888C44.9957 83.1017 43.9545 83.7831 43.1602 84.7096C43.0268 84.8652 42.9372 85.0373 42.9372 85.2482C42.9372 85.435 43.0202 85.6583 43.1602 85.7868C43.4452 86.0487 43.9604 86.1101 44.2372 85.7871Z" fill="black"/>
<path d="M49.1938 89.4789C49.5264 89.2967 49.864 89.1238 50.207 88.9619C50.3785 88.8809 50.5513 88.8026 50.7251 88.7269C50.7718 88.7066 50.819 88.6817 50.8676 88.6656C50.6709 88.7311 50.8373 88.6787 50.8765 88.6625C50.9642 88.6264 51.0521 88.5909 51.1402 88.5561C51.854 88.2746 52.5849 88.0383 53.3278 87.8461C53.7135 87.7464 53.9849 87.2963 53.8596 86.909C53.7309 86.5112 53.3363 86.2701 52.9229 86.3769C51.3587 86.7815 49.8421 87.3869 48.4251 88.1632C48.0754 88.3548 47.9334 88.8664 48.1519 89.2055C48.3806 89.5604 48.8196 89.6838 49.1938 89.4789Z" fill="black"/>
<path d="M15.2286 109.083C14.8289 111.208 14.4293 113.333 14.0296 115.458C13.9911 115.662 13.9983 115.86 14.1064 116.045C14.1988 116.203 14.3799 116.354 14.5615 116.395C14.9362 116.48 15.4194 116.282 15.4982 115.863C15.8978 113.738 16.2975 111.613 16.6972 109.488C16.7356 109.283 16.7284 109.085 16.6204 108.901C16.528 108.743 16.3468 108.592 16.1653 108.551C15.7906 108.465 15.3074 108.664 15.2286 109.083Z" fill="black"/>
<path d="M17.9868 110.301C17.8131 111.818 17.8833 113.345 18.1541 114.846C18.225 115.24 18.724 115.497 19.0908 115.379C19.5125 115.242 19.6987 114.863 19.6227 114.441C19.5904 114.263 19.5608 114.083 19.5349 113.904C19.5312 113.878 19.5083 113.72 19.5261 113.843C19.5444 113.969 19.5203 113.792 19.519 113.782C19.5081 113.692 19.498 113.601 19.4887 113.511C19.4525 113.158 19.429 112.805 19.4182 112.451C19.3964 111.733 19.4281 111.015 19.5098 110.301C19.5305 110.12 19.4099 109.886 19.2868 109.763C19.1547 109.631 18.938 109.531 18.7484 109.54C18.5514 109.548 18.3472 109.613 18.21 109.763C18.0647 109.921 18.0111 110.089 17.9868 110.301Z" fill="black"/>
<path d="M21.1307 111.048C21.0179 112.283 21.4957 113.543 22.3463 114.434C22.6218 114.723 23.1494 114.733 23.4232 114.434C23.7076 114.124 23.7172 113.665 23.4232 113.357C23.3399 113.27 23.2657 113.176 23.1866 113.085C23.2069 113.108 23.2822 113.214 23.2245 113.131C23.2031 113.1 23.1811 113.07 23.1601 113.039C23.1265 112.989 23.0941 112.938 23.0631 112.887C23.0009 112.784 22.9438 112.678 22.8921 112.57C22.8792 112.543 22.8675 112.515 22.8543 112.488C22.8114 112.4 22.9123 112.637 22.8782 112.545C22.8543 112.482 22.8291 112.419 22.8072 112.355C22.7683 112.242 22.7349 112.126 22.7074 112.009C22.6936 111.95 22.6812 111.892 22.6703 111.832C22.6648 111.803 22.6602 111.773 22.655 111.743C22.6363 111.637 22.6552 111.788 22.6634 111.812C22.6254 111.703 22.6393 111.545 22.6378 111.43C22.6361 111.302 22.6422 111.175 22.6538 111.048C22.6901 110.649 22.2776 110.268 21.8923 110.286C21.4485 110.306 21.1696 110.621 21.1307 111.048Z" fill="black"/>
<path d="M24.1541 111.093C24.1963 111.286 24.2721 111.467 24.3526 111.648C24.4086 111.774 24.4779 111.893 24.559 112.004C24.6723 112.16 24.7909 112.314 24.933 112.444C25.0787 112.578 25.2396 112.702 25.4101 112.803C25.5798 112.903 25.8072 112.932 25.9969 112.88C26.1735 112.831 26.3649 112.694 26.4519 112.529C26.5454 112.353 26.5921 112.138 26.5287 111.942C26.4675 111.753 26.3532 111.59 26.1788 111.487C26.1127 111.448 26.0491 111.405 25.9879 111.359C26.0392 111.399 26.0906 111.438 26.142 111.478C26.0101 111.376 25.8924 111.258 25.7895 111.127C25.8292 111.178 25.8689 111.23 25.9086 111.281C25.8071 111.149 25.7224 111.006 25.6561 110.853C25.6817 110.913 25.7073 110.974 25.7329 111.035C25.6856 110.922 25.6487 110.807 25.6227 110.688C25.5834 110.507 25.4292 110.324 25.2727 110.232C25.1095 110.137 24.869 110.096 24.686 110.156C24.5017 110.215 24.324 110.33 24.2309 110.506C24.1322 110.693 24.1088 110.885 24.1541 111.093Z" fill="black"/>
<path d="M14.9847 135.798C15.1823 136.794 15.4668 137.772 15.8378 138.718C16.0426 139.24 16.2669 139.754 16.5165 140.256C16.7177 140.661 16.9242 141.073 17.1936 141.437C17.5605 141.933 18.0231 142.373 18.6454 142.51C19.0333 142.596 19.4875 142.393 19.5821 141.978C19.6699 141.593 19.4662 141.133 19.0502 141.041C19.0038 141.031 18.958 141.019 18.9128 141.004C18.758 140.954 19.0347 141.071 18.9282 141.014C18.8452 140.969 18.7695 140.919 18.6909 140.868C18.8775 140.989 18.7526 140.914 18.7054 140.87C18.6702 140.838 18.6361 140.804 18.6032 140.77C18.5699 140.735 18.5378 140.699 18.5065 140.662C18.493 140.646 18.48 140.63 18.4666 140.614C18.4013 140.535 18.4964 140.647 18.5087 140.668C18.4053 140.494 18.2814 140.332 18.1818 140.154C18.0676 139.95 17.9591 139.742 17.8544 139.533C17.7473 139.319 17.6449 139.104 17.547 138.886C17.5225 138.831 17.4983 138.777 17.4745 138.722C17.4627 138.695 17.3852 138.513 17.4321 138.625C17.4785 138.735 17.4008 138.549 17.3918 138.527C17.3693 138.471 17.347 138.416 17.3251 138.36C17.1461 137.908 16.9863 137.448 16.8468 136.982C16.6901 136.459 16.5594 135.928 16.4531 135.393C16.3754 135.001 15.888 134.74 15.5164 134.861C15.1003 134.995 14.9014 135.378 14.9847 135.798Z" fill="black"/>
<path d="M19.2158 135.98C19.4831 136.474 19.7503 136.968 20.0177 137.462C20.2613 137.912 20.4908 138.375 20.769 138.806C21.0757 139.28 21.4504 139.717 21.9411 140.008C22.4701 140.321 23.0822 140.435 23.6838 140.301C24.073 140.214 24.3379 139.742 24.2157 139.364C24.0835 138.955 23.696 138.739 23.279 138.832C23.25 138.839 23.2208 138.844 23.1914 138.849C23.3207 138.834 23.3442 138.83 23.2618 138.837C23.2173 138.839 23.1738 138.841 23.1294 138.839C23.1 138.838 23.0706 138.836 23.0413 138.833C23.1704 138.853 23.1941 138.855 23.1122 138.842C23.069 138.831 23.0252 138.823 22.9822 138.811C22.9389 138.8 22.8971 138.784 22.8541 138.771C22.7788 138.742 22.7977 138.75 22.9108 138.797C22.8832 138.784 22.856 138.771 22.829 138.758C22.7339 138.71 22.6461 138.652 22.5575 138.593C22.439 138.514 22.6809 138.704 22.569 138.6C22.5297 138.564 22.4887 138.529 22.4503 138.492C22.3768 138.42 22.311 138.342 22.2428 138.265C22.1922 138.202 22.2025 138.217 22.2738 138.309C22.2547 138.283 22.2359 138.258 22.2175 138.233C22.1897 138.194 22.1627 138.155 22.1362 138.116C22.0741 138.024 22.0154 137.93 21.9589 137.834C21.4516 136.979 21.0037 136.085 20.5307 135.211C20.3408 134.86 19.8267 134.72 19.4889 134.938C19.133 135.168 19.0127 135.605 19.2158 135.98Z" fill="black"/>
<path d="M23.9356 134.48C24.6359 135.843 25.4453 137.253 26.761 138.108C27.1386 138.354 27.5668 138.54 28.0035 138.65C28.3891 138.747 28.8474 138.525 28.9402 138.118C29.0302 137.722 28.8216 137.285 28.4083 137.181C28.3304 137.161 28.253 137.139 28.1765 137.115C28.1387 137.102 28.1012 137.089 28.0639 137.076C28.006 137.055 27.8404 136.975 28.0625 137.08C27.9146 137.01 27.7689 136.94 27.6288 136.855C27.562 136.814 27.4966 136.772 27.4324 136.727C27.4002 136.705 27.3684 136.682 27.3369 136.659C27.2076 136.564 27.4433 136.746 27.3511 136.67C27.2183 136.561 27.0901 136.448 26.9683 136.326C26.8495 136.208 26.7363 136.084 26.628 135.955C26.5754 135.893 26.4986 135.822 26.4609 135.75C26.4561 135.74 26.566 135.888 26.5175 135.823C26.5052 135.806 26.4926 135.79 26.4804 135.773C26.4516 135.735 26.4232 135.696 26.3951 135.657C26.1882 135.37 25.9992 135.07 25.8212 134.765C25.6201 134.419 25.4334 134.066 25.2508 133.711C25.0684 133.356 24.5418 133.223 24.209 133.437C23.8468 133.671 23.7404 134.1 23.9356 134.48Z" fill="black"/>
<path d="M29.072 133.048C29.7254 134.432 30.7038 135.68 31.8939 136.642C32.0563 136.773 32.2155 136.865 32.4323 136.865C32.6191 136.865 32.8422 136.782 32.9707 136.642C33.2255 136.365 33.3016 135.832 32.9707 135.565C32.4046 135.107 31.8897 134.589 31.4384 134.017C31.3635 133.922 31.4328 133.985 31.4567 134.041C31.4401 134.002 31.3981 133.964 31.3722 133.929C31.3163 133.853 31.2616 133.777 31.2079 133.7C31.1051 133.552 31.0064 133.402 30.9118 133.249C30.7186 132.936 30.5441 132.612 30.387 132.279C30.2165 131.918 29.6699 131.796 29.3452 132.006C28.9737 132.245 28.8895 132.662 29.072 133.048Z" fill="black"/>
<path d="M34.4167 131.965C34.7616 132.721 35.1707 133.447 35.6397 134.133C35.7528 134.298 35.8967 134.429 36.0948 134.483C36.2771 134.533 36.5198 134.511 36.6816 134.406C37.0081 134.196 37.1951 133.716 36.9547 133.364C36.4857 132.678 36.0766 131.953 35.7317 131.196C35.6572 131.032 35.4428 130.892 35.2766 130.846C35.0944 130.796 34.8516 130.818 34.6899 130.923C34.5273 131.028 34.3842 131.184 34.3399 131.378C34.2919 131.589 34.3273 131.769 34.4167 131.965Z" fill="black"/>
<path d="M51.4265 114.125C52.404 114.125 53.3815 114.125 54.3591 114.125C54.7574 114.125 55.1389 113.775 55.1205 113.363C55.1021 112.951 54.7859 112.602 54.3591 112.602C53.3815 112.602 52.404 112.602 51.4265 112.602C51.0282 112.602 50.6466 112.952 50.6651 113.363C50.6835 113.776 50.9996 114.125 51.4265 114.125Z" fill="black"/>
<path d="M51.8889 110.205C53.5882 110.146 55.2876 110.087 56.9869 110.028C57.3845 110.014 57.7672 109.687 57.7483 109.266C57.7303 108.865 57.4133 108.489 56.9869 108.504C55.2876 108.563 53.5882 108.623 51.8889 108.682C51.4913 108.696 51.1086 109.022 51.1275 109.444C51.1454 109.845 51.4625 110.22 51.8889 110.205Z" fill="black"/>
<path d="M52.5563 106.378C53.0124 106.308 53.4691 106.242 53.9263 106.179C54.1 106.156 53.7833 106.198 53.9434 106.177C53.9983 106.17 54.0532 106.163 54.1081 106.155C54.227 106.14 54.3461 106.125 54.4652 106.11C54.694 106.081 54.9232 106.053 55.1524 106.027C56.0692 105.921 56.9879 105.832 57.908 105.76C58.3042 105.729 58.6889 105.432 58.6694 104.998C58.6521 104.612 58.3333 104.203 57.908 104.236C55.9815 104.387 54.0613 104.614 52.1515 104.909C51.9754 104.936 51.7823 105.112 51.6964 105.259C51.6008 105.423 51.5604 105.663 51.6196 105.846C51.6792 106.031 51.7934 106.208 51.9696 106.302C52.1622 106.403 52.3425 106.411 52.5563 106.378Z" fill="black"/>
<path d="M61.6735 125.941C62.2486 126.288 62.8107 126.656 63.3573 127.046C63.4922 127.143 63.6261 127.24 63.7591 127.339C63.8221 127.386 63.8849 127.433 63.9474 127.481C63.9822 127.507 64.0168 127.534 64.0515 127.56C64.1641 127.645 63.9681 127.494 64.0424 127.553C64.3101 127.763 64.575 127.976 64.8353 128.195C64.9931 128.328 65.161 128.418 65.3737 128.418C65.5605 128.418 65.7836 128.335 65.9121 128.195C66.1715 127.913 66.2376 127.392 65.9121 127.118C64.8215 126.199 63.6632 125.362 62.4422 124.625C62.1007 124.419 61.5907 124.538 61.4004 124.898C61.2053 125.268 61.3089 125.721 61.6735 125.941Z" fill="black"/>
<path d="M64.9921 123.047C65.662 123.35 66.308 123.704 66.9228 124.108C67.073 124.207 67.2213 124.309 67.3677 124.413C67.4409 124.465 67.5135 124.518 67.5857 124.572C67.625 124.601 67.6643 124.63 67.7033 124.66C67.791 124.727 67.7423 124.694 67.6852 124.645C67.9732 124.888 68.2678 125.119 68.5459 125.373C68.84 125.642 69.336 125.686 69.6228 125.373C69.8915 125.08 69.9369 124.583 69.6228 124.296C68.477 123.248 67.1751 122.372 65.7608 121.731C65.5689 121.644 65.385 121.596 65.1741 121.654C64.9975 121.703 64.806 121.84 64.719 122.004C64.5427 122.338 64.6048 122.871 64.9921 123.047Z" fill="black"/>
<path d="M67.7619 120.088C68.6458 120.496 69.5035 120.959 70.3277 121.477C70.7397 121.736 71.1433 122.009 71.5376 122.294C71.6328 122.363 71.7273 122.433 71.8214 122.503C71.8684 122.538 71.9154 122.574 71.9622 122.609C72.001 122.639 72.1647 122.745 71.9877 122.628C72.1949 122.764 72.3857 122.943 72.5764 123.101C72.7358 123.233 72.9006 123.324 73.1147 123.324C73.3015 123.324 73.5246 123.241 73.6531 123.101C73.9108 122.82 73.9805 122.295 73.6531 122.024C72.0896 120.726 70.376 119.624 68.5304 118.772C68.3399 118.684 68.1532 118.638 67.9436 118.695C67.767 118.744 67.5756 118.881 67.4886 119.046C67.3115 119.381 67.3758 119.91 67.7619 120.088Z" fill="black"/>
<path d="M71.6338 116.793C71.749 116.778 71.8644 116.771 71.9806 116.775C72.0368 116.777 72.0945 116.788 72.1505 116.788C72.0183 116.769 71.9928 116.766 72.0738 116.78C72.1016 116.785 72.1294 116.79 72.1569 116.796C72.2679 116.821 72.3768 116.854 72.4831 116.893C72.51 116.903 72.5367 116.914 72.5632 116.925C72.4478 116.875 72.4268 116.867 72.5001 116.9C72.5522 116.926 72.6049 116.95 72.6564 116.977C72.7608 117.033 72.8623 117.094 72.9612 117.159C73.0454 117.214 73.129 117.299 73.2193 117.341C73.1255 117.268 73.1102 117.256 73.1733 117.305C73.1971 117.324 73.221 117.343 73.2446 117.363C73.2919 117.401 73.3387 117.441 73.385 117.481C73.4778 117.561 73.5685 117.643 73.6577 117.727C74.039 118.086 74.3967 118.47 74.7614 118.846C75.1713 119.268 75.5812 119.69 75.9912 120.112C76.2693 120.398 76.7925 120.412 77.0681 120.112C77.3504 119.804 77.3648 119.34 77.0681 119.035C76.4146 118.362 75.7643 117.685 75.1071 117.016C74.5213 116.419 73.8772 115.839 73.099 115.511C72.6384 115.316 72.1355 115.204 71.6341 115.27C71.4241 115.297 71.2518 115.337 71.0957 115.493C70.9636 115.625 70.8643 115.842 70.8727 116.031C70.8815 116.228 70.9462 116.433 71.0957 116.57C71.233 116.696 71.4391 116.818 71.6338 116.793Z" fill="black"/>
<path d="M75.0345 113.741C76.2739 114.972 77.5131 116.203 78.7524 117.433C79.0355 117.714 79.5504 117.737 79.8293 117.433C80.1075 117.13 80.1314 116.656 79.8293 116.356C78.59 115.125 77.3508 113.895 76.1114 112.664C75.8283 112.383 75.3134 112.36 75.0345 112.664C74.7564 112.967 74.7326 113.441 75.0345 113.741Z" fill="black"/>
<path d="M74.7743 136.939C74.8316 137.122 74.8821 137.306 74.9237 137.493C74.9436 137.582 74.9616 137.672 74.9778 137.762C74.9866 137.811 74.9948 137.861 75.0025 137.91C75.007 137.938 75.0376 138.083 75.0101 137.957C74.9827 137.832 75.0114 137.975 75.0147 138.004C75.0201 138.054 75.025 138.104 75.0293 138.153C75.0378 138.253 75.0444 138.352 75.0485 138.452C75.0562 138.635 75.0563 138.818 75.049 139.001C75.0417 139.184 75.0256 139.366 75.0047 139.548C74.9842 139.725 75.0345 139.368 75.0047 139.544C74.9977 139.585 74.9916 139.626 74.9847 139.667C74.9691 139.757 74.9518 139.847 74.9326 139.936C74.852 140.311 74.7381 140.677 74.5944 141.032C74.5253 141.203 74.5824 141.467 74.6712 141.619C74.7636 141.777 74.9448 141.928 75.1263 141.969C75.3213 142.013 75.54 142.004 75.713 141.892C75.8903 141.778 75.9844 141.631 76.063 141.437C76.6859 139.897 76.7403 138.116 76.243 136.534C76.1237 136.154 75.7074 135.872 75.3063 136.002C74.9251 136.125 74.6465 136.532 74.7743 136.939Z" fill="black"/>
<path d="M79.3288 136.208C79.3725 137.05 79.3726 137.894 79.3264 138.737C79.3034 139.158 79.2688 139.578 79.2231 139.997C79.2122 140.098 79.2005 140.198 79.1882 140.298C79.1827 140.344 79.177 140.389 79.1712 140.434C79.1664 140.471 79.1617 140.507 79.1569 140.544C79.161 140.512 79.1652 140.481 79.1694 140.45C79.1235 140.664 79.1057 140.887 79.0701 141.103C79.0357 141.311 79.0366 141.501 79.1469 141.69C79.2393 141.848 79.4204 141.998 79.602 142.04C79.9692 142.123 80.4691 141.928 80.5387 141.508C80.8286 139.756 80.9439 137.982 80.8519 136.208C80.8312 135.81 80.5164 135.427 80.0904 135.446C79.6954 135.464 79.3066 135.781 79.3288 136.208Z" fill="black"/>
<path d="M83.4934 136.595C83.5651 138.038 83.5167 139.484 83.3486 140.919C83.3275 141.099 83.4489 141.335 83.5716 141.457C83.7037 141.59 83.9204 141.689 84.11 141.68C84.307 141.672 84.5112 141.607 84.6484 141.457C84.7938 141.299 84.8466 141.131 84.8715 140.919C85.0396 139.484 85.088 138.038 85.0163 136.595C84.9965 136.198 84.6801 135.815 84.2548 135.834C83.8592 135.851 83.4722 136.169 83.4934 136.595Z" fill="black"/>
<path d="M41.3918 168.166C42.521 169.364 43.8046 170.419 45.1909 171.307C45.527 171.522 46.0459 171.387 46.2327 171.033C46.432 170.656 46.3183 170.221 45.9595 169.991C45.6299 169.78 45.3062 169.56 44.9899 169.329C44.9092 169.271 44.8288 169.211 44.749 169.151C44.7157 169.126 44.6826 169.101 44.6494 169.076C44.5192 168.978 44.7635 169.165 44.6452 169.073C44.488 168.949 44.3319 168.824 44.1782 168.697C43.5759 168.196 43.0056 167.658 42.4687 167.089C42.1948 166.798 41.6644 166.791 41.3918 167.089C41.106 167.4 41.0996 167.856 41.3918 168.166Z" fill="black"/>
<path d="M43.8731 166.144C45.4438 167.53 47.1402 168.776 48.9377 169.851C49.2799 170.056 49.7887 169.939 49.9795 169.578C50.174 169.21 50.0716 168.754 49.7063 168.536C48.8426 168.019 48.002 167.464 47.1888 166.871C46.9872 166.724 46.7874 166.574 46.5893 166.423C46.5619 166.402 46.5346 166.381 46.5074 166.36C46.5934 166.426 46.604 166.434 46.539 166.384C46.4983 166.352 46.4576 166.321 46.417 166.289C46.3155 166.209 46.2146 166.129 46.1139 166.048C45.7184 165.73 45.3306 165.402 44.9499 165.066C44.6513 164.803 44.1632 164.75 43.873 165.066C43.6085 165.355 43.5542 165.862 43.8731 166.144Z" fill="black"/>
<path d="M63.8995 183.066C65.6102 183.602 67.3917 183.913 69.1816 184.007C69.58 184.028 69.9608 183.642 69.943 183.245C69.9238 182.815 69.6083 182.506 69.1816 182.483C68.7553 182.461 68.3298 182.426 67.9057 182.378C67.7999 182.366 67.694 182.348 67.588 182.339C67.8054 182.358 67.6203 182.343 67.579 182.337C67.5261 182.33 67.4733 182.322 67.4206 182.314C67.2096 182.283 66.9989 182.248 66.789 182.21C65.9489 182.058 65.1192 181.852 64.3043 181.597C63.9241 181.477 63.4568 181.737 63.3676 182.129C63.2733 182.543 63.4923 182.938 63.8995 183.066Z" fill="black"/>
<path d="M66.0341 179.964C66.9007 181.071 68.4135 181.015 69.6222 181.45C69.6666 181.466 69.7101 181.485 69.7546 181.501C69.8298 181.528 69.6367 181.457 69.6539 181.458C69.673 181.46 69.7003 181.479 69.7179 181.487C69.7916 181.521 69.8641 181.558 69.9346 181.598C70.0099 181.642 70.0783 181.696 70.1526 181.74C70.2207 181.78 70.0495 181.67 70.0675 181.674C70.0834 181.677 70.1088 181.708 70.1212 181.718C70.1569 181.749 70.1911 181.781 70.2248 181.814C70.5111 182.091 71.0204 182.12 71.3017 181.814C71.5771 181.513 71.6074 181.032 71.3017 180.736C70.7796 180.23 70.0984 179.968 69.4026 179.8C69.0991 179.727 68.7924 179.668 68.4886 179.597C68.3369 179.561 68.1857 179.522 68.0366 179.476C67.9693 179.456 67.9022 179.434 67.836 179.41C67.8032 179.398 67.7706 179.386 67.7382 179.373C67.7221 179.367 67.7062 179.36 67.69 179.354C67.6071 179.323 67.8551 179.43 67.7769 179.39C67.6294 179.314 67.4883 179.24 67.35 179.147C67.2585 179.086 67.4952 179.274 67.3844 179.173C67.3508 179.143 67.3162 179.114 67.2838 179.082C67.2216 179.021 67.1646 178.956 67.111 178.887C66.9992 178.744 66.7444 178.664 66.5726 178.664C66.3859 178.664 66.1627 178.747 66.0342 178.887C65.901 179.032 65.8021 179.223 65.8112 179.426C65.8207 179.641 65.9025 179.796 66.0341 179.964Z" fill="black"/>
<path d="M69.1187 177.897C70.2979 178.371 71.4771 178.844 72.6563 179.318C72.8276 179.386 73.0908 179.33 73.243 179.241C73.401 179.148 73.5516 178.967 73.593 178.786C73.6374 178.591 73.6278 178.372 73.5162 178.199C73.4021 178.022 73.2554 177.926 73.0611 177.848C71.8819 177.375 70.7027 176.902 69.5234 176.428C69.3521 176.359 69.0889 176.416 68.9367 176.505C68.7787 176.597 68.6281 176.779 68.5867 176.96C68.5423 177.155 68.552 177.374 68.6635 177.547C68.7777 177.724 68.9244 177.819 69.1187 177.897Z" fill="black"/>
<path d="M93.1034 182.621C94.8962 182.504 96.6815 182.23 98.4248 181.795C98.8115 181.699 99.0812 181.243 98.9567 180.858C98.8271 180.458 98.4343 180.223 98.02 180.326C97.1898 180.533 96.351 180.704 95.5056 180.837C95.3976 180.854 95.2897 180.87 95.1816 180.886C95.1365 180.893 95.0915 180.899 95.0464 180.905C95.0222 180.909 94.8325 180.933 94.9583 180.917C95.0841 180.902 94.8943 180.925 94.8699 180.929C94.8247 180.934 94.7797 180.94 94.7345 180.945C94.6261 180.959 94.5176 180.971 94.409 180.983C93.9747 181.031 93.5394 181.069 93.1034 181.097C92.7067 181.123 92.3228 181.429 92.342 181.859C92.3595 182.25 92.6778 182.648 93.1034 182.621Z" fill="black"/>
<path d="M95.9107 185.415C97.3525 185.279 98.7739 184.99 100.145 184.52C100.521 184.392 100.809 183.991 100.677 183.583C100.556 183.21 100.143 182.913 99.7399 183.051C99.0962 183.271 98.4408 183.456 97.776 183.6C97.4479 183.671 97.1178 183.732 96.7863 183.784C96.7077 183.797 96.6291 183.808 96.5504 183.82C96.5387 183.821 96.3653 183.846 96.4941 183.828C96.619 183.81 96.4642 183.831 96.4377 183.834C96.2623 183.856 96.0867 183.875 95.9109 183.891C95.7046 183.911 95.5236 183.963 95.3725 184.115C95.2404 184.247 95.141 184.463 95.1494 184.653C95.1663 185.034 95.486 185.455 95.9107 185.415Z" fill="black"/>
<path d="M115.327 169.15C116.191 168.031 117.003 166.873 117.763 165.681C117.977 165.344 117.844 164.826 117.49 164.638C117.113 164.439 116.677 164.552 116.448 164.912C115.688 166.104 114.876 167.262 114.012 168.381C113.901 168.526 113.89 168.801 113.936 168.968C113.984 169.145 114.121 169.336 114.286 169.424C114.462 169.517 114.676 169.564 114.872 169.5C115.074 169.435 115.199 169.317 115.327 169.15Z" fill="black"/>
<path d="M118.283 169.324C119.01 168.299 119.736 167.274 120.463 166.249C120.694 165.923 120.532 165.388 120.19 165.207C119.798 165 119.395 165.132 119.148 165.48C118.421 166.505 117.695 167.53 116.968 168.555C116.737 168.881 116.9 169.417 117.242 169.597C117.633 169.805 118.037 169.672 118.283 169.324Z" fill="black"/>
<path d="M121.886 171C123.392 169.839 124.651 168.391 125.534 166.7C125.718 166.347 125.636 165.856 125.26 165.658C124.91 165.473 124.415 165.554 124.219 165.931C124.016 166.319 123.794 166.696 123.551 167.06C123.43 167.242 123.304 167.421 123.173 167.596C123.146 167.633 123.11 167.669 123.088 167.708C123.19 167.526 123.116 167.673 123.078 167.72C123.01 167.806 122.941 167.891 122.87 167.975C122.595 168.304 122.301 168.618 121.992 168.917C121.835 169.069 121.673 169.216 121.508 169.359C121.425 169.431 121.342 169.501 121.257 169.57C121.221 169.6 121.184 169.63 121.148 169.659C121.11 169.689 120.933 169.827 121.118 169.684C120.953 169.811 120.825 169.93 120.768 170.14C120.717 170.322 120.74 170.565 120.844 170.727C120.949 170.889 121.105 171.032 121.3 171.077C121.484 171.119 121.728 171.121 121.886 171Z" fill="black"/>
<path d="M39.273 169.973C40.3783 171.133 41.5109 172.266 42.67 173.371C42.9585 173.647 43.4641 173.68 43.7469 173.371C44.0204 173.073 44.0548 172.588 43.7469 172.294C42.5878 171.189 41.4552 170.055 40.3499 168.896C40.0745 168.607 39.5468 168.598 39.273 168.896C38.9886 169.206 38.9792 169.665 39.273 169.973Z" fill="black"/>
<path d="M92.1253 178.949C93.983 179.235 95.8594 179.335 97.7358 179.212C98.1325 179.186 98.5165 178.88 98.4973 178.45C98.4798 178.06 98.1615 177.661 97.7358 177.688C96.8427 177.747 95.947 177.759 95.0526 177.721C94.6147 177.702 94.1773 177.672 93.741 177.63C93.5229 177.609 93.305 177.585 93.0875 177.558C93.0241 177.551 92.9607 177.542 92.8973 177.534C92.8388 177.527 92.8611 177.53 92.9639 177.543C92.9368 177.54 92.9096 177.536 92.8825 177.532C92.7649 177.516 92.6476 177.498 92.5302 177.48C92.3204 177.448 92.1339 177.446 91.9435 177.557C91.7855 177.649 91.6349 177.831 91.5935 178.012C91.5106 178.376 91.7042 178.885 92.1253 178.949Z" fill="black"/>
</g>
<mask id="mask1_12068_8666" style="mask-type:luminance" maskUnits="userSpaceOnUse" x="159" y="31" width="52" height="29">
<path d="M210.578 31.4014H159.899V59.7358H210.578V31.4014Z" fill="white"/>
</mask>
<g mask="url(#mask1_12068_8666)">
<path d="M160.863 52.9112C162.668 52.3878 164.472 51.8643 166.277 51.341C168.081 50.8176 169.885 50.2941 171.69 49.7708C172.713 49.4739 173.737 49.177 174.76 48.8801C174.447 48.5674 174.135 48.2545 173.822 47.9417C173.697 48.2793 173.569 48.6153 173.436 48.9498C173.367 49.1237 173.297 49.2973 173.226 49.4704C173.196 49.5438 173.165 49.6171 173.135 49.6903C173.117 49.7332 173.043 49.8852 173.137 49.6854C173.109 49.7436 173.086 49.8044 173.061 49.8637C172.741 50.6124 172.4 51.3523 172.039 52.0825C171.29 53.5968 170.455 55.0686 169.539 56.4881C169.079 57.201 168.599 57.9005 168.099 58.5862C167.922 58.8295 167.99 59.2143 168.159 59.4334C168.34 59.6676 168.668 59.7974 168.96 59.7068C172.36 58.6544 175.759 57.602 179.159 56.5496C180.125 56.2505 181.091 55.9514 182.058 55.6523C182.438 55.5345 182.72 55.1145 182.59 54.7139C182.466 54.3307 182.06 54.0549 181.652 54.1811C178.253 55.2335 174.853 56.2858 171.454 57.3383C170.487 57.6374 169.521 57.9364 168.555 58.2356C168.842 58.6091 169.129 58.9826 169.416 59.3562C171.352 56.6989 172.994 53.8303 174.301 50.8131C174.653 49.9999 174.985 49.1786 175.293 48.3474C175.497 47.7929 174.879 47.2569 174.354 47.409C172.55 47.9325 170.746 48.4559 168.941 48.9793C167.137 49.5027 165.332 50.0262 163.528 50.5495C162.504 50.8464 161.481 51.1433 160.458 51.4402C160.075 51.5512 159.797 51.9828 159.925 52.3786C160.051 52.7673 160.453 53.0302 160.863 52.9112Z" fill="black"/>
<path d="M176.761 35.1109C180.127 34.5331 183.493 33.9554 186.86 33.3776C187.809 33.2145 188.759 33.0516 189.709 32.8885C189.462 32.4634 189.215 32.0385 188.967 31.6135C186.404 34.1544 183.841 36.6954 181.278 39.2363C180.547 39.9604 179.817 40.6845 179.086 41.4086C178.868 41.6252 178.811 41.9629 178.929 42.2419C179.048 42.5247 179.318 42.7021 179.626 42.7109C182.795 42.8005 185.965 42.8903 189.134 42.98C190.028 43.0054 190.921 43.0306 191.814 43.0559C192.213 43.0672 192.595 42.697 192.577 42.2931C192.558 41.8701 192.242 41.5424 191.814 41.5303C188.646 41.4406 185.479 41.3509 182.311 41.2613C181.416 41.2359 180.521 41.2106 179.626 41.1853C179.805 41.6193 179.985 42.0534 180.165 42.4875C182.728 39.9466 185.291 37.4056 187.854 34.8647C188.585 34.1406 189.315 33.4165 190.046 32.6924C190.277 32.4632 190.346 32.0496 190.165 31.768C189.968 31.4631 189.652 31.3576 189.304 31.4174C185.938 31.9952 182.571 32.5729 179.205 33.1507C178.255 33.3138 177.305 33.4767 176.356 33.6398C176.178 33.6703 175.987 33.8407 175.9 33.9904C175.804 34.1539 175.764 34.3948 175.823 34.5782C175.961 35.0033 176.339 35.1834 176.761 35.1109Z" fill="black"/>
<path d="M196.356 34.3151C199.085 34.2583 201.815 34.1986 204.544 34.136C205.324 34.118 206.105 34.0999 206.885 34.0814C206.705 33.6474 206.525 33.2133 206.346 32.7792C204.421 34.3692 202.627 36.1151 200.988 37.9978C200.557 38.4933 200.136 38.9982 199.726 39.5115C199.529 39.7588 199.438 40.0361 199.569 40.3448C199.68 40.6078 199.965 40.8338 200.266 40.8138C202.746 40.6483 205.226 40.4829 207.706 40.3174C208.408 40.2706 209.11 40.2237 209.812 40.177C210.209 40.1505 210.594 39.8451 210.574 39.4142C210.557 39.0236 210.238 38.6229 209.812 38.6514C207.332 38.8168 204.851 38.9823 202.371 39.1477C201.669 39.1946 200.967 39.2414 200.266 39.2882C200.445 39.7222 200.625 40.1563 200.805 40.5904C202.359 38.6432 204.071 36.8228 205.922 35.1545C206.413 34.7116 206.914 34.2796 207.424 33.8581C207.657 33.6662 207.69 33.2809 207.582 33.0248C207.467 32.7528 207.189 32.5487 206.885 32.5558C204.155 32.6202 201.426 32.6816 198.696 32.7401C197.916 32.7568 197.136 32.7733 196.356 32.7895C195.957 32.7979 195.575 33.1345 195.593 33.5523C195.612 33.9586 195.929 34.324 196.356 34.3151Z" fill="black"/>
</g>
</svg>
