<svg width="220" height="220" viewBox="0 0 220 220" fill="none" xmlns="http://www.w3.org/2000/svg">
<g clip-path="url(#clip0_12068_7740)">
<rect width="219.81" height="219.81" rx="109.905" fill="#899884"/>
<mask id="mask0_12068_7740" style="mask-type:luminance" maskUnits="userSpaceOnUse" x="19" y="122" width="201" height="141">
<path d="M220 122.469H19V262.136H220V122.469Z" fill="white"/>
</mask>
<g mask="url(#mask0_12068_7740)">
<path d="M63.2232 156.184C63.5337 156.985 121.765 165.7 121.765 165.7L185.862 147.803C185.862 147.803 188.745 145.664 181.964 141.053C175.183 136.442 148.519 125.884 142.906 124.082C137.293 122.28 109.358 126.887 95.2213 129.496C81.0849 132.105 47.1043 140.61 47.1043 140.61L52.3533 153.873L63.2232 156.184Z" fill="#933A35"/>
<path d="M216.009 169.16C215.786 169.107 215.564 169.078 215.342 169.06C213.584 167.576 211.493 166.678 209.481 165.615C209.437 165.568 209.399 165.517 209.354 165.472C209.143 165.261 208.284 164.576 208.015 164.455C207.576 164.174 207.64 163.559 207.157 163.438C207.01 163.332 207.157 162.914 207.011 162.805C207.527 162.13 206.847 162.674 206.847 162.674C206.849 162.676 207.414 162.413 207.416 162.415C207.413 162.413 207.014 162.808 207.011 162.805C206.989 162.788 207.776 162.282 206.86 162.943C206.833 162.962 206.821 162.332 206.795 162.312C206.659 162.202 206.319 161.98 206.186 161.867C205.901 161.627 205.98 161.771 205.708 161.517C205.181 161.024 204.376 160.775 203.899 160.233C203.668 159.972 202.815 160.247 202.597 159.975C202.543 159.908 202.49 159.84 202.436 159.772C202.433 159.768 202.431 159.766 202.428 159.761C202.312 159.608 202.196 159.454 202.081 159.299C200.996 157.847 199.935 156.463 198.443 155.407C198.204 155.237 197.916 155.159 197.621 155.156C197.108 154.409 196.604 153.655 196.115 152.89C195.299 151.611 194.107 150.589 192.653 150.117C192.649 150.102 192.646 150.086 192.641 150.07C192.504 149.675 192.34 149.281 192.129 148.919C191.92 148.559 191.658 148.224 191.384 147.913C191.043 147.526 190.481 147.36 189.968 147.405C189.616 146.789 189.265 146.172 188.913 145.555C188.632 145.062 188.129 144.767 187.594 144.706C187.149 144.442 186.627 144.371 186.068 144.607C185.648 144.785 185.294 143.752 185.106 144.207C184.645 144.118 184.296 144.295 183.916 144.554C183.739 144.491 183.431 144.757 183.244 144.777C178.4 145.298 173.582 147.296 168.916 148.701C168.687 148.77 168.475 148.888 168.29 149.039C163.987 149.682 159.724 150.574 155.529 151.745C155.267 151.817 155.029 151.958 154.828 152.141C153.307 152.391 151.785 152.64 150.264 152.889C147.304 153.374 144.319 153.782 141.379 154.377C140.206 154.614 139.063 154.932 137.955 155.36C137.553 155.094 137.051 154.99 136.528 155.116C134.017 155.724 131.484 156.239 128.938 156.682C127.665 156.904 126.389 157.108 125.111 157.299C124.514 157.388 123.917 157.474 123.319 157.557C123.149 157.581 122.978 157.604 122.807 157.628C122.791 157.63 122.583 157.658 122.499 157.67C122.189 157.711 121.879 157.752 121.568 157.792C116.47 158.452 111.353 158.968 106.242 159.518L101.887 159.986C100.773 160.106 99.5971 160.208 98.6257 160.751C97.7352 160.702 96.8459 160.627 95.9604 160.515C94.6437 160.348 93.4189 161.618 94.1204 162.65C95.8589 165.209 98.0196 168.224 99.9537 170.638C99.9873 170.707 100.017 170.777 100.056 170.844C100.306 171.614 100.733 172.279 101.337 172.842C101.616 173.137 101.89 173.438 102.165 173.738C102.504 174.4 102.864 175.05 103.238 175.692C103.896 176.986 104.553 178.279 105.211 179.573C105.904 180.936 106.597 182.298 107.29 183.661C107.89 184.84 108.459 186.046 109.17 187.163C110.005 188.478 111.034 189.656 112.381 190.46C112.538 190.554 112.713 190.61 112.891 190.648C113.889 192.93 115.085 195.127 116.486 197.164C117.371 198.451 118.6 199.654 120.187 200.016C120.736 200.09 121.284 200.164 121.833 200.238C122.686 200.27 123.481 200.092 124.219 199.703C124.743 199.556 125.199 199.29 125.585 198.905C126.239 198.481 126.756 197.92 127.141 197.227C127.782 197.294 128.422 197.229 129.062 197.028C133.478 196.265 137.848 195.25 142.147 193.982C146.889 192.582 151.496 190.84 156.045 188.907C156.849 188.565 157.647 188.211 158.443 187.852C158.574 187.923 158.72 187.974 158.88 187.999C159.635 188.117 160.276 188.099 160.984 187.818C161.445 187.635 161.919 187.27 162.39 187.147C162.723 187.059 163.046 187.047 163.366 187.014C163.924 187.419 164.546 187.729 165.229 187.885L166.875 188.107C167.993 188.104 169.035 187.821 170.001 187.26C170.436 187.07 170.873 186.884 171.31 186.697C174.103 185.53 176.923 184.427 179.766 183.388C180.134 183.501 180.513 183.569 180.906 183.587C181.729 183.772 182.552 183.735 183.375 183.476C185.793 183.006 187.51 181.4 189.791 180.468C192.529 179.35 195.819 179.013 198.298 177.391C198.337 177.366 198.376 177.337 198.415 177.311C199.878 177.558 201.34 177.329 202.757 176.892C203.318 176.72 203.874 176.531 204.428 176.336C204.448 176.337 204.474 176.339 204.491 176.339C205.086 176.346 205.817 176.226 206.395 176.087C206.777 175.996 208.429 175.094 208.257 175.24C208.613 174.993 209.066 174.645 209.3 174.417C209.438 174.283 209.683 173.986 209.905 173.698C210.717 173.503 211.529 173.308 212.341 173.113C212.583 173.054 212.825 172.997 213.067 172.938C213.201 172.919 213.335 172.9 213.471 172.876C213.595 172.855 213.71 172.811 213.819 172.757C213.909 172.736 213.999 172.714 214.089 172.693C214.19 172.669 214.29 172.647 214.391 172.625C214.502 172.647 214.617 172.658 214.736 172.656L215.538 172.643C216.422 172.629 217.159 171.979 217.276 171.106C217.389 170.267 216.87 169.365 216.009 169.16Z" fill="#D18D84"/>
<path d="M92.9118 217.792C93.2363 216.138 93.1594 214.504 92.2876 213.01C91.945 212.424 91.4516 211.85 90.8772 211.367C91.1657 205.489 91.2319 199.601 91.0566 193.718C91.0276 192.745 90.9898 191.773 90.948 190.8C91.3104 190.581 91.5964 190.239 91.7151 189.788C92.0468 188.529 91.9803 187.209 91.9814 185.919C91.9824 184.71 91.9834 183.502 91.9844 182.293C91.9864 179.847 91.9884 177.4 91.9904 174.954C91.9908 174.445 91.7453 173.95 91.3671 173.612C91.3419 173.464 91.3169 173.315 91.2874 173.168C91.2353 172.731 91.1776 172.293 91.1145 171.852C91.047 171.381 90.9595 170.914 90.862 170.449C90.8632 170.441 90.8659 170.433 90.8669 170.424C91.2135 167.829 91.4233 165.219 91.496 162.602C91.518 161.812 90.9288 161.112 90.1971 160.892C88.492 160.379 86.802 159.818 85.1304 159.205C84.308 158.903 83.49 158.589 82.6769 158.262C82.2571 158.094 81.839 157.922 81.4218 157.747C81.3611 157.722 81.3243 157.706 81.2987 157.696C81.3172 157.703 81.3405 157.713 81.3759 157.728C81.2719 157.684 81.168 157.639 81.0641 157.595C80.8564 157.505 80.6492 157.415 80.4422 157.324C80.0732 157.162 79.6585 157.096 79.2666 157.14C77.7306 156.399 76.1705 155.708 74.5878 155.072C74.135 154.823 73.652 154.631 73.155 154.511C73.1049 154.499 73.0531 154.497 73.002 154.489C72.7372 154.344 72.4725 154.199 72.2077 154.054C72.0189 153.95 71.811 153.886 71.5982 153.854C71.1541 153.54 70.6495 153.311 70.121 153.184C69.9854 153.152 69.8482 153.153 69.7175 153.179C69.6395 153.144 69.5602 153.111 69.4818 153.077C69.1594 152.882 68.8319 152.696 68.5049 152.509C68.423 152.25 68.2939 152.009 68.0913 151.822C67.7249 151.485 67.3325 151.357 66.8402 151.303C66.5906 151.276 66.3408 151.248 66.0911 151.221C65.694 151.025 65.2964 150.83 64.8934 150.645C64.5081 150.468 64.1328 150.363 63.7214 150.426C60.7987 148.88 57.8768 147.332 54.9507 145.793C54.6298 145.624 54.2836 145.555 53.9477 145.575C52.9485 144.843 51.9494 144.111 50.9503 143.379C50.6914 143.189 50.3499 143.121 50.0058 143.14C49.6918 142.933 49.3327 142.793 48.9676 142.771C48.9135 142.712 48.8627 142.651 48.8073 142.593C48.3156 142.078 47.5116 141.957 46.8745 142.226C46.2794 142.478 45.7196 143.154 45.7869 143.847C45.8536 144.531 45.9076 145.217 45.9555 145.904C45.7556 146.18 45.6418 146.514 45.6699 146.883C45.8713 149.536 45.9986 152.195 46.0514 154.856C46.0585 155.216 46.1818 155.569 46.3854 155.865L46.4064 164.818C46.4068 164.984 46.4339 165.147 46.4818 165.305C46.2978 174.198 46.1139 183.091 45.9298 191.984C45.8773 194.521 45.8167 197.061 45.9061 199.597C45.8266 201.224 45.7712 202.852 45.7106 204.48C45.589 207.748 45.4676 211.017 45.346 214.285C45.2234 217.581 45.1009 220.878 44.9783 224.174C44.9183 225.789 44.7914 227.417 44.804 229.033C44.8122 230.068 45.0931 230.966 45.7556 231.763C46.2537 232.362 46.9659 232.797 47.5891 233.255C50.4144 235.333 53.3475 237.261 56.3707 239.037C56.7814 239.278 57.2878 239.319 57.7455 239.193C58.797 240.093 59.9254 240.895 61.1243 241.579C63.21 243 65.3071 244.426 67.4796 245.707C67.5557 245.837 67.6451 245.959 67.764 246.061C69.1978 247.29 70.7629 248.303 72.4493 249.097C75.6763 251.155 78.9031 253.212 82.13 255.27C82.3041 255.381 82.4938 255.448 82.688 255.483C83.3224 255.978 84.001 256.386 84.7334 256.712C84.9845 256.883 85.235 257.055 85.482 257.232C85.6582 257.359 85.8333 257.487 86.0074 257.617C86.0563 257.653 86.5746 258.048 86.2965 257.833C86.8325 258.248 87.4057 258.463 88.0584 258.257C88.086 258.286 88.1108 258.319 88.1391 258.347C88.2715 258.63 88.404 258.913 88.5364 259.196C88.6477 259.403 88.7995 259.569 88.9921 259.694C89.163 259.851 89.3636 259.956 89.5939 260.011C89.7506 260.032 89.9074 260.053 90.0643 260.075C90.3078 260.084 90.535 260.033 90.7459 259.922C91.0857 259.778 91.4147 259.533 91.5919 259.197C91.6515 259.055 91.7109 258.914 91.7704 258.773C91.8546 258.459 91.8546 258.144 91.7704 257.83C91.7119 257.496 91.6533 257.163 91.5948 256.829C91.531 256.464 91.2189 256.079 90.9073 255.852C90.8721 255.776 90.835 255.706 90.7964 255.637C91.073 255.33 91.2481 254.929 91.264 254.467C91.4042 249.848 91.5444 245.229 91.6848 240.61C91.7034 239.995 91.3296 239.399 90.8034 239.079C90.8502 234.138 91.187 229.202 91.814 224.299C92.1245 222.121 92.4883 219.951 92.9118 217.792Z" fill="#D18D84"/>
<path d="M46.4717 144.405C46.5684 143.675 45.8557 142.851 45.1728 142.695C44.4511 142.531 43.5192 142.788 43.1749 143.51C43.0816 143.706 42.9931 143.903 42.9013 144.1C42.3922 144.179 41.9114 144.451 41.695 144.931C41.0514 146.357 40.347 147.754 39.5952 149.126C39.2089 149.681 38.8384 150.245 38.4835 150.82C38.2728 150.901 38.0693 151 37.879 151.123C36.9095 151.749 36.1582 152.636 35.8462 153.772C35.8236 153.855 35.8033 153.938 35.7824 154.021C34.8736 154.987 33.9647 155.953 33.056 156.918C32.6964 156.97 32.3508 157.126 32.0796 157.401C30.34 159.168 28.756 161.076 27.3083 163.089C27.1254 163.344 27.0535 163.644 27.0602 163.947C26.9628 164.035 26.8664 164.123 26.7686 164.211C25.7719 165.099 24.866 166.053 24.2736 167.231C24.1646 167.285 24.0565 167.34 23.9464 167.392C23.8525 167.436 23.7579 167.478 23.6638 167.521C23.6413 167.532 23.6278 167.538 23.6115 167.545C23.3868 167.636 23.161 167.724 22.9331 167.807C22.066 168.124 21.3866 169.026 21.6973 169.988C21.9873 170.886 22.9239 171.511 23.8737 171.227C24.096 171.16 24.3184 171.094 24.5409 171.027C24.7555 170.963 24.9555 170.855 25.1322 170.717C26.6776 171.15 28.1054 170.517 29.5707 170.077C29.9121 169.974 30.2579 169.885 30.6067 169.811C30.7677 169.777 30.9293 169.746 31.0915 169.718C31.1727 169.705 31.2541 169.692 31.3354 169.68C31.3428 169.679 31.3453 169.679 31.3542 169.678C32.0976 169.621 32.8258 169.578 33.5721 169.618C33.9111 169.637 34.2406 169.523 34.5204 169.333C34.7613 169.458 35.0313 169.537 35.3214 169.542C36.3234 169.562 37.3239 169.53 38.3218 169.455C38.5491 169.484 38.7761 169.466 38.9913 169.402C39.3471 169.368 39.7026 169.329 40.0575 169.283C40.9055 169.172 41.8313 169.104 42.6556 168.862C43.0951 168.732 43.4307 168.456 43.6604 168.109C44.5934 168.008 45.249 167.302 45.3018 166.352C45.5632 161.651 45.8244 156.95 46.0858 152.249C46.1088 151.835 45.9485 151.452 45.6906 151.148C45.9154 148.897 46.1746 146.649 46.4717 144.405Z" fill="#933A35"/>
<path d="M191.43 246.248C191.36 245.472 191.29 244.696 191.22 243.919C191.261 243.37 191.209 242.815 191.052 242.298C191.017 242.18 190.969 242.07 190.913 241.965C191.069 238.578 191.055 235.185 190.872 231.798C190.932 228.02 190.885 224.241 190.723 220.466C190.643 218.619 190.536 216.774 190.404 214.931C190.392 214.763 190.359 214.596 190.307 214.435C190.372 214.338 190.433 214.238 190.488 214.133C191.048 213.071 191.245 211.899 190.934 210.718C190.322 208.393 189.813 206.044 189.395 203.678C189.743 199.956 189.736 196.209 189.363 192.488C189.312 191.983 189.092 191.487 188.735 191.147C188.8 189.259 188.858 187.371 188.91 185.482C188.92 185.099 188.786 184.747 188.568 184.456C188.99 183.897 189.048 182.291 188.627 181.636C188.177 180.937 187.259 181.359 186.469 181.769C186.365 181.75 186.259 181.741 186.15 181.744C185.094 181.774 184.109 182.157 183.328 182.813C182.791 182.751 182.243 182.781 181.692 182.927C178.845 183.682 175.998 184.438 173.151 185.193C172.889 185.133 172.611 185.138 172.334 185.231C171.325 185.571 170.313 185.898 169.297 186.215C168.073 186.54 166.848 186.865 165.624 187.189C164.978 187.069 164.313 187.083 163.618 187.235C161.815 187.629 160.064 188.226 158.37 188.956C157.615 189.204 156.859 189.451 156.104 189.699C155.848 189.783 155.6 189.886 155.362 190.005C152.414 190.718 149.458 191.399 146.502 192.074C145.547 192.292 144.593 192.509 143.638 192.727C143.257 192.513 142.8 192.438 142.337 192.569L135.13 194.602C135.042 194.592 134.953 194.587 134.862 194.594C131.687 194.85 129.226 195.219 126.254 196.325C126.218 196.331 125.773 196.457 125.737 196.464C125.686 196.472 125.119 196.564 125.116 196.567C124.378 196.649 123.661 197.28 122.923 197.353C121.843 197.314 120.77 197.517 119.778 197.935C119.492 198.033 119.212 198.144 118.939 198.272C118.822 198.274 118.705 198.274 118.59 198.282C118.292 198.301 117.998 198.389 117.737 198.532C117.675 198.534 117.614 198.54 117.552 198.548C117.531 198.51 117.51 198.472 117.485 198.434C114.872 194.512 112.043 190.733 109.027 187.113C107.9 184.979 106.791 182.835 105.571 180.752C104.695 179.258 103.76 177.799 102.732 176.406C102.461 176.039 102.077 175.744 101.654 175.606C100.665 173.559 99.5423 171.584 98.2456 169.705C98.142 169.555 98.0176 169.419 97.8788 169.3C97.7886 169.188 97.6881 169.086 97.576 168.994C97.5394 168.908 97.4891 168.789 97.4693 168.743C97.4331 168.656 97.3513 168.459 97.3361 168.423C97.2716 168.268 97.2076 168.113 97.1437 167.957C97.0161 167.647 96.8896 167.336 96.7645 167.024C96.2531 165.752 95.7626 164.471 95.2906 163.184C94.9725 162.315 94.0762 161.633 93.1142 161.945C92.211 162.238 91.6036 163.172 91.8785 164.126C91.9934 164.525 92.1083 164.924 92.223 165.323C92.278 165.514 92.3689 165.692 92.4843 165.854C92.2687 166.141 92.1429 166.488 92.1773 166.859C92.2761 167.925 92.3609 168.991 92.4376 170.058C92.4367 171.07 92.4358 172.081 92.4349 173.092C92.4347 173.279 92.469 173.464 92.5296 173.64C92.5252 173.676 92.5159 173.71 92.5132 173.746C92.2995 176.559 92.4071 179.361 92.7642 182.152C92.4026 182.469 92.1651 182.915 92.2069 183.427C92.3551 185.251 92.5032 187.074 92.6514 188.897C92.2196 189.221 91.9179 189.725 91.9638 190.281C92.0573 191.413 92.1509 192.544 92.2444 193.675C92.305 195.427 92.3657 197.178 92.4263 198.93C92.3169 199.155 92.2552 199.408 92.2614 199.681C92.3175 202.14 92.3737 204.599 92.4298 207.058C91.922 207.374 91.5339 207.925 91.6035 208.535C91.8928 211.073 92.1412 213.615 92.3503 216.16C91.6936 224.32 91.4981 232.517 91.7862 240.699C91.8313 241.979 91.8546 243.267 91.9653 244.543C92.0276 245.261 92.1417 245.946 92.3588 246.591C92.2768 247.214 92.1949 247.837 92.1129 248.46C92.0736 248.759 92.1551 249.053 92.311 249.314C92.2081 249.536 92.1417 249.783 92.1245 250.051C92.0468 251.266 92.0948 252.486 92.2501 253.693C92.2944 254.98 92.3388 256.267 92.3831 257.553C92.3674 257.619 92.3526 257.684 92.3335 257.748C92.3215 257.789 92.1339 258.254 92.2833 257.923C91.9811 258.592 91.9502 259.28 92.4216 259.892C92.8777 260.484 93.5643 260.664 94.2813 260.527C95.5544 260.285 96.8317 260.066 98.1106 259.858C99.3355 260.075 100.624 259.973 101.816 259.636C102.359 259.482 102.889 259.281 103.412 259.061C103.454 259.056 103.496 259.049 103.537 259.044C103.796 259.008 104.054 258.973 104.312 258.938C104.326 258.936 104.336 258.935 104.346 258.933C104.373 258.93 104.404 258.926 104.444 258.921C104.559 258.905 104.673 258.89 104.788 258.875C105.305 258.806 105.821 258.739 106.338 258.671C110.506 258.13 114.676 257.604 118.845 257.071L125.166 256.263C125.312 256.358 125.478 256.429 125.661 256.468C126.699 256.689 127.721 256.595 128.728 256.273C129.507 256.023 130.261 255.706 131.047 255.472C131.704 255.277 132.37 255.116 133.039 254.969C133.357 255.357 133.817 255.617 134.348 255.571C137.299 255.316 140.239 255.025 143.089 254.326C144.825 254.67 146.501 254.596 148.264 254.338C150.673 253.986 152.852 252.871 155.1 251.985C155.401 252.235 155.785 252.394 156.226 252.424C157.803 252.533 159.367 252.14 160.873 251.714C161.588 251.512 162.302 251.303 163.031 251.153C163.198 251.119 163.367 251.091 163.536 251.063C163.602 251.055 163.783 251.03 163.83 251.026C164.236 250.984 164.643 250.957 165.049 250.92C166.669 250.776 168.24 250.403 169.837 250.119C170.022 250.086 170.208 250.057 170.394 250.026C170.43 250.021 170.452 250.017 170.476 250.014C170.529 250.007 170.583 250.001 170.636 249.995C171.002 249.956 171.369 249.931 171.737 249.929C171.918 249.928 172.1 249.931 172.281 249.942C172.372 249.947 172.462 249.955 172.552 249.964C172.924 250.034 173.285 250.12 173.643 250.245C174.267 250.464 175.003 250.193 175.449 249.697C176.511 249.571 177.567 249.388 178.608 249.142C178.92 249.507 179.373 249.759 179.913 249.774C181.69 249.824 183.482 249.64 185.216 249.248C186.021 249.066 186.812 248.831 187.587 248.548C187.964 248.41 188.339 248.262 188.725 248.148C188.886 248.101 189.049 248.06 189.213 248.028C189.175 248.048 189.591 248.019 189.661 248.022C190.555 248.063 191.514 247.173 191.43 246.248ZM116.609 229.41C115.602 229.595 114.602 229.816 113.611 230.101C113.077 230.254 112.678 230.621 112.465 231.127C112.228 231.69 112.322 232.162 112.554 232.705C112.454 232.471 112.544 232.68 112.592 232.8C112.64 232.918 112.686 233.035 112.732 233.153C112.474 233.705 112.318 234.322 112.293 234.988C112.247 236.227 112.41 237.525 112.754 238.715C113 239.566 113.34 240.42 113.771 241.213C113.677 241.366 113.587 241.522 113.485 241.67C113.427 241.754 113.367 241.835 113.307 241.917C113.307 241.913 113.145 242.122 113.124 242.147C112.92 242.388 112.705 242.617 112.481 242.837C112.294 242.886 112.108 242.937 111.924 242.992C111.24 243.198 110.638 243.551 110.145 244.006C109.576 242.795 109.007 241.585 108.438 240.374C108.215 237.936 107.992 235.498 107.77 233.06C107.544 230.591 107.319 228.122 107.093 225.653C107.08 225.508 107.062 225.367 107.042 225.227C107.593 224.647 108.144 224.067 108.695 223.487C109.208 222.947 109.724 222.411 110.235 221.87C110.298 221.89 110.36 221.91 110.422 221.929C110.423 221.93 110.427 221.931 110.429 221.932C110.475 221.952 110.538 221.978 110.557 221.987C110.836 222.124 111.104 222.284 111.36 222.462C111.369 222.469 111.392 222.482 111.417 222.498C111.422 222.502 111.423 222.503 111.428 222.507C111.563 222.626 111.702 222.739 111.834 222.861C112.066 223.077 112.287 223.306 112.499 223.542C112.59 223.645 112.68 223.749 112.768 223.854C112.827 223.924 112.886 223.995 112.943 224.067C112.954 224.08 112.997 224.133 113.03 224.173C113.038 224.184 113.045 224.194 113.049 224.198C113.104 224.272 113.16 224.346 113.214 224.42C113.296 224.532 113.377 224.644 113.457 224.756C113.66 225.041 113.858 225.329 114.056 225.616C114.519 226.291 114.982 226.965 115.445 227.64C115.833 228.205 116.222 228.771 116.61 229.337C116.609 229.362 116.61 229.386 116.609 229.41Z" fill="#933A35"/>
<path d="M91.8773 161.595C97.757 161.019 103.629 160.362 109.491 159.624C115.664 158.847 121.826 157.983 127.975 157.028C134.366 156.036 140.746 154.961 147.101 153.757C153.438 152.556 159.748 151.213 166.037 149.782C172.036 148.417 178.015 146.97 183.985 145.485C184.69 145.309 185.396 145.133 186.101 144.956C187.219 144.677 186.745 142.944 185.624 143.225C179.741 144.697 173.849 146.139 167.94 147.505C161.708 148.946 155.456 150.305 149.179 151.534C142.813 152.779 136.418 153.881 130.013 154.901C123.903 155.875 117.779 156.76 111.643 157.554C105.775 158.313 99.898 158.991 94.0123 159.587C93.3008 159.659 92.5891 159.73 91.8774 159.8C91.3959 159.847 90.9815 160.179 90.9815 160.698C90.9814 161.146 91.3928 161.643 91.8773 161.595Z" fill="black"/>
<path d="M90.9815 160.697C90.9388 173.808 90.896 186.918 90.8532 200.029C90.8106 213.072 90.7681 226.116 90.7255 239.159C90.7016 246.517 90.6775 253.875 90.6536 261.233C90.6497 262.389 92.4414 262.39 92.4453 261.233C92.488 248.123 92.5307 235.012 92.5736 221.902C92.6162 208.858 92.6587 195.815 92.7012 182.771C92.7252 175.413 92.7493 168.055 92.7732 160.697C92.777 159.542 90.9853 159.54 90.9815 160.697Z" fill="black"/>
<path d="M45.8611 141.386C48.7493 142.993 51.6669 144.548 54.6123 146.047C57.5311 147.532 60.4769 148.964 63.4479 150.342C66.4494 151.734 69.4772 153.068 72.5266 154.351C75.4937 155.599 78.483 156.795 81.4923 157.937C84.48 159.071 87.4875 160.153 90.5124 161.183C90.8874 161.31 91.2628 161.437 91.6384 161.563C92.0831 161.713 92.6369 161.391 92.7404 160.936C92.8531 160.44 92.5908 159.992 92.1147 159.832C89.1015 158.82 86.1053 157.757 83.1283 156.643C80.1169 155.515 77.1251 154.334 74.1552 153.101C73.784 152.947 73.4131 152.792 73.0426 152.636C72.9499 152.597 72.8573 152.558 72.7646 152.519C72.7265 152.503 72.5328 152.421 72.661 152.475C72.4624 152.391 72.264 152.307 72.0656 152.222C71.3242 151.906 70.5841 151.587 69.8454 151.264C68.3635 150.617 66.8873 149.956 65.4173 149.282C62.4438 147.919 59.4949 146.502 56.5731 145.031C53.6356 143.552 50.7253 142.019 47.8443 140.432C47.4842 140.234 47.1247 140.035 46.7655 139.835C46.3559 139.607 45.7692 139.722 45.5398 140.157C45.3171 140.58 45.4236 141.142 45.8611 141.386Z" fill="black"/>
<path d="M140.822 122.474C134.942 123.05 129.07 123.707 123.208 124.445C117.035 125.222 110.873 126.087 104.724 127.041C98.3331 128.033 91.9527 129.108 85.5978 130.312C79.2608 131.513 72.9511 132.856 66.662 134.287C60.6634 135.652 54.6837 137.099 48.7139 138.585C48.0086 138.76 47.3032 138.936 46.5982 139.113C45.4802 139.393 45.9537 141.125 47.0745 140.844C52.9583 139.372 58.85 137.931 64.7593 136.564C70.9912 135.123 77.2426 133.764 83.5199 132.536C89.8859 131.29 96.2806 130.188 102.686 129.168C108.796 128.195 114.92 127.309 121.056 126.515C126.923 125.756 132.801 125.078 138.687 124.482C139.398 124.41 140.11 124.339 140.821 124.27C141.303 124.222 141.717 123.891 141.717 123.372C141.718 122.923 141.306 122.426 140.822 122.474Z" fill="black"/>
<path d="M188.046 143.932C187.985 143.896 187.926 143.857 187.868 143.815C187.833 143.791 187.798 143.765 187.764 143.739C187.742 143.723 187.72 143.706 187.698 143.69C187.604 143.62 187.763 143.738 187.775 143.75C187.586 143.576 187.369 143.425 187.17 143.261C186.717 142.889 186.267 142.511 185.798 142.157C185.265 141.754 184.638 141.472 184.052 141.155C183.255 140.723 182.455 140.295 181.653 139.872C178.454 138.183 175.221 136.558 171.956 135C168.739 133.465 165.491 131.993 162.215 130.586C158.911 129.168 155.581 127.811 152.224 126.521C148.939 125.259 145.63 124.061 142.299 122.925C141.886 122.784 141.473 122.645 141.06 122.506C140.615 122.356 140.061 122.678 139.958 123.133C139.845 123.629 140.107 124.077 140.583 124.237C143.902 125.352 147.2 126.528 150.475 127.767C152.121 128.39 153.762 129.03 155.396 129.685C156.216 130.013 157.034 130.346 157.851 130.682C158.26 130.851 158.668 131.02 159.076 131.191C159.281 131.276 159.485 131.362 159.689 131.447C159.784 131.487 159.879 131.528 159.975 131.568C159.995 131.576 160.132 131.635 160.005 131.581C160.06 131.604 160.114 131.627 160.169 131.65C163.447 133.04 166.698 134.495 169.92 136.014C173.173 137.548 176.397 139.148 179.586 140.812C181.194 141.652 182.794 142.507 184.385 143.379C184.566 143.478 184.728 143.586 184.894 143.708C184.987 143.775 184.715 143.567 184.891 143.705C184.936 143.741 184.981 143.777 185.026 143.813C185.13 143.896 185.233 143.98 185.337 144.065C185.797 144.442 186.254 144.824 186.725 145.187C186.86 145.291 186.995 145.398 187.142 145.482C187.549 145.715 188.14 145.591 188.368 145.16C188.593 144.733 188.481 144.181 188.046 143.932Z" fill="black"/>
<path d="M45.4188 140.61C45.243 152.466 45.0671 164.321 44.8913 176.176C44.7163 187.971 44.5414 199.766 44.3664 211.561C44.2677 218.214 44.1691 224.868 44.0704 231.521C44.0532 232.677 45.8449 232.678 45.8621 231.521C46.0379 219.666 46.2138 207.811 46.3896 195.955C46.5646 184.161 46.7395 172.366 46.9145 160.571C47.0132 153.917 47.1119 147.264 47.2105 140.61C47.2276 139.454 45.4359 139.454 45.4188 140.61Z" fill="black"/>
<path d="M187.98 181.054C188.364 189.772 188.748 198.491 189.132 207.209C189.514 215.883 189.895 224.557 190.277 233.231C190.493 238.124 190.708 243.017 190.923 247.91C190.945 248.395 191.32 248.808 191.819 248.808C192.288 248.808 192.736 248.397 192.715 247.91C192.331 239.192 191.947 230.473 191.564 221.755C191.182 213.081 190.8 204.407 190.418 195.733C190.203 190.84 189.987 185.947 189.772 181.054C189.751 180.569 189.375 180.156 188.876 180.156C188.407 180.156 187.959 180.567 187.98 181.054Z" fill="black"/>
<path d="M45.6798 139.975C43.9595 142.003 42.2392 144.03 40.5188 146.058C38.7984 148.086 37.0782 150.113 35.3578 152.141C33.6447 154.16 31.9315 156.18 30.2183 158.199C28.498 160.227 26.7777 162.254 25.0573 164.282C23.337 166.31 21.6167 168.337 19.8963 170.365C19.6821 170.618 19.468 170.87 19.2538 171.122C19.0149 171.404 18.9195 171.749 19.0686 172.103C19.192 172.396 19.5416 172.702 19.8873 172.655C23.2272 172.205 26.5672 171.756 29.9071 171.306C33.2252 170.86 36.5434 170.413 39.8615 169.967C41.7388 169.714 43.6163 169.461 45.4936 169.209C45.7412 169.176 45.9427 169.131 46.1271 168.946C46.2825 168.79 46.3994 168.535 46.3895 168.311C46.3792 168.079 46.303 167.838 46.1271 167.676C45.9655 167.528 45.722 167.382 45.4936 167.413C42.1537 167.863 38.8136 168.312 35.4737 168.762C32.1556 169.208 28.8374 169.655 25.5193 170.101C23.642 170.354 21.7646 170.607 19.8873 170.859C20.0984 171.37 20.3097 171.881 20.5208 172.392C22.2411 170.364 23.9613 168.336 25.6818 166.309C27.4022 164.281 29.1223 162.253 30.8428 160.226C32.5559 158.206 34.269 156.187 35.9823 154.168C37.7026 152.14 39.4229 150.113 41.1433 148.085C42.8637 146.057 44.5839 144.03 46.3043 142.002C46.5185 141.749 46.7326 141.497 46.9468 141.245C47.1034 141.06 47.2092 140.859 47.2092 140.61C47.2092 140.389 47.1116 140.126 46.9468 139.975C46.6129 139.668 46.004 139.593 45.6798 139.975Z" fill="black"/>
<path d="M92.0359 161.095C93.6153 163.515 95.1947 165.935 96.7739 168.355C98.3466 170.765 99.9193 173.175 101.492 175.584C103.064 177.994 104.637 180.403 106.21 182.813C107.789 185.233 109.368 187.653 110.948 190.073C112.521 192.483 114.093 194.892 115.666 197.302C115.862 197.602 116.057 197.902 116.253 198.202C116.509 198.594 117.058 198.796 117.479 198.524C117.87 198.271 118.074 197.716 117.8 197.295C116.221 194.875 114.641 192.455 113.062 190.035C111.489 187.626 109.917 185.216 108.344 182.807C106.771 180.397 105.199 177.987 103.626 175.578C102.047 173.158 100.467 170.738 98.888 168.318C97.3154 165.908 95.7427 163.499 94.1702 161.089C93.9744 160.789 93.7788 160.489 93.583 160.189C93.3268 159.797 92.7781 159.595 92.3573 159.867C91.9661 160.12 91.7615 160.675 92.0359 161.095Z" fill="black"/>
<path d="M185.73 144.666C186.297 145.015 186.851 145.384 187.39 145.775C187.52 145.869 187.649 145.964 187.778 146.06C187.845 146.111 187.913 146.162 187.98 146.213C188.01 146.236 188.04 146.259 188.07 146.282C188.208 146.388 187.92 146.164 188.067 146.28C188.318 146.478 188.567 146.677 188.813 146.881C189.823 147.72 190.784 148.617 191.716 149.542C193.601 151.412 195.372 153.393 197.239 155.28C199.226 157.286 201.307 159.199 203.455 161.031C205.668 162.917 207.953 164.718 210.292 166.445C212.572 168.129 214.907 169.739 217.285 171.282C217.571 171.468 217.857 171.653 218.144 171.836C218.54 172.089 219.15 171.932 219.37 171.514C219.604 171.07 219.471 170.556 219.049 170.286C216.665 168.761 214.323 167.171 212.033 165.507C211.457 165.088 210.883 164.665 210.314 164.237C210.029 164.023 209.745 163.807 209.461 163.591C209.324 163.485 209.186 163.38 209.049 163.274C209.017 163.249 208.985 163.224 208.952 163.199C208.829 163.103 208.971 163.213 208.989 163.227C208.909 163.164 208.828 163.102 208.747 163.04C207.623 162.163 206.513 161.268 205.421 160.352C203.252 158.532 201.15 156.632 199.137 154.64C197.239 152.761 195.453 150.774 193.58 148.872C191.694 146.956 189.695 145.134 187.454 143.64C187.184 143.46 186.911 143.285 186.634 143.116C186.234 142.87 185.631 143.015 185.408 143.438C185.178 143.876 185.303 144.404 185.73 144.666Z" fill="black"/>
<path d="M117.264 198.614C124.06 197.25 130.842 195.815 137.607 194.308C144.546 192.763 151.467 191.142 158.37 189.446C165.142 187.783 171.896 186.047 178.632 184.24C185.177 182.484 191.704 180.66 198.212 178.769C204.528 176.933 210.826 175.034 217.105 173.072C217.861 172.836 218.618 172.599 219.374 172.36C220.47 172.015 220.002 170.281 218.898 170.629C212.647 172.598 206.378 174.506 200.09 176.35C193.61 178.251 187.111 180.085 180.593 181.851C173.886 183.67 167.16 185.417 160.415 187.092C153.516 188.806 146.597 190.446 139.662 192.009C132.875 193.54 126.072 194.999 119.254 196.385C118.432 196.552 117.61 196.718 116.788 196.883C115.658 197.109 116.137 198.841 117.264 198.614Z" fill="black"/>
<path d="M107.441 229.112C106.341 229.751 105.241 230.39 104.141 231.029C104.591 231.287 105.04 231.546 105.49 231.804C105.471 231.628 105.463 231.451 105.469 231.273C105.471 231.195 105.476 231.117 105.484 231.039C105.484 231.033 105.503 230.936 105.496 230.922C105.478 231.054 105.474 231.085 105.485 231.016C105.489 230.987 105.494 230.957 105.499 230.929C105.561 230.577 105.664 230.234 105.79 229.901C105.814 229.835 105.832 229.729 105.878 229.677C105.794 229.773 105.821 229.807 105.858 229.725C105.879 229.679 105.899 229.632 105.92 229.587C105.999 229.412 106.082 229.239 106.169 229.068C106.33 228.749 106.501 228.434 106.673 228.119C107.393 226.797 108.151 225.496 108.946 224.217C109.341 223.583 109.745 222.954 110.157 222.331C110.256 222.182 110.356 222.033 110.455 221.884C110.507 221.808 110.558 221.731 110.61 221.655C110.628 221.629 110.648 221.603 110.666 221.577C110.717 221.504 110.517 221.75 110.649 221.606C110.671 221.583 110.696 221.561 110.717 221.537C110.792 221.454 110.522 221.657 110.665 221.577C110.73 221.541 110.772 221.546 110.573 221.61C110.645 221.587 110.692 221.608 110.467 221.618C110.607 221.612 110.376 221.605 110.366 221.603C110.191 221.565 110.204 221.524 110.276 221.567C110.417 221.651 110.148 221.441 110.224 221.526C110.25 221.555 110.279 221.584 110.307 221.612C110.429 221.733 110.205 221.468 110.272 221.563C110.293 221.591 110.313 221.619 110.334 221.647C110.391 221.728 110.449 221.808 110.506 221.889C110.621 222.05 110.737 222.211 110.852 222.372C111.082 222.694 111.312 223.016 111.543 223.338C111.997 223.974 112.451 224.609 112.905 225.244C113.935 226.684 114.965 228.125 115.994 229.565C116.102 229.156 116.209 228.746 116.316 228.337C116.207 228.386 116.333 228.328 116.373 228.315C116.338 228.327 116.303 228.343 116.268 228.357C116.197 228.385 116.126 228.41 116.054 228.435C115.91 228.483 115.765 228.525 115.617 228.561C115.471 228.596 115.316 228.609 115.171 228.648C115.209 228.637 115.364 228.625 115.24 228.638C115.202 228.642 115.164 228.647 115.127 228.65C115.042 228.658 114.957 228.664 114.871 228.668C114.72 228.675 114.568 228.676 114.417 228.669C114.341 228.666 114.265 228.662 114.19 228.655C114.152 228.652 114.114 228.648 114.076 228.644C114.046 228.641 113.911 228.624 114.054 228.643C114.198 228.663 114.063 228.643 114.033 228.639C113.995 228.632 113.958 228.626 113.921 228.619C113.846 228.605 113.772 228.59 113.698 228.573C113.541 228.536 113.386 228.491 113.233 228.441C112.788 228.293 112.235 228.611 112.131 229.068C112.019 229.562 112.28 230.014 112.757 230.172C114.23 230.659 115.817 230.518 117.22 229.887C117.635 229.701 117.802 229.022 117.542 228.659C116.576 227.308 115.61 225.957 114.644 224.606C114.164 223.935 113.685 223.264 113.205 222.593C112.73 221.928 112.271 221.248 111.776 220.599C111.446 220.166 111.025 219.803 110.444 219.824C109.866 219.845 109.459 220.209 109.134 220.651C108.669 221.28 108.256 221.956 107.836 222.616C106.988 223.948 106.181 225.306 105.415 226.687C104.558 228.232 103.503 229.961 103.698 231.804C103.733 232.129 103.847 232.407 104.142 232.58C104.419 232.742 104.769 232.741 105.046 232.58C106.146 231.941 107.246 231.302 108.345 230.663C108.751 230.427 108.928 229.841 108.667 229.434C108.403 229.024 107.875 228.86 107.441 229.112Z" fill="black"/>
</g>
<mask id="mask1_12068_7740" style="mask-type:luminance" maskUnits="userSpaceOnUse" x="58" y="27" width="117" height="135">
<path d="M174.511 27H58.4952V161.54H174.511V27Z" fill="white"/>
</mask>
<g mask="url(#mask1_12068_7740)">
<path d="M173.249 144.633C173.231 144.521 173.24 144.418 173.268 144.325C171.189 137.36 168.821 130.482 166.152 123.721C163.196 116.232 159.906 108.883 156.289 101.691C154.395 97.9264 152.419 94.2032 150.479 90.4619C148.381 86.4165 146.272 82.3764 144.036 78.4054C143.756 77.9084 143.475 77.41 143.196 76.913C143.098 76.7265 142.998 76.5425 142.899 76.3573C142.893 76.3547 142.885 76.3534 142.878 76.3508C138.716 68.9541 134.561 61.5535 130.359 54.179C125.861 46.2879 121.312 38.4255 116.666 30.6218C116.075 29.629 115.482 28.6376 114.887 27.6461C114.707 27.3448 114.322 27.5092 114.282 27.8118C113.799 31.4215 113.304 35.0324 112.929 38.6551C112.773 40.1618 112.798 41.679 112.098 43.0683C111.897 43.4675 111.628 43.8797 111.218 44.0858C110.669 44.3624 109.953 44.1393 109.375 44.0728C107.901 43.9019 106.424 43.7584 104.944 43.641C99.6879 43.2261 94.4151 43.1883 89.1748 43.5601C88.3621 43.5888 87.5507 43.6397 86.7432 43.7062C85.1893 43.8341 83.6523 44.0193 82.1309 44.3154C77.9764 44.9129 73.8569 45.783 69.7999 46.9414C68.9352 47.188 68.1121 47.5794 67.2383 47.1606C66.54 46.8253 65.9561 46.2344 65.5478 45.5834C65.1525 44.952 64.9341 44.2332 64.6779 43.5379C64.4204 42.8361 64.1617 42.1343 63.9042 41.4311C62.8549 38.5611 61.8107 35.6834 60.9629 32.7442C60.8575 32.3777 60.3543 32.4729 60.3244 32.8316C59.6443 41.2446 59.2386 49.681 59.1333 58.1226C59.0501 64.8409 59.1528 71.5631 59.4779 78.2749C59.8069 85.0546 60.3751 91.8186 60.8823 98.5865C61.4427 106.059 61.8627 113.539 62.0057 121.032C62.1644 129.252 62.0512 137.478 61.7002 145.692C61.69 145.934 61.6781 146.177 61.6671 146.42C62.0004 147.397 62.1786 148.395 62.2706 149.406C62.7701 149.641 63.2693 149.878 63.7703 150.11C66.7207 151.48 69.6959 152.792 72.6931 154.054C75.6098 155.283 78.5485 156.458 81.5068 157.583C84.2531 158.627 87.0175 159.625 89.7964 160.579C89.8978 160.693 90.0317 160.779 90.1943 160.82C90.5869 160.922 90.977 161.023 91.3697 161.123C91.371 161.123 91.371 161.123 91.3723 161.124C91.4777 161.173 91.5921 161.195 91.7117 161.183C97.4878 160.616 103.256 159.97 109.014 159.244C115.077 158.48 121.132 157.631 127.17 156.692C133.447 155.717 139.709 154.647 145.954 153.482C152.06 152.345 158.148 151.116 164.218 149.797C167.368 149.112 170.511 148.403 173.649 147.671C173.539 146.656 173.408 145.643 173.249 144.633Z" fill="white"/>
<path d="M66.3821 60.486C66.9921 59.9944 67.8838 59.3598 69.0533 58.7936C72.3993 57.1742 75.4554 57.3583 76.0702 57.404C79.8091 57.6823 82.3664 59.473 83.335 60.2312C82.5429 61.1694 80.7285 63.0333 77.8159 63.8193C71.6988 65.4702 66.6712 60.7654 66.3821 60.486Z" fill="white"/>
<path d="M123.044 53.8604C119.947 50.2064 114.742 49.2563 110.236 50.1025C107.639 50.5903 105.164 51.6436 102.849 52.8978C100.719 54.0511 98.01 55.5109 97.9508 58.2821C97.9459 58.5117 97.9735 58.7396 98.016 58.9646C98.0013 60.1626 98.4015 61.3956 99.037 62.4326C100.282 64.4641 102.384 65.8883 104.558 66.7532C109.537 68.7338 115.101 67.4853 119.777 65.2673C121.787 64.3138 123.807 62.9424 124.68 60.8054C125.668 58.3853 124.643 55.7468 123.044 53.8604Z" fill="#50715B"/>
<path d="M115.904 61.2051C109.053 64.7331 101.667 60.295 101.091 59.9366C101.663 59.3681 102.486 58.6306 103.569 57.9029C104.414 57.3357 107.131 55.6231 111.04 55.1316C115.654 54.5513 119.27 56.0063 120.801 56.7317C119.927 58.053 118.383 59.928 115.904 61.2051Z" fill="white"/>
<path d="M86.6872 43.7757C84.4931 43.9558 82.3346 44.2523 80.201 44.807C79.1847 45.0711 78.1007 45.3054 77.1429 45.744C76.7306 45.9329 76.3849 46.2082 76.0371 46.4777C78.1756 49.3118 80.589 52.0621 84.0609 53.1788C85.8784 53.7632 87.9505 53.863 89.7467 53.1474C91.6249 52.3991 93.0065 50.9162 94.034 49.2058C95.003 47.5928 95.6467 45.8135 96.5001 44.1418C93.2856 43.4887 89.9565 43.5074 86.6872 43.7757Z" fill="#50715B"/>
<path d="M136.952 154.143C138.887 153.95 140.822 153.771 142.73 153.383C144.207 153.083 145.66 152.689 147.086 152.213C148.21 148.383 148.301 144.274 147.388 140.387C146.472 136.486 144.465 132.888 141.722 129.985C140.453 128.64 139.012 127.461 137.457 126.464C136.897 127.276 136.118 127.942 135.569 128.765C134.818 129.891 134.321 131.134 133.842 132.394C132.925 134.804 132.177 137.273 131.67 139.803C131.158 142.356 130.733 144.954 130.729 147.565C130.726 150.023 131.14 152.417 131.491 154.836C133.315 154.752 135.137 154.325 136.952 154.143Z" fill="#50715B"/>
<path d="M92.5279 72.4287C93.3194 71.7403 93.6225 70.6215 93.6195 69.6046C93.6186 69.3352 93.603 69.0485 93.5133 68.7935C93.3586 68.354 93.0368 68.0614 92.6102 67.8966C92.2554 67.7596 91.8405 67.7236 91.4517 67.7405C90.8207 67.5321 90.1217 67.5707 89.4865 67.8532C89.0893 68.0298 88.779 68.3082 88.5522 68.6441C88.0611 69.1135 87.6917 69.7353 87.5321 70.3679C87.3055 71.2663 87.413 72.321 88.0918 73.0047C88.9065 73.8252 90.2106 73.7554 91.2014 73.3358C91.5815 73.1749 91.9379 72.943 92.2454 72.6597C92.3004 72.6173 92.3506 72.5689 92.4025 72.5223C92.4439 72.4905 92.4882 72.4631 92.5279 72.4287Z" fill="#899884"/>
<path d="M99.0837 69.2012C99.0186 68.7607 98.7912 68.3707 98.5117 68.0328C97.9648 67.3712 97.0815 67.0008 96.2359 66.9767C95.5153 66.9561 94.7747 67.2312 94.259 67.7409C94.1396 67.7801 94.0286 67.8459 93.939 67.9487C93.3871 68.5821 93.2134 69.3749 93.3728 70.1939C93.5167 70.9325 94.0256 71.6158 94.6915 71.9613C95.146 72.197 95.6593 72.3044 96.1713 72.2935C96.6016 72.3085 97.036 72.2162 97.413 72.0227C98.0409 71.7514 98.5769 71.2825 98.8732 70.6337C99.0856 70.1682 99.1588 69.7085 99.0837 69.2012Z" fill="#899884"/>
<path d="M149.171 88.3625C148.195 87.0377 147.349 85.6287 146.526 84.2053C145.7 82.7766 144.837 81.2842 144.209 79.7564C143.898 79.0005 143.69 78.204 143.366 77.4541C143.212 77.0989 143.023 76.7652 142.843 76.427C140.355 75.6102 137.426 75.1271 135.442 77.2411C133.708 79.0887 133.528 81.8895 133.968 84.2644C134.916 89.3924 139.45 94.6027 145.081 93.8921C146.673 93.6912 148.17 92.9689 149.174 91.688C149.592 91.1554 149.911 90.5743 150.118 89.9609C149.816 89.4141 149.533 88.8539 149.171 88.3625Z" fill="#899884"/>
<path d="M141.075 101.714C141.005 101.465 140.895 101.236 140.758 101.027C140.584 100.642 140.32 100.301 139.945 100.049C139.474 99.7329 138.888 99.6716 138.331 99.7798C138.272 99.7766 138.213 99.7687 138.154 99.7695C137.176 99.7814 136.279 100.37 135.813 101.223C135.346 102.077 135.292 103.138 135.788 103.994C136.277 104.838 137.177 105.338 138.127 105.435C140.088 105.636 141.591 103.55 141.075 101.714Z" fill="#899884"/>
<path d="M161.211 114.886C159.883 111.714 158.575 108.531 157.207 105.376C156.259 103.189 155.239 100.949 153.842 98.9951C147.109 108.016 153.277 119.37 161.311 127.09C163.539 129.23 166.037 131.193 168.732 132.982C166.442 126.867 163.731 120.904 161.211 114.886Z" fill="#899884"/>
<path d="M62.7591 147.756C63.1295 139.976 63.2819 132.185 63.2037 124.397C63.1258 116.639 62.7685 108.892 62.2152 101.155C61.7344 94.4287 61.144 87.7105 60.7654 80.9773C60.3867 74.2433 60.2261 67.4993 60.2607 60.7548C60.3023 52.6383 60.6228 44.5234 61.2043 36.4278C61.2889 35.2518 61.3792 34.0762 61.4744 32.9009C60.8979 32.9792 60.3212 33.0575 59.7446 33.1357C60.5335 35.8732 61.496 38.5581 62.4707 41.2333C62.953 42.557 63.4076 43.898 63.9309 45.2059C64.437 46.471 65.3303 47.6596 66.5733 48.274C68.0629 49.0104 69.4712 48.3353 70.9558 47.927C72.4647 47.512 73.9837 47.134 75.5112 46.794C78.542 46.1196 81.6065 45.5924 84.69 45.2295C90.9029 44.4983 97.1792 44.3987 103.419 44.8131C104.97 44.9162 106.519 45.0504 108.065 45.2131C109.249 45.3378 110.719 45.8073 111.824 45.1713C113.449 44.2368 113.812 41.9524 113.937 40.2573C114.243 36.1183 114.882 31.9924 115.431 27.8807C114.884 28.0293 114.337 28.178 113.79 28.3266C118.46 36.1135 123.029 43.9606 127.538 51.8418C132.109 59.831 136.622 67.8541 141.124 75.8824C145.497 83.6793 149.654 91.5844 153.746 99.533C157.483 106.792 160.921 114.193 163.992 121.761C166.831 128.759 169.359 135.882 171.565 143.106C171.894 144.182 172.215 145.26 172.53 146.341C172.847 147.43 174.547 146.966 174.228 145.871C172.035 138.35 169.508 130.928 166.632 123.642C163.658 116.109 160.351 108.714 156.712 101.48C154.818 97.7145 152.843 93.9913 150.902 90.2503C148.804 86.2049 146.695 82.1648 144.459 78.1941C139.909 70.1138 135.373 62.0247 130.782 53.9675C126.285 46.076 121.736 38.2141 117.089 30.4103C116.498 29.4174 115.905 28.4257 115.311 27.4347C114.82 26.6153 113.779 27.0626 113.67 27.8806C113.188 31.4903 112.691 35.1011 112.317 38.7241C112.165 40.1917 112.228 41.5323 111.562 42.8566C111.411 43.1569 111.208 43.5353 110.881 43.6744C110.437 43.8628 109.78 43.6373 109.319 43.5842C107.845 43.4144 106.367 43.2698 104.887 43.153C93.024 42.2157 81.0581 43.2003 69.5964 46.4729C68.9057 46.6701 68.1668 47.0641 67.4622 46.7484C66.8459 46.4722 66.3258 45.9371 65.9711 45.3709C65.6005 44.7796 65.3971 44.1106 65.1577 43.4594C64.8997 42.7572 64.6412 42.0552 64.3842 41.3526C63.3342 38.4827 62.2896 35.6042 61.4428 32.666C61.1562 31.6714 59.7915 31.9307 59.713 32.9008C59.0318 41.3146 58.6262 49.7506 58.5218 58.1916C58.4387 64.9104 58.5411 71.6324 58.8661 78.3442C59.1944 85.1245 59.7635 91.8881 60.2706 98.6563C60.8305 106.129 61.2506 113.609 61.3943 121.102C61.5519 129.322 61.4393 137.548 61.0881 145.761C61.0596 146.426 61.0294 147.091 60.9979 147.756C60.9436 148.892 62.7051 148.89 62.7591 147.756Z" fill="black"/>
<path d="M91.6676 161.536C97.4463 160.968 103.217 160.323 108.978 159.597C115.026 158.834 121.063 157.987 127.086 157.052C133.313 156.085 139.522 155.012 145.72 153.877C150.202 153.056 154.681 152.214 159.134 151.248C163.41 150.321 167.66 149.278 171.905 148.22C172.565 148.055 173.224 147.89 173.883 147.725C174.982 147.45 174.517 145.745 173.415 146.021C168.995 147.129 164.572 148.233 160.124 149.224C155.875 150.17 151.603 150.999 147.324 151.792C141.268 152.914 135.202 153.985 129.12 154.954C123.119 155.911 117.103 156.782 111.077 157.562C105.308 158.309 99.5286 158.975 93.7413 159.562C93.0501 159.632 92.359 159.701 91.6676 159.769C91.1943 159.815 90.787 160.142 90.787 160.652C90.7869 161.094 91.1915 161.582 91.6676 161.536Z" fill="black"/>
<path d="M61.1451 149.147C63.0932 150.095 65.0513 151.022 67.0212 151.923C68.928 152.796 70.8458 153.645 72.7749 154.467C74.7338 155.301 76.703 156.112 78.684 156.893C80.6311 157.66 82.5887 158.4 84.5556 159.115C86.5743 159.849 88.6027 160.555 90.6388 161.239C90.9034 161.328 91.1681 161.416 91.433 161.504C91.8706 161.65 92.4144 161.336 92.5163 160.887C92.6269 160.4 92.3698 159.956 91.9013 159.8C89.8525 159.119 87.8111 158.415 85.7793 157.684C83.8137 156.977 81.8573 156.245 79.9111 155.486C77.9892 154.737 76.0776 153.961 74.1769 153.159C74.1143 153.132 74.0511 153.107 73.9894 153.079C73.9874 153.079 74.1566 153.15 74.0658 153.112C74.0391 153.1 74.0123 153.089 73.9855 153.078C73.8604 153.025 73.7354 152.972 73.6105 152.918C73.3691 152.815 73.128 152.712 72.8871 152.608C72.4127 152.404 71.939 152.198 71.4661 151.991C70.5124 151.573 69.5616 151.148 68.6136 150.718C66.6601 149.831 64.7183 148.919 62.7867 147.986C62.5357 147.864 62.285 147.743 62.0344 147.621C61.6207 147.419 61.0633 147.494 60.8295 147.938C60.6204 148.334 60.7026 148.931 61.1451 149.147Z" fill="black"/>
<path d="M67.0052 61.1112C67.056 61.0704 67.1071 61.0301 67.1582 60.9897C67.2854 60.8891 66.9784 61.1265 67.1104 61.027C67.133 61.0099 67.1555 60.9925 67.1781 60.9754C67.3112 60.8751 67.4459 60.777 67.5824 60.6815C67.8656 60.4834 68.156 60.2958 68.4531 60.1192C68.8117 59.906 69.18 59.7089 69.5563 59.529C69.6527 59.4829 69.7495 59.4379 69.8469 59.3941C69.8854 59.3767 69.924 59.3597 69.9627 59.3426C69.9746 59.3373 70.166 59.2554 70.0305 59.3127C69.8957 59.3696 70.085 59.2906 70.0976 59.2854C70.1452 59.2661 70.1928 59.2469 70.2405 59.2282C70.3442 59.1872 70.4482 59.1475 70.5527 59.1092C71.2647 58.8472 71.9978 58.6433 72.7418 58.4971C72.903 58.4654 73.0646 58.4364 73.2267 58.4104C73.3045 58.3978 73.3823 58.3858 73.4601 58.3746C73.4906 58.3702 73.5214 58.3665 73.5517 58.3616C73.2468 58.4102 73.4737 58.3721 73.5419 58.3638C73.8163 58.3301 74.0917 58.3042 74.3676 58.2864C74.7883 58.2593 75.2103 58.2505 75.6316 58.2646C75.7557 58.2688 75.8799 58.2749 76.0038 58.2834C76.1034 58.2902 76.2031 58.2983 76.3024 58.3076C76.3977 58.3163 76.493 58.3262 76.5882 58.337C76.6446 58.3434 76.701 58.3507 76.7574 58.3575C76.9328 58.3787 76.5586 58.3282 76.7461 58.3563C77.4567 58.4631 78.1577 58.6204 78.8431 58.8378C79.145 58.9337 79.4437 59.0402 79.7383 59.1571C79.8086 59.185 79.8784 59.2139 79.9485 59.2425C80.1087 59.3081 79.745 59.1539 79.9024 59.2231C79.9293 59.2349 79.9562 59.2464 79.9831 59.2583C80.1269 59.3216 80.2697 59.3873 80.4113 59.4554C80.924 59.7022 81.4215 59.981 81.8998 60.2897C82.0839 60.4084 82.2651 60.5316 82.4432 60.6594C82.5202 60.7145 82.5965 60.7705 82.6723 60.8274C82.7078 60.854 82.7432 60.8809 82.7786 60.9079C82.9315 61.0245 82.591 60.7616 82.7126 60.8566C82.7126 60.4401 82.7126 60.0237 82.7126 59.6071C82.3874 59.9917 82.0391 60.3562 81.6682 60.6968C81.5564 60.7995 81.4426 60.9 81.3269 60.9983C81.266 61.0499 81.2048 61.1008 81.1429 61.1512C81.0819 61.2007 80.8028 61.4078 81.062 61.2178C80.7632 61.4369 80.4649 61.6531 80.1497 61.8483C79.8046 62.062 79.4476 62.2562 79.0806 62.4292C78.9878 62.4729 78.8941 62.5143 78.8005 62.5561C78.6271 62.6335 78.9963 62.4772 78.8191 62.5483C78.7702 62.5679 78.7215 62.5881 78.6725 62.6074C78.4547 62.6933 78.234 62.7717 78.0109 62.8424C77.6025 62.9719 77.1858 63.076 76.7644 63.1531C76.6638 63.1715 76.5627 63.1885 76.4616 63.2038C76.4002 63.2132 76.2157 63.2282 76.495 63.2007C76.4449 63.2057 76.3951 63.2135 76.3452 63.2192C76.1317 63.244 75.9175 63.262 75.7028 63.2731C75.3031 63.2939 74.9022 63.2909 74.5027 63.2652C74.3164 63.2532 74.1303 63.2362 73.9449 63.2144C73.8991 63.2091 73.8534 63.2023 73.8075 63.1975C74.0977 63.2278 73.924 63.2132 73.8596 63.2038C73.7544 63.1883 73.6495 63.1714 73.5447 63.153C72.8286 63.0267 72.1252 62.8314 71.4431 62.5799C71.2881 62.5227 71.1342 62.4627 70.9815 62.3999C70.9439 62.3845 70.9064 62.3684 70.8689 62.353C71.1402 62.4644 70.9903 62.4044 70.9309 62.3786C70.8457 62.3415 70.7608 62.3036 70.6763 62.2648C70.3981 62.1373 70.124 62.0008 69.8542 61.8561C69.3603 61.5913 68.8809 61.2992 68.4181 60.9829C68.2068 60.8385 67.999 60.689 67.7951 60.5343C67.7756 60.5195 67.7563 60.5045 67.7367 60.4898C67.6031 60.3879 67.9188 60.6321 67.8213 60.5555C67.7802 60.5232 67.739 60.4909 67.698 60.4583C67.6245 60.3999 67.5517 60.3407 67.4795 60.2805C67.3177 60.1459 67.1572 60.0084 67.0056 59.8622C66.6733 59.5415 66.0861 59.5059 65.7601 59.8622C65.4426 60.2092 65.4054 60.7693 65.7601 61.1116C66.2168 61.5523 66.7308 61.9416 67.2454 62.31C68.2673 63.042 69.3702 63.6359 70.5322 64.1115C71.9899 64.7082 73.5681 65.0495 75.145 65.0539C77.0191 65.0591 78.879 64.5706 80.524 63.6739C81.7339 63.0143 82.8375 62.1232 83.7539 61.0927C83.8231 61.015 83.8911 60.9363 83.9583 60.8569C84.1053 60.6831 84.227 60.4707 84.2163 60.2321C84.2066 60.0151 84.1378 59.7476 83.9583 59.6074C82.1297 58.1783 79.9933 57.1529 77.7044 56.733C75.3324 56.2978 72.8828 56.4849 70.5881 57.2313C68.8228 57.8056 67.2058 58.7005 65.7601 59.8622C65.5954 59.9946 65.5021 60.2852 65.5021 60.4869C65.5021 60.7036 65.5981 60.9624 65.7601 61.1116C65.928 61.2662 66.1483 61.3809 66.3828 61.3705C66.63 61.3588 66.813 61.2657 67.0052 61.1112Z" fill="black"/>
<path d="M73.8356 58.3982C73.8567 58.4421 73.8768 58.4865 73.8971 58.5308C73.9767 58.7051 73.8117 58.3162 73.8876 58.5086C73.9344 58.6274 73.9766 58.748 74.0138 58.8701C74.0571 59.0122 74.0937 59.1563 74.1234 59.3019C74.1399 59.3828 74.1418 59.4778 74.1677 59.5553C74.1454 59.4883 74.1442 59.36 74.1597 59.5078C74.1645 59.554 74.1688 59.6001 74.1721 59.6463C74.1859 59.8331 74.1881 60.0207 74.1786 60.2078C74.1736 60.3089 74.1625 60.4091 74.1533 60.5098C74.1426 60.6273 74.1915 60.2828 74.1569 60.4746C74.1503 60.511 74.1446 60.5475 74.1378 60.5839C74.0805 60.8892 73.991 61.1868 73.875 61.4748C73.795 61.673 73.861 61.9793 73.9638 62.1556C74.0707 62.3389 74.2802 62.5137 74.4901 62.5616C74.7155 62.6131 74.9686 62.6019 75.1687 62.4725C75.3736 62.3399 75.4826 62.1698 75.5734 61.9445C76.1532 60.5058 76.0181 58.8888 75.3565 57.5064C75.1566 57.0887 74.5289 56.9454 74.1516 57.1894C73.7239 57.4658 73.6217 57.9514 73.8356 58.3982Z" fill="black"/>
<path d="M115.459 60.442C115.297 60.5251 115.133 60.6052 114.967 60.6811C114.89 60.7166 114.812 60.7511 114.734 60.7852C114.557 60.863 114.881 60.7256 114.763 60.7731C114.711 60.794 114.659 60.8156 114.607 60.8362C114.275 60.9684 113.937 61.0855 113.595 61.1874C113.271 61.284 112.942 61.3668 112.611 61.4359C112.457 61.468 112.303 61.4972 112.148 61.5237C112.062 61.5382 111.977 61.5519 111.891 61.5646C111.857 61.5696 111.823 61.574 111.789 61.5793C112.065 61.5348 111.876 61.5677 111.818 61.5747C111.177 61.6542 110.531 61.6854 109.885 61.673C109.569 61.6668 109.253 61.6504 108.938 61.6242C108.796 61.6123 108.653 61.5985 108.511 61.5826C108.44 61.5747 108.37 61.5664 108.3 61.5576C108.261 61.5528 108.222 61.5488 108.183 61.5426C108.23 61.549 108.277 61.5553 108.324 61.5617C108.293 61.5574 108.262 61.5531 108.232 61.5486C107.13 61.39 106.046 61.1201 104.992 60.7628C104.551 60.6134 104.116 60.4487 103.687 60.2693C103.5 60.1914 103.9 60.3605 103.712 60.2801C103.672 60.263 103.632 60.2457 103.593 60.2283C103.497 60.1865 103.401 60.1438 103.306 60.1005C103.136 60.0233 102.968 59.9437 102.801 59.8616C102.37 59.6506 101.943 59.4268 101.535 59.1734C101.595 59.6359 101.654 60.0984 101.714 60.561C101.97 60.3066 102.234 60.06 102.506 59.8224C102.651 59.6954 102.798 59.5711 102.948 59.4493C103.02 59.3906 103.093 59.333 103.165 59.275C103.323 59.149 103.006 59.3955 103.168 59.2722C103.231 59.2249 103.294 59.1771 103.356 59.1303C103.756 58.8334 104.168 58.5538 104.593 58.2952C105.025 58.032 105.47 57.7894 105.924 57.5663C106.205 57.4282 106.491 57.302 106.777 57.1747C106.485 57.3049 106.783 57.173 106.851 57.1451C106.921 57.1166 106.991 57.0886 107.062 57.0611C107.237 56.9924 107.412 56.9266 107.589 56.8636C108.361 56.5884 109.152 56.3665 109.955 56.2015C110.161 56.1592 110.367 56.1208 110.574 56.0861C110.689 56.0666 110.805 56.0485 110.921 56.0314C110.916 56.0321 111.033 56.0096 111.038 56.0146C110.902 56.0326 110.883 56.0352 110.981 56.0223C111.021 56.017 111.062 56.012 111.102 56.007C111.562 55.9508 112.024 55.9135 112.487 55.8948C113.356 55.8599 114.228 55.8918 115.092 55.9882C115.178 55.9977 115.264 56.008 115.349 56.0189C115.41 56.0266 115.595 56.0611 115.318 56.0142C115.368 56.0227 115.419 56.0283 115.469 56.0357C115.665 56.0645 115.86 56.0968 116.055 56.1321C116.408 56.1963 116.759 56.271 117.108 56.3562C117.787 56.522 118.456 56.7272 119.112 56.9701C119.25 57.0213 119.387 57.0741 119.524 57.1285C119.592 57.1559 119.661 57.1838 119.73 57.2121C119.758 57.2239 119.786 57.2357 119.815 57.2475C119.944 57.3008 119.578 57.146 119.728 57.2107C119.939 57.3017 120.149 57.3958 120.357 57.4942C120.251 57.0912 120.146 56.6884 120.041 56.2854C119.857 56.5617 119.664 56.8304 119.465 57.095C119.403 57.177 119.594 56.9287 119.53 57.0098C119.518 57.0254 119.506 57.0412 119.493 57.0569C119.464 57.0939 119.435 57.1309 119.406 57.1675C119.345 57.2428 119.284 57.3175 119.222 57.3916C119.093 57.5467 118.96 57.6988 118.824 57.8481C118.535 58.165 118.231 58.4683 117.912 58.7555C117.739 58.9121 117.561 59.0639 117.379 59.2107C117.339 59.2429 117.299 59.2747 117.259 59.3067C117.14 59.4013 117.422 59.1826 117.252 59.3114C117.154 59.3857 117.055 59.4587 116.955 59.53C116.478 59.8695 115.978 60.1732 115.459 60.442C115.049 60.6544 114.894 61.2643 115.143 61.6508C115.412 62.0702 115.909 62.1949 116.348 61.9678C118.055 61.0832 119.565 59.8062 120.751 58.2907C121.034 57.9288 121.307 57.5603 121.561 57.1773C121.809 56.8047 121.658 56.1639 121.245 55.9685C118.728 54.7775 115.971 54.116 113.183 54.1143C109.976 54.1123 106.763 54.9883 103.988 56.5999C102.707 57.3444 101.52 58.2676 100.468 59.3115C100.056 59.7202 100.168 60.4021 100.646 60.6991C101.762 61.3928 102.997 61.9251 104.23 62.3646C106.526 63.1831 109.026 63.6152 111.462 63.381C113.173 63.2165 114.814 62.7527 116.348 61.9677C116.759 61.7571 116.911 61.1441 116.664 60.7589C116.393 60.338 115.899 60.2169 115.459 60.442Z" fill="black"/>
<path d="M110.749 56.08C110.928 56.3757 111.057 56.6918 111.222 56.993C111.115 56.7979 111.188 56.9107 111.21 56.9665C111.224 57.0019 111.238 57.0374 111.252 57.0729C111.283 57.1528 111.312 57.2335 111.341 57.3145C111.4 57.4855 111.453 57.6587 111.501 57.8335C111.545 57.9992 111.584 58.1663 111.618 58.3346C111.635 58.4187 111.65 58.5032 111.664 58.5878C111.67 58.6254 111.676 58.6632 111.682 58.7008C111.708 58.8645 111.665 58.5505 111.677 58.6643C111.715 59.016 111.737 59.3661 111.732 59.72C111.725 60.1823 112.142 60.6247 112.613 60.6036C113.096 60.5819 113.486 60.2155 113.493 59.72C113.517 58.1348 113.088 56.5445 112.27 55.1879C112.032 54.7925 111.469 54.6098 111.065 54.8709C110.669 55.1273 110.494 55.6568 110.749 56.08Z" fill="black"/>
<path d="M90.0393 64.898C89.9079 66.2163 91.09 67.3968 92.3288 67.5927C93.0211 67.7022 93.7256 67.5878 94.3039 67.1689C94.8836 66.7488 95.2819 66.1825 95.515 65.5057C95.7456 64.8362 95.7567 64.0588 95.5482 63.3826C95.412 62.9417 94.9274 62.6154 94.4649 62.7656C94.0225 62.9092 93.7038 63.3796 93.8498 63.8524C93.8817 63.9556 93.9042 64.0595 93.9267 64.1651C93.9679 64.3594 93.9125 63.945 93.9237 64.1437C93.9273 64.2084 93.933 64.2727 93.9341 64.3375C93.9358 64.4388 93.9278 64.5388 93.922 64.6397C93.9139 64.7815 93.9378 64.5319 93.938 64.5336C93.9399 64.5568 93.9286 64.5945 93.9243 64.6189C93.9131 64.6827 93.8996 64.7461 93.8839 64.8089C93.8577 64.9137 93.8229 65.0146 93.7875 65.1166C93.7663 65.1776 93.7141 65.239 93.8277 65.0245C93.8146 65.0493 93.8043 65.0769 93.7922 65.1021C93.7678 65.1533 93.7416 65.2037 93.7139 65.2532C93.6862 65.3024 93.657 65.3506 93.626 65.3978C93.6033 65.4324 93.4992 65.5723 93.5972 65.4456C93.7024 65.3095 93.5684 65.4761 93.5455 65.5013C93.5035 65.5477 93.4594 65.5924 93.4135 65.635C93.3855 65.6611 93.2439 65.7752 93.3756 65.6739C93.5077 65.5723 93.3613 65.6818 93.3295 65.7027C93.2829 65.7334 93.2348 65.7622 93.1856 65.7887C93.1609 65.802 93.1353 65.8139 93.1106 65.827C92.9848 65.8942 93.284 65.7648 93.1846 65.7973C93.0866 65.8294 92.9921 65.858 92.8913 65.8805C92.7527 65.9116 93.1389 65.8602 92.9255 65.8728C92.872 65.876 92.8181 65.8766 92.7644 65.8748C92.7445 65.8741 92.6149 65.8782 92.6033 65.8623C92.5971 65.8538 92.8538 65.9079 92.7174 65.8753C92.6977 65.8706 92.6774 65.8675 92.6577 65.8632C92.5812 65.8465 92.3817 65.821 92.3275 65.761C92.3133 65.7454 92.5249 65.8551 92.4443 65.8096C92.4208 65.7963 92.395 65.7862 92.3709 65.7739C92.3286 65.7524 92.2869 65.7295 92.2461 65.7052C92.1994 65.6774 92.1552 65.6464 92.1098 65.6168C92.0564 65.5819 92.0106 65.5154 92.191 65.682C92.1664 65.6593 92.139 65.6393 92.1139 65.6171C92.0279 65.5413 91.9574 65.4555 91.8801 65.3718C92.07 65.5771 91.9401 65.4491 91.8939 65.3731C91.8633 65.3227 91.8374 65.2707 91.8106 65.2183C91.777 65.1529 91.8011 65.1076 91.8539 65.3219C91.8463 65.2909 91.832 65.2606 91.8226 65.23C91.8178 65.214 91.7822 65.0597 91.7815 65.0597C91.787 65.0596 91.801 65.2727 91.7996 65.1975C91.7989 65.1647 91.7939 65.1317 91.7928 65.0989C91.7907 65.0314 91.7945 64.9646 91.8011 64.8976C91.8223 64.6856 91.6876 64.4178 91.5432 64.2728C91.3904 64.1195 91.1398 64.0042 90.9204 64.014C90.4035 64.0376 90.0886 64.4038 90.0393 64.898Z" fill="black"/>
<path d="M92.1929 67.4009C92.2176 67.5616 92.242 67.7222 92.2651 67.8831C92.2694 67.9134 92.3094 68.1767 92.285 68.0231C92.2631 67.8851 92.2835 68.0141 92.288 68.0491C92.2939 68.097 92.2999 68.1448 92.3055 68.1927C92.345 68.5271 92.3747 68.8627 92.3853 69.1994C92.3955 69.5214 92.3882 69.8444 92.3537 70.1648C92.3297 70.3891 92.3837 69.9863 92.3482 70.2086C92.3349 70.2917 92.3195 70.3744 92.3021 70.4566C92.2671 70.6211 92.2233 70.7838 92.1699 70.9432C92.147 71.0114 92.1064 71.0845 92.0924 71.1548C92.0961 71.1361 92.1798 70.9625 92.115 71.1004C92.1008 71.1304 92.0876 71.1606 92.0731 71.1905C92.0171 71.3058 91.9526 71.4171 91.8812 71.5236C91.8383 71.5875 91.7098 71.7276 91.8925 71.519C91.8545 71.5623 91.8202 71.6088 91.7821 71.6521C91.6963 71.7499 91.6044 71.8423 91.5072 71.9289C91.4642 71.9672 91.4165 72.0014 91.3746 72.0408C91.5706 71.8562 91.4461 71.9858 91.3794 72.0322C91.2734 72.1059 91.163 72.1732 91.049 72.2335C90.9987 72.26 90.9471 72.2836 90.8961 72.3088C90.7723 72.3699 90.9905 72.2695 90.9898 72.27C90.9732 72.2829 90.933 72.2926 90.9113 72.3005C90.7943 72.3441 90.6744 72.3801 90.5524 72.407C90.4625 72.4268 90.2376 72.4301 90.5446 72.4163C90.4774 72.4193 90.4105 72.429 90.3432 72.4307C90.2831 72.4323 90.223 72.4313 90.163 72.4277C90.1364 72.4262 90.1099 72.4226 90.0834 72.4215C89.977 72.4164 90.3187 72.4627 90.1795 72.4344C90.1143 72.4211 90.0496 72.4086 89.9856 72.3903C89.9411 72.3776 89.8268 72.3604 89.7965 72.3251C89.7913 72.3191 90.0169 72.4323 89.8963 72.3645C89.8606 72.3445 89.8234 72.3273 89.7881 72.3067C89.7277 72.2717 89.6701 72.2328 89.6137 72.192C89.4389 72.0652 89.1345 72.0479 88.9351 72.1029C88.7308 72.1594 88.5095 72.3178 88.4088 72.5089C88.1677 72.9666 88.3249 73.4277 88.7248 73.7177C89.8099 74.5049 91.3521 74.2449 92.3735 73.4815C92.9073 73.0825 93.3757 72.584 93.6473 71.9662C93.9825 71.204 94.1379 70.4047 94.1503 69.5712C94.1633 68.6861 94.0253 67.8036 93.8914 66.9314C93.86 66.7271 93.6563 66.503 93.4867 66.4034C93.2979 66.2925 93.0198 66.2457 92.8081 66.3143C92.595 66.3835 92.3894 66.516 92.2818 66.7203C92.164 66.9435 92.1548 67.1527 92.1929 67.4009Z" fill="black"/>
<path d="M92.3892 70.0415C92.5075 71.4317 93.3579 72.7484 94.6434 73.334C95.3674 73.6638 96.101 73.7672 96.8867 73.6458C97.579 73.5389 98.208 73.203 98.7499 72.7694C99.3506 72.2885 99.7931 71.6072 100.009 70.8688C100.138 70.4254 99.8521 69.8868 99.3937 69.782C98.9219 69.6743 98.4491 69.9243 98.3103 70.3991C98.2931 70.458 98.2748 70.5167 98.2542 70.5746C98.2446 70.6016 98.2289 70.6324 98.2217 70.6606C98.2728 70.4604 98.2871 70.5118 98.2565 70.5762C98.1975 70.7008 98.1335 70.8219 98.0591 70.938C98.0261 70.9895 97.9909 71.0393 97.9555 71.0892C97.9147 71.1464 97.8637 71.1591 98.0095 71.0195C97.9885 71.0396 97.9694 71.0685 97.9509 71.0902C97.8664 71.1893 97.7757 71.2829 97.6796 71.3708C97.6342 71.4123 97.587 71.451 97.5403 71.4911C97.4584 71.5614 97.6975 71.3751 97.6097 71.4379C97.5848 71.4557 97.5603 71.4743 97.5352 71.4919C97.4286 71.5669 97.3175 71.6356 97.2026 71.6971C97.1485 71.726 97.0928 71.7516 97.0382 71.7793C96.9077 71.8455 97.1221 71.7395 97.1225 71.7455C97.1226 71.7485 97.0484 71.7749 97.0372 71.7793C96.9086 71.8279 96.777 71.8681 96.6431 71.8991C96.5836 71.913 96.5237 71.9238 96.4637 71.9347C96.3957 71.9471 96.3276 71.9278 96.5621 71.9225C96.5323 71.9231 96.5005 71.9291 96.471 71.9318C96.3418 71.9428 96.2116 71.9447 96.0821 71.9374C96.0284 71.9344 95.9752 71.9269 95.9218 71.9234C96.2075 71.9421 96.0092 71.9348 95.9294 71.9183C95.795 71.8905 95.6628 71.8528 95.5338 71.8059C95.5231 71.802 95.4481 71.774 95.4483 71.7733C95.45 71.7684 95.6626 71.872 95.5326 71.8083C95.4777 71.7815 95.4223 71.756 95.3684 71.7273C95.2535 71.6664 95.1427 71.598 95.0364 71.5232C95.0113 71.5056 94.9868 71.487 94.962 71.4692C94.8744 71.4063 95.1134 71.5928 95.0316 71.5224C94.985 71.4822 94.9378 71.4435 94.8924 71.4018C94.7963 71.3137 94.7053 71.2199 94.6205 71.1207C94.6005 71.0974 94.5815 71.0734 94.5616 71.0499C94.4499 70.9185 94.6836 71.2256 94.5876 71.0824C94.5493 71.025 94.5091 70.9691 94.4724 70.9104C94.4533 70.8798 94.2541 70.5328 94.268 70.5255C94.2726 70.5231 94.3528 70.7463 94.304 70.6095C94.2912 70.5735 94.2771 70.538 94.2646 70.5019C94.2423 70.4369 94.222 70.3711 94.2043 70.3046C94.1847 70.2306 94.168 70.156 94.1544 70.0806C94.1509 70.0616 94.1483 70.0012 94.1395 69.9898C94.175 70.0359 94.1661 70.2222 94.1506 70.0415C94.1115 69.5822 93.7735 69.1354 93.27 69.1581C92.8263 69.178 92.3472 69.5484 92.3892 70.0415Z" fill="black"/>
<path d="M71.9273 125.551C72.3564 129.219 72.5555 132.91 72.6064 136.603C72.6552 140.153 72.5705 143.703 72.4662 147.251C72.4078 149.237 72.3438 151.224 72.2949 153.21C72.2836 153.673 72.7082 154.115 73.1755 154.094C73.6623 154.072 74.044 153.706 74.0561 153.21C74.1433 149.661 74.2792 146.112 74.3444 142.562C74.4102 138.974 74.4011 135.384 74.2123 131.8C74.1024 129.712 73.9314 127.628 73.6885 125.551C73.6601 125.309 73.609 125.105 73.4305 124.926C73.2777 124.773 73.0271 124.658 72.8078 124.668C72.58 124.678 72.3438 124.753 72.185 124.926C72.038 125.087 71.9008 125.324 71.9273 125.551Z" fill="black"/>
<path d="M83.1216 156.743C83.9452 153.134 84.5242 149.47 84.9047 145.787C85.28 142.155 85.4532 138.502 85.4408 134.851C85.4339 132.81 85.3684 130.77 85.246 128.734C85.2183 128.273 84.8607 127.828 84.3654 127.85C83.912 127.871 83.4551 128.24 83.4847 128.734C83.7023 132.354 83.74 135.985 83.589 139.608C83.5133 141.424 83.3902 143.239 83.217 145.048C83.1296 145.961 83.0294 146.874 82.916 147.784C82.8893 147.999 82.8619 148.213 82.8337 148.427C82.8256 148.489 82.8182 148.55 82.8093 148.611C82.8419 148.387 82.8229 148.51 82.8161 148.56C82.7979 148.692 82.78 148.824 82.7614 148.957C82.6974 149.414 82.6299 149.871 82.5589 150.328C82.249 152.322 81.8721 154.306 81.4231 156.273C81.3205 156.723 81.5605 157.251 82.0381 157.36C82.4867 157.462 83.0115 157.225 83.1216 156.743Z" fill="black"/>
<path d="M107.743 128.7C107.865 132.481 108.028 136.261 108.236 140.038C108.443 143.816 108.693 147.591 108.987 151.362C109.151 153.474 109.329 155.585 109.52 157.695C109.542 157.934 109.604 158.145 109.778 158.32C109.931 158.473 110.181 158.589 110.401 158.579C110.842 158.559 111.326 158.188 111.281 157.695C110.94 153.928 110.641 150.156 110.386 146.382C110.13 142.607 109.918 138.83 109.748 135.051C109.654 132.934 109.573 130.817 109.505 128.7C109.49 128.238 109.11 127.794 108.624 127.816C108.159 127.837 107.727 128.205 107.743 128.7Z" fill="black"/>
<path d="M123.499 156.048C123.426 153.162 123.353 150.276 123.28 147.391C123.2 144.224 123.12 141.057 123.04 137.891C123.002 136.381 122.964 134.871 122.926 133.362C122.914 132.9 122.529 132.457 122.045 132.478C121.578 132.499 121.152 132.867 121.165 133.362C121.237 136.247 121.31 139.133 121.383 142.019C121.463 145.185 121.543 148.352 121.623 151.519C121.661 153.028 121.7 154.538 121.738 156.048C121.749 156.509 122.134 156.953 122.618 156.931C123.085 156.91 123.512 156.543 123.499 156.048Z" fill="black"/>
<path d="M91.2783 117.53C91.2783 118.634 91.2783 119.739 91.2783 120.843C91.2783 121.305 91.6833 121.748 92.159 121.726C92.6361 121.705 93.0396 121.338 93.0396 120.843C93.0396 119.739 93.0396 118.634 93.0396 117.53C93.0396 117.067 92.6345 116.625 92.159 116.646C91.6818 116.668 91.2783 117.034 91.2783 117.53Z" fill="black"/>
<path d="M94.0327 110.901C94.0669 111.091 94.0992 111.28 94.1279 111.471C94.1349 111.518 94.1416 111.564 94.1483 111.611C94.1661 111.734 94.1426 111.576 94.139 111.539C94.1474 111.626 94.1605 111.713 94.17 111.8C94.2029 112.104 94.2236 112.41 94.2305 112.716C94.2447 113.354 94.199 113.991 94.1521 114.627C94.118 115.089 94.5815 115.531 95.0327 115.511C95.5389 115.488 95.8768 115.122 95.9134 114.627C95.9614 113.976 96.0081 113.323 95.9906 112.669C95.9706 111.918 95.8644 111.17 95.7312 110.431C95.649 109.975 95.0722 109.676 94.6479 109.814C94.1604 109.973 93.9447 110.413 94.0327 110.901Z" fill="black"/>
<path d="M99.5342 110.903C99.5342 112.145 99.5342 113.388 99.5342 114.63C99.5342 115.092 99.9393 115.535 100.415 115.514C100.892 115.492 101.295 115.125 101.295 114.63C101.295 113.388 101.295 112.145 101.295 110.903C101.295 110.441 100.89 109.998 100.415 110.019C99.9377 110.041 99.5342 110.407 99.5342 110.903Z" fill="black"/>
<path d="M99.0707 123.988C99.2425 125.226 99.4142 126.463 99.586 127.701C99.6142 127.904 99.8237 128.131 99.9907 128.229C100.179 128.34 100.458 128.387 100.669 128.318C100.882 128.249 101.088 128.116 101.196 127.912C101.314 127.687 101.319 127.481 101.284 127.231C101.113 125.994 100.941 124.756 100.769 123.518C100.741 123.315 100.531 123.088 100.364 122.99C100.176 122.88 99.8974 122.833 99.6858 122.901C99.4726 122.97 99.2671 123.103 99.1595 123.307C99.0409 123.532 99.0361 123.739 99.0707 123.988Z" fill="black"/>
<path d="M95.0102 133.441C94.8933 134.091 94.7688 134.738 94.6842 135.393C94.5979 136.061 94.5761 136.733 94.5969 137.407C94.6111 137.868 94.9918 138.312 95.4777 138.29C95.9426 138.269 96.3736 137.901 96.3582 137.407C96.3379 136.747 96.3634 136.093 96.4398 135.438C96.4526 135.327 96.4102 135.648 96.4261 135.539C96.4314 135.502 96.4365 135.465 96.4418 135.428C96.4516 135.362 96.4617 135.295 96.4723 135.229C96.4948 135.089 96.519 134.949 96.544 134.809C96.5978 134.509 96.6548 134.21 96.7087 133.911C96.7516 133.672 96.7457 133.446 96.6199 133.23C96.513 133.047 96.3035 132.872 96.0936 132.824C95.6631 132.726 95.0977 132.955 95.0102 133.441Z" fill="black"/>
<path d="M90.4442 132.44C90.4452 133.119 90.4334 133.8 90.3507 134.474C90.3254 134.681 90.3826 134.252 90.3533 134.456C90.344 134.521 90.334 134.586 90.3236 134.652C90.3033 134.778 90.281 134.904 90.2578 135.03C90.2019 135.332 90.1406 135.633 90.0817 135.935C89.9934 136.387 90.2091 136.911 90.6968 137.022C91.133 137.122 91.6854 136.89 91.7801 136.405C91.9031 135.775 92.0271 135.148 92.1075 134.511C92.1941 133.824 92.2064 133.131 92.2055 132.44C92.2049 131.978 91.8009 131.535 91.325 131.556C90.8484 131.578 90.4436 131.945 90.4442 132.44Z" fill="black"/>
<path d="M100.285 141.56C100.421 142.664 100.558 143.769 100.694 144.874C100.724 145.116 100.772 145.318 100.952 145.498C101.105 145.652 101.355 145.767 101.575 145.757C101.803 145.747 102.039 145.672 102.197 145.498C102.344 145.338 102.483 145.1 102.455 144.874C102.319 143.769 102.183 142.664 102.046 141.56C102.016 141.317 101.968 141.115 101.788 140.935C101.635 140.782 101.385 140.667 101.166 140.676C100.938 140.687 100.702 140.762 100.543 140.935C100.396 141.095 100.257 141.333 100.285 141.56Z" fill="black"/>
<path d="M93.3417 146.106C93.3417 147.625 93.3417 149.143 93.3417 150.662C93.3417 151.124 93.7467 151.566 94.2224 151.545C94.6995 151.524 95.103 151.157 95.103 150.662C95.103 149.143 95.103 147.624 95.103 146.106C95.103 145.644 94.6979 145.201 94.2224 145.222C93.7452 145.244 93.3417 145.611 93.3417 146.106Z" fill="black"/>
<path d="M88.3878 149.005C88.3878 149.834 88.3878 150.662 88.3878 151.49C88.3878 151.952 88.7928 152.395 89.2683 152.374C89.7454 152.352 90.1491 151.986 90.1491 151.49C90.1491 150.662 90.1491 149.834 90.1491 149.005C90.1491 148.543 89.744 148.1 89.2683 148.122C88.7912 148.143 88.3878 148.51 88.3878 149.005Z" fill="black"/>
<path d="M99.1214 152.318C99.1214 153.836 99.1214 155.355 99.1214 156.874C99.1214 157.336 99.5265 157.778 100.002 157.757C100.479 157.736 100.883 157.369 100.883 156.874C100.883 155.355 100.883 153.836 100.883 152.318C100.883 151.856 100.478 151.413 100.002 151.434C99.525 151.456 99.1214 151.823 99.1214 152.318Z" fill="black"/>
<path d="M88.3878 104.69C88.3878 106.209 88.3878 107.727 88.3878 109.246C88.3878 109.708 88.7928 110.15 89.2683 110.129C89.7454 110.108 90.1491 109.741 90.1491 109.246C90.1491 107.727 90.1491 106.208 90.1491 104.69C90.1491 104.228 89.744 103.785 89.2683 103.806C88.7912 103.828 88.3878 104.195 88.3878 104.69Z" fill="black"/>
<path d="M98.2961 94.3363C98.2961 95.3027 98.2961 96.269 98.2961 97.2354C98.2961 97.6976 98.7012 98.1402 99.1767 98.1189C99.6538 98.0975 100.057 97.7307 100.057 97.2354C100.057 96.269 100.057 95.3027 100.057 94.3363C100.057 93.8741 99.6523 93.4315 99.1767 93.4529C98.6996 93.4743 98.2961 93.8411 98.2961 94.3363Z" fill="black"/>
<path d="M104.873 103.288C105.007 103.703 105.142 104.119 105.276 104.534C105.346 104.751 105.481 104.944 105.68 105.062C105.781 105.126 105.891 105.161 106.008 105.167C106.125 105.193 106.242 105.188 106.359 105.151C106.572 105.082 106.778 104.949 106.885 104.745C106.993 104.54 107.047 104.291 106.974 104.064C106.84 103.649 106.706 103.233 106.572 102.818C106.501 102.601 106.367 102.408 106.167 102.29C106.066 102.226 105.957 102.191 105.84 102.185C105.723 102.159 105.605 102.164 105.488 102.201C105.275 102.27 105.07 102.403 104.962 102.607C104.854 102.812 104.8 103.061 104.873 103.288Z" fill="black"/>
<path d="M95.8194 101.791C95.8194 102.758 95.8194 103.724 95.8194 104.69C95.8194 105.153 96.2245 105.595 96.7001 105.574C97.1772 105.552 97.5807 105.186 97.5807 104.69C97.5807 103.724 97.5807 102.758 97.5807 101.791C97.5807 101.329 97.1756 100.887 96.7001 100.908C96.2229 100.929 95.8194 101.296 95.8194 101.791Z" fill="black"/>
<path d="M110.565 76.9648C111.151 77.2506 111.733 77.5527 112.252 77.9519C112.193 77.9058 112.133 77.8598 112.074 77.8137C112.502 78.1465 112.882 78.5345 113.258 78.9242C113.579 79.2568 114.185 79.2718 114.503 78.9242C114.831 78.5667 114.846 78.0296 114.503 77.6747C114.05 77.2044 113.586 76.7577 113.062 76.3661C112.565 75.9946 112.01 75.7101 111.454 75.439C111.238 75.334 111.013 75.2843 110.775 75.3499C110.571 75.4064 110.349 75.5647 110.249 75.7558C110.04 76.1524 110.122 76.7492 110.565 76.9648Z" fill="black"/>
<path d="M114.06 72.8927C114.467 73.049 114.875 73.2047 115.281 73.3638C115.422 73.419 115.563 73.4747 115.703 73.5314C115.767 73.5574 115.831 73.5836 115.895 73.6102C115.928 73.6238 115.962 73.6354 115.994 73.6515C115.967 73.6378 115.755 73.5492 115.893 73.6091C116.465 73.8568 117.025 74.1313 117.585 74.4027C117.802 74.5074 118.026 74.5577 118.264 74.4918C118.468 74.4354 118.69 74.277 118.79 74.0859C118.999 73.6905 118.917 73.0914 118.474 72.8771C117.905 72.6014 117.337 72.3207 116.755 72.0718C116.021 71.7577 115.274 71.4751 114.529 71.189C114.327 71.1118 114.029 71.173 113.85 71.2781C113.667 71.3854 113.493 71.5955 113.445 71.8061C113.33 72.3104 113.598 72.7156 114.06 72.8927Z" fill="black"/>
<path d="M118.03 68.8942C119.268 68.7599 120.507 68.6257 121.746 68.4916C121.987 68.4656 122.192 68.4103 122.369 68.2328C122.522 68.0795 122.637 67.8281 122.627 67.608C122.607 67.1719 122.237 66.6714 121.746 66.7246C120.507 66.8588 119.268 66.9931 118.03 67.1272C117.789 67.1531 117.584 67.2085 117.407 67.386C117.254 67.5393 117.139 67.7907 117.149 68.0107C117.168 68.4468 117.539 68.9474 118.03 68.8942Z" fill="black"/>
<path d="M69.5864 75.426C70.6991 74.1944 71.812 72.9626 72.9246 71.731C73.234 71.3886 73.2869 70.8151 72.9246 70.4816C72.5873 70.1709 72.0096 70.1159 71.6792 70.4816C70.5665 71.7132 69.4537 72.9449 68.341 74.1765C68.0316 74.5189 67.9787 75.0924 68.341 75.426C68.6784 75.7367 69.256 75.7918 69.5864 75.426Z" fill="black"/>
<path d="M74.2308 76.4999C74.5365 75.934 74.8696 75.3833 75.2314 74.8515C75.4067 74.5937 75.5884 74.3404 75.7763 74.0917C75.7997 74.0607 75.8246 74.0304 75.8471 73.9987C75.8193 74.038 75.746 74.1281 75.8167 74.0389C75.871 73.9701 75.9251 73.9011 75.98 73.8328C76.0837 73.7037 76.1893 73.5763 76.2963 73.4499C76.4502 73.268 76.5543 73.071 76.5543 72.8251C76.5543 72.6085 76.4584 72.3496 76.2963 72.2004C75.9684 71.8984 75.3693 71.8242 75.0509 72.2004C74.1587 73.2546 73.367 74.3919 72.7099 75.608C72.4904 76.0142 72.5961 76.589 73.0259 76.8167C73.4367 77.0346 73.9965 76.9339 74.2308 76.4999Z" fill="black"/>
<path d="M79.7071 79.8717C80.2438 78.8977 80.7807 77.9239 81.3175 76.9499C81.5404 76.5455 81.4288 75.9676 81.0015 75.7412C80.5878 75.5219 80.0347 75.6262 79.7967 76.0582C79.2599 77.0321 78.723 78.006 78.1862 78.9799C77.9633 79.3843 78.0749 79.9622 78.5022 80.1887C78.9158 80.4079 79.469 80.3036 79.7071 79.8717Z" fill="black"/>
<path d="M132.325 153.799C132.268 153.493 132.214 153.186 132.165 152.879C132.141 152.729 132.118 152.58 132.096 152.43C132.085 152.36 132.075 152.29 132.065 152.219C132.055 152.151 132.021 151.843 132.053 152.137C131.988 151.535 131.91 150.937 131.861 150.334C131.761 149.112 131.724 147.884 131.746 146.659C131.769 145.432 131.851 144.207 131.992 142.989C132.01 142.839 132.028 142.689 132.047 142.539C132.051 142.508 132.085 142.254 132.063 142.418C132.043 142.562 132.06 142.439 132.065 142.403C132.072 142.351 132.079 142.298 132.087 142.245C132.129 141.946 132.175 141.647 132.225 141.348C132.325 140.743 132.439 140.14 132.568 139.54C132.826 138.339 133.139 137.151 133.508 135.98C133.692 135.394 133.89 134.813 134.101 134.237C134.209 133.944 134.319 133.654 134.434 133.364C134.486 133.231 134.539 133.099 134.592 132.967C134.619 132.902 134.646 132.836 134.673 132.77C134.687 132.737 134.7 132.704 134.714 132.671C134.728 132.638 134.741 132.606 134.755 132.573C134.739 132.61 134.723 132.648 134.708 132.686C135.692 130.432 136.824 128.263 138.195 126.22C138.536 125.711 138.889 125.211 139.255 124.719C139.345 124.598 139.436 124.478 139.527 124.358C139.549 124.33 139.571 124.302 139.592 124.273C139.583 124.286 139.461 124.442 139.552 124.326C139.606 124.256 139.661 124.186 139.716 124.116C139.902 123.879 140.092 123.644 140.284 123.411C141.065 122.467 141.893 121.562 142.766 120.703C142.981 120.491 143.2 120.282 143.42 120.076C143.758 119.76 143.762 119.142 143.42 118.826C143.059 118.493 142.535 118.489 142.175 118.826C140.318 120.565 138.655 122.503 137.187 124.582C135.763 126.599 134.539 128.757 133.528 131.011C132.484 133.338 131.647 135.754 131.058 138.237C130.474 140.699 130.12 143.224 130.013 145.753C129.905 148.302 130.065 150.856 130.471 153.375C130.519 153.673 130.571 153.971 130.627 154.269C130.712 154.724 131.284 155.024 131.71 154.886C132.195 154.729 132.416 154.287 132.325 153.799Z" fill="black"/>
</g>
</g>
<defs>
<clipPath id="clip0_12068_7740">
<rect width="219.81" height="219.81" rx="109.905" fill="white"/>
</clipPath>
</defs>
</svg>
