<svg width="220" height="220" viewBox="0 0 220 220" fill="none" xmlns="http://www.w3.org/2000/svg">
<g clip-path="url(#clip0_12068_8861)">
<rect width="219.81" height="219.81" rx="109.905" fill="#D18D84"/>
<mask id="mask0_12068_8861" style="mask-type:luminance" maskUnits="userSpaceOnUse" x="44" y="9" width="165" height="239">
<path d="M208.808 9.23535H44.3279V247.622H208.808V9.23535Z" fill="white"/>
</mask>
<g mask="url(#mask0_12068_8861)">
<path d="M207.935 147.725C207.831 147.409 207.596 146.932 207.408 146.657C207.358 146.584 207.463 146.727 207.408 146.657C207.323 146.515 207.267 146.452 207.163 146.326C206.584 145.628 206.38 144.945 205.525 144.691C205.003 144.535 204.339 144.611 203.796 144.568C202.918 144.496 202.02 144.748 201.157 144.891C200.051 145.073 199.05 145.373 197.967 145.664C196.688 146.008 195.714 146.509 194.455 146.92C193.114 147.357 191.567 147.894 190.24 148.374C188.935 148.846 188.034 148.915 186.739 149.416C185.567 149.869 184.076 150.724 182.911 151.196C181.981 151.572 180.974 151.987 180.047 152.375C179.407 152.643 178.544 152.64 177.905 152.914C177.778 144.503 176.528 135.595 175.617 127.245C175.471 125.907 175.564 124.619 175.389 123.285C175.353 123.016 174.682 123.086 175.427 122.691C175.427 122.688 175.427 122.695 175.427 122.691C175.426 122.684 175.038 122.49 175.038 122.483C175.03 122.418 175.043 122.517 175.038 122.483C175.002 122.191 174.954 121.814 174.918 121.522C174.533 118.509 174.36 115.213 173.794 112.227C172.045 102.995 169.152 94.2819 165.113 85.786C160.009 75.0507 152.751 65.5062 143.423 58.0785C136.153 52.2879 128.661 47.7026 119.775 44.8643C113.598 42.8906 107.288 41.8285 100.806 42.2073C94.0689 42.6001 87.1558 44.6444 81.0845 47.5838C80.4483 47.8919 79.14 48.6484 78.5167 48.9823C79.6327 46.0347 80.6295 41.6736 81.7196 38.7141C83.0414 35.1266 84.2768 31.6933 85.4704 28.0599C86.4641 25.0347 87.5669 21.4584 88.3477 18.3696C88.6887 17.0205 88.9699 15.885 89.0945 14.4982C89.2004 13.3114 89.5778 12.6569 89.0945 11.5526C88.8958 11.0974 88.5083 10.8807 88.125 10.562C87.5476 10.0833 87.051 10.0179 86.3043 10.032C85.5187 10.0473 85.4365 10.1736 84.7439 10.5381C84.1559 10.8474 83.726 11.2745 83.2462 11.7262C82.035 12.866 80.9553 13.9555 79.9134 15.2564C78.8633 16.5691 77.939 17.9502 77.05 19.3769C75.2649 22.2469 73.7554 25.1671 72.1138 28.1219C70.331 31.333 68.6893 34.4355 67.1841 37.7877C65.6377 41.2294 64.2639 44.6959 62.9104 48.2175C61.6463 51.5015 59.5888 55.4029 58.5799 58.7752C58.5658 58.7187 58.7113 57.7755 58.6972 57.719C58.5549 57.1533 57.6645 56.9533 57.4717 56.404C57.2036 55.6407 56.9263 54.8701 56.517 54.1703C56.1113 53.4775 56.2181 53.0837 55.3209 53.1672C54.5495 53.2389 54.5446 53.5423 54.1555 54.1704C53.791 54.7585 53.6991 55.0936 53.4792 55.7476C53.337 56.1722 52.4482 56.4065 52.3436 56.8417C52.3354 56.877 53.0914 57.11 53.0832 57.1453C52.153 60.9656 50.8827 64.971 49.9525 68.7914C49.047 72.5153 48.4328 76.1938 47.6626 79.9496C46.3524 86.327 45.4125 92.5689 45.7218 99.0946C45.8488 101.768 46.2702 104.393 46.8146 106.992C45.9903 110.738 45.3476 114.061 45.1264 117.889C44.7925 123.659 45.3037 129.956 46.3467 135.641C47.5121 141.991 49.5629 147.995 52.3793 153.803C54.6241 158.432 57.3204 162.614 60.4883 166.664C62.6791 169.466 64.7284 171.709 67.3131 174.151C67.4542 174.284 67.9836 174.781 68.1259 174.911C65.9786 180.067 64.0238 185.932 63.8544 191.518C63.6722 197.522 64.6 203.572 66.4874 209.272C68.3912 215.021 71.5681 219.527 75.3017 224.295C79.0624 229.098 84.0562 233.564 89.1716 236.873C94.3175 240.2 99.7131 242.535 105.595 244.245C111.503 245.962 117.514 247.162 123.668 247.206C129.517 247.247 135.251 246.42 140.878 244.812C146.412 243.232 150.744 240.966 155.495 237.701C160.18 234.48 164.624 230.157 167.658 225.332C169.321 222.687 170.883 220.704 170.681 217.473C170.59 216.01 170.538 214.849 169.465 213.822C168.546 212.943 167.532 212.361 166.267 212.236C165.093 212.12 164.721 212.28 163.908 213.14C163.868 213.182 163.936 213.377 163.908 213.422C163.527 213.745 163.029 213.88 162.643 214.194C162.38 214.407 162.248 214.516 161.982 214.725C161.852 214.829 161.653 214.985 161.52 215.089C161.507 215.1 161.533 215.078 161.52 215.089C161.523 215.087 162.27 215.489 161.52 215.089C161.518 215.091 161.523 215.088 161.52 215.089C161.517 215.092 161.524 215.087 161.52 215.089C161.51 215.097 161.525 215.085 161.52 215.089C161.441 215.15 161.6 215.028 161.52 215.089C160.181 216.11 157.768 216.904 156.361 217.829C152.764 220.191 149.081 223.028 145.105 224.677C140.144 226.734 134.626 228.218 129.311 228.998C125.322 229.584 121.507 229.788 117.477 229.845C113.224 229.905 108.601 229.22 104.434 228.335C99.736 227.339 95.0273 225.861 91.0408 223.16C86.731 220.241 82.7587 215.744 80.2223 211.204C77.9645 207.16 76.6037 202.647 75.8829 198.082C75.2902 194.33 75.1858 190.218 75.4421 186.432C75.4939 185.673 76.3166 184.521 75.6513 184.154C75.093 183.846 75.1359 183.928 75.682 183.671C75.7303 183.648 75.3653 183.123 76.1564 183.202C76.1564 183.202 76.2967 183.195 76.2977 183.193L75.6819 183.671C75.6831 183.665 75.78 183.103 75.7812 183.097C75.78 183.098 75.7812 183.096 75.7812 183.097C75.7812 183.099 75.7823 183.095 75.7812 183.097C75.7823 183.091 76.5816 183.113 76.5816 183.107C76.226 183.103 75.2982 183.249 75.3017 183.23C75.3229 183.077 75.7588 183.25 75.7812 183.097C75.907 182.244 76.3347 179.846 76.5099 179.002C78.9041 179.716 82.0116 180.479 84.48 180.868C87.2952 181.31 90.45 181.618 93.2982 181.722C96.1169 181.823 98.8233 181.882 101.64 181.722C104.477 181.562 107.136 180.716 109.956 180.362C112.792 180.006 115.535 179.975 118.352 179.488C118.672 179.433 119.638 179.616 119.957 179.559C120.321 180.761 120.934 182.797 121.296 184C122.429 187.774 123.251 190.862 125.716 194.015C126.303 194.764 126.818 195.449 127.658 195.925C128.525 196.418 128.623 196.83 129.39 196.161C129.956 195.667 130.05 195.094 130.155 194.368C130.279 193.508 130.296 192.737 130.155 191.883C129.428 187.471 128.622 183.37 127.658 179.002C127.602 178.752 127.714 178.049 127.658 177.799C130.138 177.104 132.908 175.78 135.388 175.085C137.971 174.36 140.53 173.643 143.112 172.919C145.706 172.191 148.775 171.715 151.369 170.987C153.955 170.262 155.999 169.306 158.584 168.58C161.141 167.864 164.294 166.978 166.849 166.262C167.142 166.18 167.84 166.244 168.132 166.163C168.19 169.137 168.223 172.616 167.985 175.582C167.895 176.7 167.775 177.858 167.606 178.835C167.245 180.926 166.927 182.833 167.202 184.955C167.537 187.544 168.517 189.321 171.483 188.881C173.608 188.564 173.933 186.832 174.609 185.022C175.605 182.361 175.895 180.059 176.223 177.252C176.621 173.847 177.076 169.991 177.226 166.568C177.261 165.767 177.572 164.308 177.598 163.506C178.06 163.353 178.769 163.246 179.231 163.094C180.147 162.789 181.517 162.324 182.431 162.011C183.577 161.619 184.279 161.716 185.42 161.31C186.707 160.853 187.703 160.142 188.981 159.663C190.338 159.154 191.983 158.517 193.328 157.977C194.722 157.416 196.192 157.264 197.568 156.657C198.811 156.11 199.544 154.973 200.759 154.365C201.83 153.827 203.262 153.881 204.286 153.257C205.168 152.718 205.707 151.957 206.495 151.284C207.065 150.796 207.668 150.764 208.017 150.091C208.458 149.243 208.236 148.642 207.935 147.725ZM166.641 155.243C165.092 155.812 163.504 156.269 161.888 156.604C161.413 156.703 160.936 156.791 160.458 156.869C160.214 156.909 159.97 156.945 159.725 156.979C159.711 156.982 159.697 156.984 159.683 156.985C159.681 156.986 159.677 156.986 159.675 156.986C159.661 156.988 159.648 156.99 159.635 156.992C159.63 156.992 159.625 156.993 159.622 156.993C159.619 156.993 159.617 156.995 159.615 156.995C159.583 156.998 159.551 157.003 159.521 157.006C159.38 157.024 159.238 157.042 159.097 157.057C158.095 157.171 157.088 157.239 156.079 157.262C155.714 157.27 155.35 157.272 154.985 157.267C155.007 157.244 155.029 157.22 155.05 157.197C155.604 156.589 156.08 155.918 156.568 155.257C157.69 153.742 158.787 152.209 159.822 150.634C160.84 149.082 161.796 147.488 162.647 145.839C163.528 144.131 164.298 142.362 164.921 140.544C165.129 139.936 165.319 139.322 165.493 138.703C166.033 144.195 166.516 149.697 166.861 155.204C166.788 155.204 166.714 155.216 166.641 155.243Z" fill="white"/>
<path d="M95.5436 104.595C95.1813 102.497 93.9148 100.515 91.9194 99.6607C90.3391 98.984 88.5657 98.9748 86.8885 99.3151C83.3718 99.3682 79.7622 100.789 78.2216 104.166C77.3704 106.032 77.3374 108.033 78.2363 109.887C79.025 111.515 80.3674 112.862 81.9258 113.762C84.9168 115.49 88.9043 115.672 91.7879 113.613C94.6024 111.603 96.1342 108.015 95.5436 104.595Z" fill="#899884"/>
<path d="M80.8015 71.6862C79.8536 70.3874 78.4882 69.4786 77.1084 68.6905C75.7491 67.914 74.1841 67.3769 72.6352 67.9091C71.2746 68.3766 70.2186 69.415 69.4336 70.5922C68.6039 71.8366 68.1483 73.2775 67.5425 74.6338C67.2417 75.3073 66.9044 75.9679 66.4757 76.5698C66.0648 77.1467 65.5332 77.6353 64.9969 78.0932C63.93 79.0044 62.7971 79.8272 61.9491 80.9568C60.2 82.6974 59.099 85.0831 59.1954 87.5901C59.3003 90.3172 60.8828 92.9781 63.3089 94.2673C66.1115 95.7565 69.4074 95.0784 72.0836 93.6485C74.6339 92.2857 76.8191 90.2427 78.5181 87.9171C80.1737 85.651 81.3649 83.0058 81.9052 80.2485C82.4523 77.4567 82.5609 74.0967 80.8015 71.6862Z" fill="#899884"/>
<path d="M129.685 193.698C129.629 187.322 126.415 180.37 126.842 174.231C125.706 168.947 118.144 167.134 115.153 163.506C114.046 164.568 116.004 166.198 116.689 166.952C117.401 169.529 118.107 172.126 118.808 174.743C119.527 177.428 120.231 180.098 120.92 182.752C121.887 186.879 123.425 189.813 124.634 191.704C125.485 193.035 127.351 195.953 128.622 195.58C129.236 195.4 129.532 194.503 129.685 193.698Z" fill="#899884"/>
<path d="M170.102 217.839C170.918 214.224 167.565 211.525 164.146 213.151C160.394 217.55 153.414 220.598 148.001 223.734C143.647 226.353 144.655 232.874 145.068 237.26C144.87 239.302 142.632 240.815 143.32 242.999C144.746 244.581 158.983 235.76 160.038 234.433C161.013 233.205 162.377 232.373 163.242 231.073C166.359 227.355 170.035 222.96 170.102 217.839Z" fill="#899884"/>
<path d="M83.7126 124.662C83.1221 123.546 82.2479 122.609 81.2352 121.866C79.2695 120.423 76.3007 119.675 73.9903 120.705C73.005 121.144 72.3897 122.04 72.2568 123.037C72.0649 123.23 71.9551 123.515 72.0558 123.774C72.1819 124.097 72.3285 124.406 72.4916 124.704C72.6655 125.114 72.9093 125.475 73.2047 125.787C73.9374 126.734 74.8622 127.522 75.8827 128.177C75.9984 128.369 76.207 128.482 76.4308 128.511C76.7743 128.71 77.1249 128.897 77.4828 129.068C79.5214 130.043 83.2477 131.463 84.3045 128.42C84.7342 127.182 84.2992 125.77 83.7126 124.662Z" fill="#899884"/>
<path d="M72.078 121.799C71.6621 121.469 71.1986 121.227 70.6929 121.063C68.708 120.42 66.6648 121.193 64.9061 122.108C64.0258 122.565 63.1531 123.098 62.5855 123.936C62.0306 124.755 61.8615 125.828 62.2909 126.737C62.6505 127.498 63.4387 128.014 64.2429 128.196C65.2912 128.433 66.3138 128.145 67.2695 127.713C68.5855 127.118 69.9862 126.362 71.0473 125.314C71.7464 124.787 72.2662 124.027 72.4214 123.153C72.5157 122.622 72.5369 122.164 72.078 121.799Z" fill="#899884"/>
<path d="M131.022 73.7317C130.834 73.0062 130.372 72.4093 129.801 71.9448C129.364 71.3373 128.76 70.8458 128.012 70.5272C126.375 69.8296 124.435 69.9437 123.132 71.2431C121.83 72.5415 121.519 74.4122 121.521 76.1778C121.522 77.8968 121.548 79.9818 123.007 81.1679C123.116 81.257 123.228 81.3334 123.342 81.4032C123.594 81.5911 123.876 81.7452 124.193 81.8504C125.721 82.3574 127.14 81.5003 128.119 80.3666C129.297 79.3277 130.189 77.9784 130.731 76.5082C131.054 75.6339 131.261 74.6534 131.022 73.7317Z" fill="#899884"/>
<path d="M141.476 79.5468C141.412 78.899 141.066 78.4572 140.466 78.2175C140.127 78.0825 139.757 78.0181 139.393 78.0121C138.667 78.0003 137.914 78.24 137.317 78.6511C137.136 78.7763 136.968 78.9144 136.812 79.0625C136.135 79.5142 135.542 80.1678 135.43 80.9977C135.318 81.835 135.667 82.6968 136.323 83.233C137.043 83.8211 137.982 83.9975 138.874 83.7343C139.74 83.4791 140.468 82.8723 140.907 82.088C141.322 81.3492 141.56 80.3956 141.476 79.5468Z" fill="#899884"/>
<path d="M138.273 54.0694C115.521 38.3041 94.7782 42.0353 94.7772 43.867C98.618 61.4163 127.619 66.7659 138.273 54.0694Z" fill="#899884"/>
<path d="M173.197 111.482C173.194 111.48 173.19 111.478 173.187 111.476C172.707 111.183 172.399 110.667 172.395 110.106C172.393 109.98 172.377 109.851 172.342 109.722C171.516 106.63 170.69 103.539 169.864 100.448C169.458 98.9267 169.051 97.4055 168.645 95.8844C168.255 94.4267 167.903 92.9462 167.34 91.5429C166.808 90.2164 166.114 89.0007 165.217 87.9098C164.935 87.5672 164.891 87.084 165.112 86.6989C165.113 86.6967 165.114 86.6944 165.116 86.6922C165.514 85.9973 165.301 84.9862 164.567 84.5979C163.838 84.213 162.898 84.405 162.473 85.1471C160.149 89.1996 159.314 93.9241 159.994 98.5326C160.599 102.635 162.605 106.534 165.468 109.517C167.264 111.389 169.451 112.783 171.652 114.125C172.337 114.542 173.365 114.298 173.746 113.576C174.139 112.831 173.928 111.927 173.197 111.482Z" fill="#899884"/>
<path d="M163.758 120.799C163.682 120.689 163.598 120.586 163.518 120.479C163.016 119.442 162.254 118.522 161.305 117.86C161.152 117.754 160.989 117.658 160.823 117.568C159.635 116.573 157.85 115.908 156.627 117.263C156.465 117.442 156.335 117.639 156.229 117.847C156.101 117.969 155.982 118.1 155.874 118.241C155.345 118.925 155.18 119.737 155.107 120.581C155.021 121.572 154.977 122.627 155.053 123.665C154.941 124.588 155.151 125.55 155.618 126.374C155.943 127.215 156.424 127.987 157.123 128.633C158.197 129.626 159.611 130.232 161.087 130.033C162.416 129.855 163.502 129.079 164.23 127.967C165.686 125.743 165.205 122.885 163.758 120.799Z" fill="#899884"/>
<path d="M75.2327 129.624C75.5523 129.358 75.6814 128.867 75.3003 128.514C74.7985 128.048 74.2822 127.599 73.7586 127.159C73.721 127.122 73.6808 127.09 73.6384 127.06C73.3409 126.812 73.0445 126.562 72.74 126.322C72.7347 126.318 72.729 126.315 72.7237 126.311C72.6658 126.215 72.6008 126.121 72.5186 126.035C72.1033 125.6 71.4098 125.448 70.8728 125.744C70.3201 126.047 70.1693 126.709 70.3223 127.282C70.3896 127.533 70.5026 127.765 70.6121 127.997C70.2787 129.147 70.3244 130.407 70.7669 131.52C70.8408 131.706 70.9572 131.865 71.1125 131.966C70.9972 132.09 70.9246 132.255 70.9329 132.46C70.9907 133.91 71.6412 135.309 72.7775 136.228C72.7807 136.23 72.7847 136.232 72.7879 136.235C73.0712 136.671 73.7597 136.744 74.0879 136.223C74.219 136.015 74.3258 135.798 74.4113 135.573C74.6572 135.5 74.8752 135.325 74.9519 135.067C75.1118 134.529 75.2262 133.975 75.2999 133.417C76.126 132.244 75.8322 130.89 75.2327 129.624Z" fill="#933A35"/>
<path d="M52.3135 56.9339C51.3838 60.7536 50.4542 64.5733 49.5245 68.393C48.6181 72.1174 47.6935 75.8377 46.9225 79.5931C45.6133 85.9708 44.6741 92.4941 44.9833 99.0201C45.2354 104.341 46.4099 109.515 48.1275 114.544C49.6132 118.893 51.6426 123.564 55.2893 126.543C57.3587 128.234 59.8772 129.222 62.5734 129.146C65.5997 129.061 68.4846 127.782 70.9496 126.091C71.4245 125.766 71.8844 125.42 72.3384 125.066C71.9629 125.066 71.5875 125.066 71.212 125.066C73.0717 126.911 75.1307 128.578 77.369 129.944C80.5351 131.875 84.1246 133.194 87.855 133.334C90.9826 133.452 94.0807 132.687 96.8354 131.215C99.3362 129.879 101.531 127.992 103.41 125.881C105.29 123.769 106.899 121.419 108.3 118.966C109.564 116.751 110.657 114.445 111.637 112.092C112.313 110.47 112.924 108.823 113.493 107.161C114.852 103.193 115.743 99.1033 116.114 94.9243C116.472 90.9007 116.338 86.8498 115.799 82.8488C115.388 79.7949 114.739 76.7757 113.862 73.822C113.701 73.2833 113.534 72.747 113.359 72.2129C113.167 71.6256 112.204 71.354 111.903 72.0226C110.45 75.2523 108.997 78.4819 107.544 81.7115C107.368 82.1035 107.431 82.5682 107.83 82.8015C108.171 83.0008 108.743 82.9099 108.92 82.5156C110.373 79.286 111.826 76.0564 113.279 72.8268C112.794 72.7634 112.308 72.6999 111.823 72.6365C113.818 78.7425 114.862 85.1567 114.709 91.5863C114.603 96.0281 113.912 100.441 112.623 104.694C112.077 106.496 111.44 108.279 110.759 110.034C110.57 110.52 110.376 111.004 110.177 111.486C110.131 111.598 110.084 111.71 110.037 111.821C110.021 111.86 109.962 111.999 110.026 111.847C110 111.91 109.973 111.972 109.947 112.035C109.829 112.311 109.709 112.587 109.587 112.862C109.093 113.977 108.568 115.08 108.009 116.164C106.777 118.549 105.378 120.857 103.746 122.99C103.633 123.137 103.374 123.464 103.189 123.692C102.957 123.976 102.721 124.256 102.479 124.532C102.035 125.042 101.574 125.537 101.095 126.014C100.113 126.994 99.0882 127.874 98.0198 128.618C97.461 129.007 96.8834 129.37 96.2878 129.7C95.9961 129.862 95.7001 130.016 95.4 130.161C95.0894 130.312 94.7417 130.468 94.5213 130.557C93.8961 130.811 93.2559 131.029 92.6047 131.206C92.2743 131.296 91.9413 131.375 91.606 131.444C91.4367 131.479 91.2669 131.511 91.0965 131.541C91.0109 131.555 90.9251 131.569 90.8392 131.583C90.8077 131.588 90.519 131.629 90.6184 131.616C84.0969 132.481 77.9075 129.109 73.3197 124.879C72.9867 124.572 72.6599 124.258 72.3383 123.939C72.0054 123.609 71.553 123.673 71.2119 123.939C71.0282 124.082 71.2823 123.886 71.1677 123.973C71.1163 124.013 71.0649 124.052 71.0133 124.091C70.9157 124.164 70.8173 124.237 70.7187 124.309C70.4798 124.484 70.2378 124.654 69.9927 124.819C69.4508 125.185 68.8932 125.527 68.3193 125.84C67.0713 126.52 65.7465 127.05 64.3525 127.342C62.9097 127.644 61.4025 127.64 59.9751 127.259C58.912 126.976 58.0243 126.553 57.0824 125.911C55.3093 124.704 53.8832 122.902 52.7554 121.024C51.5759 119.06 50.7188 117.075 49.9591 114.964C48.2817 110.302 47.0481 105.456 46.6683 100.506C46.1926 94.3069 46.9061 88.096 48.0642 82.0092C48.7493 78.4085 49.5939 74.843 50.4604 71.2826C51.3665 67.5596 52.2727 63.8366 53.1787 60.1136C53.4023 59.1949 53.626 58.2762 53.8495 57.3576C54.092 56.3614 52.5563 55.9365 52.3135 56.9339Z" fill="black"/>
<path d="M53.8486 57.3575C53.9184 57.045 54.0041 56.7356 54.0958 56.429C54.1793 56.1499 54.2703 55.8729 54.3709 55.5995C54.4234 55.4567 54.4801 55.3157 54.537 55.1745C54.42 55.4648 54.5273 55.199 54.5601 55.1266C54.5933 55.0529 54.6276 54.9799 54.6631 54.9074C54.7299 54.7713 54.801 54.6374 54.8784 54.507C54.9447 54.3954 55.0553 54.2825 55.1057 54.165C55.1105 54.1538 54.9628 54.3434 55.0288 54.2647C55.0398 54.2517 55.0501 54.2383 55.0609 54.2252C55.0795 54.2027 55.0986 54.1806 55.118 54.159C55.1604 54.1115 55.2047 54.0656 55.2517 54.0226C55.2713 54.0046 55.292 53.9877 55.3116 53.9699C55.3916 53.8972 55.1241 54.1017 55.229 54.0337C55.2764 54.003 55.3227 53.9734 55.3722 53.946C55.489 53.8814 55.2909 53.9866 55.2645 53.9891C55.288 53.9868 55.3159 53.9706 55.339 53.9641C55.3608 53.958 55.3836 53.955 55.4051 53.9486C55.3908 53.9528 55.1537 53.9646 55.2989 53.965C55.3257 53.9652 55.3529 53.9672 55.3796 53.9668C55.4305 53.9661 55.1392 53.9148 55.2766 53.955C55.3083 53.9643 55.3399 53.9739 55.3715 53.9834C55.4743 54.0142 55.1635 53.8779 55.2975 53.9553C55.3282 53.973 55.359 53.99 55.3887 54.0095C55.4208 54.0307 55.5214 54.1074 55.3975 54.0122C55.27 53.9143 55.3768 53.9988 55.4046 54.0241C55.438 54.0544 55.47 54.0861 55.5012 54.1186C55.5413 54.1606 55.6064 54.2777 55.657 54.299C55.6651 54.3024 55.5431 54.1455 55.5829 54.2036C55.5956 54.2222 55.6097 54.2398 55.6228 54.2581C55.653 54.3003 55.6823 54.3431 55.7107 54.3864C55.9188 54.7028 56.0874 55.0443 56.2398 55.3904C56.2576 55.4306 56.2785 55.4708 56.2927 55.5125C56.2925 55.5118 56.21 55.3133 56.2564 55.4267C56.2659 55.4499 56.2755 55.4729 56.2851 55.4961C56.32 55.5815 56.3541 55.6674 56.3874 55.7534C56.4516 55.9192 56.5132 56.086 56.5732 56.2535C56.7606 56.7771 56.9347 57.3048 57.0801 57.8419C57.2526 58.4788 57.3906 59.125 57.4957 59.7765C57.509 59.8586 57.5217 59.9407 57.5339 60.0229C57.541 60.0707 57.5479 60.1184 57.5547 60.1662C57.5573 60.1842 57.5598 60.2023 57.5623 60.2203C57.5828 60.3641 57.5399 60.0472 57.551 60.1358C57.5753 60.3291 57.5992 60.5223 57.6192 60.7161C57.661 61.1216 57.691 61.5284 57.7097 61.9357C57.7518 62.8526 57.7371 63.7717 57.6732 64.6872C57.6374 65.1997 57.5862 65.7111 57.521 66.2207C57.518 66.2441 57.5036 66.2984 57.5075 66.3249C57.5053 66.3099 57.5349 66.1273 57.5148 66.2703C57.506 66.3319 57.4976 66.3935 57.4886 66.4551C57.4681 66.5978 57.4464 66.7403 57.4237 66.8826C57.3785 67.1665 57.3291 67.4496 57.2756 67.7319C57.2219 68.0153 57.1641 68.2981 57.1029 68.5801C57.0149 68.9863 57.2239 69.4609 57.6593 69.5601C58.0609 69.6516 58.5446 69.4392 58.6391 69.0036C59.1038 66.8609 59.3701 64.6603 59.3209 62.4655C59.285 60.8651 59.0852 59.2573 58.6914 57.7047C58.548 57.1394 58.3746 56.5835 58.1814 56.0333C57.9134 55.2699 57.628 54.4953 57.2182 53.7951C56.8132 53.1031 56.1382 52.2926 55.2412 52.3761C54.4698 52.4478 53.9364 53.0021 53.547 53.6302C53.1822 54.2187 52.9273 54.883 52.7081 55.5374C52.5659 55.9616 52.4415 56.3923 52.3374 56.8274C52.329 56.8629 52.3206 56.8984 52.3126 56.9339C52.2221 57.3397 52.4354 57.8152 52.869 57.914C53.2726 58.0059 53.7516 57.7926 53.8486 57.3575Z" fill="black"/>
<path d="M46.0461 106.781C45.2047 110.574 44.6734 114.439 44.4494 118.318C44.1161 124.088 44.4836 129.895 45.527 135.579C46.6926 141.93 48.7343 148.111 51.5511 153.919C53.7958 158.548 56.5483 162.912 59.716 166.962C61.9069 169.764 64.3043 172.405 66.8895 174.848C67.1124 175.058 67.3368 175.267 67.5625 175.475C68.3157 176.169 69.445 175.045 68.6889 174.349C66.2558 172.107 63.9821 169.695 61.8847 167.137C60.4781 165.422 59.1825 163.678 57.9075 161.78C56.4463 159.605 55.1038 157.35 53.8898 155.027C51.0187 149.534 48.8925 143.664 47.5586 137.611C46.3009 131.903 45.7745 126.046 45.9584 120.205C46.031 117.897 46.2143 115.592 46.5084 113.301C46.5149 113.249 46.5216 113.198 46.5283 113.146C46.53 113.133 46.5637 112.879 46.5406 113.052C46.5557 112.938 46.5714 112.825 46.5873 112.712C46.6232 112.455 46.6606 112.198 46.6994 111.941C46.7659 111.501 46.8366 111.062 46.9113 110.624C47.0501 109.81 47.2032 108.999 47.3707 108.19C47.4389 107.861 47.5095 107.533 47.5823 107.204C47.6755 106.785 47.4555 106.342 47.026 106.224C46.6265 106.115 46.1397 106.359 46.0461 106.781Z" fill="black"/>
<path d="M67.338 175.18C64.8315 180.738 63.5261 186.763 63.4786 192.861C63.4318 198.869 64.5712 204.882 66.6811 210.502C68.8404 216.252 71.9765 221.6 75.9096 226.316C79.7973 230.977 84.4963 234.947 89.6634 238.123C94.8261 241.295 100.475 243.688 106.319 245.276C112.214 246.877 118.343 247.673 124.451 247.62C130.198 247.571 135.951 246.73 141.459 245.083C146.914 243.451 152.174 241.028 156.836 237.745C161.417 234.517 165.419 230.471 168.372 225.692C170.005 223.05 171.772 219.87 171.441 216.653C171.295 215.233 170.778 213.913 169.707 212.939C168.796 212.11 167.651 211.573 166.423 211.452C165.248 211.336 164.073 211.744 163.259 212.604C162.555 213.349 163.679 214.477 164.386 213.731C165.857 212.176 168.44 213.421 169.345 215.001C170.08 216.284 169.971 217.931 169.618 219.311C169.234 220.811 168.542 222.202 167.788 223.547C165.177 228.2 161.533 232.24 157.283 235.455C152.972 238.718 148.093 241.199 142.977 242.928C137.783 244.684 132.343 245.703 126.867 245.961C121.086 246.233 115.27 245.717 109.623 244.453C103.937 243.18 98.4198 241.159 93.2952 238.38C88.2211 235.63 83.5511 232.153 79.546 227.99C75.4718 223.757 72.1219 218.837 69.6522 213.506C67.2438 208.307 65.6901 202.667 65.2234 196.952C64.7545 191.209 65.3725 185.405 67.1804 179.927C67.6227 178.587 68.1333 177.271 68.7135 175.984C68.8915 175.589 68.824 175.131 68.4277 174.894C68.0884 174.691 67.5145 174.788 67.338 175.18Z" fill="black"/>
<path d="M75.7413 178.79C75.3064 180.629 75.032 182.51 74.8283 184.387C74.4382 187.981 74.3908 191.62 74.7298 195.22C75.1648 199.842 76.2317 204.382 78.0847 208.645C80.1893 213.486 83.3625 217.869 87.3564 221.327C91.2303 224.681 95.8081 227.1 100.704 228.582C105.07 229.903 109.641 230.491 114.192 230.623C117.856 230.729 121.514 230.515 125.167 230.24C130.882 229.809 136.531 228.635 141.94 226.736C146.393 225.171 150.686 223.144 154.732 220.715C157.677 218.946 160.491 216.963 163.157 214.797C163.599 214.438 164.036 214.073 164.47 213.703C164.798 213.424 164.757 212.864 164.47 212.577C164.145 212.252 163.672 212.297 163.344 212.577C162.902 212.953 162.456 213.325 162.005 213.691C161.743 213.904 161.479 214.115 161.213 214.324C161.082 214.428 160.95 214.531 160.818 214.633C160.789 214.656 160.76 214.678 160.732 214.701C160.837 214.619 160.736 214.697 160.717 214.712C160.638 214.773 160.558 214.834 160.478 214.895C159.139 215.916 157.764 216.89 156.357 217.814C152.759 220.176 148.944 222.23 144.967 223.879C140.006 225.936 134.797 227.394 129.483 228.175C125.494 228.76 121.395 228.993 117.364 229.051C113.111 229.111 108.84 228.836 104.673 227.953C99.9751 226.956 95.4585 225.193 91.4721 222.493C87.1621 219.574 83.5922 215.61 81.0569 211.069C78.7991 207.026 77.3901 202.56 76.6692 197.994C76.0768 194.242 75.9678 190.409 76.2245 186.622C76.2759 185.863 76.3427 185.106 76.4252 184.351C76.4627 184.007 76.5037 183.663 76.5478 183.32C76.5575 183.244 76.5675 183.168 76.5775 183.092C76.5558 183.256 76.5787 183.084 76.5879 183.019C76.6091 182.866 76.6308 182.714 76.6532 182.562C76.7861 181.662 76.9416 180.765 77.1298 179.875C77.1765 179.654 77.2253 179.434 77.2773 179.214C77.5132 178.217 75.9775 177.791 75.7413 178.79Z" fill="black"/>
<path d="M101.36 136.043C103.596 139.708 105.607 143.508 107.431 147.395C109.243 151.257 110.869 155.203 112.368 159.196C113.877 163.216 115.258 167.283 116.571 171.372C117.89 175.478 119.139 179.607 120.38 183.738C121.514 187.512 122.661 191.4 125.126 194.551C125.713 195.301 126.387 196.124 127.227 196.6C128.095 197.093 129.158 197.078 129.925 196.409C130.492 195.915 130.764 195.143 130.868 194.418C130.993 193.557 130.921 192.74 130.78 191.885C130.053 187.473 129.206 183.079 128.242 178.712C127.282 174.364 126.206 170.041 125.015 165.75C123.818 161.44 122.506 157.163 121.081 152.924C119.655 148.685 118.115 144.484 116.463 140.329C116.063 139.321 115.655 138.315 115.241 137.312C115.077 136.915 114.713 136.632 114.262 136.756C113.886 136.859 113.54 137.336 113.705 137.736C115.374 141.782 116.938 145.872 118.392 150.001C119.853 154.147 121.204 158.332 122.443 162.55C123.677 166.75 124.801 170.982 125.813 175.24C126.829 179.517 127.733 183.821 128.521 188.146C128.716 189.213 128.903 190.282 129.084 191.352C129.128 191.614 129.172 191.877 129.216 192.14C129.238 192.271 129.259 192.403 129.281 192.534C129.289 192.583 129.296 192.633 129.305 192.682C129.321 192.775 129.294 192.56 129.31 192.716C129.347 193.076 129.364 193.435 129.343 193.796C129.338 193.884 129.329 193.971 129.322 194.058C129.321 194.068 129.305 194.19 129.317 194.1C129.331 194.002 129.308 194.154 129.304 194.176C129.27 194.352 129.231 194.526 129.176 194.696C129.154 194.76 129.132 194.825 129.105 194.888C129.172 194.728 129.078 194.928 129.058 194.965C129.022 195.03 128.981 195.091 128.94 195.152C129.043 195 128.896 195.183 128.866 195.222C128.794 195.315 128.959 195.18 128.816 195.264C128.747 195.304 128.621 195.353 128.764 195.305C128.693 195.328 128.624 195.348 128.552 195.364C128.462 195.384 128.591 195.359 128.6 195.358C128.529 195.361 128.458 195.367 128.388 195.36C128.353 195.356 128.278 195.337 128.186 195.303C128.2 195.308 128.033 195.226 127.989 195.199C127.801 195.088 127.659 194.968 127.494 194.811C124.781 192.243 123.507 188.517 122.432 185.022C121.2 181.015 120.02 176.993 118.759 172.996C117.488 168.969 116.162 164.96 114.722 160.991C113.276 157.004 111.714 153.058 109.99 149.182C108.275 145.328 106.394 141.547 104.299 137.884C103.79 136.995 103.269 136.113 102.735 135.238C102.202 134.364 100.824 135.164 101.36 136.043Z" fill="black"/>
<path d="M76.2975 179.77C78.9475 180.607 81.6625 181.227 84.4073 181.658C87.2228 182.101 90.0648 182.362 92.9127 182.465C95.7314 182.567 98.5545 182.519 101.37 182.36C104.208 182.199 107.038 181.925 109.858 181.571C112.695 181.215 115.522 180.783 118.339 180.296C118.678 180.237 119.017 180.178 119.356 180.117C119.767 180.045 120.036 179.52 119.912 179.137C119.769 178.695 119.373 178.503 118.932 178.581C117.57 178.822 116.206 179.053 114.839 179.268C114.151 179.377 113.461 179.481 112.771 179.582C112.425 179.632 112.079 179.682 111.732 179.73C111.565 179.753 111.398 179.776 111.231 179.799C111.18 179.806 111.128 179.813 111.077 179.82C111.092 179.818 111.19 179.805 111.095 179.817C111.005 179.829 110.915 179.841 110.825 179.853C108.035 180.222 105.233 180.515 102.425 180.702C99.608 180.888 96.7833 180.968 93.9609 180.902C92.566 180.87 91.172 180.802 89.7809 180.694C89.0884 180.64 88.3967 180.576 87.7062 180.502C87.3617 180.464 87.0175 180.424 86.6736 180.382C86.5082 180.361 86.343 180.34 86.1776 180.318C86.1395 180.313 86.1014 180.308 86.0633 180.303C86.0785 180.305 86.1789 180.319 86.0846 180.306C85.9831 180.292 85.8817 180.278 85.7802 180.264C83.0531 179.878 80.3495 179.313 77.7068 178.535C77.3773 178.438 77.0487 178.337 76.7211 178.234C76.3236 178.108 75.8344 178.381 75.7413 178.79C75.6424 179.224 75.8721 179.636 76.2975 179.77Z" fill="black"/>
<path d="M74.249 157.255C74.9925 158.857 76.1753 160.225 77.6034 161.256C77.9887 161.534 78.3948 161.782 78.8175 161.999C79.1878 162.189 79.6988 162.107 79.9072 161.713C80.0997 161.348 80.0172 160.826 79.6215 160.623C79.2602 160.437 78.9109 160.23 78.5764 159.999C78.5007 159.947 78.4258 159.894 78.3517 159.84C78.3084 159.808 78.2656 159.776 78.2228 159.744C78.1194 159.666 78.3579 159.85 78.2207 159.741C78.0648 159.617 77.9127 159.489 77.7648 159.355C77.4633 159.083 77.1788 158.792 76.9141 158.485C76.8541 158.415 76.7952 158.344 76.7372 158.273C76.7035 158.231 76.6706 158.189 76.6369 158.147C76.583 158.08 76.6956 158.224 76.6912 158.217C76.6734 158.193 76.654 158.169 76.6356 158.144C76.5162 157.985 76.4018 157.822 76.2926 157.655C76.0405 157.271 75.8179 156.868 75.6245 156.451C75.5451 156.279 75.3234 156.133 75.1484 156.084C74.9578 156.032 74.7039 156.056 74.5347 156.165C74.1441 156.416 74.0608 156.849 74.249 157.255Z" fill="black"/>
<path d="M75.8508 162.184C77.4837 160.424 79.1166 158.665 80.7495 156.906C81.033 156.601 81.0745 156.078 80.7495 155.78C80.4413 155.497 79.9258 155.453 79.623 155.78C77.9901 157.539 76.3572 159.298 74.7243 161.057C74.4408 161.362 74.3993 161.885 74.7243 162.184C75.0327 162.467 75.5479 162.51 75.8508 162.184Z" fill="black"/>
<path d="M59.3457 61.5886C60.2758 58.0441 61.4118 54.5572 62.6686 51.1159C63.9304 47.6612 65.3117 44.2516 66.7256 40.8569C68.0832 37.5976 69.6388 34.3732 71.3206 31.2325C72.1602 29.6645 73.0336 28.1154 73.8955 26.5597C74.6952 25.1166 75.4779 23.6641 76.292 22.229C77.09 20.8221 77.9185 19.4313 78.8219 18.0892C79.7448 16.718 80.6326 15.547 81.7469 14.3245C82.2997 13.7181 82.8789 13.136 83.4871 12.5851C83.744 12.3524 83.9927 12.1109 84.2485 11.8769C84.3497 11.7844 84.4531 11.6947 84.5576 11.6061C84.7086 11.478 84.4994 11.641 84.6143 11.5597C84.6822 11.5117 84.7493 11.4629 84.8191 11.4174C84.9391 11.3391 85.0634 11.2673 85.1908 11.2016C85.2658 11.1627 85.3421 11.127 85.4187 11.0912C85.4363 11.083 85.555 11.0341 85.4436 11.0793C85.495 11.0584 85.5467 11.0385 85.5986 11.0188C85.7357 10.9667 85.8729 10.92 86.0163 10.8877C86.0805 10.8733 86.1453 10.8626 86.21 10.8507C86.0396 10.8821 86.2873 10.8434 86.3438 10.8393C86.5095 10.8273 86.6763 10.825 86.8421 10.8341C86.9113 10.8379 86.9802 10.8443 87.049 10.8516C86.8647 10.8321 87.1081 10.8682 87.1573 10.8808C87.1986 10.8914 87.3834 10.9618 87.2831 10.9148C87.1808 10.8668 87.3396 10.952 87.37 10.9714C87.3886 10.9832 87.4842 11.0322 87.4874 11.0526C87.4863 11.0458 87.3524 10.936 87.4373 11.0151C87.46 11.0363 87.4848 11.0555 87.508 11.0763C87.5892 11.1496 87.6584 11.2314 87.7342 11.3097C87.8306 11.4093 87.6477 11.1789 87.7247 11.2947C87.7593 11.3468 87.7963 11.3969 87.8296 11.4501C87.8888 11.5448 87.9394 11.6432 87.9899 11.7427C88.0007 11.7643 88.0087 11.7878 88.0203 11.8088C88.0704 11.8984 87.9668 11.6551 87.9973 11.7539C88.0143 11.8091 88.039 11.8627 88.0578 11.9174C88.1371 12.1483 88.1938 12.3866 88.2345 12.6273C88.2352 12.6313 88.2579 12.7238 88.2516 12.7355C88.2506 12.7375 88.2325 12.568 88.2419 12.6611C88.2484 12.7266 88.2571 12.7919 88.2633 12.8574C88.2768 13.0024 88.2856 13.1476 88.2905 13.293C88.3109 13.8848 88.2694 14.4778 88.1982 15.0651C88.1931 15.1081 88.1606 15.3379 88.1874 15.1548C88.1775 15.2225 88.1681 15.2902 88.158 15.3577C88.1323 15.5291 88.1042 15.7001 88.0742 15.8709C88.017 16.1967 87.9528 16.5214 87.8836 16.8448C87.6058 18.1436 87.2491 19.4237 86.8928 20.7025C86.4629 22.2453 86.0085 23.778 85.524 25.305C84.3933 28.8692 83.1675 32.4026 81.8941 35.9182C80.6223 39.4298 79.3025 42.9239 77.9792 46.4163C77.6596 47.2598 77.3397 48.1033 77.0204 48.9469C76.8725 49.3374 77.184 49.8375 77.5767 49.9269C78.0304 50.0303 78.3982 49.7886 78.5565 49.3704C79.9029 45.814 81.257 42.2604 82.5715 38.6921C83.8931 35.1044 85.1754 31.5016 86.3688 27.8691C87.363 24.8433 88.3008 21.7968 89.0815 18.7081C89.4224 17.3594 89.7153 15.9914 89.84 14.6038C89.9465 13.4178 89.9089 12.1768 89.4249 11.0717C89.2259 10.6172 88.9285 10.1918 88.5453 9.87372C87.968 9.39453 87.3046 9.22151 86.5576 9.23621C85.772 9.25162 85.0479 9.47757 84.3554 9.84184C83.7674 10.1511 83.2752 10.6038 82.7947 11.0557C81.5832 12.1952 80.4221 13.3496 79.3805 14.6505C78.3294 15.963 77.3725 17.3457 76.4844 18.7729C74.6982 21.6431 73.1284 24.6498 71.4877 27.6041C69.7045 30.8149 67.9853 34.0642 66.4798 37.416C64.9343 40.8572 63.5347 44.3774 62.1807 47.8979C60.8359 51.3945 59.59 54.9315 58.5398 58.5286C58.2841 59.4042 58.0406 60.2832 57.8091 61.1653C57.7035 61.5679 57.9425 62.049 58.3654 62.1454C58.7826 62.24 59.2325 62.02 59.3457 61.5886Z" fill="black"/>
<path d="M164.602 130.038C165.879 142.213 167.1 154.452 167.344 166.7C167.405 169.782 167.408 172.878 167.156 175.953C167.112 176.485 167.059 177.016 166.995 177.546C166.959 177.846 166.977 177.71 166.928 178.037C166.892 178.282 166.852 178.525 166.809 178.769C166.437 180.904 166.127 183.083 166.441 185.247C166.607 186.39 166.979 187.551 167.768 188.422C168.723 189.477 170.303 189.981 171.691 189.649C173.753 189.156 174.798 186.88 175.432 185.071C176.38 182.367 176.773 179.466 177.089 176.63C177.474 173.17 177.674 169.687 177.818 166.211C178.36 153.132 177.813 139.974 176.38 126.964C176.238 125.676 176.086 124.389 175.916 123.104C175.88 122.832 175.841 122.56 175.805 122.287C175.844 122.583 175.78 122.069 175.763 121.936C175.729 121.662 175.694 121.389 175.659 121.115C175.263 118.026 174.795 114.948 174.207 111.89C172.414 102.575 169.574 93.4362 165.437 84.8895C160.221 74.1132 152.822 64.3764 143.34 57.0085C135.955 51.2699 127.772 46.4201 118.773 43.7179C106.035 39.8932 92.2583 40.9124 80.4045 47.0364C71.9514 51.4035 64.7452 58.0203 59.108 65.643C58.4431 66.5421 57.8025 67.4588 57.1824 68.3894C56.6123 69.2451 57.9914 70.0438 58.5579 69.1936C62.7294 62.932 67.9639 57.2954 74.0465 52.8547C78.7851 49.3952 84.0515 46.6651 89.683 44.9926C96.1832 43.0622 103.067 42.5491 109.789 43.4082C120.044 44.7189 129.586 49.1995 138.003 55.0646C142.102 57.9208 145.984 61.0439 149.481 64.622C153.55 68.7859 157.092 73.4363 160.11 78.4127C165.297 86.9661 168.915 96.3944 171.307 106.09C172.698 111.728 173.555 117.453 174.322 123.095C174.282 122.801 174.353 123.33 174.366 123.432C174.399 123.688 174.432 123.944 174.464 124.201C174.553 124.921 174.638 125.642 174.72 126.363C174.959 128.484 175.169 130.608 175.354 132.734C175.912 139.128 176.257 145.543 176.375 151.96C176.512 159.477 176.369 167.023 175.706 174.514C175.453 177.37 175.118 180.246 174.387 183.025C173.965 184.63 173.295 187.355 171.528 188.036C170.356 188.488 169.078 187.774 168.524 186.737C167.996 185.748 167.906 184.543 167.902 183.443C167.896 181.773 168.209 180.163 168.455 178.521C168.82 176.098 168.922 173.641 168.956 171.193C169.096 161.224 168.216 151.223 167.308 141.306C166.963 137.547 166.589 133.791 166.196 130.038C166.09 129.028 164.495 129.017 164.602 130.038Z" fill="black"/>
<path d="M127.866 178.021C130.417 177.306 132.967 176.59 135.518 175.875C138.1 175.151 140.683 174.427 143.265 173.702C145.86 172.975 148.454 172.247 151.048 171.52C153.633 170.795 156.218 170.07 158.804 169.345C161.359 168.629 163.915 167.912 166.47 167.195C166.784 167.107 167.097 167.02 167.41 166.932C167.811 166.819 168.1 166.362 167.967 165.952C167.834 165.543 167.417 165.275 166.987 165.395C164.436 166.11 161.886 166.826 159.335 167.541C156.753 168.265 154.17 168.989 151.588 169.714C148.993 170.441 146.399 171.169 143.805 171.896C141.22 172.621 138.635 173.346 136.049 174.071C133.494 174.787 130.938 175.504 128.383 176.221C128.069 176.309 127.756 176.396 127.443 176.484C127.042 176.597 126.753 177.054 126.886 177.464C127.019 177.874 127.436 178.141 127.866 178.021Z" fill="black"/>
<path d="M177.435 164.526C178.048 164.322 178.661 164.121 179.274 163.917C180.19 163.612 181.106 163.304 182.019 162.991C183.166 162.599 184.31 162.201 185.452 161.795C186.738 161.337 188.021 160.87 189.3 160.39C190.657 159.881 192.009 159.359 193.353 158.819C194.748 158.258 196.136 157.679 197.511 157.073C198.754 156.525 199.987 155.955 201.201 155.346C202.273 154.809 203.332 154.243 204.356 153.618C205.239 153.08 206.1 152.495 206.888 151.823C207.459 151.335 208.026 150.766 208.375 150.094C208.815 149.246 208.946 148.239 208.645 147.322C208.542 147.006 208.402 146.69 208.213 146.415C208.142 146.31 208.068 146.205 207.984 146.112C207.913 146.033 208.109 146.287 208.058 146.2C207.974 146.058 207.861 145.927 207.756 145.801C207.178 145.102 206.312 144.669 205.457 144.414C204.934 144.259 204.38 144.156 203.836 144.111C202.959 144.039 202.061 144.17 201.198 144.312C200.091 144.494 198.998 144.759 197.915 145.05C196.636 145.394 195.368 145.783 194.109 146.193C192.768 146.631 191.436 147.094 190.11 147.574C188.804 148.047 187.504 148.536 186.209 149.036C185.037 149.49 183.868 149.953 182.703 150.425C181.772 150.801 180.843 151.183 179.917 151.571C179.273 151.841 178.63 152.112 177.989 152.388C177.858 152.444 177.727 152.5 177.596 152.557C177.425 152.631 177.277 152.863 177.23 153.033C177.177 153.224 177.201 153.478 177.31 153.647C177.42 153.817 177.583 153.967 177.786 154.013C178.009 154.064 178.192 154.023 178.4 153.933C178.777 153.769 179.156 153.608 179.535 153.447C179.613 153.414 179.691 153.38 179.769 153.348C179.788 153.34 179.806 153.332 179.825 153.324C179.938 153.276 179.722 153.368 179.707 153.374C179.751 153.355 179.795 153.336 179.84 153.318C180.022 153.241 180.205 153.164 180.388 153.088C180.811 152.911 181.234 152.735 181.658 152.561C182.705 152.129 183.755 151.704 184.809 151.287C186.039 150.8 187.273 150.322 188.511 149.857C189.824 149.364 191.141 148.885 192.466 148.426C193.76 147.977 195.061 147.547 196.372 147.15C197.548 146.794 198.732 146.463 199.93 146.187C200.447 146.068 200.967 145.96 201.49 145.87C201.608 145.85 201.726 145.831 201.844 145.813C201.902 145.804 201.959 145.796 202.017 145.787C202.043 145.784 202.07 145.78 202.096 145.776C202.227 145.758 201.85 145.808 202.007 145.788C202.22 145.761 202.433 145.737 202.647 145.719C203.018 145.689 203.392 145.674 203.764 145.699C203.842 145.704 203.92 145.712 203.998 145.721C204.159 145.738 203.743 145.682 203.911 145.709C203.96 145.717 204.009 145.725 204.057 145.733C204.347 145.781 204.635 145.839 204.918 145.918C205.095 145.967 205.271 146.023 205.442 146.089C205.483 146.104 205.523 146.122 205.564 146.137C205.642 146.167 205.443 146.09 205.46 146.094C205.481 146.098 205.509 146.115 205.53 146.124C205.623 146.167 205.716 146.213 205.806 146.262C205.892 146.308 205.977 146.359 206.06 146.412C206.099 146.437 206.137 146.463 206.175 146.489C206.197 146.505 206.218 146.521 206.24 146.536C206.328 146.597 206.189 146.493 206.175 146.485C206.347 146.584 206.504 146.776 206.629 146.927C206.736 147.057 206.546 146.805 206.621 146.916C206.649 146.958 206.678 146.999 206.706 147.041C206.752 147.109 206.801 147.174 206.855 147.236C206.945 147.339 206.722 147.052 206.783 147.142C206.808 147.178 206.834 147.213 206.859 147.25C206.925 147.35 206.984 147.454 207.037 147.562C207.052 147.592 207.065 147.623 207.08 147.653C207.147 147.796 207.012 147.478 207.053 147.591C207.084 147.675 207.115 147.759 207.14 147.845C207.165 147.932 207.186 148.021 207.202 148.111C207.206 148.13 207.208 148.149 207.212 148.167C207.236 148.293 207.199 148.07 207.2 148.071C207.22 148.117 207.212 148.202 207.215 148.252C207.219 148.351 207.219 148.451 207.212 148.55C207.209 148.602 207.202 148.653 207.198 148.705C207.215 148.45 207.199 148.674 207.183 148.747C207.157 148.869 207.122 148.99 207.08 149.108C207.071 149.132 207.061 149.157 207.052 149.182C207.018 149.284 207.117 149.042 207.07 149.142C207.059 149.166 207.048 149.191 207.036 149.216C207.006 149.279 206.973 149.34 206.938 149.401C206.863 149.531 206.777 149.655 206.688 149.776C206.613 149.878 206.826 149.601 206.764 149.679C206.752 149.693 206.74 149.708 206.728 149.723C206.701 149.758 206.673 149.792 206.644 149.825C206.589 149.891 206.532 149.956 206.473 150.019C206.206 150.308 205.913 150.573 205.61 150.823C205.527 150.891 205.443 150.959 205.358 151.025C205.338 151.041 205.318 151.057 205.298 151.072C205.536 150.885 205.425 150.974 205.371 151.015C205.323 151.052 205.275 151.088 205.226 151.124C205.037 151.265 204.845 151.401 204.65 151.535C203.741 152.157 202.785 152.711 201.816 153.234C200.681 153.845 199.523 154.412 198.354 154.953C197.724 155.245 197.09 155.53 196.453 155.808C196.133 155.948 195.813 156.087 195.492 156.224C195.411 156.258 195.33 156.293 195.249 156.327C195.211 156.343 195.173 156.359 195.136 156.375C194.956 156.451 195.294 156.308 195.147 156.37C194.984 156.439 194.821 156.507 194.658 156.575C193.329 157.129 191.991 157.662 190.647 158.18C189.342 158.684 188.032 159.173 186.717 159.651C185.516 160.088 184.311 160.515 183.103 160.935C182.084 161.289 181.063 161.638 180.04 161.982C179.282 162.237 178.523 162.489 177.764 162.74C177.513 162.823 177.263 162.906 177.012 162.989C176.617 163.12 176.319 163.545 176.456 163.969C176.583 164.363 177.012 164.666 177.435 164.526Z" fill="black"/>
<path d="M68.9906 126.338C68.8634 127.887 68.9818 129.448 69.231 130.979C69.4825 132.525 69.9075 134.035 70.5346 135.471C70.8328 136.154 71.177 136.834 71.6882 137.385C72.2828 138.026 73.1679 138.382 74.0337 138.142C74.7828 137.933 75.3498 137.324 75.7132 136.66C76.0916 135.969 76.2826 135.211 76.4398 134.445C76.8564 132.414 76.9829 130.324 76.7868 128.26C76.7664 128.044 76.7117 127.855 76.5535 127.697C76.4153 127.559 76.1887 127.455 75.9904 127.464C75.5925 127.481 75.1517 127.816 75.1939 128.26C75.2753 129.117 75.3034 129.978 75.2754 130.838C75.2614 131.268 75.2336 131.697 75.1923 132.125C75.1725 132.33 75.1482 132.534 75.1235 132.739C75.0998 132.934 75.1498 132.555 75.1223 132.749C75.117 132.786 75.1118 132.823 75.1065 132.86C75.0878 132.99 75.0677 133.119 75.0464 133.249C74.9227 134 74.7875 134.777 74.5132 135.49C74.5034 135.515 74.4932 135.541 74.4832 135.566C74.4255 135.713 74.5655 135.384 74.4997 135.527C74.4683 135.595 74.4375 135.663 74.4038 135.73C74.3344 135.868 74.2579 136.002 74.172 136.13C74.1501 136.163 74.1269 136.195 74.1045 136.227C74.0186 136.352 74.232 136.074 74.1345 136.189C74.0933 136.237 74.0528 136.286 74.009 136.332C73.9579 136.386 73.9043 136.438 73.8477 136.486C73.7897 136.535 73.7023 136.561 73.8948 136.451C73.864 136.469 73.8358 136.493 73.8058 136.512C73.7455 136.55 73.6806 136.578 73.6189 136.613C73.8424 136.486 73.6938 136.582 73.6101 136.605C73.5757 136.615 73.5409 136.621 73.5062 136.629C73.3641 136.663 73.722 136.615 73.5746 136.621C73.4988 136.624 73.4255 136.624 73.3496 136.621C73.1902 136.614 73.5485 136.666 73.3961 136.626C73.3565 136.616 73.3164 136.608 73.277 136.596C73.251 136.588 73.2256 136.579 73.1999 136.571C73.0532 136.522 73.3765 136.662 73.2411 136.588C73.1694 136.548 73.0983 136.511 73.0304 136.464C73.0078 136.449 72.9862 136.432 72.9635 136.416C73.1731 136.556 73.0127 136.452 72.9646 136.408C72.8471 136.301 72.7534 136.178 72.6467 136.061C72.8177 136.248 72.6565 136.069 72.617 136.011C72.5594 135.927 72.505 135.84 72.4529 135.753C72.2838 135.468 72.1375 135.169 72.0001 134.868C71.9695 134.801 71.9394 134.734 71.9099 134.667C71.892 134.626 71.8754 134.584 71.8569 134.544C71.9588 134.766 71.8882 134.617 71.8681 134.568C71.8019 134.407 71.7388 134.244 71.6782 134.081C71.5568 133.753 71.4464 133.42 71.3458 133.085C71.1337 132.38 70.9643 131.662 70.8326 130.937C70.7951 130.731 70.7607 130.524 70.7295 130.317C70.7151 130.221 70.7023 130.125 70.6882 130.03C70.7245 130.277 70.6981 130.103 70.6915 130.051C70.6834 129.987 70.6756 129.923 70.6681 129.86C70.6217 129.466 70.5866 129.071 70.5635 128.676C70.5181 127.897 70.5195 127.116 70.5835 126.338C70.6177 125.922 70.1928 125.523 69.7871 125.542C69.3263 125.562 69.0273 125.892 68.9906 126.338Z" fill="black"/>
<path d="M69.2854 117.929C69.3626 118.352 69.4397 118.774 69.517 119.197C69.5732 119.505 69.6254 119.813 69.7117 120.114C69.9063 120.793 70.2402 121.45 70.8432 121.849C71.1403 122.045 71.5417 122.155 71.8975 122.135C72.3554 122.11 72.7415 121.937 73.0955 121.653C73.6189 121.235 73.9531 120.569 74.136 119.936C74.2528 119.532 74.3136 119.113 74.3683 118.697C74.4251 118.265 74.4545 117.83 74.445 117.394C74.4358 116.978 74.0851 116.578 73.6485 116.597C73.2248 116.616 72.8423 116.948 72.852 117.394C72.8597 117.743 72.8431 118.091 72.8064 118.438C72.7982 118.516 72.7875 118.594 72.7788 118.671C72.8079 118.411 72.7717 118.706 72.763 118.759C72.7379 118.911 72.7088 119.063 72.6749 119.215C72.6481 119.334 72.619 119.453 72.5831 119.57C72.5632 119.634 72.5415 119.699 72.5178 119.762C72.5083 119.788 72.4982 119.813 72.4883 119.839C72.4319 119.985 72.5715 119.658 72.5037 119.8C72.4505 119.912 72.3951 120.022 72.3302 120.128C72.2948 120.186 72.256 120.24 72.2177 120.296C72.1467 120.4 72.2687 120.232 72.2695 120.23C72.2554 120.262 72.2167 120.293 72.1927 120.32C72.1495 120.367 72.1041 120.412 72.0562 120.455C72.0381 120.471 72.0159 120.486 71.9987 120.504C72.1486 120.354 72.1155 120.421 72.0551 120.456C72.0079 120.484 71.9609 120.512 71.9132 120.539C71.793 120.607 72.081 120.487 71.9874 120.508C71.9527 120.516 71.9189 120.531 71.8841 120.54C71.8551 120.548 71.8241 120.551 71.7955 120.559C72.0056 120.499 71.9638 120.543 71.8976 120.542C71.8667 120.542 71.8346 120.542 71.8038 120.543C71.7285 120.546 71.6677 120.499 71.8825 120.559C71.8307 120.544 71.7759 120.534 71.7236 120.521C71.6525 120.504 71.6108 120.445 71.7989 120.557C71.7692 120.539 71.7362 120.527 71.7062 120.509C71.6862 120.498 71.6673 120.485 71.6473 120.473C71.5312 120.405 71.7793 120.592 71.7109 120.525C71.673 120.489 71.6318 120.456 71.5951 120.418C71.5745 120.396 71.5556 120.373 71.5355 120.352C71.4868 120.299 71.478 120.231 71.5816 120.413C71.5512 120.36 71.5113 120.311 71.4798 120.258C71.4474 120.204 71.4174 120.148 71.3894 120.091C71.378 120.067 71.3676 120.044 71.3562 120.021C71.3013 119.909 71.3889 120.102 71.3899 120.103C71.328 119.992 71.2949 119.85 71.2589 119.729C71.1661 119.416 71.1115 119.094 71.053 118.773C70.9758 118.351 70.8987 117.928 70.8214 117.506C70.7464 117.095 70.2259 116.825 69.8416 116.949C69.4014 117.092 69.2051 117.489 69.2854 117.929Z" fill="black"/>
<path d="M71.0817 121.918C71.0817 122.726 71.0817 123.533 71.0817 124.341C71.0817 124.757 71.448 125.157 71.8781 125.137C72.3097 125.118 72.6746 124.787 72.6746 124.341C72.6746 123.533 72.6746 122.726 72.6746 121.918C72.6746 121.502 72.3083 121.102 71.8781 121.122C71.4466 121.141 71.0817 121.472 71.0817 121.918Z" fill="black"/>
<path d="M82.4807 108.723C83.6711 109.519 85.1765 109.902 86.6027 109.767C88.0289 109.631 89.3459 109.045 90.4059 108.079C90.9544 107.58 91.4226 106.97 91.7606 106.31C91.9503 105.939 91.8696 105.428 91.4749 105.22C91.1108 105.027 90.5878 105.109 90.3851 105.505C90.2506 105.768 90.0969 106.021 89.9226 106.259C89.9062 106.282 89.8844 106.306 89.8699 106.33C89.9755 106.154 89.9393 106.241 89.8995 106.291C89.8581 106.343 89.8157 106.394 89.7726 106.445C89.6765 106.557 89.5761 106.665 89.4718 106.769C89.3673 106.874 89.2589 106.974 89.1469 107.07C89.0964 107.113 89.0453 107.156 88.9933 107.197C88.9445 107.236 88.8544 107.276 89.0322 107.168C88.9949 107.191 88.9608 107.221 88.9253 107.247C88.6918 107.415 88.446 107.566 88.19 107.697C88.131 107.728 88.0715 107.757 88.0114 107.785C87.9589 107.81 87.7084 107.908 87.9588 107.812C87.8207 107.865 87.6842 107.919 87.5436 107.965C87.2529 108.059 86.9561 108.123 86.6546 108.17C86.5416 108.188 86.8675 108.146 86.6988 108.163C86.6668 108.167 86.6348 108.17 86.6028 108.173C86.5227 108.181 86.4425 108.187 86.3621 108.191C86.2014 108.2 86.0404 108.201 85.8795 108.196C85.7266 108.191 85.574 108.18 85.422 108.163C85.3646 108.157 85.2418 108.131 85.4659 108.17C85.4343 108.165 85.4022 108.161 85.3704 108.156C85.2751 108.141 85.1799 108.123 85.0854 108.103C84.7453 108.032 84.4172 107.926 84.094 107.8C83.9895 107.759 84.2815 107.884 84.1288 107.814C84.0848 107.794 84.0408 107.774 83.9972 107.753C83.9172 107.715 83.8382 107.676 83.7602 107.634C83.5969 107.546 83.4387 107.45 83.2847 107.347C82.9374 107.115 82.3877 107.268 82.1949 107.633C81.9832 108.034 82.1102 108.476 82.4807 108.723Z" fill="black"/>
<path d="M52.7405 107.494C53.6278 108.599 54.9447 109.393 56.3275 109.692C57.8087 110.013 59.3381 109.792 60.6821 109.097C61.3988 108.726 62.0582 108.205 62.577 107.586C62.7158 107.421 62.8103 107.246 62.8103 107.023C62.8103 106.828 62.7235 106.594 62.577 106.46C62.2819 106.189 61.7366 106.119 61.4506 106.46C61.241 106.71 61.0112 106.941 60.7612 107.151C60.7299 107.177 60.5551 107.318 60.6603 107.234C60.7653 107.15 60.5875 107.286 60.5538 107.31C60.4143 107.409 60.2705 107.501 60.1229 107.587C59.9886 107.665 59.8513 107.737 59.7112 107.804C59.6417 107.837 59.5662 107.863 59.4991 107.9C59.5101 107.894 59.6836 107.826 59.5604 107.873C59.5168 107.89 59.4737 107.907 59.4301 107.924C59.1248 108.037 58.8099 108.125 58.4895 108.186C58.4209 108.199 58.352 108.209 58.2831 108.22C58.1719 108.239 58.4981 108.195 58.3334 108.214C58.3026 108.217 58.2718 108.221 58.241 108.224C58.0712 108.241 57.9006 108.251 57.7299 108.252C57.5758 108.253 57.4217 108.247 57.2681 108.235C57.1927 108.229 57.1128 108.227 57.0388 108.212C57.0481 108.214 57.2468 108.243 57.1135 108.222C57.068 108.214 57.0223 108.207 56.9769 108.2C56.659 108.144 56.3458 108.061 56.0418 107.953C55.9767 107.93 55.9119 107.905 55.8477 107.879C55.7956 107.859 55.6882 107.804 55.8887 107.898C55.861 107.885 55.8323 107.873 55.8043 107.861C55.65 107.791 55.4987 107.715 55.3511 107.633C55.2035 107.55 55.0595 107.461 54.9198 107.366C54.8436 107.314 54.771 107.256 54.695 107.204C54.8721 107.326 54.7726 107.265 54.7289 107.23C54.6869 107.196 54.6454 107.162 54.6044 107.127C54.3345 106.898 54.0885 106.643 53.8668 106.367C53.7471 106.218 53.4857 106.134 53.3037 106.134C53.1083 106.134 52.8749 106.221 52.7405 106.367C52.6012 106.519 52.4977 106.718 52.5072 106.93C52.5172 107.155 52.601 107.32 52.7405 107.494Z" fill="black"/>
<path d="M153.097 158.773C154.979 158.898 156.871 158.866 158.748 158.673C160.705 158.471 162.645 158.112 164.54 157.58C165.39 157.341 166.231 157.068 167.06 156.764C167.258 156.691 167.426 156.585 167.536 156.398C167.635 156.227 167.678 155.975 167.616 155.784C167.492 155.401 167.055 155.073 166.636 155.227C165.087 155.796 163.498 156.253 161.883 156.589C161.408 156.687 160.932 156.775 160.453 156.853C160.209 156.893 159.965 156.93 159.72 156.964C159.683 156.969 159.646 156.973 159.609 156.979C159.609 156.979 159.774 156.958 159.682 156.969C159.626 156.976 159.571 156.984 159.515 156.991C159.374 157.009 159.233 157.026 159.092 157.042C158.09 157.156 157.082 157.224 156.074 157.246C155.081 157.268 154.088 157.245 153.097 157.179C152.68 157.151 152.282 157.566 152.3 157.976C152.321 158.431 152.651 158.743 153.097 158.773Z" fill="black"/>
<path d="M164.901 133.66C164.639 135.6 164.212 137.515 163.619 139.38C163.334 140.277 163.012 141.161 162.656 142.032C162.615 142.133 162.573 142.235 162.531 142.336C162.477 142.465 162.605 142.162 162.529 142.34C162.504 142.397 162.48 142.455 162.455 142.512C162.362 142.727 162.267 142.941 162.171 143.154C161.981 143.572 161.785 143.986 161.581 144.397C160.765 146.046 159.839 147.638 158.848 149.187C157.843 150.756 156.77 152.281 155.669 153.784C155.391 154.164 155.111 154.542 154.83 154.92C154.691 155.107 154.552 155.293 154.413 155.479C154.381 155.522 154.344 155.564 154.315 155.609C154.33 155.585 154.469 155.415 154.381 155.522C154.341 155.571 154.301 155.62 154.26 155.668C153.815 156.191 153.339 156.696 152.833 157.16C152.782 157.207 152.731 157.253 152.678 157.298C152.657 157.316 152.635 157.333 152.614 157.351C152.503 157.445 152.755 157.245 152.694 157.289C152.522 157.416 152.387 157.551 152.328 157.765C152.276 157.956 152.3 158.21 152.409 158.379C152.622 158.71 153.14 158.929 153.498 158.665C154.072 158.242 154.565 157.707 155.044 157.182C155.598 156.574 156.074 155.903 156.563 155.243C157.684 153.728 158.782 152.195 159.816 150.619C160.834 149.068 161.791 147.474 162.641 145.825C163.522 144.117 164.293 142.348 164.915 140.53C165.549 138.68 166.022 136.777 166.326 134.845C166.366 134.592 166.403 134.338 166.437 134.084C166.467 133.862 166.475 133.673 166.356 133.47C166.26 133.305 166.07 133.147 165.88 133.104C165.677 133.058 165.448 133.068 165.267 133.184C165.106 133.288 164.928 133.461 164.901 133.66Z" fill="black"/>
<path d="M82.0777 17.9937C82.4943 17.9937 82.8934 17.6273 82.8741 17.197C82.8548 16.7654 82.5242 16.4004 82.0777 16.4004C81.661 16.4004 81.2619 16.7668 81.2812 17.197C81.3006 17.6286 81.6311 17.9937 82.0777 17.9937Z" fill="black"/>
<path d="M84.7442 17.7515C85.1608 17.7515 85.5599 17.3851 85.5406 16.9549C85.5213 16.5232 85.1907 16.1582 84.7442 16.1582C84.3275 16.1582 83.9284 16.5246 83.9477 16.9549C83.967 17.3864 84.2976 17.7515 84.7442 17.7515Z" fill="black"/>
<path d="M85.4679 20.1734C85.8845 20.1734 86.2837 19.807 86.2644 19.3767C86.2451 18.9451 85.9144 18.5801 85.4679 18.5801C85.0513 18.5801 84.6522 18.9465 84.6714 19.3767C84.6907 19.8083 85.0214 20.1734 85.4679 20.1734Z" fill="black"/>
<path d="M199.211 150.033C199.047 149.439 198.508 149.031 197.912 148.944C197.442 148.875 196.952 148.866 196.479 148.925C195.914 148.995 195.34 149.155 194.929 149.577C194.644 149.869 194.444 150.273 194.394 150.686C194.253 150.784 194.145 150.926 194.107 151.108C193.985 151.694 194.162 152.293 194.612 152.699C195.016 153.065 195.564 153.296 196.115 153.25C196.685 153.202 197.207 152.979 197.673 152.652C198.119 152.34 198.518 152.009 198.845 151.572C199.167 151.141 199.359 150.568 199.211 150.033Z" fill="black"/>
<path d="M200.756 148.522C201.173 148.522 201.572 148.156 201.553 147.725C201.534 147.294 201.203 146.929 200.756 146.929C200.34 146.929 199.941 147.295 199.96 147.725C199.979 148.157 200.31 148.522 200.756 148.522Z" fill="black"/>
<path d="M202.504 149.902C202.921 149.902 203.32 149.536 203.301 149.105C203.282 148.674 202.951 148.309 202.504 148.309C202.088 148.309 201.689 148.675 201.708 149.105C201.727 149.537 202.058 149.902 202.504 149.902Z" fill="black"/>
<path d="M202.666 151.884C202.72 151.884 202.774 151.884 202.828 151.884C202.937 151.888 203.04 151.865 203.135 151.815C203.233 151.783 203.319 151.728 203.391 151.651C203.469 151.578 203.523 151.493 203.556 151.394C203.606 151.299 203.628 151.197 203.624 151.087C203.615 151.017 203.605 150.946 203.596 150.875C203.558 150.741 203.49 150.623 203.391 150.524C203.337 150.482 203.283 150.441 203.23 150.399C203.106 150.327 202.971 150.291 202.828 150.291C202.774 150.291 202.72 150.291 202.666 150.291C202.556 150.286 202.454 150.309 202.359 150.359C202.26 150.391 202.175 150.446 202.103 150.524C202.025 150.596 201.97 150.681 201.938 150.78C201.888 150.875 201.865 150.978 201.87 151.087C201.879 151.158 201.889 151.228 201.898 151.299C201.936 151.434 202.004 151.551 202.103 151.651C202.157 151.692 202.21 151.734 202.264 151.775C202.388 151.847 202.522 151.883 202.666 151.884Z" fill="black"/>
<path d="M134.619 117.678C134.497 118.14 134.356 118.597 134.193 119.046C134.112 119.271 134.024 119.493 133.933 119.714C133.864 119.883 134.007 119.546 133.934 119.713C133.906 119.775 133.879 119.838 133.852 119.9C133.803 120.009 133.753 120.118 133.702 120.226C133.608 120.423 133.562 120.622 133.621 120.84C133.672 121.024 133.815 121.225 133.987 121.316C134.342 121.503 134.887 121.432 135.077 121.03C135.523 120.088 135.89 119.11 136.155 118.101C136.261 117.699 136.022 117.218 135.599 117.121C135.182 117.027 134.733 117.247 134.619 117.678Z" fill="black"/>
<path d="M138.83 113.317C138.728 113.963 138.625 114.61 138.522 115.257C138.488 115.476 138.487 115.672 138.603 115.871C138.699 116.036 138.889 116.194 139.079 116.237C139.283 116.283 139.511 116.273 139.692 116.157C139.855 116.051 140.027 115.881 140.058 115.68C140.161 115.034 140.264 114.387 140.366 113.74C140.401 113.522 140.402 113.325 140.286 113.126C140.189 112.961 140 112.804 139.81 112.76C139.606 112.714 139.377 112.724 139.196 112.841C139.033 112.946 138.862 113.116 138.83 113.317Z" fill="black"/>
<path d="M143.437 106.415C143.437 107.007 143.437 107.6 143.437 108.192C143.437 108.396 143.526 108.611 143.67 108.755C143.809 108.893 144.035 108.997 144.234 108.988C144.665 108.969 145.03 108.638 145.03 108.192C145.03 107.6 145.03 107.007 145.03 106.415C145.03 106.211 144.941 105.996 144.797 105.852C144.659 105.714 144.432 105.61 144.234 105.619C143.802 105.638 143.437 105.969 143.437 106.415Z" fill="black"/>
<path d="M146.183 115.619C146.183 116.104 146.183 116.588 146.183 117.073C146.183 117.277 146.272 117.492 146.416 117.636C146.554 117.774 146.781 117.878 146.979 117.869C147.185 117.86 147.399 117.793 147.542 117.636C147.685 117.48 147.776 117.289 147.776 117.073C147.776 116.588 147.776 116.104 147.776 115.619C147.776 115.415 147.687 115.201 147.542 115.056C147.404 114.918 147.177 114.814 146.979 114.823C146.773 114.832 146.559 114.9 146.416 115.056C146.273 115.212 146.183 115.404 146.183 115.619Z" fill="black"/>
<path d="M142.645 124.502C142.635 124.705 142.617 124.907 142.591 125.108C142.6 125.038 142.61 124.967 142.619 124.897C142.571 125.257 142.499 125.613 142.4 125.963C142.352 126.134 142.297 126.303 142.237 126.47C142.208 126.55 142.178 126.629 142.147 126.707C142.138 126.73 142.128 126.754 142.118 126.777C142.095 126.833 142.106 126.809 142.149 126.704C142.123 126.722 142.1 126.816 142.088 126.843C141.997 127.044 141.947 127.236 142.007 127.457C142.058 127.642 142.201 127.842 142.373 127.933C142.722 128.117 143.28 128.053 143.463 127.647C143.916 126.646 144.181 125.601 144.238 124.502C144.26 124.086 143.857 123.687 143.442 123.706C142.992 123.726 142.669 124.056 142.645 124.502Z" fill="black"/>
<path d="M138.459 125.582C138.358 126.229 138.257 126.876 138.156 127.523C138.121 127.742 138.12 127.938 138.236 128.137C138.333 128.302 138.522 128.46 138.712 128.503C138.916 128.55 139.145 128.54 139.326 128.423C139.489 128.318 139.661 128.147 139.692 127.947C139.793 127.3 139.894 126.653 139.995 126.006C140.029 125.787 140.031 125.591 139.915 125.392C139.818 125.227 139.628 125.069 139.439 125.026C139.235 124.979 139.006 124.989 138.825 125.106C138.662 125.211 138.49 125.382 138.459 125.582Z" fill="black"/>
<path d="M126.021 134.461C125.976 134.582 125.928 134.703 125.879 134.823C125.847 134.901 125.855 134.883 125.903 134.767C125.89 134.797 125.878 134.826 125.865 134.856C125.838 134.915 125.812 134.974 125.785 135.033C125.679 135.261 125.566 135.485 125.445 135.704C125.199 136.151 124.92 136.579 124.613 136.986C124.497 137.14 124.484 137.424 124.533 137.6C124.584 137.785 124.727 137.985 124.899 138.076C125.084 138.174 125.308 138.223 125.513 138.157C125.723 138.089 125.857 137.966 125.989 137.791C126.656 136.904 127.17 135.923 127.557 134.885C127.626 134.701 127.572 134.434 127.477 134.271C127.38 134.105 127.191 133.948 127.001 133.905C126.549 133.802 126.177 134.042 126.021 134.461Z" fill="black"/>
<path d="M128.7 140.252C128.332 140.956 127.964 141.66 127.595 142.364C127.497 142.553 127.458 142.769 127.515 142.978C127.566 143.163 127.709 143.363 127.881 143.454C128.248 143.648 128.765 143.563 128.971 143.168C129.339 142.464 129.707 141.76 130.076 141.056C130.174 140.867 130.214 140.651 130.156 140.442C130.105 140.257 129.962 140.057 129.79 139.966C129.423 139.772 128.906 139.857 128.7 140.252Z" fill="black"/>
<path d="M119.859 127.746C119.662 127.898 119.469 128.049 119.293 128.225C119.114 128.404 118.958 128.601 118.805 128.802C118.535 129.159 118.341 129.55 118.176 129.964C118.104 130.143 118.163 130.418 118.256 130.578C118.353 130.743 118.542 130.901 118.732 130.944C118.936 130.99 119.165 130.98 119.346 130.864C119.399 130.822 119.453 130.781 119.507 130.739C119.606 130.64 119.674 130.522 119.712 130.387C119.722 130.361 119.733 130.335 119.744 130.309C119.717 130.372 119.69 130.436 119.664 130.499C119.8 130.177 119.977 129.874 120.19 129.595C120.148 129.649 120.107 129.703 120.065 129.757C120.279 129.479 120.526 129.231 120.802 129.015C120.749 129.057 120.695 129.098 120.641 129.14C120.649 129.134 120.656 129.128 120.664 129.122C120.756 129.072 120.831 129.004 120.887 128.917C120.957 128.84 121.005 128.75 121.03 128.646C121.082 128.456 121.058 128.202 120.949 128.032C120.84 127.862 120.676 127.713 120.473 127.666C120.28 127.622 120.025 127.619 119.859 127.746Z" fill="black"/>
<path d="M140.062 139.95C139.962 140.31 139.839 140.664 139.694 141.009C139.72 140.946 139.747 140.882 139.774 140.819C139.617 141.187 139.436 141.544 139.231 141.888C139.017 142.246 139.139 142.778 139.517 142.978C139.901 143.181 140.378 143.075 140.606 142.692C141.037 141.97 141.373 141.183 141.598 140.373C141.709 139.972 141.46 139.489 141.041 139.393C140.62 139.297 140.181 139.52 140.062 139.95Z" fill="black"/>
<path d="M100.208 155.132C101.123 154.758 102.039 154.384 102.955 154.01C103.156 153.928 103.318 153.838 103.431 153.644C103.531 153.473 103.574 153.222 103.512 153.03C103.449 152.837 103.33 152.651 103.146 152.554C102.969 152.461 102.726 152.395 102.532 152.474C101.616 152.848 100.7 153.222 99.784 153.596C99.5839 153.678 99.4215 153.768 99.308 153.962C99.2081 154.133 99.1657 154.385 99.2277 154.576C99.29 154.769 99.4095 154.955 99.5938 155.052C99.7703 155.145 100.014 155.212 100.208 155.132Z" fill="black"/>
<path d="M103.921 158.525C104.778 158.25 105.55 157.809 106.231 157.221C106.378 157.093 106.464 156.847 106.464 156.658C106.464 156.462 106.377 156.229 106.231 156.094C106.079 155.955 105.88 155.851 105.668 155.861C105.448 155.871 105.271 155.95 105.104 156.094C105.028 156.161 104.95 156.225 104.87 156.287C104.924 156.246 104.977 156.204 105.031 156.163C104.647 156.459 104.228 156.704 103.782 156.894C103.846 156.867 103.909 156.84 103.973 156.813C103.817 156.879 103.659 156.937 103.498 156.988C103.302 157.051 103.127 157.174 103.022 157.355C102.922 157.525 102.88 157.777 102.942 157.969C103.07 158.365 103.496 158.661 103.921 158.525Z" fill="black"/>
<path d="M112.221 161.112C112.288 161.054 112.357 160.997 112.427 160.942C112.373 160.984 112.319 161.025 112.265 161.067C112.569 160.833 112.9 160.639 113.253 160.489C113.19 160.516 113.126 160.543 113.063 160.569C113.186 160.518 113.311 160.472 113.438 160.431C113.634 160.368 113.809 160.245 113.914 160.065C114.014 159.894 114.056 159.642 113.994 159.451C113.932 159.258 113.813 159.072 113.628 158.975C113.443 158.877 113.22 158.829 113.015 158.895C112.3 159.124 111.659 159.492 111.095 159.986C110.947 160.115 110.861 160.359 110.861 160.549C110.861 160.744 110.948 160.978 111.095 161.112C111.246 161.252 111.446 161.355 111.658 161.346C111.877 161.336 112.055 161.257 112.221 161.112Z" fill="black"/>
<path d="M124.085 162.007C124.817 161.063 125.548 160.119 126.28 159.175C126.415 159 126.513 158.843 126.513 158.612C126.513 158.416 126.426 158.183 126.28 158.048C126.128 157.909 125.929 157.806 125.716 157.815C125.521 157.824 125.279 157.886 125.153 158.048C124.422 158.993 123.69 159.937 122.959 160.881C122.823 161.056 122.725 161.213 122.725 161.444C122.725 161.64 122.812 161.873 122.959 162.007C123.111 162.147 123.31 162.25 123.522 162.241C123.717 162.232 123.959 162.17 124.085 162.007Z" fill="black"/>
<path d="M124.124 150.893C124.551 150.406 124.979 149.919 125.406 149.432C125.547 149.272 125.64 149.087 125.64 148.869C125.64 148.673 125.553 148.44 125.406 148.305C125.254 148.166 125.055 148.062 124.843 148.072C124.64 148.081 124.419 148.147 124.28 148.305C123.853 148.792 123.425 149.28 122.998 149.767C122.857 149.927 122.765 150.112 122.765 150.33C122.765 150.526 122.851 150.759 122.998 150.893C123.15 151.033 123.349 151.136 123.561 151.127C123.764 151.118 123.985 151.052 124.124 150.893Z" fill="black"/>
<path d="M51.04 126.069C51.6059 125.412 52.209 124.787 52.8479 124.2C53.164 123.91 53.4886 123.629 53.8212 123.357C53.9027 123.291 53.9845 123.225 54.067 123.16C54.1081 123.127 54.1496 123.095 54.1909 123.062C54.3251 122.956 54.0704 123.154 54.196 123.058C54.3774 122.921 54.5599 122.784 54.7449 122.651C54.9176 122.527 55.0525 122.387 55.1109 122.175C55.1634 121.985 55.1398 121.731 55.0306 121.561C54.815 121.227 54.3026 121.015 53.9409 121.276C52.4612 122.34 51.1034 123.561 49.9137 124.943C49.642 125.258 49.5805 125.763 49.9137 126.069C50.212 126.343 50.7496 126.407 51.04 126.069Z" fill="black"/>
<path d="M49.2131 122.471C49.7702 121.935 50.3433 121.415 50.9326 120.914C51.2202 120.669 51.5116 120.429 51.8066 120.194C51.8858 120.131 51.9652 120.068 52.0449 120.005C52.0811 119.977 52.1173 119.948 52.1537 119.92C52.2367 119.855 52.2182 119.874 52.1453 119.926C52.3097 119.809 52.4675 119.68 52.6297 119.559C52.8021 119.431 52.9364 119.299 52.9958 119.083C53.0482 118.893 53.0246 118.639 52.9154 118.469C52.703 118.14 52.183 117.917 51.8257 118.184C50.5157 119.16 49.2637 120.211 48.0866 121.344C47.7859 121.634 47.7737 122.184 48.0866 122.471C48.4096 122.768 48.8923 122.78 49.2131 122.471Z" fill="black"/>
<path d="M48.2123 118.398C48.333 118.288 48.458 118.183 48.5872 118.083C48.5334 118.125 48.4797 118.166 48.4259 118.208C48.8228 117.904 49.2555 117.651 49.7154 117.455C49.8856 117.383 50.0349 117.148 50.0814 116.979C50.1339 116.789 50.1102 116.535 50.0011 116.365C49.8915 116.195 49.7282 116.046 49.5251 115.999C49.4545 115.99 49.384 115.98 49.3133 115.971C49.1695 115.971 49.0356 116.007 48.9113 116.08C48.2387 116.366 47.6262 116.78 47.0858 117.271C46.9391 117.405 46.8525 117.64 46.8525 117.834C46.8525 118.03 46.9393 118.263 47.0858 118.398C47.2377 118.537 47.4369 118.641 47.649 118.631C47.8661 118.621 48.0501 118.545 48.2123 118.398Z" fill="black"/>
<path d="M94.8325 126.043C95.2042 126.298 95.5719 126.559 95.9351 126.826C96.1167 126.959 96.2972 127.094 96.4767 127.231C96.5197 127.264 96.5627 127.296 96.6057 127.329C96.6271 127.346 96.6481 127.363 96.67 127.379C96.67 127.379 96.546 127.283 96.6158 127.337C96.7082 127.409 96.8008 127.481 96.8927 127.554C97.6074 128.118 98.3034 128.706 98.9788 129.317C99.3601 129.661 99.7345 130.013 100.103 130.372C100.401 130.663 100.935 130.692 101.229 130.372C101.518 130.057 101.548 129.556 101.229 129.245C99.875 127.927 98.43 126.706 96.9132 125.579C96.4935 125.267 96.0677 124.963 95.6365 124.667C95.2919 124.431 94.7377 124.591 94.5467 124.953C94.3328 125.358 94.4648 125.791 94.8325 126.043Z" fill="black"/>
<path d="M99.3098 124.821C100.595 125.798 101.88 126.776 103.165 127.754C103.318 127.87 103.603 127.882 103.778 127.834C103.963 127.783 104.163 127.64 104.254 127.468C104.352 127.283 104.401 127.059 104.335 126.854C104.267 126.643 104.143 126.511 103.969 126.378C102.684 125.4 101.399 124.423 100.114 123.445C99.9607 123.328 99.6758 123.316 99.5001 123.365C99.3154 123.415 99.1151 123.558 99.0241 123.731C98.9264 123.916 98.8775 124.14 98.9438 124.345C99.0119 124.555 99.1352 124.688 99.3098 124.821Z" fill="black"/>
<path d="M101.729 122.338C102.552 122.557 103.363 122.82 104.156 123.13C104.257 123.169 104.358 123.21 104.459 123.251C104.501 123.268 104.543 123.285 104.584 123.302C104.609 123.313 104.634 123.323 104.66 123.334C104.561 123.292 104.539 123.283 104.594 123.306C104.786 123.389 104.976 123.472 105.166 123.559C105.561 123.74 105.95 123.934 106.334 124.137C106.702 124.332 107.217 124.243 107.424 123.852C107.619 123.483 107.531 122.97 107.138 122.762C105.559 121.924 103.881 121.26 102.153 120.802C101.751 120.695 101.269 120.936 101.173 121.358C101.078 121.776 101.299 122.224 101.729 122.338Z" fill="black"/>
<path d="M83.547 23.0951C83.3405 22.5261 82.9306 22.1086 82.3567 21.9063C81.9325 21.7567 81.4569 21.7909 81.031 21.9388C80.9005 21.8994 80.7604 21.8971 80.6228 21.9498C80.1213 22.142 79.6595 22.4275 79.3114 22.8436C78.9683 23.2539 78.697 23.7309 78.586 24.2592C78.4586 24.8648 78.5027 25.4581 78.7478 26.0272C78.9776 26.5606 79.4846 27.0074 80.0636 27.1139C81.226 27.3277 82.3021 26.5783 82.9678 25.6862C83.2318 25.3324 83.4348 24.9141 83.549 24.4878C83.6666 24.048 83.7051 23.5307 83.547 23.0951Z" fill="black"/>
</g>
</g>
<defs>
<clipPath id="clip0_12068_8861">
<rect width="219.81" height="219.81" rx="109.905" fill="white"/>
</clipPath>
</defs>
</svg>
