<svg width="48" height="61" viewBox="0 0 48 61" fill="none" xmlns="http://www.w3.org/2000/svg">
<path d="M39.7138 1.60686C39.4519 1.40318 39.0882 1.40318 38.8264 1.60686C37.4442 2.66165 33.3633 6.10244 33.3851 10.1106C33.3851 13.355 36.0257 16.0029 39.2774 16.0029C42.529 16.0029 45.1696 13.3623 45.1696 10.1179C45.1769 6.16791 41.0887 2.66893 39.7138 1.60686Z" fill="#D18D84"/>
<path d="M39.173 4.37542C38.9112 4.17174 38.5475 4.17174 38.2856 4.37542C36.9034 5.43021 32.8225 8.871 32.8443 12.8792C32.8443 16.1236 35.4849 18.7715 38.7366 18.7715C41.9882 18.7715 44.6288 16.1308 44.6288 12.8865C44.6361 8.93647 40.5479 5.43748 39.173 4.37542Z" stroke="#933A35" stroke-width="1.2" stroke-miterlimit="10"/>
<path d="M24.6445 16.1438C23.9695 15.6188 23.032 15.6188 22.357 16.1438C18.7945 18.8625 8.27576 27.7312 8.33201 38.0625C8.33201 46.425 15.1383 53.25 23.5195 53.25C31.9008 53.25 38.707 46.4438 38.707 38.0812C38.7257 27.9 28.1882 18.8813 24.6445 16.1438Z" fill="#D18D84"/>
<path d="M24.6445 16.1438C23.9695 15.6188 23.032 15.6188 22.357 16.1438C18.7945 18.8625 8.27576 27.7312 8.33201 38.0625C8.33201 46.425 15.1383 53.25 23.5195 53.25C31.9008 53.25 38.707 46.4438 38.707 38.0812C38.7257 27.9 28.1882 18.8813 24.6445 16.1438Z" fill="#D18D84"/>
<path d="M23.6445 20.1438C22.9695 19.6188 22.032 19.6188 21.357 20.1438C17.7945 22.8625 7.27576 31.7312 7.33201 42.0625C7.33201 50.425 14.1383 57.25 22.5195 57.25C30.9008 57.25 37.707 50.4437 37.707 42.0812C37.7257 31.9 27.1882 22.8813 23.6445 20.1438Z" stroke="#933A35" stroke-width="1.7" stroke-miterlimit="10"/>
</svg>
