<svg width="225" height="225" viewBox="0 0 225 225" fill="none" xmlns="http://www.w3.org/2000/svg">
<path d="M219.792 205.052C219.792 213.178 213.178 219.792 205.052 219.792H19.9616C11.8216 219.792 5.20801 213.178 5.20801 205.052V33.6844C5.20801 25.5444 11.8216 18.9307 19.9616 18.9307H34.8358V30.0562C34.8358 31.5021 36.0005 32.6669 37.433 32.6669C38.8655 32.6669 40.0437 31.5021 40.0437 30.0562V18.9307H72.3625V30.0562C72.3625 31.5021 73.5273 32.6669 74.9732 32.6669C76.4057 32.6669 77.5705 31.5021 77.5705 30.0562V18.9307H109.903V30.0562C109.903 31.5021 111.067 32.6669 112.5 32.6669C113.932 32.6669 115.111 31.5021 115.111 30.0562V18.9307H147.429V30.0562C147.429 31.5021 148.594 32.6669 150.04 32.6669C151.473 32.6669 152.637 31.5021 152.637 30.0562V18.9307H184.97V30.0562C184.97 31.5021 186.134 32.6669 187.567 32.6669C188.999 32.6669 190.164 31.5021 190.164 30.0562V18.9307H205.052C213.178 18.9307 219.792 25.5444 219.792 33.6844V205.052ZM205.052 13.7228H190.164V2.59723C190.164 1.1647 188.999 1.53214e-05 187.567 1.53214e-05C186.134 1.53214e-05 184.97 1.1647 184.97 2.59723V13.7228H152.637V2.59723C152.637 1.1647 151.473 1.53214e-05 150.04 1.53214e-05C148.594 1.53214e-05 147.429 1.1647 147.429 2.59723V13.7228H115.111V2.59723C115.111 1.1647 113.932 1.53214e-05 112.5 1.53214e-05C111.067 1.53214e-05 109.903 1.1647 109.903 2.59723V13.7228H77.5705V2.59723C77.5705 1.1647 76.4057 1.53214e-05 74.9732 1.53214e-05C73.5273 1.53214e-05 72.3625 1.1647 72.3625 2.59723V13.7228H40.0437V2.59723C40.0437 1.1647 38.8655 1.53214e-05 37.433 1.53214e-05C36.0005 1.53214e-05 34.8358 1.1647 34.8358 2.59723V13.7228H19.9616C8.95657 13.7228 0 22.6794 0 33.6844V205.052C0 216.043 8.95657 225 19.9616 225H205.052C216.057 225 225 216.043 225 205.052V33.6844C225 22.6794 216.057 13.7228 205.052 13.7228Z" fill="#4D4D4D"/>
<path d="M40.3254 63.486H184.676C186.122 63.486 187.286 62.3212 187.286 60.8753C187.286 59.4428 186.122 58.2781 184.676 58.2781H40.3254C38.8795 58.2781 37.7147 59.4428 37.7147 60.8753C37.7147 62.3212 38.8795 63.486 40.3254 63.486Z" fill="#4D4D4D"/>
<path d="M127.441 97.424C126.009 97.424 124.831 98.5888 124.831 100.021C124.831 101.454 126.009 102.619 127.441 102.619H141.124C142.556 102.619 143.721 101.454 143.721 100.021C143.721 98.5888 142.556 97.424 141.124 97.424H127.441Z" fill="#4D4D4D"/>
<path d="M184.675 97.424H170.993C169.56 97.424 168.396 98.5888 168.396 100.021C168.396 101.454 169.56 102.619 170.993 102.619H184.675C186.121 102.619 187.286 101.454 187.286 100.021C187.286 98.5888 186.121 97.424 184.675 97.424Z" fill="#4D4D4D"/>
<path d="M40.3254 102.619H54.0081C55.4406 102.619 56.6053 101.454 56.6053 100.021C56.6053 98.5888 55.4406 97.424 54.0081 97.424H40.3254C38.8795 97.424 37.7147 98.5888 37.7147 100.021C37.7147 101.454 38.8795 102.619 40.3254 102.619Z" fill="#4D4D4D"/>
<path d="M83.8769 97.424C82.4444 97.424 81.2796 98.5888 81.2796 100.021C81.2796 101.454 82.4444 102.619 83.8769 102.619H97.5596C99.0055 102.619 100.17 101.454 100.17 100.021C100.17 98.5888 99.0055 97.424 97.5596 97.424H83.8769Z" fill="#4D4D4D"/>
<path d="M40.3254 141.765H54.0081C55.4406 141.765 56.6053 140.6 56.6053 139.168C56.6053 137.722 55.4406 136.557 54.0081 136.557H40.3254C38.8795 136.557 37.7147 137.722 37.7147 139.168C37.7147 140.6 38.8795 141.765 40.3254 141.765Z" fill="#4D4D4D"/>
<path d="M100.665 129.22C99.6474 128.216 98.0007 128.216 96.9832 129.22L90.7175 135.486L84.4654 129.22C83.4479 128.216 81.8011 128.216 80.7836 129.22C79.7662 130.238 79.7662 131.884 80.7836 132.902L87.0358 139.168L80.7836 145.42C79.7662 146.437 79.7662 148.084 80.7836 149.101C81.2924 149.61 81.9617 149.865 82.6177 149.865C83.2871 149.865 83.9566 149.61 84.4654 149.101L90.7175 142.849L96.9832 149.101C97.492 149.61 98.1479 149.865 98.8173 149.865C99.4867 149.865 100.156 149.61 100.665 149.101C101.682 148.084 101.682 146.437 100.665 145.42L94.3992 139.168L100.665 132.902C101.682 131.884 101.682 130.238 100.665 129.22Z" fill="#4D4D4D"/>
<path d="M57.1001 168.368C56.0826 167.351 54.4359 167.351 53.4184 168.368L47.1661 174.621L40.9005 168.368C39.883 167.351 38.2363 167.351 37.2188 168.368C36.2013 169.386 36.2013 171.033 37.2188 172.05L43.4844 178.302L37.2188 184.568C36.2013 185.586 36.2013 187.232 37.2188 188.25C37.7276 188.758 38.3969 189.013 39.0663 189.013C39.7357 189.013 40.3918 188.758 40.9005 188.25L47.1661 181.984L53.4184 188.25C53.9271 188.758 54.5965 189.013 55.2659 189.013C55.9219 189.013 56.5913 188.758 57.1001 188.25C58.1176 187.232 58.1176 185.586 57.1001 184.568L50.8478 178.302L57.1001 172.05C58.1176 171.033 58.1176 169.386 57.1001 168.368Z" fill="#4D4D4D"/>
<path d="M144.216 129.22C143.199 128.216 141.552 128.216 140.535 129.22L134.282 135.486L128.017 129.22C127.013 128.216 125.353 128.216 124.348 129.22C123.331 130.238 123.331 131.884 124.348 132.902L130.601 139.168L124.348 145.42C123.331 146.437 123.331 148.084 124.348 149.101C124.844 149.61 125.513 149.865 126.183 149.865C126.852 149.865 127.508 149.61 128.017 149.101L134.282 142.849L140.535 149.101C141.043 149.61 141.713 149.865 142.382 149.865C143.038 149.865 143.708 149.61 144.216 149.101C145.234 148.084 145.234 146.437 144.216 145.42L137.964 139.168L144.216 132.902C145.234 131.884 145.234 130.238 144.216 129.22Z" fill="#4D4D4D"/>
<path d="M187.781 129.22C186.763 128.216 185.117 128.216 184.099 129.22L177.834 135.486L171.581 129.22C170.564 128.216 168.917 128.216 167.9 129.22C166.882 130.238 166.882 131.884 167.9 132.902L174.165 139.168L167.9 145.42C166.882 146.437 166.882 148.084 167.9 149.101C168.408 149.61 169.078 149.865 169.747 149.865C170.403 149.865 171.073 149.61 171.581 149.101L177.834 142.849L184.099 149.101C184.608 149.61 185.277 149.865 185.933 149.865C186.603 149.865 187.272 149.61 187.781 149.101C188.798 148.084 188.798 146.437 187.781 145.42L181.515 139.168L187.781 132.902C188.798 131.884 188.798 130.238 187.781 129.22Z" fill="#4D4D4D"/>
<path d="M141.124 175.705H127.441C126.009 175.705 124.831 176.87 124.831 178.303C124.831 179.749 126.009 180.913 127.441 180.913H141.124C142.556 180.913 143.721 179.749 143.721 178.303C143.721 176.87 142.556 175.705 141.124 175.705Z" fill="#4D4D4D"/>
<path d="M97.5596 175.705H83.8769C82.4444 175.705 81.2796 176.87 81.2796 178.303C81.2796 179.749 82.4444 180.913 83.8769 180.913H97.5596C99.0055 180.913 100.17 179.749 100.17 178.303C100.17 176.87 99.0055 175.705 97.5596 175.705Z" fill="#4D4D4D"/>
</svg>
