<svg width="235" height="235" viewBox="0 0 235 235" fill="none" xmlns="http://www.w3.org/2000/svg">
<path d="M226.509 82.7313C217.649 91.5898 193.166 82.0755 173.045 61.9631C162.902 51.8198 155.225 40.4723 151.429 30.0346C147.92 20.3865 148.228 12.5316 152.271 8.49033C154.445 6.32251 157.722 5.22524 161.789 5.22524C165.28 5.22524 169.355 6.02815 173.811 7.64731C184.254 11.4477 195.592 19.1287 205.735 29.2719C225.854 49.3844 235.369 73.8727 226.509 82.7313ZM204.08 105.252C201.951 109.534 199.75 113.95 194.726 118.968C188.2 125.499 183.435 127.76 178.825 129.941C174.92 131.801 171.231 133.554 167.212 137.569C163.194 141.597 161.441 145.277 159.586 149.184C157.396 153.801 155.13 158.565 148.62 165.068C148.616 165.081 148.536 165.162 148.53 165.162C142.047 171.652 137.132 173.726 132.378 175.746C128.306 177.459 124.46 179.092 120.401 183.146C116.512 187.04 114.399 190.265 112.165 193.678C109.555 197.652 106.598 202.162 99.95 208.812C80.9696 226.248 69.796 225.178 55.6463 223.813C51.1929 223.385 46.5911 222.93 41.3535 222.983C34.1957 223.05 28.5112 225.258 23.4958 227.212C16.1105 230.076 12.3677 231.267 8.05352 226.944C3.73931 222.635 4.92626 218.889 7.79661 211.502C9.74496 206.497 11.9542 200.81 12.0131 193.651C12.0559 188.419 11.613 183.816 11.1848 179.359C9.82389 165.202 8.74933 154.028 26.1842 135.053C32.8375 128.403 37.3484 125.445 41.3281 122.836C44.7377 120.601 47.9586 118.487 51.8487 114.606C55.9073 110.538 57.5358 106.698 59.2607 102.63C61.2733 97.8658 63.3541 92.9548 69.9138 86.3978C76.4386 79.8676 81.2038 77.6061 85.8124 75.4115C89.7198 73.5649 93.4091 71.8119 97.4276 67.784C101.446 63.7696 103.199 60.0763 105.055 56.1823C107.244 51.5656 109.508 46.8017 116.02 40.2849C116.024 40.2849 116.104 40.2046 116.11 40.2046C121.058 35.2534 125.475 33.0455 129.747 30.9178C134.3 28.6563 138.968 26.3146 143.939 20.9352C144.267 24.2806 145.123 27.9204 146.538 31.8144C150.588 42.9613 158.696 54.9645 169.366 65.643C180.036 76.3081 192.047 84.4173 203.19 88.4585C207.077 89.877 210.721 90.7468 214.065 91.0679C208.681 96.0325 206.348 100.703 204.08 105.252ZM209.414 25.592C198.745 14.9135 186.732 6.81766 175.589 2.76306C163.793 -1.53244 154.204 -0.79648 148.592 4.8104C146.752 6.65705 145.447 8.93197 144.662 11.5548C138.524 20.7211 133.375 23.3038 127.425 26.2611C122.997 28.469 117.978 30.9714 112.444 36.5114C112.439 36.5114 112.359 36.5916 112.355 36.5916C105.194 43.7507 102.624 49.1703 100.354 53.9475C98.6252 57.5873 97.1305 60.732 93.7476 64.1041C90.3648 67.4896 87.2201 68.9884 83.5803 70.7146C78.8058 72.9894 73.3943 75.5587 66.1603 82.7982C58.9583 89.9974 56.5737 95.6311 54.4688 100.596C52.8817 104.342 51.5115 107.581 48.1701 110.926C44.6588 114.432 41.7924 116.306 38.4751 118.487C34.2854 121.23 29.5363 124.348 22.5056 131.373C22.4802 131.4 22.3785 131.507 22.353 131.534C3.34855 152.222 4.57966 165.028 6.0048 179.855C6.42096 184.177 6.85051 188.646 6.81037 193.611C6.75818 199.806 4.73354 205.025 2.9471 209.615C0.128942 216.868 -2.53132 223.719 4.3749 230.624C7.61591 233.876 10.8422 235 14.1046 235C17.7953 235 21.5314 233.555 25.3813 232.056C29.9792 230.263 35.1913 228.242 41.395 228.189C46.3582 228.149 50.8277 228.577 55.1486 228.992C69.9767 230.424 82.7815 231.655 103.469 212.653C103.496 212.626 103.599 212.519 103.625 212.492C110.657 205.467 113.771 200.716 116.516 196.528C118.691 193.209 120.57 190.346 124.08 186.826C127.422 183.494 130.659 182.116 134.408 180.537C139.376 178.423 145.008 176.041 152.197 168.855C152.201 168.855 152.281 168.775 152.285 168.761C159.446 161.602 162.016 156.196 164.286 151.419C166.015 147.779 167.508 144.634 170.891 141.249C174.275 137.877 177.419 136.378 181.058 134.652C185.833 132.377 191.244 129.808 198.48 122.568C204.028 117.028 206.53 112.01 208.737 107.581C211.705 101.626 214.283 96.4741 223.469 90.3186C226.087 89.5425 228.355 88.2445 230.187 86.4112C241.416 75.1841 232.292 48.4611 209.414 25.592Z" fill="#4D4D4D"/>
</svg>
