<svg width="259" height="259" viewBox="0 0 259 259" fill="none" xmlns="http://www.w3.org/2000/svg">
<path d="M19.1721 170.42L6.26415 157.503L157.507 6.25847L170.418 19.1757L19.1721 170.42ZM176.68 19.1757C176.68 18.4818 176.407 17.828 175.921 17.3342L159.342 0.760589C158.329 -0.253581 156.685 -0.253581 155.674 0.760589L0.759624 155.675C-0.253208 156.689 -0.253208 158.33 0.759624 159.344L17.3385 175.918C17.8443 176.425 18.5089 176.678 19.1721 176.678C19.8366 176.678 20.5012 176.425 21.0069 175.918L175.921 21.0039C176.408 20.5235 176.68 19.8563 176.68 19.1757Z" fill="#4D4D4D"/>
<path d="M258.239 61.2643C257.227 60.2501 255.583 60.2501 254.57 61.2643L235.509 80.3199L230.164 74.9688C229.151 73.9546 227.507 73.9546 226.494 74.9688C225.481 75.983 225.481 77.6243 226.494 78.6385L231.84 83.9896L213.862 101.964L208.517 96.6133C207.505 95.6125 205.861 95.6125 204.848 96.6133C203.835 97.6275 203.835 99.2822 204.848 100.283L210.194 105.634L192.217 123.609L186.871 118.271C185.858 117.257 184.214 117.257 183.202 118.271C182.188 119.285 182.188 120.927 183.202 121.941L188.548 127.278L170.571 145.253L165.225 139.916C164.212 138.901 162.568 138.901 161.557 139.916C160.542 140.93 160.542 142.571 161.557 143.585L166.902 148.923L148.924 166.898L143.579 161.56C142.565 160.546 140.922 160.546 139.91 161.56C138.897 162.574 138.897 164.215 139.91 165.23L145.255 170.567L127.278 188.555L121.932 183.204C120.921 182.19 119.277 182.19 118.264 183.204C117.251 184.219 117.251 185.86 118.264 186.874L123.61 192.225L105.632 210.2L100.286 204.849C99.2735 203.835 97.6295 203.835 96.618 204.849C95.6039 205.863 95.6039 207.504 96.618 208.519L101.962 213.87L83.985 231.844L78.6406 226.493C77.6277 225.479 75.9837 225.479 74.9709 226.493C73.958 227.507 73.958 229.149 74.9709 230.163L80.3166 235.514L61.2556 254.57C60.2415 255.584 60.2415 257.225 61.2556 258.239C61.7614 258.746 62.4259 259 63.0891 259C63.7537 259 64.4169 258.746 64.9239 258.239L83.985 239.184L89.3307 244.521C89.8377 245.029 90.5009 245.282 91.1655 245.282C91.8287 245.282 92.4933 245.029 92.999 244.521C94.0132 243.507 94.0132 241.866 92.999 240.852L87.6533 235.514L105.632 217.539L110.976 222.877C111.484 223.384 112.148 223.638 112.811 223.638C113.474 223.638 114.139 223.384 114.645 222.877C115.659 221.863 115.659 220.221 114.645 219.207L109.3 213.87L127.278 195.881L132.624 201.233C133.129 201.74 133.794 201.993 134.457 201.993C135.122 201.993 135.786 201.74 136.292 201.233C137.305 200.218 137.305 198.577 136.292 197.563L130.946 192.225L148.924 174.237L154.269 179.588C154.776 180.095 155.44 180.349 156.104 180.349C156.767 180.349 157.432 180.095 157.938 179.588C158.952 178.574 158.952 176.933 157.938 175.918L152.592 170.567L170.571 152.593L175.915 157.944C176.422 158.451 177.085 158.704 177.75 158.704C178.415 158.704 179.078 158.451 179.584 157.944C180.598 156.93 180.598 155.288 179.584 154.274L174.239 148.923L192.217 130.948L197.562 136.299C198.068 136.806 198.733 137.06 199.397 137.06C200.06 137.06 200.725 136.806 201.231 136.299C202.243 135.285 202.243 133.644 201.231 132.63L195.885 127.278L213.862 109.304L219.208 114.655C219.714 115.162 220.378 115.402 221.043 115.402C221.706 115.402 222.371 115.162 222.876 114.655C223.891 113.641 223.891 111.999 222.876 110.985L217.531 105.634L235.509 87.6592L240.854 92.997C241.36 93.5041 242.024 93.7576 242.689 93.7576C243.352 93.7576 244.016 93.5041 244.522 92.997C245.536 91.9828 245.536 90.3415 244.522 89.3273L239.178 83.9896L258.239 64.9206C259.253 63.9198 259.253 62.2651 258.239 61.2643Z" fill="#4D4D4D"/>
</svg>
