<svg width="259" height="259" viewBox="0 0 259 259" fill="none" xmlns="http://www.w3.org/2000/svg">
<path d="M252.59 11.9066V11.92C250.641 13.8692 212.106 61.0903 198.685 78.2858L180.715 60.316C197.908 46.8986 245.137 8.35547 247.087 6.40628C248.652 4.84426 251.103 4.80419 252.668 6.31279C252.672 6.32614 252.677 6.3261 252.683 6.3261H252.684C254.198 7.90147 254.157 10.3446 252.59 11.9066ZM187.229 110.795C183.4 102.45 178.075 94.6404 171.219 87.7782C164.458 81.0228 156.69 75.6424 148.264 71.744L172.144 59.1277L199.866 86.8569L187.229 110.795ZM174.523 188.762L70.2373 84.4671C83.0485 74.8413 98.5459 69.6214 114.855 69.6214C134.759 69.6214 153.473 77.3781 167.549 91.4496C194.045 117.951 196.356 159.591 174.523 188.762ZM171.137 204.102C167.997 207.253 162.884 207.253 159.741 204.102L54.8921 99.2597C53.3702 97.7377 52.5318 95.7084 52.5318 93.559C52.5318 91.4095 53.3702 89.3802 54.8921 87.8582C56.4141 86.3363 58.438 85.5086 60.5902 85.5086C62.7423 85.5086 64.7662 86.3363 66.2895 87.8582L171.137 192.714C174.28 195.851 174.28 200.965 171.137 204.102ZM59.4914 253.419L5.57637 199.509C8.94205 189.803 28.2604 135.76 51.9003 103.612L155.393 207.106C123.239 230.736 69.2013 250.055 59.4914 253.419ZM256.605 2.92169C256.529 2.82824 256.445 2.73483 256.351 2.64139C256.339 2.62803 256.327 2.62806 256.315 2.60136C256.238 2.53459 256.156 2.45441 256.072 2.38767C252.445 -0.909929 246.939 -0.789687 243.425 2.73486C241.538 4.55055 194.016 43.3873 176.989 56.6311L174.46 54.1079C173.655 53.3069 172.42 53.12 171.412 53.654L142.021 69.1674C133.426 66.0567 124.266 64.4412 114.855 64.4412C114.854 64.4412 114.855 64.4412 114.854 64.4412C96.8277 64.4412 79.7296 70.3957 65.7689 81.3699C64.1521 80.6757 62.4005 80.3151 60.5902 80.3151C57.0523 80.3151 53.724 81.6903 51.2221 84.1868C48.7188 86.6967 47.341 90.0211 47.341 93.559C47.341 95.5749 47.8003 97.5107 48.6454 99.273C21.8934 134.759 1.10658 196.465 0.133324 199.376C-0.177745 200.31 0.0652289 201.338 0.760795 202.033L56.9655 258.239C57.4595 258.733 58.123 259 58.8012 259C59.0762 259 59.3526 258.96 59.6222 258.866C62.5353 257.892 124.246 237.105 159.733 210.35C161.533 211.204 163.483 211.658 165.439 211.658C168.833 211.658 172.225 210.363 174.809 207.773C178.736 203.848 179.67 198.054 177.623 193.221C194.816 171.259 198.876 142.315 189.793 117.056L205.351 87.5912C205.883 86.5766 205.695 85.3483 204.89 84.5339L202.363 82.0107C215.604 64.9887 254.41 17.5139 256.267 15.578C259.786 12.0535 259.915 6.55306 256.605 2.92169Z" fill="#4D4D4D"/>
</svg>
