<svg width="259" height="259" viewBox="0 0 259 259" fill="none" xmlns="http://www.w3.org/2000/svg">
<path d="M149.819 58.8868C145.155 58.8868 140.492 60.6534 136.94 64.2001L64.2082 136.94C57.1069 144.034 57.1069 155.597 64.2082 162.69L96.2982 194.784C99.7218 198.211 104.296 200.098 109.177 200.098C114.058 200.098 118.633 198.211 122.056 194.784L194.789 122.058C198.213 118.631 200.099 114.054 200.099 109.169C200.099 104.298 198.213 99.7203 194.789 96.2941L162.7 64.2001C159.149 60.6534 154.484 58.8868 149.819 58.8868ZM109.177 205.304C102.906 205.304 97.0249 202.868 92.619 198.465L60.5291 166.371C51.3988 157.243 51.3988 142.387 60.5291 133.26L133.261 60.533C142.392 51.392 157.249 51.392 166.379 60.533L198.468 92.6136C202.875 97.0302 205.303 102.906 205.303 109.169C205.303 115.446 202.875 121.322 198.468 125.738L125.736 198.465C121.33 202.868 115.449 205.304 109.177 205.304Z" fill="#4D4D4D"/>
<path d="M177.782 117.842C177.472 117.842 177.157 117.789 176.85 117.668L127.69 98.7706C126.349 98.262 125.678 96.7631 126.195 95.4113C126.709 94.073 128.215 93.4037 129.557 93.9123L178.717 112.81C180.058 113.332 180.728 114.831 180.212 116.169C179.814 117.213 178.829 117.842 177.782 117.842Z" fill="#4D4D4D"/>
<path d="M154.077 141.545C153.768 141.545 153.452 141.491 153.145 141.371L103.986 122.486C102.645 121.964 101.974 120.465 102.491 119.114C103.005 117.775 104.51 117.106 105.851 117.628L155.012 136.512C156.353 137.034 157.022 138.533 156.507 139.872C156.11 140.916 155.123 141.545 154.077 141.545Z" fill="#4D4D4D"/>
<path d="M130.374 165.247C130.064 165.247 129.748 165.194 129.44 165.073L80.2807 146.189C78.9397 145.667 78.2705 144.168 78.7858 142.816C79.3011 141.478 80.8068 140.809 82.1478 141.33L131.307 160.215C132.648 160.737 133.319 162.236 132.802 163.574C132.406 164.618 131.42 165.247 130.374 165.247Z" fill="#4D4D4D"/>
<path d="M155.197 5.17894C151.423 5.17894 146.695 6.62441 140.885 12.4329L12.4337 140.876C3.29137 150.03 4.955 156.495 6.05514 160.777L6.14074 161.099C11.7659 183.155 23.2893 203.351 39.4647 219.532C55.6402 235.713 75.8442 247.236 97.8924 252.857L98.2244 252.937C102.504 254.048 108.971 255.708 118.114 246.567L246.563 118.11C255.706 108.969 254.042 102.505 252.942 98.2222L252.856 97.8876C247.233 75.8447 235.708 55.6354 219.532 39.4679C203.357 23.2871 183.153 11.7637 161.106 6.14259L160.774 6.04888C159.214 5.64738 157.363 5.17894 155.197 5.17894ZM103.701 259C100.877 259 98.5736 258.398 96.9288 257.983L96.6062 257.903C73.6533 252.04 52.6208 240.049 35.7855 223.212C18.9489 206.376 6.95451 185.336 1.09782 162.397L1.01483 162.076C-0.121442 157.646 -2.48766 148.451 8.75461 137.209L137.206 8.75241C148.447 -2.48986 157.648 -0.120938 162.07 1.01667L162.392 1.09693C185.344 6.95897 206.376 18.9508 223.212 35.7874C240.05 52.624 252.044 73.6498 257.899 96.6028L257.981 96.9239C259.119 101.354 261.485 110.548 250.243 121.791L121.793 250.247C114.732 257.3 108.474 259 103.701 259Z" fill="#4D4D4D"/>
</svg>
