<svg width="265" height="265" viewBox="0 0 265 265" fill="none" xmlns="http://www.w3.org/2000/svg">
<path d="M55.2491 117.591C51.8964 117.591 48.6306 118.901 46.2227 121.306L8.91822 158.601C6.51829 161.006 5.19538 164.213 5.19538 167.634C5.19538 171.068 6.51829 174.262 8.91822 176.667L88.3163 256.068C93.2966 261.052 101.398 261.052 106.379 256.068L143.683 218.76C146.907 215.539 148.154 210.769 146.934 206.319C146.688 205.424 146.944 204.448 147.604 203.793C148.262 203.139 149.226 202.885 150.128 203.125C154.58 204.341 159.347 203.099 162.572 199.878L199.877 162.57C203.103 159.349 204.349 154.579 203.129 150.129C202.883 149.22 203.139 148.258 203.799 147.604C204.459 146.935 205.422 146.682 206.322 146.935C210.774 148.151 215.542 146.909 218.768 143.675L256.071 106.38C261.051 101.396 261.051 93.2978 256.071 88.3135L176.674 8.91282C171.694 3.94193 163.592 3.94193 158.61 8.91282L121.307 46.2213C118.082 49.4416 116.835 54.2121 118.055 58.6619C118.302 59.5705 118.045 60.5326 117.385 61.1874C116.727 61.8422 115.76 62.0961 114.863 61.8555C110.409 60.6395 105.644 61.8823 102.417 65.1027L65.1134 102.411C61.8864 105.645 60.641 110.402 61.8596 114.865C62.1068 115.76 61.8516 116.723 61.1915 117.377C60.53 118.045 59.5679 118.299 58.6673 118.045C57.5382 117.738 56.389 117.591 55.2491 117.591ZM97.3468 264.981C92.5362 264.981 88.0237 263.124 84.6416 259.743L5.24483 180.342C1.86275 176.961 0 172.445 0 167.634C0 162.824 1.86275 158.32 5.24483 154.94L42.5479 117.631C46.1772 113.997 51.1936 112.152 56.2313 112.42C55.9587 107.369 57.8108 102.371 61.4387 98.7364L98.7432 61.4413C102.37 57.8067 107.374 55.9493 112.425 56.2299C112.153 51.1788 114.005 46.1678 117.634 42.5465L154.937 5.23811C158.319 1.85734 162.83 -9.17539e-05 167.642 -9.17539e-05C172.454 -9.17539e-05 176.967 1.85734 180.347 5.23811L259.745 84.6388C266.752 91.6408 266.752 103.039 259.745 110.055L222.441 147.35C218.813 150.984 213.805 152.842 208.759 152.561C209.032 157.612 207.178 162.61 203.55 166.244L166.247 203.553C162.621 207.174 157.62 209.032 152.564 208.751C152.836 213.802 150.984 218.813 147.356 222.434L110.052 259.743C106.671 263.124 102.159 264.981 97.3468 264.981Z" fill="#4D4D4D"/>
</svg>
