<svg width="265" height="265" viewBox="0 0 265 265" fill="none" xmlns="http://www.w3.org/2000/svg">
<path d="M167.643 5.18459C164.369 5.18459 161.095 6.42726 158.61 8.926L8.92598 158.61C3.94186 163.594 3.94186 171.691 8.92598 176.676L88.3244 256.074C93.2952 261.045 101.406 261.045 106.377 256.074L256.074 106.377C261.045 101.406 261.045 93.2952 256.074 88.3245L176.675 8.926C174.177 6.42726 170.916 5.18459 167.643 5.18459ZM97.3439 265C92.7473 265 88.1507 263.25 84.6498 259.749L5.25136 180.35C-1.75045 173.348 -1.75045 161.937 5.25136 154.935L154.935 5.25138C158.316 1.87075 162.832 6.11675e-05 167.643 6.11675e-05C172.453 6.11675e-05 176.969 1.87075 180.35 5.25138L259.749 84.6498C263.129 88.0305 264.987 92.5336 264.987 97.344C264.987 102.154 263.129 106.671 259.749 110.052L110.051 259.749C106.55 263.25 101.954 265 97.3439 265Z" fill="#4D4D4D"/>
<path d="M65.541 202.049C64.8729 202.049 64.2181 201.795 63.7103 201.288C62.6948 200.272 62.6948 198.629 63.7103 197.613L197.613 63.71C198.629 62.6945 200.272 62.6945 201.288 63.71C202.304 64.7256 202.304 66.3691 201.288 67.3846L67.3849 201.288C66.8772 201.795 66.2091 202.049 65.541 202.049Z" fill="#4D4D4D"/>
<path d="M107.512 96.2606C104.625 96.2606 101.753 97.3564 99.5479 99.5611C95.1651 103.944 95.1651 111.079 99.5479 115.476C103.944 119.858 111.093 119.858 115.476 115.476C119.858 111.079 119.858 103.944 115.476 99.5477C113.284 97.3563 110.398 96.2606 107.512 96.2606ZM107.512 123.961C103.303 123.961 99.0935 122.357 95.8866 119.15C89.4593 112.736 89.4593 102.3 95.8866 95.8865C102.3 89.4593 112.736 89.4726 119.15 95.8865C125.564 102.3 125.564 112.736 119.15 119.15C115.943 122.357 111.734 123.961 107.512 123.961Z" fill="#4D4D4D"/>
<path d="M56.2538 147.518C53.3676 147.518 50.4946 148.627 48.2899 150.818C46.1653 152.943 45.0028 155.762 45.0028 158.782C45.0028 161.789 46.1653 164.608 48.2899 166.733C52.6861 171.129 59.8215 171.129 64.2177 166.733C66.3423 164.608 67.5047 161.789 67.5047 158.782C67.5047 155.762 66.3423 152.943 64.2177 150.818C62.0129 148.627 59.1401 147.518 56.2538 147.518ZM56.2538 175.218C52.0447 175.218 47.8222 173.614 44.6153 170.407C41.5152 167.307 39.8049 163.165 39.8049 158.782C39.8049 154.373 41.5152 150.244 44.6153 147.144C51.0291 140.73 61.4784 140.73 67.8923 147.144C70.9923 150.244 72.7027 154.373 72.7027 158.782C72.7027 163.165 70.9923 167.307 67.8923 170.407C64.6854 173.614 60.463 175.218 56.2538 175.218Z" fill="#4D4D4D"/>
<path d="M208.731 94.9516C205.725 94.9516 202.905 96.1273 200.78 98.2519C198.656 100.39 197.48 103.209 197.48 106.216C197.48 109.222 198.656 112.055 200.78 114.18C202.905 116.304 205.725 117.467 208.731 117.467C211.738 117.467 214.57 116.304 216.695 114.18C218.819 112.055 219.995 109.222 219.995 106.216C219.995 103.209 218.819 100.39 216.695 98.2519C214.57 96.1273 211.738 94.9516 208.731 94.9516ZM208.731 122.665C204.335 122.665 200.206 120.954 197.106 117.854C193.992 114.741 192.282 110.612 192.282 106.216C192.282 101.82 193.992 97.6907 197.106 94.5773C200.206 91.4773 204.335 89.7669 208.731 89.7669C213.127 89.7669 217.269 91.4773 220.369 94.5773C223.483 97.6907 225.193 101.82 225.193 106.216C225.193 110.612 223.483 114.741 220.369 117.854C217.269 120.954 213.127 122.665 208.731 122.665Z" fill="#4D4D4D"/>
<path d="M157.474 146.222C154.587 146.222 151.715 147.318 149.51 149.509C147.385 151.647 146.222 154.467 146.222 157.473C146.222 160.48 147.385 163.313 149.51 165.437C153.906 169.82 161.041 169.82 165.437 165.437C169.82 161.054 169.82 153.905 165.437 149.509C163.246 147.318 160.36 146.222 157.474 146.222ZM157.474 173.922C153.265 173.922 149.055 172.319 145.835 169.112C142.735 165.998 141.025 161.869 141.025 157.473C141.025 153.077 142.735 148.948 145.835 145.835C152.262 139.434 162.698 139.421 169.112 145.848C175.526 152.262 175.526 162.698 169.112 169.112C165.905 172.319 161.696 173.922 157.474 173.922Z" fill="#4D4D4D"/>
<path d="M106.215 197.48C103.329 197.48 100.456 198.575 98.2515 200.78C93.8687 205.163 93.8687 212.312 98.2515 216.694C102.648 221.091 109.783 221.091 114.179 216.694C118.562 212.312 118.562 205.163 114.179 200.78C111.988 198.575 109.102 197.48 106.215 197.48ZM106.215 225.179C102.006 225.179 97.7838 223.576 94.5769 220.369C88.163 213.955 88.163 203.519 94.5769 197.105C100.991 190.692 111.427 190.692 117.854 197.105C124.268 203.519 124.268 213.955 117.854 220.369C114.647 223.576 110.425 225.179 106.215 225.179Z" fill="#4D4D4D"/>
</svg>
