<svg width="253" height="253" viewBox="0 0 253 253" fill="none" xmlns="http://www.w3.org/2000/svg">
<path d="M220.689 63.6752C214.433 53.5907 207.377 46.5876 206.91 46.1208C206.416 45.6272 199.413 38.5708 189.329 32.3013L230.267 5.90277L247.088 22.737L220.689 63.6752ZM117.473 234.378L105.11 246.744L6.26007 147.886L16.9195 137.228L93.0189 213.329C93.5245 213.836 94.1875 214.089 94.8518 214.089C95.5161 214.089 96.179 213.836 96.6859 213.329C97.6984 212.315 97.6984 210.674 96.6859 209.661L20.8653 133.84C37.1926 121.594 132.797 49.9358 165.331 28.1127C184.673 31.1274 203.015 49.5756 203.242 49.7891C203.428 49.9758 221.877 68.3307 224.878 87.6727C201.507 122.515 120.951 229.75 117.473 234.378ZM252.237 20.5493L232.455 0.753862C231.588 -0.0998524 230.24 -0.246662 229.213 0.406966L184.286 29.3932C178.417 26.2718 171.827 23.7107 165.051 22.8437C164.424 22.7503 163.797 22.9103 163.277 23.2572C128.635 46.3475 16.4887 130.639 15.3602 131.492C15.2629 131.572 15.1707 131.639 15.0854 131.732L0.76034 146.059C-0.253447 147.073 -0.253447 148.713 0.76034 149.727L103.275 252.24C103.762 252.733 104.421 253 105.11 253C105.797 253 106.457 252.733 106.942 252.24L121.269 237.913C121.356 237.833 121.436 237.74 121.506 237.633C122.357 236.513 206.656 124.369 229.747 89.727C230.094 89.2068 230.24 88.5664 230.16 87.9527C229.293 81.1764 226.732 74.5869 223.611 68.7176L252.584 23.7907C253.251 22.7636 253.104 21.403 252.237 20.5493Z" fill="#4D4D4D"/>
</svg>
