<svg width="225" height="259" viewBox="0 0 225 259" fill="none" xmlns="http://www.w3.org/2000/svg">
<path d="M210.719 23.1233C207.2 23.1233 195.411 18.3059 186.271 14.171C195.411 10.0361 207.2 5.20534 210.719 5.20534C215.671 5.20534 219.685 9.21981 219.685 14.171C219.685 19.1088 215.671 23.1233 210.719 23.1233ZM123.712 59.1731V177.399C123.712 183.622 118.654 188.68 112.445 188.68C106.223 188.68 101.164 183.622 101.164 177.399V59.1731C101.164 52.9641 106.223 47.906 112.445 47.906C118.654 47.906 123.712 52.9641 123.712 59.1731ZM115.041 230.484V228.062C115.041 226.63 113.877 225.466 112.445 225.466C111 225.466 109.836 226.63 109.836 228.062V230.484C106.169 229.373 103.48 225.947 103.48 221.92C103.48 218.4 108.297 206.598 112.445 197.458C116.58 206.598 121.398 218.4 121.398 221.92C121.398 225.947 118.721 229.373 115.041 230.484ZM14.1577 23.1233C9.21987 23.1233 5.19202 19.1088 5.19202 14.171C5.19202 9.21981 9.21987 5.20534 14.1577 5.20534C17.677 5.20534 29.4662 10.0361 38.6058 14.171C29.4796 18.3059 17.677 23.1233 14.1577 23.1233ZM210.719 0C204.283 0 183.715 9.58111 179.5 11.5616H133.254C124.194 11.5616 116.326 16.7537 112.445 24.3008C108.551 16.7537 100.696 11.5616 91.6235 11.5616H45.3768C41.175 9.58111 20.5942 0 14.1577 0C6.34283 0 0 6.35616 0 14.171C0 21.9724 6.34283 28.3286 14.1577 28.3286C20.5942 28.3286 41.175 18.7609 45.3768 16.7671H91.6235C101.673 16.7671 109.836 24.9431 109.836 34.9793V42.928C101.994 44.1859 95.9592 50.9836 95.9592 59.1731V177.399C95.9592 185.16 101.352 191.664 108.578 193.404C105.313 200.496 98.2741 216.393 98.2741 221.92C98.2741 228.838 103.265 234.605 109.836 235.836V256.404C109.836 257.836 111 259 112.445 259C113.877 259 115.041 257.836 115.041 256.404V235.836C121.612 234.605 126.603 228.838 126.603 221.92C126.603 216.393 119.578 200.496 116.313 193.404C123.525 191.664 128.918 185.16 128.918 177.399V59.1731C128.918 50.9836 122.896 44.1859 115.041 42.928V34.9793C115.041 24.9431 123.217 16.7671 133.254 16.7671H179.5C183.715 18.7609 204.283 28.3286 210.719 28.3286C218.534 28.3286 224.891 21.9724 224.891 14.171C224.891 6.35616 218.534 0 210.719 0Z" fill="#4D4D4D"/>
</svg>
