<svg width="242" height="242" viewBox="0 0 242 242" fill="none" xmlns="http://www.w3.org/2000/svg">
<path d="M234.073 95.5377C226.185 103.426 200.127 94.2541 173.908 68.0356C147.676 41.8037 138.505 15.7457 146.393 7.85739C148.211 6.03907 151.005 5.11654 154.549 5.11654C166.341 5.11654 186.409 15.2109 206.571 35.3728C218.537 47.3389 227.923 60.4147 232.99 72.1803C237.67 83.0367 238.071 91.5534 234.073 95.5377ZM209.914 119.804C207.654 124.591 205.314 129.537 199.859 134.979L199.779 135.073C192.586 142.252 187.251 144.659 182.091 146.972C177.732 148.937 173.614 150.782 169.202 155.194C164.803 159.593 162.945 163.711 160.993 168.07C158.666 173.244 156.26 178.579 149.08 185.758L149 185.852C141.86 192.991 136.339 195.171 131.004 197.296C126.445 199.101 122.153 200.799 117.701 205.252C113.423 209.53 111.176 213.193 108.81 217.071C106.042 221.59 102.914 226.71 95.6003 234.01C87.7254 241.899 61.6539 232.727 35.4354 206.508C9.20357 180.277 0.0317944 154.218 7.92008 146.33C15.2201 139.03 20.3408 135.888 24.8599 133.134C28.7371 130.754 32.4004 128.521 36.6788 124.23C41.131 119.791 42.8425 115.486 44.6474 110.94C46.7599 105.592 48.9525 100.083 56.092 92.9439L56.1722 92.8503C63.3519 85.6706 68.7 83.264 73.8608 80.951C78.2194 78.9856 82.3373 77.1272 86.736 72.7285C91.1481 68.3298 92.9931 64.2118 94.9584 59.8532C97.2848 54.6791 99.6782 49.3444 106.871 42.1647L106.951 42.0712C112.406 36.6296 117.34 34.2898 122.126 32.0169C127.514 29.4633 133.05 26.8294 138.852 20.0776C140.818 34.223 152.169 53.6495 170.231 71.7124C188.281 89.7484 207.708 101.126 221.853 103.092C215.101 108.894 212.467 114.416 209.914 119.804ZM237.777 70.1213C232.442 57.7675 222.668 44.1168 210.248 31.6961C183.601 5.04973 153.934 -7.03675 142.716 4.18064C140.871 6.0257 139.668 8.37887 139.053 11.1197C132.368 21.4012 126.592 24.1554 119.907 27.3241C114.96 29.6638 109.358 32.3111 103.275 38.4078L103.195 38.488C95.333 46.3362 92.6188 52.3794 90.2122 57.714C88.3805 61.8053 86.7895 65.3215 83.0593 69.0518C79.3424 72.782 75.8127 74.373 71.7349 76.2047C66.4003 78.5979 60.357 81.3254 52.4955 89.1736L52.4153 89.2672C44.5137 97.1688 42.0135 103.466 39.8074 109.015C38.1362 113.226 36.6923 116.863 33.0155 120.553C29.165 124.403 25.9026 126.396 22.1456 128.695C17.3859 131.61 11.9845 134.912 4.24333 142.653C-1.41216 148.309 -1.41224 158.644 4.22989 171.746C9.55113 184.1 19.3246 197.751 31.7587 210.172C44.1794 222.606 57.8302 232.379 70.184 237.7C76.7353 240.522 82.5913 241.939 87.5115 241.939C92.445 241.939 96.456 240.522 99.277 237.687C107.018 229.946 110.321 224.558 113.235 219.785C115.535 216.028 117.527 212.779 121.378 208.928C125.068 205.238 128.704 203.794 132.916 202.123C138.478 199.917 144.775 197.417 152.677 189.515L152.757 189.435C160.618 181.587 163.333 175.544 165.726 170.209C167.571 166.131 169.148 162.601 172.879 158.871C176.609 155.141 180.139 153.55 184.217 151.718C189.551 149.325 195.594 146.598 203.456 138.736L203.536 138.656C209.619 132.572 212.28 126.97 214.62 122.024C217.788 115.352 220.529 109.563 230.811 102.891C233.565 102.263 235.905 101.059 237.75 99.2144C243.405 93.5589 243.419 83.2239 237.777 70.1213Z" fill="#4D4D4D"/>
</svg>
