<svg width="220" height="220" viewBox="0 0 220 220" fill="none" xmlns="http://www.w3.org/2000/svg">
<path d="M92.4283 62.3093C75.017 62.3093 58.6347 69.0974 46.3145 81.4043C20.899 106.833 20.899 148.203 46.3145 173.632C58.6347 185.952 75.017 192.727 92.4283 192.727C109.853 192.727 126.222 185.952 138.542 173.632C150.862 161.312 157.651 144.943 157.651 127.518C157.651 110.094 150.862 93.7245 138.542 81.4043C126.222 69.0974 109.853 62.3093 92.4283 62.3093ZM92.4283 197.925C73.6273 197.925 55.9488 190.603 42.6531 177.307C15.1932 149.86 15.1932 105.189 42.6531 77.7296C55.9488 64.4339 73.6273 57.1113 92.4283 57.1113C111.243 57.1113 128.921 64.4339 142.217 77.7296C155.513 91.0253 162.835 108.717 162.835 127.518C162.835 146.333 155.513 164.011 142.217 177.307C128.921 190.603 111.243 197.925 92.4283 197.925ZM92.4283 40.2344C69.1242 40.2344 47.1964 49.321 30.7204 65.7969C14.2578 82.2595 5.19806 104.174 5.19806 127.518C5.19806 150.862 14.2578 172.777 30.7204 189.24C47.1964 205.729 69.1242 214.802 92.4283 214.802C115.746 214.802 137.66 205.729 154.15 189.24C170.639 172.75 179.712 150.836 179.712 127.518C179.712 108.517 173.752 90.4907 162.448 75.3911L161.245 73.7876C160.483 72.7454 160.577 71.3022 161.499 70.3936L193.449 38.4439C194.184 37.6956 195.306 37.4684 196.282 37.8827C197.244 38.2836 197.885 39.2323 197.885 40.2745V56.6035C197.885 61.2536 201.667 65.0486 206.317 65.0486C210.967 65.0486 214.762 61.2536 214.762 56.6035V13.6298C214.762 8.97961 210.967 5.19802 206.317 5.19802H163.343C158.693 5.19802 154.911 8.97961 154.911 13.6298C154.911 18.2933 158.693 22.0748 163.343 22.0748H179.672C180.728 22.0748 181.676 22.7029 182.077 23.6783C182.478 24.6404 182.251 25.7629 181.516 26.5112L149.566 58.4609C148.644 59.3695 147.201 59.4764 146.172 58.7014L144.569 57.4988C129.469 46.2075 111.443 40.2344 92.4283 40.2344ZM92.4283 220C67.7345 220 44.5105 210.379 27.0457 192.914C9.60768 175.476 0 152.252 0 127.518C0 102.784 9.60768 79.5603 27.0457 62.1222C44.5105 44.6574 67.7345 35.0364 92.4283 35.0364C112.485 35.0364 131.514 41.3168 147.482 53.196L173.405 27.2728H163.343C155.833 27.2728 149.713 21.1528 149.713 13.6298C149.713 6.12004 155.833 1.52922e-05 163.343 1.52922e-05H206.317C213.84 1.52922e-05 219.947 6.12004 219.947 13.6298V56.6035C219.947 64.1265 213.84 70.2332 206.317 70.2332C198.807 70.2332 192.687 64.1265 192.687 56.6035V46.5549L166.764 72.4781C178.63 88.4329 184.91 107.461 184.91 127.518C184.91 152.225 175.289 175.449 157.824 192.914C140.36 210.379 117.136 220 92.4283 220Z" fill="#4D4D4D"/>
</svg>
