<svg width="249" height="249" viewBox="0 0 249 249" fill="none" xmlns="http://www.w3.org/2000/svg">
<path d="M227.369 35.0155L213.984 21.6306L237.676 5.94351L243.043 11.3108L227.369 35.0155ZM229.605 53.4732L69.5211 213.557L35.4432 179.479L195.513 19.3953C196.691 18.2175 198.27 17.5616 199.957 17.5616C201.643 17.5616 203.223 18.2175 204.401 19.3953L229.605 44.5991C232.041 47.0485 232.041 51.0238 229.605 53.4732ZM31.0529 232.148L16.8515 217.934L41.6939 193.091L55.9087 207.293L31.0529 232.148ZM248.236 9.14255L239.857 0.763531C238.987 -0.106489 237.609 -0.253724 236.578 0.428899L210.223 17.8694L208.082 15.7145C205.913 13.5595 203.035 12.3683 199.957 12.3683C196.878 12.3683 194.001 13.5595 191.832 15.7145L31.7623 175.798L20.2513 164.287C19.2341 163.27 17.5877 163.27 16.5705 164.287C15.5532 165.304 15.5532 166.951 16.5705 167.954L38.0131 189.41L13.1706 214.253L4.43032 205.526C3.42646 204.508 1.78019 204.508 0.762939 205.526C-0.254313 206.543 -0.254313 208.189 0.762939 209.207L39.7933 248.237C40.3019 248.746 40.9578 249 41.627 249C42.2963 249 42.9655 248.746 43.4741 248.237C44.4914 247.22 44.4914 245.573 43.4741 244.556L34.7338 235.829L59.5896 210.973L81.0321 232.429C81.5407 232.938 82.2101 233.192 82.8793 233.192C83.5352 233.192 84.2043 232.938 84.7129 232.429C85.7302 231.412 85.7302 229.766 84.7129 228.749L73.2019 217.238L233.285 57.1541C237.756 52.6835 237.756 45.3888 233.285 40.9182L231.13 38.7633L248.558 12.4219C249.24 11.3778 249.106 10.0126 248.236 9.14255Z" fill="#4D4D4D"/>
</svg>
