<svg width="208" height="253" viewBox="0 0 208 253" fill="none" xmlns="http://www.w3.org/2000/svg">
<path d="M103.704 247.811C49.3808 247.811 5.18624 203.619 5.18624 149.29C5.18624 94.9734 49.3808 50.7814 103.704 50.7814C158.028 50.7814 202.224 94.9734 202.224 149.29C202.224 203.619 158.028 247.811 103.704 247.811ZM12.0904 67.6952L22.6109 57.1841L36.1273 70.6964C32.3644 73.9378 28.8362 77.446 25.5721 81.1809L12.0904 67.6952ZM87.5169 28.0919H119.952V46.8597C114.656 46.0327 109.231 45.5925 103.704 45.5925C98.1988 45.5925 92.7938 46.0193 87.5169 46.8597V28.0919ZM72.4479 5.18888H135.021V22.903H72.4479V5.18888ZM184.858 57.1841L195.378 67.6952L181.866 81.2075C178.602 77.4726 175.077 73.9645 171.315 70.7232L184.858 57.1841ZM185.193 85.2226L200.879 69.5359C201.892 68.5222 201.892 66.8815 200.879 65.8677L186.691 51.6751C185.718 50.7014 183.996 50.7014 183.024 51.6751L167.281 67.4151C155.103 57.9444 140.763 51.1148 125.138 47.8201V28.0919H137.615C139.047 28.0919 140.207 26.9314 140.207 25.4908V2.60106C140.207 1.17379 139.047 -3.05305e-05 137.615 -3.05305e-05H69.8548C68.4222 -3.05305e-05 67.2604 1.17379 67.2604 2.60106V25.4908C67.2604 26.9314 68.4222 28.0919 69.8548 28.0919H82.3307V47.8068C66.6961 51.1016 52.3488 57.9177 40.1623 67.4017L24.445 51.6751C23.4726 50.7014 21.7505 50.7014 20.7768 51.6751L6.58943 65.8677C6.10256 66.3479 5.82915 67.0149 5.82915 67.6952C5.82915 68.3888 6.10256 69.0424 6.58943 69.5359L22.2427 85.1826C8.31817 102.843 0 125.119 0 149.29C0 206.474 46.521 253 103.704 253C160.888 253 207.41 206.474 207.41 149.29C207.41 125.133 199.101 102.87 185.193 85.2226Z" fill="#4D4D4D"/>
</svg>
