<svg width="248" height="248" viewBox="0 0 248 248" fill="none" xmlns="http://www.w3.org/2000/svg">
<path d="M202.039 64.2512L194.801 71.4898L176.51 53.1858L183.749 45.9606L197.049 42.7226L205.277 50.9514L202.039 64.2512ZM198.48 91.3994L179.2 110.68L172.295 103.776C171.279 102.759 169.633 102.759 168.616 103.776C167.599 104.779 167.599 106.425 168.616 107.442L175.52 114.36L159.799 130.081L152.894 123.177C151.877 122.16 150.232 122.16 149.215 123.177C148.198 124.194 148.198 125.84 149.215 126.857L156.119 133.761L140.384 149.482L133.48 142.578C132.463 141.561 130.817 141.561 129.8 142.578C128.783 143.595 128.783 145.241 129.8 146.258L136.704 153.162L120.983 168.897L114.079 161.979C113.062 160.976 111.416 160.976 110.399 161.979C109.382 162.996 109.382 164.642 110.399 165.659L117.303 172.576L101.582 188.298L94.6776 181.394C93.6607 180.377 92.015 180.377 90.9981 181.394C89.9812 182.411 89.9812 184.057 90.9981 185.073L97.9021 191.978L76.6814 213.198L34.4271 170.957L156.239 49.1585C157.417 47.9676 158.996 47.3254 160.682 47.3254C162.354 47.3254 163.933 47.9676 165.11 49.1585L198.48 82.515C199.658 83.7058 200.313 85.2713 200.313 86.9572C200.313 88.6431 199.658 90.2219 198.48 91.3994ZM36.3672 229.924L18.0766 211.633L42.91 186.786L61.2006 205.09L36.3672 229.924ZM247.224 0.762645C246.207 -0.254245 244.561 -0.254245 243.558 0.762645L203.003 41.3177L199.698 38.0128C199.056 37.3706 198.119 37.103 197.236 37.3304L181.809 41.0768C181.34 41.1839 180.926 41.4247 180.578 41.7592L172.831 49.5063L168.79 45.4789C166.636 43.3114 163.746 42.1205 160.682 42.1205C157.604 42.1205 154.714 43.3114 152.56 45.4789L30.7475 167.278L16.1498 152.68C15.1329 151.663 13.4871 151.663 12.4702 152.68C11.4667 153.697 11.4667 155.343 12.4702 156.36L39.2304 183.107L14.397 207.953L4.44219 197.999C3.4253 196.982 1.77955 196.982 0.762665 197.999C-0.254222 199.016 -0.254222 200.661 0.762665 201.678L46.3219 247.237C46.8303 247.746 47.4994 248 48.155 248C48.824 248 49.493 247.746 50.0014 247.237C51.0183 246.22 51.0183 244.575 50.0014 243.558L40.0467 233.603L64.8801 208.77L91.6403 235.516C92.1487 236.025 92.8044 236.279 93.4734 236.279C94.1424 236.279 94.8114 236.025 95.3198 235.516C96.3367 234.5 96.3367 232.854 95.3198 231.837L80.3474 216.878L202.16 95.0789C204.327 92.9113 205.518 90.0347 205.518 86.9572C205.518 83.8798 204.327 81.0031 202.16 78.8489L198.48 75.1694L206.241 67.4089C206.575 67.0744 206.816 66.6596 206.923 66.1913L210.67 50.7641C210.884 49.881 210.629 48.9443 209.987 48.3021L206.682 44.9973L247.224 4.44218C248.241 3.42529 248.241 1.77953 247.224 0.762645Z" fill="#4D4D4D"/>
</svg>
