<svg width="78" height="78" viewBox="0 0 78 78" fill="none" xmlns="http://www.w3.org/2000/svg">
<path d="M11.0836 5.23333C8.75909 5.23333 7.1353 5.66208 6.39978 6.39895C4.77197 8.03346 4.59647 13.9954 7.40862 22.2617C10.4901 31.3318 16.0675 40.3484 22.7086 46.9802L47.5893 71.8729C47.5906 71.8729 47.5906 71.8729 47.5906 71.8729C48.7843 73.0653 50.8985 73.0653 52.0909 71.8729L71.8643 52.0981C73.1036 50.8521 73.1037 48.8291 71.863 47.5965L46.9824 22.7172C40.3412 16.072 31.3313 10.4986 22.2652 7.41718C17.7368 5.87646 13.8971 5.23333 11.0836 5.23333ZM49.8401 77.9956C47.5933 77.9956 45.4872 77.1248 43.9063 75.5439L19.0257 50.6645C11.8379 43.4834 5.80626 33.7434 2.47562 23.9498C0.874612 19.2338 -2.30731 7.73871 2.71544 2.71462C7.73552 -2.30948 19.232 0.879178 23.9412 2.47348C33.7375 5.80948 43.4789 11.8383 50.6667 19.0328L75.546 43.9122C78.8177 47.1812 78.8191 52.5 75.5474 55.7824L55.7752 75.5439C54.1956 77.1248 52.0869 77.9956 49.8401 77.9956Z" fill="#4D4D4D"/>
</svg>
