<svg width="112" height="112" viewBox="0 0 112 112" fill="none" xmlns="http://www.w3.org/2000/svg">
<path d="M104.098 23.0913C100.989 31.0702 96.2258 38.3686 93.1303 41.4774C90.1015 44.4929 86.072 46.1607 81.8023 46.1607C77.5194 46.1607 73.4899 44.4929 70.4611 41.4774C67.4457 38.4487 65.7779 34.4192 65.7779 30.1362C65.7779 25.8666 67.4457 21.8371 70.4611 18.8083C76.2652 13.0176 91.7425 5.06535 100.442 5.06535C102.55 5.06535 104.258 5.53235 105.339 6.59976C107.674 8.94807 107.22 15.1124 104.098 23.0913ZM109.008 2.94389C99.895 -6.16914 73.7967 8.14752 66.8052 15.1524C62.789 19.1552 60.5875 24.4789 60.5875 30.1362C60.5875 35.1397 62.3087 39.863 65.4576 43.6523C58.1592 56.3144 48.5125 60.931 38.3053 65.7877C23.962 72.6192 9.11175 79.6907 0.118807 108.578C-0.308157 109.939 0.452269 111.393 1.81322 111.82C2.08007 111.9 2.33369 111.94 2.5872 111.94C3.69463 111.94 4.72197 111.233 5.06887 110.125C13.3947 83.4 26.5773 77.1156 40.547 70.471C50.7675 65.6009 61.3213 60.5841 69.3536 47.2948C72.9561 49.9233 77.2525 51.351 81.8023 51.351C87.4596 51.351 92.7834 49.1494 96.7995 45.1333C100.922 41.0238 105.913 32.7247 108.928 24.9859C111.77 17.7275 114.078 8.01409 109.008 2.94389Z" fill="#4D4D4D"/>
</svg>
