<svg width="78" height="78" viewBox="0 0 78 78" fill="none" xmlns="http://www.w3.org/2000/svg">
<path d="M11.016 5.12505C8.8205 5.12505 7.19467 5.54055 6.36767 6.35816C2.47262 10.2586 7.69059 31.9722 22.6851 46.9707L47.5767 71.861H47.578C48.1758 72.4507 48.9747 72.7858 49.8298 72.7858C50.6849 72.7858 51.4838 72.4507 52.0816 71.861L71.8611 52.0774C72.4589 51.4743 72.7873 50.6835 72.7873 49.8256C72.7873 48.9678 72.4589 48.177 71.8611 47.5739L46.9708 22.6836C35.157 10.8617 19.1707 5.12505 11.016 5.12505ZM49.8298 77.9998H49.8285C47.582 77.9998 45.4737 77.1286 43.892 75.5469L19.0005 50.6567C3.97917 35.6314 -4.71298 10.0709 2.68306 2.68562C10.0791 -4.7131 35.6355 3.97235 50.6554 18.9976L75.5457 43.8879C77.1286 45.4695 77.9999 47.5739 77.9999 49.8256C77.9999 52.0774 77.1286 54.1818 75.5457 55.7634L55.7662 75.5469C54.1846 77.1286 52.0762 77.9998 49.8298 77.9998Z" fill="#4D4D4D"/>
</svg>
