<svg width="117" height="117" viewBox="0 0 117 117" fill="none" xmlns="http://www.w3.org/2000/svg">
<path d="M107.826 43.2116L43.2123 107.815C40.6582 110.372 37.2447 111.777 33.6009 111.777C29.9584 111.777 26.5462 110.372 23.9907 107.815L9.17582 92.996C3.87744 87.7083 3.87744 79.074 9.17582 73.7864L73.7846 9.16975C76.3414 6.61292 79.7549 5.20726 83.3961 5.20726C87.0372 5.20726 90.4508 6.61292 93.0076 9.16975L107.826 23.9885C113.128 29.2896 113.128 37.9106 107.826 43.2116ZM96.6889 5.48846C93.1548 1.95441 88.4294 -1.53197e-05 83.3961 -1.53197e-05C78.3628 -1.53197e-05 73.6373 1.95441 70.1033 5.48846L5.49583 70.1051C-1.83195 77.4275 -1.83195 89.3549 5.49583 96.6773L20.3108 111.496C23.8489 115.03 28.5689 116.985 33.6009 116.985C38.6355 116.985 43.3556 115.03 46.8923 111.496L111.508 46.8795C118.83 39.557 118.83 27.6296 111.508 20.3072L96.6889 5.48846Z" fill="#4D4D4D"/>
</svg>
