<svg width="97" height="97" viewBox="0 0 97 97" fill="none" xmlns="http://www.w3.org/2000/svg">
<path d="M30.2551 79.1548C29.1761 72.8396 24.2005 67.8412 17.8867 66.726V5.26715C58.0337 6.62424 90.44 39.0601 91.7367 79.1548H30.2551ZM15.2437 91.7447C9.71862 91.7447 5.22411 87.257 5.22411 81.7211C5.22411 76.1987 9.71862 71.7109 15.2437 71.7109C20.7688 71.7109 25.2634 76.1987 25.2634 81.7211C25.2634 87.257 20.7688 91.7447 15.2437 91.7447ZM15.2733 0C13.8316 0 12.6613 1.16903 12.6613 2.60674V66.7125C5.4848 67.9486 0 74.2101 0 81.7211C0 90.1324 6.83782 96.9716 15.2437 96.9716C22.7413 96.9716 28.9773 91.5298 30.2403 84.3815H94.3877C95.7932 84.3815 96.9474 83.2529 96.9984 81.8421C96.9984 81.8152 96.9997 81.7614 96.9997 81.7211C96.9997 36.6684 60.3382 0 15.2733 0Z" fill="#4D4D4D"/>
</svg>
