<svg width="78" height="78" viewBox="0 0 78 78" fill="none" xmlns="http://www.w3.org/2000/svg">
<path d="M11.0156 5.12296C8.82012 5.12296 7.1943 5.53843 6.36867 6.36942C2.47372 10.2563 7.69156 31.9694 22.6843 46.9676L47.5753 71.8572C48.8178 73.1037 50.839 73.1037 52.0801 71.8572L71.8591 52.0741C73.1016 50.841 73.1002 48.8172 71.8591 47.5707L46.9695 22.6811C35.1546 10.8729 19.1687 5.12296 11.0156 5.12296ZM49.827 77.9958C47.6771 77.9958 45.5273 77.1782 43.8908 75.543L18.9998 50.6534C3.98023 35.6285 -4.71305 10.0687 2.6828 2.68356C10.0813 -4.71497 35.6331 3.98369 50.654 18.9952L75.5436 43.8848C78.818 47.1552 78.818 52.4896 75.545 55.76L55.7646 75.543C54.1281 77.1782 51.9782 77.9958 49.827 77.9958Z" fill="#4D4D4D"/>
</svg>
