<svg width="112" height="112" viewBox="0 0 112 112" fill="none" xmlns="http://www.w3.org/2000/svg">
<path d="M70.4696 18.819C76.2733 13.0153 91.75 5.06346 100.449 5.06346C102.544 5.06346 104.265 5.53045 105.332 6.61114C107.68 8.95933 107.213 15.1233 104.105 23.1018C100.983 31.0669 96.2195 38.3783 93.1242 41.4736C86.8802 47.7176 76.7136 47.7176 70.4696 41.4736C67.441 38.445 65.7732 34.4291 65.7732 30.1463C65.7732 25.8636 67.441 21.8476 70.4696 18.819ZM1.8253 111.826C2.0788 111.906 2.34561 111.946 2.59911 111.946C3.70649 111.946 4.7339 111.225 5.08079 110.118C13.4062 83.4074 26.588 77.1233 40.5436 70.479C50.7769 65.6092 61.3304 60.5793 69.3622 47.2907C73.058 49.9858 77.4208 51.3466 81.797 51.3466C87.2271 51.3466 92.6572 49.2786 96.7932 45.1426C100.916 41.02 105.906 32.7347 108.934 24.983C111.763 17.7383 114.084 8.02539 109.001 2.94211C99.9019 -6.17044 73.7917 8.15881 66.8006 15.15C62.798 19.1526 60.5833 24.476 60.5833 30.1463C60.5833 35.1362 62.3044 39.8726 65.4531 43.6617C58.155 56.3232 48.5088 60.9395 38.3155 65.796C23.9596 72.6271 9.12337 79.6983 0.117561 108.57C-0.309381 109.944 0.464425 111.399 1.8253 111.826Z" fill="#4D4D4D"/>
</svg>
