<svg width="139" height="139" viewBox="0 0 139 139" fill="none" xmlns="http://www.w3.org/2000/svg">
<path d="M25.5299 139C24.8622 139 24.1946 138.745 23.6865 138.236C-7.89549 106.65 -7.89549 55.2621 23.6865 23.6895C55.2671 -7.89646 106.655 -7.89646 138.237 23.6895C139.254 24.7084 139.254 26.3574 138.237 27.3763C137.219 28.3952 135.567 28.3952 134.55 27.3763C120.236 13.0581 101.204 5.17505 80.9609 5.17505C60.7182 5.17505 41.6862 13.0581 27.3719 27.3763C13.0577 41.6812 5.17595 60.7186 5.17595 80.9626C5.17595 101.207 13.0577 120.231 27.3719 134.549C28.3895 135.568 28.3895 137.217 27.3719 138.236C26.8638 138.745 26.1962 139 25.5299 139Z" fill="#4D4D4D"/>
</svg>
