<svg width="219" height="219" viewBox="0 0 219 219" fill="none" xmlns="http://www.w3.org/2000/svg">
<path d="M20.4216 204.796C20.8241 204.796 21.2254 204.89 21.5945 205.077L38.2445 213.49L54.8918 205.077C55.6287 204.703 56.498 204.703 57.2363 205.077L73.8836 213.49L90.5229 205.077C91.2598 204.703 92.1305 204.703 92.8674 205.077L109.513 213.49L126.157 205.077C126.894 204.703 127.764 204.703 128.501 205.077L145.144 213.49L161.785 205.077C162.521 204.703 163.393 204.703 164.13 205.077L180.773 213.49L197.415 205.077C198.152 204.703 199.022 204.703 199.759 205.077L213.797 212.166V6.82631L199.747 13.9281C199.01 14.3026 198.141 14.3026 197.403 13.9281L180.754 5.51563L164.107 13.9281C163.37 14.3026 162.499 14.3026 161.761 13.9281L145.115 5.51563L128.474 13.9281C127.739 14.3026 126.867 14.3026 126.13 13.9281L109.485 5.51563L92.842 13.9281C92.1037 14.3026 91.233 14.3026 90.4961 13.9281L73.8528 5.51563L57.2136 13.9281C56.4767 14.3026 55.6046 14.3026 54.869 13.9281L38.2244 5.51563L21.5838 13.9281C20.8455 14.3026 19.9748 14.2892 19.2379 13.9281L5.2 6.82631V212.179L19.25 205.077C19.6191 204.89 20.0203 204.796 20.4216 204.796ZM2.6 219C2.12654 219 1.65443 218.866 1.23714 218.612C0.468109 218.144 0 217.301 0 216.405V2.60001C0 1.70392 0.46811 0.861235 1.23848 0.379756C2.00618 -0.0883459 2.96647 -0.128509 3.77295 0.286114L20.4109 8.68542L37.0515 0.286114C37.7898 -0.0883765 38.6604 -0.0883765 39.3973 0.286114L56.0406 8.68542L72.6812 0.286114C73.4182 -0.0883765 74.2902 -0.0883765 75.0258 0.286114L91.6691 8.68542L108.312 0.286114C109.049 -0.0883765 109.92 -0.0883765 110.658 0.286114L127.301 8.68542L143.942 0.286114C144.679 -0.0883765 145.548 -0.0883765 146.287 0.286114L162.934 8.68542L179.581 0.286114C180.318 -0.0883765 181.188 -0.0883765 181.926 0.286114L198.576 8.68542L215.226 0.286114C216.031 -0.128509 216.99 -0.0883459 217.762 0.379756C218.531 0.861235 218.999 1.70392 218.999 2.60001V216.405C218.999 217.301 218.529 218.144 217.76 218.612C216.99 219.08 216.031 219.134 215.226 218.719L198.586 210.307L181.946 218.719C181.209 219.094 180.338 219.094 179.6 218.719L162.958 210.307L146.317 218.719C145.579 219.094 144.708 219.094 143.972 218.719L127.328 210.307L110.686 218.719C109.949 219.094 109.079 219.094 108.342 218.719L91.6958 210.307L75.0552 218.719C74.3196 219.094 73.4489 219.094 72.7107 218.719L56.0634 210.307L39.4161 218.719C38.6792 219.094 37.8085 219.094 37.0715 218.719L20.4216 210.307L3.77161 218.719C3.40248 218.906 3.00124 219 2.6 219Z" fill="#4D4D4D"/>
</svg>
