<svg width="236" height="236" viewBox="0 0 236 236" fill="none" xmlns="http://www.w3.org/2000/svg">
<path d="M105.298 105.306C93.0244 118.154 79.1658 122.441 66.9364 126.207C56.3484 129.479 47.2107 132.31 39.1816 140.337C31.6506 147.869 27.5052 157.899 27.5052 168.57C27.5052 179.254 31.6519 189.283 39.1816 196.816C46.7113 204.348 56.7397 208.488 67.4185 208.488C78.1 208.488 88.1285 204.348 95.6581 196.816C103.689 188.789 106.512 179.641 109.781 169.064C113.561 156.83 117.848 142.968 130.695 130.694C142.956 117.846 156.818 113.573 169.052 109.793C179.642 106.521 188.777 103.69 196.804 95.6633C204.336 88.131 208.49 78.1012 208.49 67.4304C208.49 56.7462 204.336 46.7165 196.804 39.1841C181.232 23.612 155.897 23.6253 140.325 39.1841C132.298 47.224 129.48 56.359 126.208 66.9363C122.429 79.1697 118.155 93.0324 105.298 105.306ZM67.4185 213.683C55.3534 213.683 44.0202 208.996 35.5089 200.488C26.999 191.981 22.3125 180.643 22.3125 168.57C22.3125 156.51 26.999 145.171 35.5089 136.664C44.4489 127.729 54.1568 124.724 65.3979 121.252C77.0409 117.659 90.2319 113.586 101.583 101.673C101.612 101.646 101.64 101.62 101.669 101.593C113.577 90.2412 117.647 77.0462 121.24 65.4138C124.712 54.1687 127.717 44.4594 136.652 35.5115C154.254 17.9226 182.888 17.9226 200.476 35.5115C208.984 44.0321 213.672 55.3573 213.672 67.4304C213.672 79.4902 208.984 90.8288 200.476 99.336C191.542 108.284 181.833 111.276 170.588 114.748C158.942 118.354 145.76 122.427 134.408 134.327C134.382 134.353 134.355 134.38 134.315 134.42C122.415 145.759 118.342 158.954 114.744 170.586C111.269 181.845 108.269 191.554 99.3308 200.488C90.8195 208.996 79.4863 213.683 67.4185 213.683ZM168.571 5.19511C151.917 5.19511 136.278 11.6591 124.539 23.3983C112.605 35.3379 108.499 48.6263 104.877 60.3522C101.449 71.4503 98.4881 81.0394 89.6883 89.3464C89.5614 89.4665 89.4479 89.5734 89.3371 89.6936C81.0315 98.4947 71.4464 101.459 60.3469 104.878C48.621 108.511 35.3366 112.611 23.3957 124.551C-0.878741 148.83 -0.878741 188.322 23.3957 212.602C35.1363 224.341 50.7712 230.805 67.4198 230.805C84.0697 230.805 99.7048 224.341 111.444 212.602C123.39 200.662 127.49 187.374 131.11 175.661C134.542 164.55 137.507 154.961 146.294 146.667C146.428 146.547 146.535 146.427 146.642 146.32C154.962 137.505 164.538 134.554 175.636 131.121C187.362 127.502 200.65 123.389 212.59 111.449C236.869 87.1828 236.869 47.6781 212.59 23.3983C200.85 11.6591 185.225 5.19511 168.571 5.19511ZM67.4198 236C49.3836 236 32.4438 228.988 19.7243 216.274C-6.57477 189.978 -6.57477 147.174 19.7243 120.878C32.5734 108.03 46.5135 103.717 58.811 99.9237C69.2121 96.7051 78.1921 93.9405 85.5589 86.1277C85.7445 85.9408 85.9355 85.7405 86.1318 85.5535C93.9299 78.1948 96.7038 69.22 99.9157 58.8163C103.715 46.5161 108.022 32.5867 120.866 19.7256C133.594 7.01146 150.528 -4.58515e-05 168.571 -4.58515e-05C186.6 -4.58515e-05 203.548 7.01146 216.262 19.7256C242.559 46.0354 242.559 88.8255 216.262 115.122C203.415 127.983 189.472 132.283 177.172 136.076C166.781 139.295 157.793 142.073 150.435 149.872C150.248 150.059 150.061 150.259 149.86 150.446C142.061 157.805 139.283 166.78 136.078 177.184C132.271 189.484 127.971 203.427 115.115 216.274C102.396 228.988 85.4573 236 67.4198 236Z" fill="#4D4D4D"/>
</svg>
