<svg width="213" height="213" viewBox="0 0 213 213" fill="none" xmlns="http://www.w3.org/2000/svg">
<path d="M88.1927 197.126C70.809 206.586 57.3937 209.205 52.3109 204.128C47.2294 199.05 49.8497 185.635 59.3179 168.251C69.553 149.451 86.5279 127.765 107.109 107.174C144.656 69.641 179.45 49.7452 196.125 49.7452C199.613 49.7452 202.312 50.6138 204.062 52.3775C214.244 62.5459 194.642 103.941 149.266 149.318C128.675 169.908 106.989 186.891 88.1927 197.126ZM34.5744 196.926C25.4148 177.564 47.2361 138.722 92.9456 93.0108C138.656 47.3 177.499 25.4802 196.86 34.6331C203.14 37.6127 206.107 42.65 207.216 48.2219C191.155 33.898 142.117 64.8307 103.435 103.5C82.5127 124.438 65.2224 146.538 54.7561 165.766C43.9143 185.662 41.6428 199.986 48.1447 207.268C42.5848 206.159 37.546 203.192 34.5744 196.926ZM38.3825 38.4412C58.5548 18.2782 84.6973 6.50641 111.999 5.30384C137.32 4.18145 160.837 12.3187 178.782 28.2727C156.16 32.5886 124.934 53.6869 89.275 89.3363C53.619 124.999 32.518 156.226 28.2088 178.847C-5.87719 140.459 -1.80989 78.6336 38.3825 38.4412ZM199.079 29.943C195.15 28.0857 190.607 27.284 185.543 27.471C166.208 8.57742 140.086 -1.13661 111.759 0.106046C83.1674 1.37542 55.801 13.6817 34.708 34.7667C-8.60572 78.0857 -11.7697 145.496 27.4125 185.608C27.2174 190.672 28.0191 195.215 29.8804 199.144C34.1989 208.27 42.6957 213 54.0893 213C58.7485 213 63.8983 212.198 69.4395 210.595C75.5512 209.018 82.6596 206.052 90.678 201.683C109.902 191.22 132.002 173.93 152.927 152.992C180.786 125.146 204.624 91.9152 210.436 69.5074C215.928 50.4668 211.906 36.0092 199.079 29.943Z" fill="#4D4D4D"/>
</svg>
