<svg width="227" height="227" viewBox="0 0 227 227" fill="none" xmlns="http://www.w3.org/2000/svg">
<path d="M76.406 152.848C70.6989 155.382 64.7918 158.008 59.058 160.835C34.0562 173.143 17.1218 192.438 5.73432 221.64C5.68098 221.786 5.50766 221.853 5.36098 221.8C5.21431 221.746 5.14753 221.573 5.18753 221.453C8.25442 211.546 11.388 203.545 15.0549 196.291C19.3619 187.757 24.5757 180.223 30.5628 173.876C41.9102 161.742 57.2313 153.888 72.0324 146.301C74.3792 145.088 76.726 143.901 79.0329 142.687C100.968 131.207 116.035 118.592 126.463 102.965C129.983 97.6975 133.17 92.0037 135.93 86.03C136.357 85.1099 136.944 83.9899 137.557 82.7898C137.637 82.6298 137.73 82.4431 137.824 82.2697C138.824 83.4165 139.93 84.5766 141.144 85.7233C143.717 88.4435 146.304 90.5903 148.784 92.3104C140.864 106.098 131.97 117.459 121.783 126.633C108.542 138.58 92.9272 145.501 76.406 152.848ZM153.731 53.241C155.185 57.8547 157.732 62.0949 161.252 65.6152C164.839 69.2021 169.106 71.6957 173.64 73.1224L165.159 93.5905C161.692 93.0972 153.265 91.017 144.864 82.1097C144.837 82.0697 144.798 82.043 144.758 82.003C135.81 73.5758 133.743 65.1885 133.263 61.7083L153.731 53.241ZM164.919 26.1324C173.973 17.0785 197.215 5.2109 210.842 5.2109C214.349 5.2109 217.216 5.99763 219.043 7.82442C222.99 11.7714 222.43 21.292 217.483 33.9463C212.749 46.0671 205.482 57.2012 200.735 61.9483C190.867 71.8156 174.8 71.8156 164.919 61.9483C160.145 57.1613 157.505 50.8008 157.505 44.0403C157.505 37.2665 160.145 30.9061 164.919 26.1324ZM153.251 94.9906C160.612 98.8309 166.319 98.9242 166.826 98.9242C166.839 98.9242 166.839 98.9242 166.852 98.9242C167.892 98.9242 168.826 98.2842 169.226 97.3241L178.787 74.2558C180.12 74.4425 181.48 74.5358 182.827 74.5358C190.641 74.5358 198.455 71.5623 204.402 65.6152C210.469 59.5481 217.843 47.2939 222.323 35.8264C226.43 25.3057 229.83 11.2647 222.71 4.15751C209.615 -8.9501 171.506 12.2115 161.252 22.4655C155.492 28.2259 152.318 35.8931 152.318 44.0403C152.318 45.4004 152.411 46.7605 152.598 48.0939L129.543 57.6413C128.583 58.0413 127.943 58.9747 127.943 60.0148C127.943 60.4415 127.996 68.3488 134.317 77.7227C133.85 78.6695 133.383 79.5762 132.943 80.4163C132.303 81.6564 131.703 82.8298 131.223 83.8432C128.57 89.5769 125.516 95.044 122.156 100.084C112.222 114.952 97.7542 127.033 76.6327 138.087C74.3259 139.3 72.0057 140.487 69.6722 141.687C54.4711 149.488 38.75 157.542 26.7758 170.329C20.4553 177.023 14.9617 184.97 10.428 193.958C6.62774 201.478 3.38746 209.732 0.240568 219.919C-0.599491 222.653 0.827251 225.6 3.48077 226.64C4.12082 226.88 4.80084 227 5.45422 227C7.64104 227 9.73452 225.667 10.5879 223.453C21.4554 195.611 37.5765 177.183 61.3515 165.476C66.9919 162.702 72.8591 160.102 78.5128 157.582C94.6873 150.408 111.395 142.981 125.249 130.486C135.824 120.952 145.064 109.232 153.251 94.9906Z" fill="#4D4D4D"/>
</svg>
