<svg width="207" height="242" viewBox="0 0 207 242" fill="none" xmlns="http://www.w3.org/2000/svg">
<path d="M62.1744 119.469C51.8957 106.195 40.2469 91.1426 40.2469 68.4439C40.2469 33.5669 68.615 5.20005 103.485 5.20005C138.356 5.20005 166.724 33.5669 166.724 68.4439C166.724 91.1426 155.075 106.195 144.798 119.469C140.676 124.803 136.802 129.83 133.708 135.11H109.99C114.43 123.841 121.467 114.724 127.907 106.395C137.276 94.2975 145.366 83.8437 145.366 68.4439C145.366 45.344 126.578 26.5621 103.485 26.5621C80.3922 26.5621 61.6049 45.344 61.6049 68.4439C61.6049 83.8437 69.6952 94.2975 79.0661 106.395C85.5055 114.724 92.541 123.841 96.9805 135.11H73.2631C70.1684 129.83 66.2944 124.79 62.1744 119.469ZM139.393 140.31V179.144H67.5777V140.31H139.393ZM102.57 135.11C97.9617 122.33 90.219 112.317 83.1728 103.214C74.39 91.8645 66.8024 82.0658 66.8024 68.4439C66.8024 48.2181 83.2583 31.7622 103.485 31.7622C123.712 31.7622 140.168 48.2181 140.168 68.4439C140.168 82.0658 132.581 91.8645 123.794 103.214C116.75 112.317 109.009 122.33 104.4 135.11H102.57ZM204.373 236.8C149.003 236.8 120.361 211.922 110.057 184.344H133.531C135.714 188.194 138.578 192.071 142.378 195.76C155.845 208.821 176.703 215.438 204.373 215.438C205.808 215.438 206.972 214.275 206.972 212.844C206.972 211.414 205.808 210.238 204.373 210.238C178.1 210.238 158.46 204.115 145.997 192.031C143.429 189.544 141.335 186.951 139.62 184.344H141.992C143.427 184.344 144.592 183.181 144.592 181.751V137.717C144.592 136.273 143.427 135.11 141.992 135.11H139.83C142.484 130.966 145.61 126.915 148.908 122.651C159.696 108.721 171.923 92.9206 171.923 68.4439C171.923 30.7061 141.222 -6.11936e-05 103.485 -6.11936e-05C65.749 -6.11936e-05 35.0481 30.7061 35.0481 68.4439C35.0481 92.9206 47.2758 108.721 58.0624 122.651C61.3603 126.915 64.487 130.966 67.1405 135.11H64.979C63.5432 135.11 62.3802 136.273 62.3802 137.717V181.751C62.3802 183.181 63.5432 184.344 64.979 184.344H67.3518C65.6353 186.951 63.5419 189.544 60.9753 192.031C48.511 204.115 28.8708 210.238 2.59875 210.238C1.16304 210.238 0 211.414 0 212.844C0 214.275 1.16304 215.438 2.59875 215.438C30.2691 215.438 51.1271 208.821 64.5926 195.76C68.3945 192.071 71.2566 188.194 73.4395 184.344H96.9137C86.6097 211.922 57.9688 236.8 2.59875 236.8C1.16304 236.8 0 237.963 0 239.393C0 240.837 1.16304 242 2.59875 242C61.9351 242 92.1213 214.422 102.453 184.344H104.517C114.851 214.422 145.037 242 204.373 242C205.808 242 206.972 240.837 206.972 239.393C206.972 237.963 205.808 236.8 204.373 236.8Z" fill="#4D4D4D"/>
</svg>
