<svg width="220" height="220" viewBox="0 0 220 220" fill="none" xmlns="http://www.w3.org/2000/svg">
<path d="M92.3169 62.5902C74.8991 62.5902 58.5452 69.3531 46.2664 81.6359C20.8734 107.03 20.8721 148.343 46.2638 173.737C58.5466 186.02 74.9018 192.783 92.3169 192.783C109.735 192.783 126.081 186.02 138.364 173.737C163.758 148.343 163.758 107.03 138.364 81.6359C126.081 69.3531 109.735 62.5902 92.3169 62.5902ZM92.3169 197.982C73.5131 197.982 55.8534 190.671 42.5896 177.413C15.1704 149.987 15.1717 105.373 42.5922 77.9605C55.852 64.7019 73.5131 57.391 92.3169 57.391C111.125 57.391 128.781 64.7019 142.039 77.9605C169.465 105.373 169.465 149.987 142.039 177.413C128.781 190.671 111.125 197.982 92.3169 197.982ZM92.2983 40.5773C68.9957 40.5773 47.1124 49.6258 30.6809 66.0519C-3.30203 100.04 -3.30203 155.333 30.6809 189.321C47.1191 205.747 69.0076 214.809 92.3169 214.809C115.629 214.809 137.508 205.747 153.948 189.321C184.341 158.928 187.896 110.064 162.221 75.6349L161.018 74.031C160.256 72.9885 160.363 71.545 161.272 70.6362L178.313 53.5953C179.329 52.5795 180.973 52.5795 181.988 53.5953L200.433 72.0396C202.023 73.6167 204.135 74.4988 206.38 74.4988C208.639 74.4988 210.751 73.6167 212.341 72.0396C213.932 70.4491 214.814 68.324 214.814 66.0786C214.814 63.8332 213.932 61.7081 212.341 60.1309L193.897 41.6867C192.881 40.6709 192.881 39.0269 193.897 38.0112L209.307 22.6009C212.595 19.313 212.595 13.9801 209.307 10.6922C207.717 9.10175 205.605 8.21964 203.36 8.21964C201.101 8.21964 198.989 9.10175 197.399 10.6922L181.988 26.1026C180.973 27.1184 179.329 27.1184 178.313 26.1026L159.882 7.65833C158.291 6.06784 156.166 5.19904 153.921 5.19904C151.675 5.19904 149.564 6.06784 147.973 7.65833C144.685 10.9462 144.685 16.279 147.973 19.5669L166.404 38.0112C167.42 39.0269 167.42 40.6709 166.404 41.6867L149.363 58.7276C148.454 59.6498 147.011 59.7568 145.968 58.9816L144.365 57.7787C129.275 46.525 111.258 40.5773 92.2983 40.5773ZM92.3169 219.995C67.6203 219.995 44.426 210.412 27.0069 192.997C-9.00229 156.977 -9.00229 98.3828 27.0069 62.3764C44.4193 44.9612 67.607 35.3782 92.2983 35.3782C112.314 35.3782 131.32 41.6332 147.278 53.4616L160.898 39.8423L144.298 23.2424C138.978 17.9363 138.978 9.28891 144.298 3.98283C146.864 1.41667 150.285 -0.000107069 153.921 -0.000107069C157.556 -0.000107069 160.978 1.41667 163.557 3.98283L180.157 20.5827L193.723 7.01674C196.303 4.45058 199.724 3.03388 203.36 3.03388C206.995 3.03388 210.417 4.45058 212.983 7.01674C218.289 12.3228 218.289 20.9703 212.983 26.2763L199.417 39.8423L216.017 56.4555C218.583 59.0216 220 62.4432 220 66.0786C220 69.714 218.583 73.1355 216.017 75.7151C213.451 78.2812 210.029 79.698 206.38 79.698C202.745 79.698 199.337 78.2812 196.757 75.7017L180.157 59.1018L166.538 72.7212C193.576 109.195 189.767 160.853 157.623 192.997C140.208 210.412 117.019 219.995 92.3169 219.995Z" fill="#4D4D4D"/>
</svg>
