<svg preserveAspectRatio="none" width="100%" height="100%" overflow="visible" style="display: block;" viewBox="0 0 206 428.292" fill="none" xmlns="http://www.w3.org/2000/svg">
<path id="Flattened" fill-rule="evenodd" clip-rule="evenodd" d="M1.05023 31.1766C1.05023 13.9582 15.0085 0 32.2268 0H173.756C190.975 0 204.933 13.9582 204.933 31.1766V133.313C205.522 133.313 206 133.791 206 134.38V184.124C206 184.713 205.522 185.191 204.933 185.191V397.116C204.933 414.334 190.975 428.292 173.756 428.292H32.2268C15.0085 428.292 1.05023 414.334 1.05023 397.116V184.963C0.469225 184.953 0.00120578 184.479 0.00120578 183.896V153.884C0.00120578 153.301 0.469225 152.827 1.05023 152.817V143.035C0.468667 143.026 0 142.552 0 141.968V111.614C0 111.03 0.468667 110.556 1.05023 110.547V95.7037C0.468667 95.6947 0 95.2204 0 94.6367V80.6617C0 80.078 0.468667 79.6038 1.05023 79.5948V31.1766ZM32.2268 5.86491C18.2476 5.86491 6.91514 17.1973 6.91514 31.1766V397.116C6.91514 411.095 18.2476 422.428 32.2268 422.428H173.756C187.736 422.428 199.068 411.095 199.068 397.116V31.1766C199.068 17.1973 187.736 5.86491 173.756 5.86491H32.2268Z" fill="var(--fill-0, black)"/>
</svg>
