<svg width="24" height="24" viewBox="0 0 24 24" fill="none" xmlns="http://www.w3.org/2000/svg">
<path d="M8.80897 2L5.18896 5.63" stroke="#933A35" stroke-width="2.5" stroke-miterlimit="10" stroke-linecap="round" stroke-linejoin="round"/>
<path d="M15.189 2L18.809 5.63" stroke="#933A35" stroke-width="2.5" stroke-miterlimit="10" stroke-linecap="round" stroke-linejoin="round"/>
<path d="M1.99756 7.84961C1.99756 5.99961 2.98756 5.84961 4.21756 5.84961H19.7776C21.0076 5.84961 21.9976 5.99961 21.9976 7.84961C21.9976 9.99961 21.0076 9.84961 19.7776 9.84961H4.21756C2.98756 9.84961 1.99756 9.99961 1.99756 7.84961Z" stroke="#933A35" stroke-width="2.5"/>
<path d="M9.75928 14V17.55" stroke="#933A35" stroke-width="2.5" stroke-linecap="round"/>
<path d="M14.3569 14V17.55" stroke="#933A35" stroke-width="2.5" stroke-linecap="round"/>
<path d="M3.49756 10L4.90756 18.64C5.22756 20.58 5.99756 22 8.85756 22H14.8876C17.9976 22 18.4576 20.64 18.8176 18.76L20.4976 10" stroke="#933A35" stroke-width="2.5" stroke-linecap="round"/>
</svg>
