<svg width="23" height="24" viewBox="0 0 23 24" fill="none" xmlns="http://www.w3.org/2000/svg">
<path d="M20.756 10.4395L19.8169 14.6195C19.0119 18.2295 17.421 19.6895 14.431 19.3895C13.9519 19.3495 13.4344 19.2595 12.8785 19.1195L11.2685 18.7195C7.27229 17.7295 6.03604 15.6695 6.97521 11.4895L7.91438 7.29952C8.10604 6.44952 8.33604 5.70952 8.62354 5.09952C9.74479 2.67952 11.6519 2.02952 14.8527 2.81952L16.4531 3.20952C20.4685 4.18952 21.6952 6.25952 20.756 10.4395Z" stroke="#923B37" stroke-width="2.02067" stroke-linecap="round" stroke-linejoin="round"/>
<path d="M14.4311 19.3896C13.837 19.8096 13.0895 20.1596 12.179 20.4696L10.6649 20.9896C6.86029 22.2696 4.85737 21.1996 3.62112 17.2296L2.39445 13.2796C1.16778 9.30961 2.18362 7.20961 5.9882 5.92961L7.50237 5.40961C7.89528 5.27961 8.26903 5.16961 8.62362 5.09961C8.33612 5.70961 8.10612 6.44961 7.91445 7.29961L6.97528 11.4896C6.03612 15.6696 7.27237 17.7296 11.2686 18.7196L12.8786 19.1196C13.4345 19.2596 13.952 19.3496 14.4311 19.3896Z" stroke="#923B37" stroke-width="2.02067" stroke-linecap="round" stroke-linejoin="round"/>
<path d="M12.1123 8.53027L16.7602 9.76027" stroke="#923B37" stroke-width="2.02067" stroke-linecap="round" stroke-linejoin="round"/>
<path d="M11.1729 12.4004L13.952 13.1404" stroke="#923B37" stroke-width="2.02067" stroke-linecap="round" stroke-linejoin="round"/>
</svg>
