<svg width="33" height="33" viewBox="0 0 33 33" fill="none" xmlns="http://www.w3.org/2000/svg">
<path d="M12.3769 30.2492H20.6269C27.5019 30.2492 30.2519 27.4992 30.2519 20.6242V12.3742C30.2519 5.49917 27.5019 2.74917 20.6269 2.74917H12.3769C5.50192 2.74917 2.75192 5.49917 2.75192 12.3742V20.6242C2.75192 27.4992 5.50192 30.2492 12.3769 30.2492Z" stroke="#292D32" stroke-width="2.02067" stroke-linecap="round" stroke-linejoin="round"/>
<path d="M24.7521 10.6558V19.9371C24.7521 18.4246 23.5146 17.1871 22.0021 17.1871H11.0021C9.48963 17.1871 8.25213 18.4246 8.25213 19.9371V10.6558C8.25213 9.14332 9.48963 7.90582 11.0021 7.90582H22.0021C23.5146 7.90582 24.7521 9.14332 24.7521 10.6558Z" stroke="#292D32" stroke-width="2.02067" stroke-linecap="round" stroke-linejoin="round"/>
<path d="M26.1272 21.6558H24.7522" stroke="#292D32" stroke-width="2.02067" stroke-linecap="round" stroke-linejoin="round"/>
<path d="M8.25214 21.6558H6.87714" stroke="#292D32" stroke-width="2.02067" stroke-linecap="round" stroke-linejoin="round"/>
<path d="M24.7519 19.2492V15.1242C24.7519 13.6117 23.5144 12.3742 22.0019 12.3742H11.0019C9.48945 12.3742 8.25195 13.6117 8.25195 15.1242V19.2492" stroke="#292D32" stroke-width="2.02067" stroke-linecap="round" stroke-linejoin="round"/>
<path d="M24.7519 19.9367V21.6554H19.9394C19.9394 23.5529 18.3994 25.0929 16.5019 25.0929C14.6044 25.0929 13.0644 23.5529 13.0644 21.6554H8.25195V19.9367C8.25195 18.4242 9.48945 17.1867 11.0019 17.1867H22.0019C23.5144 17.1867 24.7519 18.4242 24.7519 19.9367Z" stroke="#292D32" stroke-width="2.02067" stroke-linecap="round" stroke-linejoin="round"/>
</svg>
