<svg width="33" height="33" viewBox="0 0 33 33" fill="none" xmlns="http://www.w3.org/2000/svg">
<path d="M13.2287 22L15.2912 24.0625L19.7599 19.9375" stroke="#292D32" stroke-width="2.02067" stroke-linecap="round" stroke-linejoin="round"/>
<path d="M12.1154 2.74985L7.13791 7.74109" stroke="#292D32" stroke-width="2.02067" stroke-miterlimit="10" stroke-linecap="round" stroke-linejoin="round"/>
<path d="M20.8879 2.74985L25.8654 7.74109" stroke="#292D32" stroke-width="2.02067" stroke-miterlimit="10" stroke-linecap="round" stroke-linejoin="round"/>
<path d="M2.74961 10.7932C2.74961 8.24948 4.11085 8.04323 5.8021 8.04323H27.1971C28.8883 8.04323 30.2495 8.24948 30.2495 10.7932C30.2495 13.7495 28.8883 13.5432 27.1971 13.5432H5.8021C4.11085 13.5432 2.74961 13.7495 2.74961 10.7932Z" stroke="#292D32" stroke-width="2.02067"/>
<path d="M4.81243 13.75L6.75118 25.63C7.19118 28.2975 8.24993 30.25 12.1824 30.25H20.4737C24.7499 30.25 25.3824 28.38 25.8774 25.795L28.1874 13.75" stroke="#292D32" stroke-width="2.02067" stroke-linecap="round"/>
</svg>
