<svg width="33" height="33" viewBox="0 0 33 33" fill="none" xmlns="http://www.w3.org/2000/svg">
<path d="M10.9964 2.7516V6.87659" stroke="#292D32" stroke-width="2.02067" stroke-miterlimit="10" stroke-linecap="round" stroke-linejoin="round"/>
<path d="M21.9963 2.7516V6.87659" stroke="#292D32" stroke-width="2.02067" stroke-miterlimit="10" stroke-linecap="round" stroke-linejoin="round"/>
<path d="M4.80894 12.5001H28.1839" stroke="#292D32" stroke-width="2.02067" stroke-miterlimit="10" stroke-linecap="round" stroke-linejoin="round"/>
<path d="M24.7462 31.6265C27.7838 31.6265 30.2462 29.1641 30.2462 26.1265C30.2462 23.089 27.7838 20.6265 24.7462 20.6265C21.7087 20.6265 19.2462 23.089 19.2462 26.1265C19.2462 29.1641 21.7087 31.6265 24.7462 31.6265Z" stroke="#292D32" stroke-width="2.02067" stroke-miterlimit="10" stroke-linecap="round" stroke-linejoin="round"/>
<path d="M26.7976 26.1948H22.7001" stroke="#292D32" stroke-width="2.02067" stroke-miterlimit="10" stroke-linecap="round" stroke-linejoin="round"/>
<path d="M24.7464 24.1873V28.2985" stroke="#292D32" stroke-width="2.02067" stroke-miterlimit="10" stroke-linecap="round" stroke-linejoin="round"/>
<path d="M28.8716 11.6889V22.4964C27.8679 21.3551 26.3966 20.6264 24.7466 20.6264C21.7079 20.6264 19.2466 23.0876 19.2466 26.1264C19.2466 27.1576 19.5354 28.1339 20.0441 28.9589C20.3329 29.4539 20.7041 29.8939 21.1304 30.2514H10.9967C6.18416 30.2514 4.12167 27.5014 4.12167 23.3764V11.6889C4.12167 7.56392 6.18416 4.81393 10.9967 4.81393H21.9966C26.8091 4.81393 28.8716 7.56392 28.8716 11.6889Z" stroke="#292D32" stroke-width="2.02067" stroke-miterlimit="10" stroke-linecap="round" stroke-linejoin="round"/>
<path d="M16.4888 18.8393H16.5012" stroke="#292D32" stroke-width="2.69423" stroke-linecap="round" stroke-linejoin="round"/>
<path d="M11.4023 18.8393H11.4146" stroke="#292D32" stroke-width="2.69423" stroke-linecap="round" stroke-linejoin="round"/>
<path d="M11.4023 22.9642H11.4146" stroke="#292D32" stroke-width="2.69423" stroke-linecap="round" stroke-linejoin="round"/>
</svg>
