<svg width="33" height="33" viewBox="0 0 33 33" fill="none" xmlns="http://www.w3.org/2000/svg">
<path d="M16.4971 30.25C24.091 30.25 30.2471 24.094 30.2471 16.5001C30.2471 8.90618 24.091 2.7501 16.4971 2.7501C8.90319 2.7501 2.74711 8.90618 2.74711 16.5001C2.74711 24.094 8.90319 30.25 16.4971 30.25Z" stroke="#292D32" stroke-width="2.02067" stroke-miterlimit="10" stroke-linecap="round" stroke-linejoin="round"/>
<path d="M13.598 8.01657V10.7666" stroke="#292D32" stroke-width="2.02067" stroke-miterlimit="10" stroke-linecap="round" stroke-linejoin="round"/>
<path d="M19.3987 8.01657V10.7666" stroke="#292D32" stroke-width="2.02067" stroke-miterlimit="10" stroke-linecap="round" stroke-linejoin="round"/>
<path d="M10.354 13.9421H22.6465" stroke="#292D32" stroke-width="2.02067" stroke-miterlimit="10" stroke-linecap="round" stroke-linejoin="round"/>
<path d="M18.5611 24.2963H14.4361C10.9986 24.2963 8.93609 21.8213 8.93609 18.7963V14.6713C8.93609 11.6463 10.9986 9.17133 14.4361 9.17133H18.5611C21.9986 9.17133 24.0611 11.6463 24.0611 14.6713V18.7963C24.0611 21.8213 21.9986 24.2963 18.5611 24.2963Z" stroke="#292D32" stroke-width="2.02067" stroke-miterlimit="10" stroke-linecap="round" stroke-linejoin="round"/>
</svg>
