<svg width="33" height="33" viewBox="0 0 33 33" fill="none" xmlns="http://www.w3.org/2000/svg">
<path d="M11.0054 2.7516V6.87659" stroke="#292D32" stroke-width="2.02067" stroke-miterlimit="10" stroke-linecap="round" stroke-linejoin="round"/>
<path d="M22.0053 2.7516V6.87659" stroke="#292D32" stroke-width="2.02067" stroke-miterlimit="10" stroke-linecap="round" stroke-linejoin="round"/>
<path d="M25.0317 29.4265C27.4618 29.4265 29.4317 27.4566 29.4317 25.0265C29.4317 22.5965 27.4618 20.6265 25.0317 20.6265C22.6017 20.6265 20.6318 22.5965 20.6318 25.0265C20.6318 27.4566 22.6017 29.4265 25.0317 29.4265Z" stroke="#292D32" stroke-width="2.02067" stroke-linecap="round" stroke-linejoin="round"/>
<path d="M30.2566 30.2516L28.8816 28.8766" stroke="#292D32" stroke-width="2.02067" stroke-linecap="round" stroke-linejoin="round"/>
<path d="M4.81791 12.5001H28.1929" stroke="#292D32" stroke-width="2.02067" stroke-miterlimit="10" stroke-linecap="round" stroke-linejoin="round"/>
<path d="M18.3894 30.2514H11.0056C6.19313 30.2514 4.13064 27.5014 4.13064 23.3764V11.6889C4.13064 7.56392 6.19313 4.81393 11.0056 4.81393H22.0056C26.8181 4.81393 28.8806 7.56392 28.8806 11.6889V17.8764" stroke="#292D32" stroke-width="2.02067" stroke-miterlimit="10" stroke-linecap="round" stroke-linejoin="round"/>
<path d="M16.4978 18.8393H16.5101" stroke="#292D32" stroke-width="2.69423" stroke-linecap="round" stroke-linejoin="round"/>
<path d="M11.4112 18.8393H11.4236" stroke="#292D32" stroke-width="2.69423" stroke-linecap="round" stroke-linejoin="round"/>
<path d="M11.4112 22.9642H11.4236" stroke="#292D32" stroke-width="2.69423" stroke-linecap="round" stroke-linejoin="round"/>
</svg>
