<svg width="33" height="33" viewBox="0 0 33 33" fill="none" xmlns="http://www.w3.org/2000/svg">
<path d="M10.9949 2.7516V6.87659" stroke="#292D32" stroke-width="2.02067" stroke-miterlimit="10" stroke-linecap="round" stroke-linejoin="round"/>
<path d="M21.9948 2.7516V6.87659" stroke="#292D32" stroke-width="2.02067" stroke-miterlimit="10" stroke-linecap="round" stroke-linejoin="round"/>
<path d="M4.80745 12.5001H28.1824" stroke="#292D32" stroke-width="2.02067" stroke-miterlimit="10" stroke-linecap="round" stroke-linejoin="round"/>
<path d="M24.7447 31.6265C27.7823 31.6265 30.2447 29.1641 30.2447 26.1265C30.2447 23.089 27.7823 20.6265 24.7447 20.6265C21.7072 20.6265 19.2447 23.089 19.2447 26.1265C19.2447 29.1641 21.7072 31.6265 24.7447 31.6265Z" stroke="#292D32" stroke-width="2.02067" stroke-miterlimit="10" stroke-linecap="round" stroke-linejoin="round"/>
<path d="M26.2151 27.6532L23.3001 24.7519" stroke="#292D32" stroke-width="2.02067" stroke-miterlimit="10" stroke-linecap="round" stroke-linejoin="round"/>
<path d="M26.1882 24.7788L23.2732 27.6939" stroke="#292D32" stroke-width="2.02067" stroke-miterlimit="10" stroke-linecap="round" stroke-linejoin="round"/>
<path d="M28.8701 11.6889V22.4964C27.8664 21.3551 26.3951 20.6264 24.7451 20.6264C21.7064 20.6264 19.2451 23.0876 19.2451 26.1264C19.2451 27.1576 19.5339 28.1339 20.0426 28.9589C20.3314 29.4539 20.7026 29.8939 21.1289 30.2514H10.9952C6.18267 30.2514 4.12017 27.5014 4.12017 23.3764V11.6889C4.12017 7.56392 6.18267 4.81393 10.9952 4.81393H21.9951C26.8076 4.81393 28.8701 7.56392 28.8701 11.6889Z" stroke="#292D32" stroke-width="2.02067" stroke-miterlimit="10" stroke-linecap="round" stroke-linejoin="round"/>
<path d="M16.4873 18.8393H16.4997" stroke="#292D32" stroke-width="2.69423" stroke-linecap="round" stroke-linejoin="round"/>
<path d="M11.4008 18.8393H11.4131" stroke="#292D32" stroke-width="2.69423" stroke-linecap="round" stroke-linejoin="round"/>
<path d="M11.4008 22.9642H11.4131" stroke="#292D32" stroke-width="2.69423" stroke-linecap="round" stroke-linejoin="round"/>
</svg>
