<svg width="33" height="33" viewBox="0 0 33 33" fill="none" xmlns="http://www.w3.org/2000/svg">
<path d="M10.9939 2.7501V6.87509" stroke="#292D32" stroke-width="2.02067" stroke-miterlimit="10" stroke-linecap="round" stroke-linejoin="round"/>
<path d="M21.9939 2.7501V6.87509" stroke="#292D32" stroke-width="2.02067" stroke-miterlimit="10" stroke-linecap="round" stroke-linejoin="round"/>
<path d="M4.80645 12.4986H28.1814" stroke="#292D32" stroke-width="2.02067" stroke-miterlimit="10" stroke-linecap="round" stroke-linejoin="round"/>
<path d="M26.4078 21.6838L21.5404 26.5513C21.3479 26.7438 21.1691 27.1013 21.1278 27.3625L20.8666 29.2188C20.7703 29.8925 21.2379 30.3601 21.9116 30.2638L23.7679 30.0025C24.0291 29.9613 24.4004 29.7825 24.5791 29.59L29.4466 24.7226C30.2854 23.8838 30.6841 22.9076 29.4466 21.6701C28.2229 20.4463 27.2466 20.845 26.4078 21.6838Z" stroke="#292D32" stroke-width="2.02067" stroke-miterlimit="10" stroke-linecap="round" stroke-linejoin="round"/>
<path d="M25.7044 22.3851C26.1168 23.8701 27.2718 25.0251 28.7568 25.4376" stroke="#292D32" stroke-width="2.02067" stroke-miterlimit="10" stroke-linecap="round" stroke-linejoin="round"/>
<path d="M16.4941 30.2499H10.9942C6.18167 30.2499 4.11918 27.4999 4.11918 23.3749V11.6874C4.11918 7.56243 6.18167 4.81243 10.9942 4.81243H21.9941C26.8066 4.81243 28.8691 7.56243 28.8691 11.6874V16.4999" stroke="#292D32" stroke-width="2.02067" stroke-miterlimit="10" stroke-linecap="round" stroke-linejoin="round"/>
<path d="M16.4863 18.8378H16.4987" stroke="#292D32" stroke-width="2.69423" stroke-linecap="round" stroke-linejoin="round"/>
<path d="M11.3998 18.8378H11.4121" stroke="#292D32" stroke-width="2.69423" stroke-linecap="round" stroke-linejoin="round"/>
<path d="M11.3998 22.9627H11.4121" stroke="#292D32" stroke-width="2.69423" stroke-linecap="round" stroke-linejoin="round"/>
</svg>
