<svg width="33" height="33" viewBox="0 0 33 33" fill="none" xmlns="http://www.w3.org/2000/svg">
<path d="M11.0039 2.7516V6.87659" stroke="#292D32" stroke-width="2.02067" stroke-miterlimit="10" stroke-linecap="round" stroke-linejoin="round"/>
<path d="M22.0038 2.7516V6.87659" stroke="#292D32" stroke-width="2.02067" stroke-miterlimit="10" stroke-linecap="round" stroke-linejoin="round"/>
<path d="M4.81642 12.5001H28.1914" stroke="#292D32" stroke-width="2.02067" stroke-miterlimit="10" stroke-linecap="round" stroke-linejoin="round"/>
<path d="M30.2557 26.1265C30.2557 27.1578 29.9669 28.134 29.4582 28.959C28.5094 30.554 26.7632 31.6265 24.7557 31.6265C23.367 31.6265 22.102 31.1178 21.1395 30.2515C20.7132 29.894 20.342 29.454 20.0532 28.959C19.5445 28.134 19.2557 27.1578 19.2557 26.1265C19.2557 23.0878 21.717 20.6265 24.7557 20.6265C26.4057 20.6265 27.8769 21.3553 28.8807 22.4965C29.7332 23.4728 30.2557 24.7378 30.2557 26.1265Z" stroke="#292D32" stroke-width="2.02067" stroke-miterlimit="10" stroke-linecap="round" stroke-linejoin="round"/>
<path d="M22.6129 26.1259L23.9741 27.4871L26.9028 24.7783" stroke="#292D32" stroke-width="2.02067" stroke-linecap="round" stroke-linejoin="round"/>
<path d="M28.8791 11.6889V22.4964C27.8753 21.3551 26.4041 20.6264 24.7541 20.6264C21.7154 20.6264 19.2541 23.0876 19.2541 26.1264C19.2541 27.1576 19.5429 28.1339 20.0516 28.9589C20.3404 29.4539 20.7116 29.8939 21.1379 30.2514H11.0041C6.19164 30.2514 4.12914 27.5014 4.12914 23.3764V11.6889C4.12914 7.56392 6.19164 4.81393 11.0041 4.81393H22.0041C26.8166 4.81393 28.8791 7.56392 28.8791 11.6889Z" stroke="#292D32" stroke-width="2.02067" stroke-miterlimit="10" stroke-linecap="round" stroke-linejoin="round"/>
<path d="M16.4963 18.8393H16.5086" stroke="#292D32" stroke-width="2.69423" stroke-linecap="round" stroke-linejoin="round"/>
<path d="M11.4097 18.8393H11.4221" stroke="#292D32" stroke-width="2.69423" stroke-linecap="round" stroke-linejoin="round"/>
<path d="M11.4097 22.9642H11.4221" stroke="#292D32" stroke-width="2.69423" stroke-linecap="round" stroke-linejoin="round"/>
</svg>
