<svg width="33" height="33" viewBox="0 0 33 33" fill="none" xmlns="http://www.w3.org/2000/svg">
<path d="M16.5016 13.283V17.1193L18.4266 19.0443" stroke="#292D32" stroke-width="2.02067" stroke-linecap="round" stroke-linejoin="round"/>
<path d="M7.56403 16.5003C7.56403 11.564 11.5653 7.56279 16.5015 7.56279C21.4378 7.56279 25.439 11.564 25.439 16.5003C25.439 19.3603 24.0915 21.9178 22.0015 23.554H21.9878C20.4753 24.7365 18.5778 25.4377 16.5015 25.4377C14.4528 25.4377 12.569 24.7502 11.0565 23.5815H11.0428C8.92528 21.9453 7.56403 19.3878 7.56403 16.5003Z" stroke="#292D32" stroke-width="2.02067" stroke-linecap="round" stroke-linejoin="round"/>
<path d="M11.0443 23.5813H11.058C12.5705 24.7501 14.4543 25.4376 16.503 25.4376C18.5793 25.4376 20.4768 24.7363 21.9893 23.5538H22.003L21.3018 26.9501C20.628 29.5625 19.1155 30.25 17.2593 30.25H15.7605C13.9043 30.25 12.378 29.5625 11.718 26.9363L11.0443 23.5813Z" stroke="#292D32" stroke-width="2.02067" stroke-linecap="round" stroke-linejoin="round"/>
<path d="M11.0443 9.41909H11.058C12.5705 8.25034 14.4543 7.56284 16.503 7.56284C18.5793 7.56284 20.4768 8.26409 21.9893 9.44659H22.003L21.3018 6.05035C20.628 3.43785 19.1155 2.75035 17.2593 2.75035H15.7605C13.9043 2.75035 12.378 3.43785 11.718 6.0641L11.0443 9.41909Z" stroke="#292D32" stroke-width="2.02067" stroke-linecap="round" stroke-linejoin="round"/>
</svg>
