<svg width="33" height="33" viewBox="0 0 33 33" fill="none" xmlns="http://www.w3.org/2000/svg">
<path d="M22.7183 7.76895L18.4558 4.46896C17.9058 3.91896 16.6683 3.64396 15.8433 3.64396H10.6183C8.96834 3.64396 7.18084 4.88146 6.76834 6.53146L3.46835 16.5689C2.78085 18.4939 4.01835 20.1439 6.08084 20.1439H11.5808C12.4058 20.1439 13.0933 20.8314 12.9558 21.7939L12.2683 26.1939C11.9933 27.4314 12.8183 28.8064 14.0558 29.2189C15.1558 29.6314 16.5308 29.0814 17.0808 28.2564L22.7183 19.8689" stroke="#292D32" stroke-width="2.02067" stroke-miterlimit="10"/>
<path d="M29.7301 7.76857V21.2435C29.7301 23.1685 28.9051 23.856 26.9801 23.856H25.6051C23.6801 23.856 22.8551 23.1685 22.8551 21.2435V7.76857C22.8551 5.84357 23.6801 5.15607 25.6051 5.15607H26.9801C28.9051 5.15607 29.7301 5.84357 29.7301 7.76857Z" stroke="#292D32" stroke-width="2.02067" stroke-linecap="round" stroke-linejoin="round"/>
</svg>
