<svg width="33" height="33" viewBox="0 0 33 33" fill="none" xmlns="http://www.w3.org/2000/svg">
<path d="M19.9778 13.0205L13.0203 19.978C12.1266 19.0843 11.5766 17.8605 11.5766 16.4993C11.5766 13.7768 13.7765 11.5768 16.499 11.5768C17.8603 11.5768 19.084 12.1268 19.9778 13.0205Z" stroke="#292D32" stroke-width="2.02067" stroke-linecap="round" stroke-linejoin="round"/>
<path d="M24.5015 7.9339C22.0952 6.11891 19.3452 5.12891 16.499 5.12891C11.6453 5.12891 7.12152 7.9889 3.97277 12.9389C2.73528 14.8776 2.73528 18.1364 3.97277 20.0751C5.05902 21.7801 6.32402 23.2514 7.69902 24.4339" stroke="#292D32" stroke-width="2.02067" stroke-linecap="round" stroke-linejoin="round"/>
<path d="M11.5766 26.8527C13.144 27.5127 14.8078 27.8702 16.499 27.8702C21.3528 27.8702 25.8765 25.0102 29.0253 20.0602C30.2628 18.1215 30.2628 14.8627 29.0253 12.924C28.5715 12.209 28.0765 11.5352 27.5678 10.9027" stroke="#292D32" stroke-width="2.02067" stroke-linecap="round" stroke-linejoin="round"/>
<path d="M21.3248 17.4623C20.9673 19.401 19.3861 20.9823 17.4473 21.3398" stroke="#292D32" stroke-width="2.02067" stroke-linecap="round" stroke-linejoin="round"/>
<path d="M13.0206 19.9786L2.74936 30.2499" stroke="#292D32" stroke-width="2.02067" stroke-linecap="round" stroke-linejoin="round"/>
<path d="M30.2481 2.74961L19.9769 13.0208" stroke="#292D32" stroke-width="2.02067" stroke-linecap="round" stroke-linejoin="round"/>
</svg>
