<svg width="33" height="33" viewBox="0 0 33 33" fill="none" xmlns="http://www.w3.org/2000/svg">
<path d="M21.42 16.4993C21.42 19.2218 19.22 21.4218 16.4975 21.4218C13.7751 21.4218 11.5751 19.2218 11.5751 16.4993C11.5751 13.7768 13.7751 11.5768 16.4975 11.5768C19.22 11.5768 21.42 13.7768 21.42 16.4993Z" stroke="#292D32" stroke-width="2.02067" stroke-linecap="round" stroke-linejoin="round"/>
<path d="M16.4975 27.8704C21.3512 27.8704 25.875 25.0104 29.0237 20.0604C30.2612 18.1217 30.2612 14.8629 29.0237 12.9242C25.875 7.9742 21.3512 5.11421 16.4975 5.11421C11.6438 5.11421 7.12002 7.9742 3.97128 12.9242C2.73378 14.8629 2.73378 18.1217 3.97128 20.0604C7.12002 25.0104 11.6438 27.8704 16.4975 27.8704Z" stroke="#292D32" stroke-width="2.02067" stroke-linecap="round" stroke-linejoin="round"/>
</svg>
