<svg width="33" height="33" viewBox="0 0 33 33" fill="none" xmlns="http://www.w3.org/2000/svg">
<path d="M7.42836 2.88816H25.5783C27.0908 2.88816 28.3283 4.12565 28.3283 5.63815V8.66315C28.3283 9.76314 27.6408 11.1381 26.9533 11.8256L21.0408 17.0506C20.2158 17.7381 19.6658 19.1131 19.6658 20.2131V26.1256C19.6658 26.9506 19.1158 28.0506 18.4283 28.4631L16.5033 29.7006C14.7158 30.8006 12.2408 29.5631 12.2408 27.3631V20.0756C12.2408 19.1131 11.6909 17.8756 11.1409 17.1881L5.91586 11.6881C5.22837 11.0006 4.67837 9.76314 4.67837 8.93814V5.77565C4.67837 4.12565 5.91586 2.88816 7.42836 2.88816Z" stroke="#292D32" stroke-width="2.02067" stroke-miterlimit="10" stroke-linecap="round" stroke-linejoin="round"/>
<path d="M15.034 2.88816L8.2553 13.7506" stroke="#292D32" stroke-width="2.02067" stroke-miterlimit="10" stroke-linecap="round" stroke-linejoin="round"/>
</svg>
