<svg width="33" height="33" viewBox="0 0 33 33" fill="none" xmlns="http://www.w3.org/2000/svg">
<path d="M16.4957 26.8113C22.1912 26.8113 26.8082 22.1943 26.8082 16.4988C26.8082 10.8034 22.1912 6.18636 16.4957 6.18636C10.8003 6.18636 6.18325 10.8034 6.18325 16.4988C6.18325 22.1943 10.8003 26.8113 16.4957 26.8113Z" stroke="#292D32" stroke-width="2.02067" stroke-linecap="round" stroke-linejoin="round"/>
<path d="M16.4957 20.6238C18.7739 20.6238 20.6207 18.777 20.6207 16.4988C20.6207 14.2207 18.7739 12.3738 16.4957 12.3738C14.2176 12.3738 12.3707 14.2207 12.3707 16.4988C12.3707 18.777 14.2176 20.6238 16.4957 20.6238Z" stroke="#292D32" stroke-width="2.02067" stroke-linecap="round" stroke-linejoin="round"/>
<path d="M16.4956 5.49885V2.74886" stroke="#292D32" stroke-width="2.02067" stroke-linecap="round" stroke-linejoin="round"/>
<path d="M5.49586 16.4989H2.74587" stroke="#292D32" stroke-width="2.02067" stroke-linecap="round" stroke-linejoin="round"/>
<path d="M16.4956 27.4988V30.2488" stroke="#292D32" stroke-width="2.02067" stroke-linecap="round" stroke-linejoin="round"/>
<path d="M27.4958 16.4989H30.2458" stroke="#292D32" stroke-width="2.02067" stroke-linecap="round" stroke-linejoin="round"/>
</svg>
