<svg width="33" height="33" viewBox="0 0 33 33" fill="none" xmlns="http://www.w3.org/2000/svg">
<path d="M27.2109 20.5287C24.3784 23.3475 20.3221 24.2137 16.7609 23.1L10.2847 29.5625C9.81716 30.0437 8.89591 30.3324 8.23591 30.2362L5.23842 29.8237C4.24842 29.6862 3.32717 28.7512 3.17592 27.7612L2.76342 24.7637C2.66717 24.1037 2.98342 23.1825 3.43717 22.715L9.89966 16.2525C8.79966 12.6775 9.65216 8.62125 12.4847 5.8025C16.5409 1.74626 23.1271 1.74626 27.1971 5.8025C31.2671 9.85874 31.2671 16.4725 27.2109 20.5287Z" stroke="#292D32" stroke-width="2.02067" stroke-miterlimit="10" stroke-linecap="round" stroke-linejoin="round"/>
<path d="M9.47336 24.0485L12.6358 27.211" stroke="#292D32" stroke-width="2.02067" stroke-miterlimit="10" stroke-linecap="round" stroke-linejoin="round"/>
<path d="M19.9362 15.1244C21.0753 15.1244 21.9987 14.201 21.9987 13.0619C21.9987 11.9228 21.0753 10.9994 19.9362 10.9994C18.7971 10.9994 17.8737 11.9228 17.8737 13.0619C17.8737 14.201 18.7971 15.1244 19.9362 15.1244Z" stroke="#292D32" stroke-width="2.02067" stroke-linecap="round" stroke-linejoin="round"/>
</svg>
