<svg width="33" height="33" viewBox="0 0 33 33" fill="none" xmlns="http://www.w3.org/2000/svg">
<path d="M27.5357 3.40974L5.74194 25.2035" stroke="#292D32" stroke-width="2.02067" stroke-linecap="round" stroke-linejoin="round"/>
<path d="M7.21142 17.8743C6.63392 16.5406 6.29017 15.0968 6.29017 13.6118C6.29017 6.86058 12.0927 1.53933 18.6927 2.98308C20.7002 3.42308 22.4877 4.49558 23.8627 5.98058" stroke="#292D32" stroke-width="2.02067" stroke-linecap="round" stroke-linejoin="round"/>
<path d="M26.2027 10.0363C27.8802 15.3713 25.1714 20.7338 21.3352 23.1951V24.7901C21.3352 25.1888 21.4727 26.1101 20.0977 26.1101H12.9477C11.5314 26.1101 11.7102 25.5188 11.7102 24.7901V23.1951C11.0502 22.7826 10.4314 22.2738 9.84019 21.6826" stroke="#292D32" stroke-width="2.02067" stroke-linecap="round" stroke-linejoin="round"/>
<path d="M11.6827 30.2494C14.8315 29.3556 18.159 29.3556 21.3077 30.2494" stroke="#292D32" stroke-width="2.02067" stroke-linecap="round" stroke-linejoin="round"/>
</svg>
