<svg width="33" height="33" viewBox="0 0 33 33" fill="none" xmlns="http://www.w3.org/2000/svg">
<path d="M24.7481 25.9317H23.7031C22.6031 25.9317 21.5581 26.358 20.7881 27.128L18.4369 29.4517C17.3644 30.5105 15.6181 30.5105 14.5456 29.4517L12.1944 27.128C11.4244 26.358 10.3656 25.9317 9.2794 25.9317H8.24815C5.96566 25.9317 4.12316 24.103 4.12316 21.848V6.84676C4.12316 4.59177 5.96566 2.76306 8.24815 2.76306H24.7481C27.0306 2.76306 28.8731 4.59177 28.8731 6.84676V21.848C28.8731 24.0893 27.0306 25.9317 24.7481 25.9317Z" stroke="#292D32" stroke-width="2.02067" stroke-miterlimit="10" stroke-linecap="round" stroke-linejoin="round"/>
<path d="M16.8841 20.5699C16.6779 20.6386 16.3341 20.6386 16.1141 20.5699C14.3266 19.9511 10.3116 17.4074 10.3116 13.0761C10.3116 11.1649 11.8516 9.62487 13.7491 9.62487C14.8766 9.62487 15.8666 10.1611 16.4991 10.9999C17.1316 10.1611 18.1216 9.62487 19.2491 9.62487C21.1466 9.62487 22.6866 11.1649 22.6866 13.0761C22.6729 17.4074 18.6716 19.9511 16.8841 20.5699Z" stroke="#292D32" stroke-width="2.02067" stroke-linecap="round" stroke-linejoin="round"/>
</svg>
