<svg width="33" height="33" viewBox="0 0 33 33" fill="none" xmlns="http://www.w3.org/2000/svg">
<path d="M12.3742 15.1241V13.7491C12.3742 11.4666 13.0617 9.62412 16.4992 9.62412C19.9367 9.62412 20.6242 11.4666 20.6242 13.7491V15.1241" stroke="#292D32" stroke-width="2.02067" stroke-linecap="round" stroke-linejoin="round"/>
<path d="M16.4998 20.0747C16.9554 20.0747 17.3247 19.7053 17.3247 19.2497C17.3247 18.794 16.9554 18.4246 16.4998 18.4246C16.0441 18.4246 15.6748 18.794 15.6748 19.2497C15.6748 19.7053 16.0441 20.0747 16.4998 20.0747Z" stroke="#292D32" stroke-width="2.02067" stroke-linecap="round" stroke-linejoin="round"/>
<path d="M19.9366 23.3743H13.0616C10.3116 23.3743 9.62412 22.6868 9.62412 19.9368V18.5618C9.62412 15.8118 10.3116 15.1243 13.0616 15.1243H19.9366C22.6866 15.1243 23.3741 15.8118 23.3741 18.5618V19.9368C23.3741 22.6868 22.6866 23.3743 19.9366 23.3743Z" stroke="#292D32" stroke-width="2.02067" stroke-linecap="round" stroke-linejoin="round"/>
<path d="M16.4993 30.2493C24.0932 30.2493 30.2493 24.0932 30.2493 16.4993C30.2493 8.90543 24.0932 2.74936 16.4993 2.74936C8.90543 2.74936 2.74936 8.90543 2.74936 16.4993C2.74936 24.0932 8.90543 30.2493 16.4993 30.2493Z" stroke="#292D32" stroke-width="2.02067" stroke-linecap="round" stroke-linejoin="round"/>
</svg>
