<svg width="33" height="33" viewBox="0 0 33 33" fill="none" xmlns="http://www.w3.org/2000/svg">
<path d="M30.2445 12.3732V20.6232C30.2445 24.0607 29.557 26.467 28.017 28.0207L19.2445 19.2482L29.8732 8.61949C30.1207 9.70574 30.2445 10.9432 30.2445 12.3732Z" stroke="#292D32" stroke-width="2.02067" stroke-linecap="round" stroke-linejoin="round"/>
<path d="M29.8733 8.6201L8.61584 29.8775C4.4771 28.9288 2.74462 26.0688 2.74462 20.6238V12.3738C2.74462 5.49885 5.49462 2.74886 12.3696 2.74886H20.6196C26.0646 2.74886 28.9246 4.48136 29.8733 8.6201Z" stroke="#292D32" stroke-width="2.02067" stroke-linecap="round" stroke-linejoin="round"/>
<path d="M28.0164 28.0213C26.4626 29.5613 24.0564 30.2488 20.6189 30.2488H12.3689C10.9389 30.2488 9.70138 30.1251 8.61513 29.8776L19.2439 19.2489L28.0164 28.0213Z" stroke="#292D32" stroke-width="2.02067" stroke-linecap="round" stroke-linejoin="round"/>
<path d="M8.5735 10.971C9.5085 6.94222 15.5585 6.94222 16.4935 10.971C17.0298 13.336 15.5447 15.3435 14.2385 16.581C13.2897 17.4885 11.791 17.4885 10.8285 16.581C9.52227 15.3435 8.02351 13.336 8.5735 10.971Z" stroke="#292D32" stroke-width="2.02067"/>
<path d="M12.499 11.9617H12.5113" stroke="#292D32" stroke-width="2.69423" stroke-linecap="round" stroke-linejoin="round"/>
</svg>
