<svg width="33" height="33" viewBox="0 0 33 33" fill="none" xmlns="http://www.w3.org/2000/svg">
<path d="M24.1125 11.4245C25.9806 11.4245 27.495 9.9101 27.495 8.042C27.495 6.17389 25.9806 4.6595 24.1125 4.6595C22.2444 4.6595 20.73 6.17389 20.73 8.042C20.73 9.9101 22.2444 11.4245 24.1125 11.4245Z" stroke="#292D32" stroke-width="2.02067" stroke-miterlimit="10" stroke-linecap="round" stroke-linejoin="round"/>
<path d="M8.88023 11.4245C10.7483 11.4245 12.2627 9.9101 12.2627 8.042C12.2627 6.17389 10.7483 4.6595 8.88023 4.6595C7.01213 4.6595 5.49773 6.17389 5.49773 8.042C5.49773 9.9101 7.01213 11.4245 8.88023 11.4245Z" stroke="#292D32" stroke-width="2.02067" stroke-miterlimit="10" stroke-linecap="round" stroke-linejoin="round"/>
<path d="M24.1125 28.3367C25.9806 28.3367 27.495 26.8223 27.495 24.9542C27.495 23.0861 25.9806 21.5717 24.1125 21.5717C22.2444 21.5717 20.73 23.0861 20.73 24.9542C20.73 26.8223 22.2444 28.3367 24.1125 28.3367Z" stroke="#292D32" stroke-width="2.02067" stroke-miterlimit="10" stroke-linecap="round" stroke-linejoin="round"/>
<path d="M8.88023 28.3367C10.7483 28.3367 12.2627 26.8223 12.2627 24.9542C12.2627 23.0861 10.7483 21.5717 8.88023 21.5717C7.01213 21.5717 5.49773 23.0861 5.49773 24.9542C5.49773 26.8223 7.01213 28.3367 8.88023 28.3367Z" stroke="#292D32" stroke-width="2.02067" stroke-miterlimit="10" stroke-linecap="round" stroke-linejoin="round"/>
</svg>
