<svg width="33" height="33" viewBox="0 0 33 33" fill="none" xmlns="http://www.w3.org/2000/svg">
<path d="M23.3701 25.342H17.8701L11.7513 29.4119C10.8438 30.0169 9.62011 29.3707 9.62011 28.2707V25.342C5.49511 25.342 2.74512 22.592 2.74512 18.467V10.2169C2.74512 6.09193 5.49511 3.34194 9.62011 3.34194H23.3701C27.4951 3.34194 30.2451 6.09193 30.2451 10.2169V18.467C30.2451 22.592 27.4951 25.342 23.3701 25.342Z" stroke="#292D32" stroke-width="2.02067" stroke-miterlimit="10" stroke-linecap="round" stroke-linejoin="round"/>
<path d="M16.4945 15.6217V15.333C16.4945 14.398 17.072 13.903 17.6495 13.5043C18.2133 13.1193 18.7769 12.6243 18.7769 11.7168C18.7769 10.4518 17.7595 9.43423 16.4945 9.43423C15.2295 9.43423 14.212 10.4518 14.212 11.7168" stroke="#292D32" stroke-width="2.02067" stroke-linecap="round" stroke-linejoin="round"/>
<path d="M16.4887 18.9076H16.5011" stroke="#292D32" stroke-width="2.02067" stroke-linecap="round" stroke-linejoin="round"/>
</svg>
