<svg width="33" height="33" viewBox="0 0 33 33" fill="none" xmlns="http://www.w3.org/2000/svg">
<path d="M11.6863 26.1243H10.9988C5.49885 26.1243 2.74886 24.7493 2.74886 17.8743V10.9993C2.74886 5.49932 5.49885 2.74933 10.9988 2.74933H21.9988C27.4988 2.74933 30.2488 5.49932 30.2488 10.9993V17.8743C30.2488 23.3743 27.4988 26.1243 21.9988 26.1243H21.3113C20.8851 26.1243 20.4726 26.3305 20.2113 26.6743L18.1488 29.4243C17.2413 30.6343 15.7563 30.6343 14.8488 29.4243L12.7863 26.6743C12.5663 26.3718 12.0576 26.1243 11.6863 26.1243Z" stroke="#292D32" stroke-width="2.02067" stroke-miterlimit="10" stroke-linecap="round" stroke-linejoin="round"/>
<path d="M21.9937 15.1243H22.0061" stroke="#292D32" stroke-width="2.69423" stroke-linecap="round" stroke-linejoin="round"/>
<path d="M16.491 15.1243H16.5034" stroke="#292D32" stroke-width="2.69423" stroke-linecap="round" stroke-linejoin="round"/>
<path d="M10.9911 15.1243H11.0034" stroke="#292D32" stroke-width="2.69423" stroke-linecap="round" stroke-linejoin="round"/>
</svg>
