<svg width="33" height="33" viewBox="0 0 33 33" fill="none" xmlns="http://www.w3.org/2000/svg">
<path d="M23.3785 12.3757C23.3785 17.697 18.7586 22.0007 13.0661 22.0007L11.7873 23.5407L11.0311 24.4483C10.3848 25.2183 9.14732 25.0532 8.72108 24.1319L6.87858 20.0757C4.37609 18.3157 2.75359 15.5245 2.75359 12.3757C2.75359 7.0545 7.37358 2.75076 13.0661 2.75076C17.2186 2.75076 20.8073 5.04701 22.4161 8.34701C23.0348 9.57075 23.3785 10.932 23.3785 12.3757Z" stroke="#292D32" stroke-width="2.02067" stroke-linecap="round" stroke-linejoin="round"/>
<path d="M30.2538 17.6836C30.2538 20.8324 28.6313 23.6237 26.1288 25.3837L24.2863 29.4398C23.8601 30.3611 22.6226 30.5399 21.9763 29.7561L19.9413 27.3086C16.6138 27.3086 13.6439 25.8374 11.7876 23.5411L13.0664 22.0011C18.7588 22.0011 23.3788 17.6974 23.3788 12.3762C23.3788 10.9324 23.0351 9.57118 22.4163 8.34743C26.9126 9.37868 30.2538 13.1736 30.2538 17.6836Z" stroke="#292D32" stroke-width="2.02067" stroke-linecap="round" stroke-linejoin="round"/>
<path d="M9.62835 12.3757H16.5033" stroke="#292D32" stroke-width="2.02067" stroke-linecap="round" stroke-linejoin="round"/>
</svg>
