<svg width="33" height="33" viewBox="0 0 33 33" fill="none" xmlns="http://www.w3.org/2000/svg">
<path d="M16.5052 12.8158C18.1415 12.8158 19.4752 11.482 19.4752 9.84577C19.4752 8.20952 18.1415 6.87577 16.5052 6.87577C14.869 6.87577 13.5352 8.20952 13.5352 9.84577C13.5352 11.482 14.869 12.8158 16.5052 12.8158Z" stroke="#292D32" stroke-width="2.02067" stroke-linecap="round" stroke-linejoin="round"/>
<path d="M9.3404 26.1253C10.9767 26.1253 12.3104 24.7916 12.3104 23.1553C12.3104 21.5191 10.9767 20.1853 9.3404 20.1853C7.70415 20.1853 6.3704 21.5191 6.3704 23.1553C6.3704 24.7916 7.6904 26.1253 9.3404 26.1253Z" stroke="#292D32" stroke-width="2.02067" stroke-linecap="round" stroke-linejoin="round"/>
<path d="M23.6701 26.1253C25.3063 26.1253 26.6401 24.7916 26.6401 23.1553C26.6401 21.5191 25.3063 20.1853 23.6701 20.1853C22.0338 20.1853 20.7001 21.5191 20.7001 23.1553C20.7001 24.7916 22.0338 26.1253 23.6701 26.1253Z" stroke="#292D32" stroke-width="2.02067" stroke-linecap="round" stroke-linejoin="round"/>
</svg>
