<svg width="33" height="33" viewBox="0 0 33 33" fill="none" xmlns="http://www.w3.org/2000/svg">
<path d="M6.87915 13.7507C5.36665 13.7507 4.12915 14.9882 4.12915 16.5007C4.12915 18.0132 5.36665 19.2507 6.87915 19.2507C8.39165 19.2507 9.62915 18.0132 9.62915 16.5007C9.62915 14.9882 8.39165 13.7507 6.87915 13.7507Z" stroke="#292D32" stroke-width="2.02067"/>
<path d="M26.1289 13.7507C24.6164 13.7507 23.3789 14.9882 23.3789 16.5007C23.3789 18.0132 24.6164 19.2507 26.1289 19.2507C27.6414 19.2507 28.8789 18.0132 28.8789 16.5007C28.8789 14.9882 27.6414 13.7507 26.1289 13.7507Z" stroke="#292D32" stroke-width="2.02067"/>
<path d="M16.504 13.7507C14.9915 13.7507 13.754 14.9882 13.754 16.5007C13.754 18.0132 14.9915 19.2507 16.504 19.2507C18.0165 19.2507 19.254 18.0132 19.254 16.5007C19.254 14.9882 18.0165 13.7507 16.504 13.7507Z" stroke="#292D32" stroke-width="2.02067"/>
</svg>
