<svg width="33" height="33" viewBox="0 0 33 33" fill="none" xmlns="http://www.w3.org/2000/svg">
<path d="M29.7804 14.3545L28.4329 20.102C27.2779 25.0657 24.9954 27.0732 20.7055 26.6607C20.018 26.6057 19.2755 26.482 18.478 26.2895L16.168 25.7394C10.4342 24.3782 8.66048 21.5457 10.008 15.7982L11.3555 10.037C11.6305 8.86824 11.9605 7.85074 12.373 7.01199C13.9817 3.6845 16.718 2.79075 21.3105 3.877L23.6067 4.41325C29.3679 5.76074 31.1279 8.60699 29.7804 14.3545Z" stroke="#292D32" stroke-width="2.02067" stroke-linecap="round" stroke-linejoin="round"/>
<path d="M20.7057 26.6608C19.8532 27.2383 18.7807 27.7195 17.4744 28.1458L15.3019 28.8608C9.84318 30.6208 6.96943 29.1495 5.19568 23.6908L3.43569 18.2595C1.67569 12.8008 3.13319 9.91331 8.59193 8.15331L10.7644 7.43832C11.3282 7.25957 11.8644 7.10832 12.3732 7.01207C11.9607 7.85082 11.6307 8.86831 11.3557 10.0371L10.0082 15.7983C8.66068 21.5458 10.4344 24.3783 16.1682 25.7395L18.4782 26.2895C19.2757 26.482 20.0182 26.6058 20.7057 26.6608Z" stroke="#292D32" stroke-width="2.02067" stroke-linecap="round" stroke-linejoin="round"/>
<path d="M17.3785 11.7292L24.0473 13.4204" stroke="#292D32" stroke-width="2.02067" stroke-linecap="round" stroke-linejoin="round"/>
<path d="M16.0304 17.0506L20.0179 18.0681" stroke="#292D32" stroke-width="2.02067" stroke-linecap="round" stroke-linejoin="round"/>
</svg>
