<svg width="33" height="33" viewBox="0 0 33 33" fill="none" xmlns="http://www.w3.org/2000/svg">
<path d="M29.7829 14.3531L28.4354 20.1006C27.2804 25.0643 24.9979 27.0718 20.7079 26.6593C20.0204 26.6043 19.2779 26.4806 18.4804 26.2881L16.1705 25.7381C10.4367 24.3768 8.66297 21.5443 10.0105 15.7969L11.358 10.0356C11.633 8.86687 11.963 7.84937 12.3755 7.01062C13.9842 3.68313 16.7205 2.78938 21.3129 3.87563L23.6092 4.41187C29.3704 5.75937 31.1304 8.60562 29.7829 14.3531Z" stroke="#292D32" stroke-width="2.02067" stroke-linecap="round" stroke-linejoin="round"/>
<path d="M20.7081 26.6594C19.8556 27.2369 18.7831 27.7182 17.4769 28.1444L15.3044 28.8594C9.84567 30.6194 6.97192 29.1481 5.19818 23.6894L3.43818 18.2582C1.67818 12.7994 3.13568 9.91194 8.59442 8.15194L10.7669 7.43695C11.3307 7.2582 11.8669 7.10695 12.3757 7.0107C11.9632 7.84944 11.6332 8.86694 11.3582 10.0357L10.0107 15.7969C8.66317 21.5444 10.4369 24.3769 16.1707 25.7382L18.4806 26.2882C19.2781 26.4807 20.0206 26.6044 20.7081 26.6594Z" stroke="#292D32" stroke-width="2.02067" stroke-linecap="round" stroke-linejoin="round"/>
</svg>
