<svg width="33" height="33" viewBox="0 0 33 33" fill="none" xmlns="http://www.w3.org/2000/svg">
<path d="M26.1284 10.999C28.4066 10.999 30.2534 9.15218 30.2534 6.87401C30.2534 4.59583 28.4066 2.749 26.1284 2.749C23.8502 2.749 22.0034 4.59583 22.0034 6.87401C22.0034 9.15218 23.8502 10.999 26.1284 10.999Z" stroke="#292D32" stroke-width="2.02067" stroke-linecap="round" stroke-linejoin="round"/>
<path d="M19.2536 2.749H12.3786C5.5036 2.749 2.7536 5.49901 2.7536 12.374V20.624C2.7536 27.499 5.5036 30.249 12.3786 30.249H20.6286C27.5036 30.249 30.2536 27.499 30.2536 20.624V13.749" stroke="#292D32" stroke-width="2.02067" stroke-linecap="round" stroke-linejoin="round"/>
<path d="M9.36515 20.5276C8.8839 19.0151 9.44765 17.1314 11.0427 16.6226C11.8814 16.3476 12.9127 16.5814 13.5039 17.3926C14.0539 16.5539 15.1264 16.3614 15.9514 16.6226C17.5464 17.1314 18.1102 19.0151 17.6289 20.5276C16.8727 22.9339 14.2327 24.1851 13.5039 24.1851C12.7614 24.1714 10.1489 22.9476 9.36515 20.5276Z" stroke="#292D32" stroke-width="2.02067" stroke-linecap="round" stroke-linejoin="round"/>
</svg>
