<svg width="33" height="33" viewBox="0 0 33 33" fill="none" xmlns="http://www.w3.org/2000/svg">
<path d="M26.1224 10.999C28.4006 10.999 30.2474 9.15218 30.2474 6.87401C30.2474 4.59583 28.4006 2.749 26.1224 2.749C23.8442 2.749 21.9974 4.59583 21.9974 6.87401C21.9974 9.15218 23.8442 10.999 26.1224 10.999Z" stroke="#292D32" stroke-width="2.02067" stroke-linecap="round" stroke-linejoin="round"/>
<path d="M19.2751 3.024C18.3676 2.84525 17.4464 2.749 16.4976 2.749C8.90762 2.749 2.74762 8.90901 2.74762 16.499C2.74762 24.089 8.90762 30.249 16.4976 30.249C24.0876 30.249 30.2476 24.089 30.2476 16.499C30.2476 15.564 30.1514 14.6428 29.9726 13.7628" stroke="#292D32" stroke-width="2.02067" stroke-linecap="round" stroke-linejoin="round"/>
</svg>
