<svg width="33" height="33" viewBox="0 0 33 33" fill="none" xmlns="http://www.w3.org/2000/svg">
<path d="M16.5226 4.00046C11.9713 4.00046 8.27256 7.69921 8.27256 12.2505V16.2242C8.27256 17.063 7.91506 18.3417 7.48881 19.0567L5.90756 21.683C4.93131 23.3055 5.60506 25.1067 7.39256 25.7117C13.3188 27.6917 19.7126 27.6917 25.6388 25.7117C27.3026 25.1617 28.0313 23.1955 27.1238 21.683L25.5426 19.0567C25.1301 18.3417 24.7726 17.063 24.7726 16.2242V12.2505C24.7726 7.71296 21.0601 4.00046 16.5226 4.00046Z" stroke="#292D32" stroke-width="2.02067" stroke-miterlimit="10" stroke-linecap="round"/>
<path d="M19.0708 4.3996C18.6446 4.27585 18.2046 4.1796 17.7508 4.1246C16.4308 3.9596 15.1658 4.05585 13.9833 4.3996C14.382 3.3821 15.3721 2.6671 16.5271 2.6671C17.6821 2.6671 18.6721 3.3821 19.0708 4.3996Z" stroke="#292D32" stroke-width="2.02067" stroke-miterlimit="10" stroke-linecap="round" stroke-linejoin="round"/>
<path d="M20.6489 26.2059C20.6489 28.4747 18.7927 30.3309 16.5239 30.3309C15.3964 30.3309 14.3514 29.8634 13.6089 29.1209C12.8664 28.3784 12.3989 27.3334 12.3989 26.2059" stroke="#292D32" stroke-width="2.02067" stroke-miterlimit="10"/>
</svg>
