<svg width="33" height="33" viewBox="0 0 33 33" fill="none" xmlns="http://www.w3.org/2000/svg">
<path d="M16.4942 8.85458V13.4333" stroke="#292D32" stroke-width="2.02067" stroke-miterlimit="10" stroke-linecap="round"/>
<path d="M16.5201 2.749C11.4601 2.749 7.3626 6.84651 7.3626 11.9065V14.794C7.3626 15.729 6.9776 17.1315 6.49635 17.929L4.7501 20.844C3.6776 22.6453 4.4201 24.6528 6.4001 25.3128C12.9726 27.499 20.0814 27.499 26.6539 25.3128C28.5101 24.694 29.3076 22.5215 28.3039 20.844L26.5576 17.929C26.0764 17.1315 25.6914 15.7153 25.6914 14.794V11.9065C25.6776 6.87401 21.5526 2.749 16.5201 2.749Z" stroke="#292D32" stroke-width="2.02067" stroke-miterlimit="10" stroke-linecap="round"/>
<path d="M21.0755 25.8769C21.0755 28.3932 19.013 30.4557 16.4967 30.4557C15.2455 30.4557 14.0905 29.9332 13.2655 29.1082C12.4405 28.2832 11.918 27.1282 11.918 25.8769" stroke="#292D32" stroke-width="2.02067" stroke-miterlimit="10"/>
</svg>
