<svg width="33" height="33" viewBox="0 0 33 33" fill="none" xmlns="http://www.w3.org/2000/svg">
<path d="M24.7491 9.84485C24.6666 9.8311 24.5703 9.8311 24.4878 9.84485C22.5903 9.7761 21.0778 8.22235 21.0778 6.29735C21.0778 4.3311 22.6591 2.74985 24.6253 2.74985C26.5916 2.74985 28.1728 4.34485 28.1728 6.29735C28.159 8.22235 26.6466 9.7761 24.7491 9.84485Z" stroke="#292D32" stroke-width="2.02067" stroke-linecap="round" stroke-linejoin="round"/>
<path d="M23.3319 19.855C25.2157 20.1712 27.2919 19.8412 28.7494 18.865C30.6881 17.5725 30.6881 15.455 28.7494 14.1625C27.2782 13.1862 25.1744 12.8562 23.2907 13.1862" stroke="#292D32" stroke-width="2.02067" stroke-linecap="round" stroke-linejoin="round"/>
<path d="M8.20428 9.84485C8.28678 9.8311 8.38303 9.8311 8.46553 9.84485C10.363 9.7761 11.8755 8.22235 11.8755 6.29735C11.8755 4.3311 10.2943 2.74985 8.32803 2.74985C6.36179 2.74985 4.78054 4.34485 4.78054 6.29735C4.79429 8.22235 6.30678 9.7761 8.20428 9.84485Z" stroke="#292D32" stroke-width="2.02067" stroke-linecap="round" stroke-linejoin="round"/>
<path d="M9.6219 19.855C7.73815 20.1712 5.66191 19.8412 4.20441 18.865C2.26567 17.5725 2.26567 15.455 4.20441 14.1625C5.67566 13.1862 7.7794 12.8562 9.66315 13.1862" stroke="#292D32" stroke-width="2.02067" stroke-linecap="round" stroke-linejoin="round"/>
<path d="M16.4995 20.1159C16.417 20.1021 16.3207 20.1021 16.2382 20.1159C14.3407 20.0471 12.8283 18.4934 12.8283 16.5684C12.8283 14.6021 14.4095 13.0209 16.3757 13.0209C18.342 13.0209 19.9232 14.6159 19.9232 16.5684C19.9095 18.4934 18.397 20.0609 16.4995 20.1159Z" stroke="#292D32" stroke-width="2.02067" stroke-linecap="round" stroke-linejoin="round"/>
<path d="M12.4991 24.4466C10.5603 25.7391 10.5603 27.8566 12.4991 29.1491C14.6991 30.6203 18.3016 30.6203 20.5016 29.1491C22.4403 27.8566 22.4403 25.7391 20.5016 24.4466C18.3153 22.9891 14.6991 22.9891 12.4991 24.4466Z" stroke="#292D32" stroke-width="2.02067" stroke-linecap="round" stroke-linejoin="round"/>
</svg>
