<svg width="33" height="33" viewBox="0 0 33 33" fill="none" xmlns="http://www.w3.org/2000/svg">
<path d="M16.7197 14.9463C16.5822 14.9326 16.4172 14.9326 16.266 14.9463C12.9935 14.8363 10.3947 12.1551 10.3947 8.85509C10.3947 5.48635 13.1172 2.7501 16.4997 2.7501C19.8685 2.7501 22.6047 5.48635 22.6047 8.85509C22.591 12.1551 19.9922 14.8363 16.7197 14.9463Z" stroke="#292D32" stroke-width="2.02067" stroke-linecap="round" stroke-linejoin="round"/>
<path d="M9.84497 20.02C6.51748 22.2475 6.51748 25.8775 9.84497 28.0913C13.6262 30.6213 19.8275 30.6213 23.6087 28.0913C26.9362 25.8638 26.9362 22.2338 23.6087 20.02C19.8412 17.5038 13.64 17.5038 9.84497 20.02Z" stroke="#292D32" stroke-width="2.02067" stroke-linecap="round" stroke-linejoin="round"/>
</svg>
