<svg width="33" height="33" viewBox="0 0 33 33" fill="none" xmlns="http://www.w3.org/2000/svg">
<path d="M12.596 14.9463C12.4585 14.9326 12.2935 14.9326 12.1422 14.9463C8.86971 14.8363 6.27096 12.1551 6.27096 8.85509C6.27096 5.48635 8.99346 2.7501 12.376 2.7501C15.7447 2.7501 18.4809 5.48635 18.4809 8.85509C18.4672 12.1551 15.8684 14.8363 12.596 14.9463Z" stroke="#292D32" stroke-width="2.02067" stroke-linecap="round" stroke-linejoin="round"/>
<path d="M22.563 5.49996C25.2305 5.49996 27.3755 7.6587 27.3755 10.3124C27.3755 12.9112 25.313 15.0287 22.7417 15.1249C22.6317 15.1112 22.508 15.1112 22.3842 15.1249" stroke="#292D32" stroke-width="2.02067" stroke-linecap="round" stroke-linejoin="round"/>
<path d="M5.72119 20.02C2.39369 22.2475 2.39369 25.8775 5.72119 28.0913C9.50243 30.6213 15.7037 30.6213 19.4849 28.0913C22.8124 25.8638 22.8124 22.2338 19.4849 20.02C15.7174 17.5038 9.51618 17.5038 5.72119 20.02Z" stroke="#292D32" stroke-width="2.02067" stroke-linecap="round" stroke-linejoin="round"/>
<path d="M25.2176 27.5C26.2075 27.2937 27.1425 26.895 27.9125 26.3037C30.0575 24.695 30.0575 22.0412 27.9125 20.4325C27.1563 19.855 26.235 19.47 25.2588 19.25" stroke="#292D32" stroke-width="2.02067" stroke-linecap="round" stroke-linejoin="round"/>
</svg>
