<svg width="33" height="33" viewBox="0 0 33 33" fill="none" xmlns="http://www.w3.org/2000/svg">
<path d="M30.249 8.24934V11.5768C30.249 13.7493 28.874 15.1243 26.7015 15.1243H21.999V5.51309C21.999 3.98684 23.2503 2.74935 24.7765 2.74935C26.2753 2.7631 27.6503 3.36809 28.6403 4.35809C29.6303 5.36184 30.249 6.73685 30.249 8.24934Z" stroke="#292D32" stroke-width="2.02067" stroke-miterlimit="10" stroke-linecap="round" stroke-linejoin="round"/>
<path d="M2.74902 9.62434V28.8743C2.74902 30.0156 4.04152 30.6618 4.94902 29.9743L7.30027 28.2143C7.85027 27.8018 8.62027 27.8568 9.11527 28.3518L11.3978 30.6481C11.934 31.1843 12.814 31.1843 13.3503 30.6481L15.6603 28.3381C16.1415 27.8568 16.9115 27.8018 17.4478 28.2143L19.799 29.9743C20.7065 30.6481 21.999 30.0018 21.999 28.8743V5.49935C21.999 3.98685 23.2365 2.74935 24.749 2.74935H9.62402H8.24902C4.12402 2.74935 2.74902 5.2106 2.74902 8.24934V9.62434Z" stroke="#292D32" stroke-width="2.02067" stroke-miterlimit="10" stroke-linecap="round" stroke-linejoin="round"/>
<path d="M12.374 17.8878H16.499" stroke="#292D32" stroke-width="2.02067" stroke-linecap="round" stroke-linejoin="round"/>
<path d="M12.374 12.3878H16.499" stroke="#292D32" stroke-width="2.02067" stroke-linecap="round" stroke-linejoin="round"/>
<path d="M8.24366 17.8744H8.25601" stroke="#292D32" stroke-width="2.69423" stroke-linecap="round" stroke-linejoin="round"/>
<path d="M8.24366 12.3744H8.25601" stroke="#292D32" stroke-width="2.69423" stroke-linecap="round" stroke-linejoin="round"/>
</svg>
