<svg width="26" height="24" viewBox="0 0 26 24" fill="none" xmlns="http://www.w3.org/2000/svg">
<path d="M23.8325 5.99951V8.41951C23.8325 9.99951 22.7492 10.9995 21.0375 10.9995H17.3325V4.00951C17.3325 2.89951 18.3184 1.99951 19.5209 1.99951C20.7017 2.00951 21.785 2.44951 22.565 3.16951C23.345 3.89951 23.8325 4.89951 23.8325 5.99951Z" stroke="#923B37" stroke-width="2.02067" stroke-miterlimit="10" stroke-linecap="round" stroke-linejoin="round"/>
<path d="M2.16602 6.99951V20.9995C2.16602 21.8295 3.18435 22.2995 3.89935 21.7995L5.75185 20.5195C6.18518 20.2195 6.79185 20.2595 7.18185 20.6195L8.98018 22.2895C9.40268 22.6795 10.096 22.6795 10.5185 22.2895L12.3385 20.6095C12.7177 20.2595 13.3243 20.2195 13.7468 20.5195L15.5993 21.7995C16.3143 22.2895 17.3327 21.8195 17.3327 20.9995V3.99951C17.3327 2.89951 18.3077 1.99951 19.4993 1.99951H7.58268H6.49935C3.24935 1.99951 2.16602 3.78951 2.16602 5.99951V6.99951Z" stroke="#923B37" stroke-width="2.02067" stroke-miterlimit="10" stroke-linecap="round" stroke-linejoin="round"/>
<path d="M9.74902 13.0093H12.999" stroke="#923B37" stroke-width="2.02067" stroke-linecap="round" stroke-linejoin="round"/>
<path d="M9.74902 9.00928H12.999" stroke="#923B37" stroke-width="2.02067" stroke-linecap="round" stroke-linejoin="round"/>
<path d="M6.49512 12.9995H6.50485" stroke="#923B37" stroke-width="2.69423" stroke-linecap="round" stroke-linejoin="round"/>
<path d="M6.49512 8.99951H6.50485" stroke="#923B37" stroke-width="2.69423" stroke-linecap="round" stroke-linejoin="round"/>
</svg>
