<svg width="33" height="33" viewBox="0 0 33 33" fill="none" xmlns="http://www.w3.org/2000/svg">
<path d="M12.3751 30.2505H20.6251C27.5001 30.2505 30.2501 27.5005 30.2501 20.6255V12.3755C30.2501 5.50048 27.5001 2.75048 20.6251 2.75048H12.3751C5.50011 2.75048 2.75011 5.50048 2.75011 12.3755V20.6255C2.75011 27.5005 5.50011 30.2505 12.3751 30.2505Z" stroke="#292D32" stroke-width="2.02067" stroke-linecap="round" stroke-linejoin="round"/>
<path d="M21.4093 25.4375V20.075" stroke="#292D32" stroke-width="2.02067" stroke-miterlimit="10" stroke-linecap="round" stroke-linejoin="round"/>
<path d="M21.4093 10.2442V7.56299" stroke="#292D32" stroke-width="2.02067" stroke-miterlimit="10" stroke-linecap="round" stroke-linejoin="round"/>
<path d="M21.4068 17.3945C23.3813 17.3945 24.9818 15.7939 24.9818 13.8195C24.9818 11.8451 23.3813 10.2445 21.4068 10.2445C19.4324 10.2445 17.8319 11.8451 17.8319 13.8195C17.8319 15.7939 19.4324 17.3945 21.4068 17.3945Z" stroke="#292D32" stroke-width="2.02067" stroke-miterlimit="10" stroke-linecap="round" stroke-linejoin="round"/>
<path d="M11.5905 25.4377V22.7565" stroke="#292D32" stroke-width="2.02067" stroke-miterlimit="10" stroke-linecap="round" stroke-linejoin="round"/>
<path d="M11.5905 12.9255V7.56299" stroke="#292D32" stroke-width="2.02067" stroke-miterlimit="10" stroke-linecap="round" stroke-linejoin="round"/>
<path d="M11.5886 22.7562C13.563 22.7562 15.1636 21.1556 15.1636 19.1812C15.1636 17.2068 13.563 15.6062 11.5886 15.6062C9.61417 15.6062 8.01359 17.2068 8.01359 19.1812C8.01359 21.1556 9.61417 22.7562 11.5886 22.7562Z" stroke="#292D32" stroke-width="2.02067" stroke-miterlimit="10" stroke-linecap="round" stroke-linejoin="round"/>
</svg>
