<svg width="33" height="33" viewBox="0 0 33 33" fill="none" xmlns="http://www.w3.org/2000/svg">
<path d="M16.4985 20.6257C18.7767 20.6257 20.6235 18.7789 20.6235 16.5007C20.6235 14.2226 18.7767 12.3757 16.4985 12.3757C14.2203 12.3757 12.3735 14.2226 12.3735 16.5007C12.3735 18.7789 14.2203 20.6257 16.4985 20.6257Z" stroke="#292D32" stroke-width="2.02067" stroke-miterlimit="10" stroke-linecap="round" stroke-linejoin="round"/>
<path d="M2.74861 17.7113V15.2913C2.74861 13.8613 3.91736 12.6788 5.36111 12.6788C7.84986 12.6788 8.86736 10.9188 7.61611 8.7601C6.90111 7.5226 7.32736 5.91385 8.57861 5.19885L10.9574 3.8376C12.0436 3.19135 13.4461 3.57635 14.0924 4.6626L14.2436 4.92385C15.4811 7.0826 17.5161 7.0826 18.7674 4.92385L18.9186 4.6626C19.5649 3.57635 20.9674 3.19135 22.0536 3.8376L24.4324 5.19885C25.6836 5.91385 26.1099 7.5226 25.3949 8.7601C24.1436 10.9188 25.1611 12.6788 27.6499 12.6788C29.0799 12.6788 30.2624 13.8476 30.2624 15.2913V17.7113C30.2624 19.1413 29.0936 20.3238 27.6499 20.3238C25.1611 20.3238 24.1436 22.0838 25.3949 24.2426C26.1099 25.4938 25.6836 27.0888 24.4324 27.8038L22.0536 29.1651C20.9674 29.8113 19.5649 29.4263 18.9186 28.3401L18.7674 28.0788C17.5299 25.9201 15.4949 25.9201 14.2436 28.0788L14.0924 28.3401C13.4461 29.4263 12.0436 29.8113 10.9574 29.1651L8.57861 27.8038C7.32736 27.0888 6.90111 25.4801 7.61611 24.2426C8.86736 22.0838 7.84986 20.3238 5.36111 20.3238C3.91736 20.3238 2.74861 19.1413 2.74861 17.7113Z" stroke="#292D32" stroke-width="2.02067" stroke-miterlimit="10" stroke-linecap="round" stroke-linejoin="round"/>
</svg>
