<svg width="33" height="33" viewBox="0 0 33 33" fill="none" xmlns="http://www.w3.org/2000/svg">
<path d="M30.2514 8.93823H22.0014" stroke="#292D32" stroke-width="2.02067" stroke-miterlimit="10" stroke-linecap="round" stroke-linejoin="round"/>
<path d="M8.2516 8.93823H2.7516" stroke="#292D32" stroke-width="2.02067" stroke-miterlimit="10" stroke-linecap="round" stroke-linejoin="round"/>
<path d="M13.7516 13.7507C16.4095 13.7507 18.5641 11.5961 18.5641 8.93822C18.5641 6.28035 16.4095 4.12572 13.7516 4.12572C11.0937 4.12572 8.9391 6.28035 8.9391 8.93822C8.9391 11.5961 11.0937 13.7507 13.7516 13.7507Z" stroke="#292D32" stroke-width="2.02067" stroke-miterlimit="10" stroke-linecap="round" stroke-linejoin="round"/>
<path d="M30.2515 24.0633H24.7515" stroke="#292D32" stroke-width="2.02067" stroke-miterlimit="10" stroke-linecap="round" stroke-linejoin="round"/>
<path d="M11.0016 24.0633H2.7516" stroke="#292D32" stroke-width="2.02067" stroke-miterlimit="10" stroke-linecap="round" stroke-linejoin="round"/>
<path d="M19.2513 28.8758C21.9092 28.8758 24.0638 26.7211 24.0638 24.0633C24.0638 21.4054 21.9092 19.2508 19.2513 19.2508C16.5934 19.2508 14.4388 21.4054 14.4388 24.0633C14.4388 26.7211 16.5934 28.8758 19.2513 28.8758Z" stroke="#292D32" stroke-width="2.02067" stroke-miterlimit="10" stroke-linecap="round" stroke-linejoin="round"/>
</svg>
