<svg width="33" height="33" viewBox="0 0 33 33" fill="none" xmlns="http://www.w3.org/2000/svg">
<path d="M23.3221 8.48371C26.0721 10.395 27.9697 13.4337 28.3547 16.94" stroke="#292D32" stroke-width="2.02067" stroke-linecap="round" stroke-linejoin="round"/>
<path d="M4.7975 17.0084C5.155 13.5159 7.025 10.4771 9.74751 8.55212" stroke="#292D32" stroke-width="2.02067" stroke-linecap="round" stroke-linejoin="round"/>
<path d="M11.2641 28.7931C12.8591 29.6043 14.6741 30.0581 16.5854 30.0581C18.4279 30.0581 20.1604 29.6456 21.7141 28.8893" stroke="#292D32" stroke-width="2.02067" stroke-linecap="round" stroke-linejoin="round"/>
<path d="M16.5853 10.587C18.6964 10.587 20.4078 8.87561 20.4078 6.7645C20.4078 4.65339 18.6964 2.94199 16.5853 2.94199C14.4742 2.94199 12.7628 4.65339 12.7628 6.7645C12.7628 8.87561 14.4742 10.587 16.5853 10.587Z" stroke="#292D32" stroke-width="2.02067" stroke-linecap="round" stroke-linejoin="round"/>
<path d="M6.64339 27.3906C8.7545 27.3906 10.4659 25.6792 10.4659 23.5681C10.4659 21.457 8.7545 19.7456 6.64339 19.7456C4.53228 19.7456 2.82089 21.457 2.82089 23.5681C2.82089 25.6792 4.53228 27.3906 6.64339 27.3906Z" stroke="#292D32" stroke-width="2.02067" stroke-linecap="round" stroke-linejoin="round"/>
<path d="M26.3607 27.3906C28.4718 27.3906 30.1832 25.6792 30.1832 23.5681C30.1832 21.457 28.4718 19.7456 26.3607 19.7456C24.2496 19.7456 22.5382 21.457 22.5382 23.5681C22.5382 25.6792 24.2496 27.3906 26.3607 27.3906Z" stroke="#292D32" stroke-width="2.02067" stroke-linecap="round" stroke-linejoin="round"/>
</svg>
