<svg width="33" height="33" viewBox="0 0 33 33" fill="none" xmlns="http://www.w3.org/2000/svg">
<path d="M21.1627 7.16349L23.1014 11.041C23.3627 11.5772 24.0639 12.086 24.6552 12.196L28.1614 12.7735C30.4027 13.1447 30.9252 14.7672 29.3164 16.3897L26.5801 19.126C26.1264 19.5797 25.8652 20.4735 26.0164 21.1197L26.8001 24.5022C27.4189 27.1697 25.9889 28.2147 23.6377 26.8122L20.3514 24.8597C19.7602 24.5022 18.7702 24.5022 18.1789 24.8597L14.8927 26.8122C12.5414 28.2009 11.1114 27.1697 11.7302 24.5022L12.5139 21.1197C12.6652 20.4872 12.4039 19.5935 11.9502 19.126L9.21396 16.3897C7.60522 14.781 8.12771 13.1585 10.369 12.7735L13.8752 12.196C14.4664 12.0997 15.1677 11.5772 15.4289 11.041L17.3677 7.16349C18.3989 5.05974 20.1039 5.05974 21.1627 7.16349Z" stroke="#292D32" stroke-width="2.02067" stroke-linecap="round" stroke-linejoin="round"/>
<path d="M11.0026 6.87476H2.7526" stroke="#292D32" stroke-width="2.02067" stroke-linecap="round" stroke-linejoin="round"/>
<path d="M6.87759 26.1247H2.7526" stroke="#292D32" stroke-width="2.02067" stroke-linecap="round" stroke-linejoin="round"/>
<path d="M4.12759 16.4996H2.7526" stroke="#292D32" stroke-width="2.02067" stroke-linecap="round" stroke-linejoin="round"/>
</svg>
