<svg width="33" height="33" viewBox="0 0 33 33" fill="none" xmlns="http://www.w3.org/2000/svg">
<path d="M11.4076 22.0007H14.7076C17.4576 22.0007 18.5576 20.9007 18.5576 18.1507V14.8507C18.5576 12.1007 17.4576 11.0007 14.7076 11.0007H11.4076C8.65757 11.0007 7.55757 12.1007 7.55757 14.8507V18.1507C7.55757 20.9007 8.65757 22.0007 11.4076 22.0007Z" stroke="#292D32" stroke-width="2.02067" stroke-linecap="round" stroke-linejoin="round"/>
<path d="M23.3701 27.5007H9.62012C4.12012 27.5007 2.74513 26.1257 2.74513 20.6257V12.3757C2.74513 6.87572 4.12012 5.50072 9.62012 5.50072H23.3701C28.8701 5.50072 30.2451 6.87572 30.2451 12.3757V20.6257C30.2451 26.1257 28.8701 27.5007 23.3701 27.5007Z" stroke="#292D32" stroke-width="2.02067" stroke-linecap="round" stroke-linejoin="round"/>
</svg>
