<svg width="33" height="33" viewBox="0 0 33 33" fill="none" xmlns="http://www.w3.org/2000/svg">
<path d="M18.2838 22.0007H21.5838C24.3338 22.0007 25.4338 20.9007 25.4338 18.1507V14.8507C25.4338 12.1007 24.3338 11.0007 21.5838 11.0007H18.2838C15.5338 11.0007 14.4338 12.1007 14.4338 14.8507V18.1507C14.4338 20.9007 15.5338 22.0007 18.2838 22.0007Z" stroke="#292D32" stroke-width="2.02067" stroke-linecap="round" stroke-linejoin="round"/>
<path d="M23.3716 27.5007H9.62162C4.12162 27.5007 2.74662 26.1257 2.74662 20.6257V12.3757C2.74662 6.87572 4.12162 5.50072 9.62162 5.50072H23.3716C28.8716 5.50072 30.2466 6.87572 30.2466 12.3757V20.6257C30.2466 26.1257 28.8716 27.5007 23.3716 27.5007Z" stroke="#292D32" stroke-width="2.02067" stroke-linecap="round" stroke-linejoin="round"/>
</svg>
