<svg width="33" height="33" viewBox="0 0 33 33" fill="none" xmlns="http://www.w3.org/2000/svg">
<path d="M28.8707 8.22328C24.292 7.76953 19.6857 7.53578 15.0932 7.53578C12.3707 7.53578 9.6482 7.67328 6.92569 7.94828L4.12069 8.22328" stroke="#292D32" stroke-width="2.02067" stroke-linecap="round" stroke-linejoin="round"/>
<path d="M11.6833 6.83387L11.9858 5.03262C12.2058 3.72637 12.3708 2.75011 14.6945 2.75011H18.297C20.6208 2.75011 20.7995 3.78137 21.0058 5.04637L21.3083 6.83387" stroke="#292D32" stroke-width="2.02067" stroke-linecap="round" stroke-linejoin="round"/>
<path d="M25.9122 12.5671L25.0184 26.4134C24.8672 28.5722 24.7434 30.2497 20.9072 30.2497H12.0796C8.24339 30.2497 8.11964 28.5722 7.96839 26.4134L7.07464 12.5671" stroke="#292D32" stroke-width="2.02067" stroke-linecap="round" stroke-linejoin="round"/>
<path d="M14.1966 22.6877H18.7754" stroke="#292D32" stroke-width="2.02067" stroke-linecap="round" stroke-linejoin="round"/>
<path d="M13.0578 17.1877H19.9328" stroke="#292D32" stroke-width="2.02067" stroke-linecap="round" stroke-linejoin="round"/>
</svg>
