<svg width="33" height="33" viewBox="0 0 33 33" fill="none" xmlns="http://www.w3.org/2000/svg">
<path d="M23.3756 30.251H9.62559C4.1256 30.251 2.7506 28.876 2.7506 23.376V20.626C2.7506 15.126 4.1256 13.751 9.62559 13.751H23.3756C28.8755 13.751 30.2505 15.126 30.2505 20.626V23.376C30.2505 28.876 28.8755 30.251 23.3756 30.251Z" stroke="#292D32" stroke-width="2.02067" stroke-linecap="round" stroke-linejoin="round"/>
<path d="M8.25056 13.7511V11.0011C8.25056 6.44984 9.62556 2.7511 16.5005 2.7511C22.688 2.7511 24.7505 5.50109 24.7505 9.62609" stroke="#292D32" stroke-width="2.02067" stroke-linecap="round" stroke-linejoin="round"/>
<path d="M16.5005 25.4384C18.399 25.4384 19.938 23.8994 19.938 22.0009C19.938 20.1025 18.399 18.5635 16.5005 18.5635C14.602 18.5635 13.063 20.1025 13.063 22.0009C13.063 23.8994 14.602 25.4384 16.5005 25.4384Z" stroke="#292D32" stroke-width="2.02067" stroke-linecap="round" stroke-linejoin="round"/>
</svg>
