<svg width="33" height="33" viewBox="0 0 33 33" fill="none" xmlns="http://www.w3.org/2000/svg">
<path d="M16.4972 16.4986C20.2942 16.4986 23.3722 13.4205 23.3722 9.62359C23.3722 5.82664 20.2942 2.74861 16.4972 2.74861C12.7003 2.74861 9.62225 5.82664 9.62225 9.62359C9.62225 13.4205 12.7003 16.4986 16.4972 16.4986Z" stroke="#292D32" stroke-width="2.02067" stroke-linecap="round" stroke-linejoin="round"/>
<path d="M4.68622 30.2485C4.68622 24.9273 9.97995 20.6235 16.4974 20.6235C17.8174 20.6235 19.0962 20.8023 20.2924 21.1323" stroke="#292D32" stroke-width="2.02067" stroke-linecap="round" stroke-linejoin="round"/>
<path d="M30.2466 24.7482C30.2466 25.7795 29.9579 26.7557 29.4491 27.5807C29.1604 28.0757 28.7891 28.5157 28.3629 28.8732C27.4004 29.7395 26.1354 30.2482 24.7466 30.2482C22.7391 30.2482 20.9928 29.1757 20.0441 27.5807C19.5353 26.7557 19.2466 25.7795 19.2466 24.7482C19.2466 23.0157 20.0441 21.462 21.3091 20.4582C22.2579 19.702 23.4541 19.2482 24.7466 19.2482C27.7853 19.2482 30.2466 21.7095 30.2466 24.7482Z" stroke="#292D32" stroke-width="2.02067" stroke-miterlimit="10" stroke-linecap="round" stroke-linejoin="round"/>
<path d="M22.6009 24.7475L23.9621 26.1088L26.8909 23.4001" stroke="#292D32" stroke-width="2.02067" stroke-linecap="round" stroke-linejoin="round"/>
</svg>
