<svg width="33" height="33" viewBox="0 0 33 33" fill="none" xmlns="http://www.w3.org/2000/svg">
<path d="M16.5016 16.4986C20.2985 16.4986 23.3766 13.4205 23.3766 9.62359C23.3766 5.82664 20.2985 2.74861 16.5016 2.74861C12.7046 2.74861 9.62661 5.82664 9.62661 9.62359C9.62661 13.4205 12.7046 16.4986 16.5016 16.4986Z" stroke="#292D32" stroke-width="2.02067" stroke-linecap="round" stroke-linejoin="round"/>
<path d="M26.4147 21.6405L21.5472 26.508C21.3547 26.7005 21.176 27.058 21.1347 27.3192L20.8734 29.1754C20.7772 29.8492 21.2447 30.3167 21.9185 30.2204L23.7747 29.9592C24.0359 29.9179 24.4072 29.7392 24.586 29.5467L29.4534 24.6792C30.2922 23.8405 30.6909 22.8642 29.4534 21.6267C28.2297 20.4029 27.2535 20.8017 26.4147 21.6405Z" stroke="#292D32" stroke-width="2.02067" stroke-miterlimit="10" stroke-linecap="round" stroke-linejoin="round"/>
<path d="M25.7137 22.3417C26.1262 23.8267 27.2812 24.9817 28.7661 25.3942" stroke="#292D32" stroke-width="2.02067" stroke-miterlimit="10" stroke-linecap="round" stroke-linejoin="round"/>
<path d="M4.69058 30.2485C4.69058 24.9273 9.98435 20.6235 16.5018 20.6235C17.9318 20.6235 19.3068 20.8298 20.5855 21.2148" stroke="#292D32" stroke-width="2.02067" stroke-linecap="round" stroke-linejoin="round"/>
</svg>
