<svg width="33" height="33" viewBox="0 0 33 33" fill="none" xmlns="http://www.w3.org/2000/svg">
<path d="M16.5003 16.4986C20.2973 16.4986 23.3753 13.4205 23.3753 9.62359C23.3753 5.82664 20.2973 2.74861 16.5003 2.74861C12.7034 2.74861 9.62536 5.82664 9.62536 9.62359C9.62536 13.4205 12.7034 16.4986 16.5003 16.4986Z" stroke="#292D32" stroke-width="2.02067" stroke-linecap="round" stroke-linejoin="round"/>
<path d="M4.68933 30.2485C4.68933 24.9273 9.98307 20.6235 16.5006 20.6235C17.8205 20.6235 19.0993 20.8023 20.2956 21.1323" stroke="#292D32" stroke-width="2.02067" stroke-linecap="round" stroke-linejoin="round"/>
<path d="M30.2503 24.7485C30.2503 25.1885 30.1953 25.6147 30.0853 26.0272C29.9616 26.5772 29.7416 27.1135 29.4529 27.581C28.5041 29.176 26.7578 30.2485 24.7503 30.2485C23.3341 30.2485 22.0553 29.7122 21.0928 28.8322C20.6803 28.4747 20.3228 28.0485 20.0478 27.581C19.5391 26.756 19.2504 25.7797 19.2504 24.7485C19.2504 23.2635 19.8416 21.9023 20.8041 20.9123C21.8079 19.881 23.2103 19.2485 24.7503 19.2485C26.3728 19.2485 27.8441 19.9498 28.8341 21.0773C29.7141 22.0535 30.2503 23.346 30.2503 24.7485Z" stroke="#292D32" stroke-width="2.02067" stroke-miterlimit="10" stroke-linecap="round" stroke-linejoin="round"/>
<path d="M26.7992 24.7205H22.7017" stroke="#292D32" stroke-width="2.02067" stroke-miterlimit="10" stroke-linecap="round" stroke-linejoin="round"/>
<path d="M24.7508 22.713V26.8243" stroke="#292D32" stroke-width="2.02067" stroke-miterlimit="10" stroke-linecap="round" stroke-linejoin="round"/>
</svg>
