<svg width="22" height="22" viewBox="0 0 22 22" fill="none" xmlns="http://www.w3.org/2000/svg">
<path d="M19.8551 9.56899L18.9568 13.4007C18.1868 16.7098 16.6651 18.0482 13.8051 17.7732C13.3468 17.7365 12.8517 17.654 12.3201 17.5257L10.7801 17.159C6.95758 16.2515 5.77508 14.3632 6.67342 10.5315L7.57175 6.69066C7.75508 5.91149 7.97508 5.23316 8.25008 4.67399C9.32258 2.45566 11.1467 1.85982 14.2084 2.58399L15.7392 2.94149C19.5801 3.83982 20.7534 5.73732 19.8551 9.56899Z" stroke="#933A35" stroke-width="1.20199" stroke-linecap="round" stroke-linejoin="round"/>
<path d="M13.8053 17.7735C13.237 18.1585 12.522 18.4793 11.6511 18.7635L10.2028 19.2401C6.56365 20.4135 4.64781 19.4326 3.46531 15.7935L2.29198 12.1727C1.11865 8.53348 2.09031 6.60848 5.72948 5.43515L7.17781 4.95848C7.55365 4.83932 7.91115 4.73848 8.25031 4.67432C7.97531 5.23348 7.75531 5.91182 7.57198 6.69098L6.67365 10.5318C5.77531 14.3635 6.95781 16.2518 10.7803 17.1593L12.3203 17.526C12.852 17.6543 13.347 17.7368 13.8053 17.7735Z" stroke="#933A35" stroke-width="1.20199" stroke-linecap="round" stroke-linejoin="round"/>
<path d="M11.5874 7.81885L16.0332 8.94635" stroke="#933A35" stroke-width="1.20199" stroke-linecap="round" stroke-linejoin="round"/>
<path d="M10.6885 11.3672L13.3468 12.0455" stroke="#933A35" stroke-width="1.20199" stroke-linecap="round" stroke-linejoin="round"/>
</svg>
